<?xml version="1.0" encoding="UTF-8"?>
<!DOCTYPE svg PUBLIC "-//W3C//DTD SVG 1.1//EN" "http://www.w3.org/Graphics/SVG/1.1/DTD/svg11.dtd">
<svg xmlns="http://www.w3.org/2000/svg" version="1.1" width="512px" height="512px" style="shape-rendering:geometricPrecision; text-rendering:geometricPrecision; image-rendering:optimizeQuality; fill-rule:evenodd; clip-rule:evenodd" xmlns:xlink="http://www.w3.org/1999/xlink">
<g><path style="opacity:1" fill="#00121c" d="M 359.5,148.5 C 354.167,148.5 348.833,148.5 343.5,148.5C 343.5,133.5 343.5,118.5 343.5,103.5C 322.167,103.5 300.833,103.5 279.5,103.5C 279.5,118.5 279.5,133.5 279.5,148.5C 274.167,148.5 268.833,148.5 263.5,148.5C 263.024,128.741 263.524,109.074 265,89.5C 265.75,88.8742 266.584,88.3742 267.5,88C 279.495,87.5001 291.495,87.3335 303.5,87.5C 303.5,74.1667 303.5,60.8333 303.5,47.5C 308.833,47.5 314.167,47.5 319.5,47.5C 319.5,60.8333 319.5,74.1667 319.5,87.5C 331.505,87.3335 343.505,87.5001 355.5,88C 356.416,88.3742 357.25,88.8742 358,89.5C 359.476,109.074 359.976,128.741 359.5,148.5 Z"/></g>
<g><path style="opacity:1" fill="#00c58a" d="M 343.5,148.5 C 343.5,148.833 343.5,149.167 343.5,149.5C 322.167,149.5 300.833,149.5 279.5,149.5C 279.5,149.167 279.5,148.833 279.5,148.5C 279.5,133.5 279.5,118.5 279.5,103.5C 300.833,103.5 322.167,103.5 343.5,103.5C 343.5,118.5 343.5,133.5 343.5,148.5 Z"/></g>
<g><path style="opacity:1" fill="#00121c" d="M 135.5,196.5 C 130.167,196.5 124.833,196.5 119.5,196.5C 119.5,181.5 119.5,166.5 119.5,151.5C 98.1667,151.5 76.8333,151.5 55.5,151.5C 55.5,166.5 55.5,181.5 55.5,196.5C 50.1667,196.5 44.8333,196.5 39.5,196.5C 39.0245,176.741 39.5245,157.074 41,137.5C 41.7504,136.874 42.5838,136.374 43.5,136C 55.4954,135.5 67.4954,135.333 79.5,135.5C 79.5,122.167 79.5,108.833 79.5,95.5C 84.8333,95.5 90.1667,95.5 95.5,95.5C 95.5,108.833 95.5,122.167 95.5,135.5C 107.505,135.333 119.505,135.5 131.5,136C 132.416,136.374 133.25,136.874 134,137.5C 135.476,157.074 135.976,176.741 135.5,196.5 Z"/></g>
<g><path style="opacity:1" fill="#00be87" d="M 279.5,149.5 C 300.833,149.5 322.167,149.5 343.5,149.5C 343.5,161.5 343.5,173.5 343.5,185.5C 322.167,185.5 300.833,185.5 279.5,185.5C 279.5,173.5 279.5,161.5 279.5,149.5 Z"/></g>
<g><path style="opacity:1" fill="#00c58a" d="M 119.5,196.5 C 119.5,196.833 119.5,197.167 119.5,197.5C 98.1667,197.5 76.8333,197.5 55.5,197.5C 55.5,197.167 55.5,196.833 55.5,196.5C 55.5,181.5 55.5,166.5 55.5,151.5C 76.8333,151.5 98.1667,151.5 119.5,151.5C 119.5,166.5 119.5,181.5 119.5,196.5 Z"/></g>
<g><path style="opacity:1" fill="#00111c" d="M 471.5,236.5 C 466.167,236.5 460.833,236.5 455.5,236.5C 455.5,233.5 455.5,230.5 455.5,227.5C 455.5,215.5 455.5,203.5 455.5,191.5C 434.167,191.5 412.833,191.5 391.5,191.5C 391.5,203.5 391.5,215.5 391.5,227.5C 391.5,230.5 391.5,233.5 391.5,236.5C 386.167,236.5 380.833,236.5 375.5,236.5C 375.024,216.741 375.524,197.074 377,177.5C 377.75,176.874 378.584,176.374 379.5,176C 391.495,175.5 403.495,175.333 415.5,175.5C 415.5,162.167 415.5,148.833 415.5,135.5C 420.833,135.5 426.167,135.5 431.5,135.5C 431.5,148.833 431.5,162.167 431.5,175.5C 443.505,175.333 455.505,175.5 467.5,176C 468.416,176.374 469.25,176.874 470,177.5C 471.476,197.074 471.976,216.741 471.5,236.5 Z"/></g>
<g><path style="opacity:1" fill="#00b884" d="M 279.5,185.5 C 300.833,185.5 322.167,185.5 343.5,185.5C 343.5,197.833 343.5,210.167 343.5,222.5C 322.167,222.5 300.833,222.5 279.5,222.5C 279.5,210.167 279.5,197.833 279.5,185.5 Z"/></g>
<g><path style="opacity:1" fill="#00be87" d="M 55.5,197.5 C 76.8333,197.5 98.1667,197.5 119.5,197.5C 119.5,209.5 119.5,221.5 119.5,233.5C 98.1667,233.5 76.8333,233.5 55.5,233.5C 55.5,221.5 55.5,209.5 55.5,197.5 Z"/></g>
<g><path style="opacity:1" fill="#00111c" d="M 247.5,252.5 C 242.167,252.5 236.833,252.5 231.5,252.5C 231.5,249.5 231.5,246.5 231.5,243.5C 231.5,231.5 231.5,219.5 231.5,207.5C 210.167,207.5 188.833,207.5 167.5,207.5C 167.5,219.5 167.5,231.5 167.5,243.5C 167.5,246.5 167.5,249.5 167.5,252.5C 162.167,252.5 156.833,252.5 151.5,252.5C 151.024,232.741 151.524,213.074 153,193.5C 153.75,192.874 154.584,192.374 155.5,192C 167.495,191.5 179.495,191.333 191.5,191.5C 191.5,178.167 191.5,164.833 191.5,151.5C 196.833,151.5 202.167,151.5 207.5,151.5C 207.5,164.833 207.5,178.167 207.5,191.5C 219.505,191.333 231.505,191.5 243.5,192C 244.416,192.374 245.25,192.874 246,193.5C 247.476,213.074 247.976,232.741 247.5,252.5 Z"/></g>
<g><path style="opacity:1" fill="#ff3c5b" d="M 455.5,227.5 C 434.167,227.5 412.833,227.5 391.5,227.5C 391.5,215.5 391.5,203.5 391.5,191.5C 412.833,191.5 434.167,191.5 455.5,191.5C 455.5,203.5 455.5,215.5 455.5,227.5 Z"/></g>
<g><path style="opacity:1" fill="#ff3c5b" d="M 231.5,243.5 C 210.167,243.5 188.833,243.5 167.5,243.5C 167.5,231.5 167.5,219.5 167.5,207.5C 188.833,207.5 210.167,207.5 231.5,207.5C 231.5,219.5 231.5,231.5 231.5,243.5 Z"/></g>
<g><path style="opacity:1" fill="#000b11" d="M 263.5,148.5 C 268.833,148.5 274.167,148.5 279.5,148.5C 279.5,148.833 279.5,149.167 279.5,149.5C 279.5,161.5 279.5,173.5 279.5,185.5C 279.5,197.833 279.5,210.167 279.5,222.5C 279.5,236.833 279.5,251.167 279.5,265.5C 279.5,273.833 279.5,282.167 279.5,290.5C 274.167,290.5 268.833,290.5 263.5,290.5C 263.5,243.167 263.5,195.833 263.5,148.5 Z"/></g>
<g><path style="opacity:1" fill="#000b11" d="M 343.5,148.5 C 348.833,148.5 354.167,148.5 359.5,148.5C 359.5,195.833 359.5,243.167 359.5,290.5C 354.167,290.5 348.833,290.5 343.5,290.5C 343.5,282.167 343.5,273.833 343.5,265.5C 343.5,251.167 343.5,236.833 343.5,222.5C 343.5,210.167 343.5,197.833 343.5,185.5C 343.5,173.5 343.5,161.5 343.5,149.5C 343.5,149.167 343.5,148.833 343.5,148.5 Z"/></g>
<g><path style="opacity:1" fill="#00b281" d="M 279.5,222.5 C 300.833,222.5 322.167,222.5 343.5,222.5C 343.5,236.833 343.5,251.167 343.5,265.5C 322.167,265.5 300.833,265.5 279.5,265.5C 279.5,251.167 279.5,236.833 279.5,222.5 Z"/></g>
<g><path style="opacity:1" fill="#ff3654" d="M 391.5,227.5 C 412.833,227.5 434.167,227.5 455.5,227.5C 455.5,230.5 455.5,233.5 455.5,236.5C 455.5,242.5 455.5,248.5 455.5,254.5C 434.167,254.5 412.833,254.5 391.5,254.5C 391.5,248.5 391.5,242.5 391.5,236.5C 391.5,233.5 391.5,230.5 391.5,227.5 Z"/></g>
<g><path style="opacity:1" fill="#00b884" d="M 55.5,233.5 C 76.8333,233.5 98.1667,233.5 119.5,233.5C 119.5,245.833 119.5,258.167 119.5,270.5C 98.1667,270.5 76.8333,270.5 55.5,270.5C 55.5,258.167 55.5,245.833 55.5,233.5 Z"/></g>
<g><path style="opacity:1" fill="#ff3654" d="M 167.5,243.5 C 188.833,243.5 210.167,243.5 231.5,243.5C 231.5,246.5 231.5,249.5 231.5,252.5C 231.5,258.5 231.5,264.5 231.5,270.5C 210.167,270.5 188.833,270.5 167.5,270.5C 167.5,264.5 167.5,258.5 167.5,252.5C 167.5,249.5 167.5,246.5 167.5,243.5 Z"/></g>
<g><path style="opacity:1" fill="#ff2f4d" d="M 391.5,254.5 C 412.833,254.5 434.167,254.5 455.5,254.5C 455.5,265.167 455.5,275.833 455.5,286.5C 434.167,286.5 412.833,286.5 391.5,286.5C 391.5,275.833 391.5,265.167 391.5,254.5 Z"/></g>
<g><path style="opacity:1" fill="#00ab7d" d="M 279.5,265.5 C 300.833,265.5 322.167,265.5 343.5,265.5C 343.5,273.833 343.5,282.167 343.5,290.5C 343.5,297.5 343.5,304.5 343.5,311.5C 322.167,311.5 300.833,311.5 279.5,311.5C 279.5,304.5 279.5,297.5 279.5,290.5C 279.5,282.167 279.5,273.833 279.5,265.5 Z"/></g>
<g><path style="opacity:1" fill="#000b11" d="M 39.5,196.5 C 44.8333,196.5 50.1667,196.5 55.5,196.5C 55.5,196.833 55.5,197.167 55.5,197.5C 55.5,209.5 55.5,221.5 55.5,233.5C 55.5,245.833 55.5,258.167 55.5,270.5C 55.5,284.833 55.5,299.167 55.5,313.5C 55.5,321.833 55.5,330.167 55.5,338.5C 50.1667,338.5 44.8333,338.5 39.5,338.5C 39.5,291.167 39.5,243.833 39.5,196.5 Z"/></g>
<g><path style="opacity:1" fill="#000b11" d="M 119.5,196.5 C 124.833,196.5 130.167,196.5 135.5,196.5C 135.5,243.833 135.5,291.167 135.5,338.5C 130.167,338.5 124.833,338.5 119.5,338.5C 119.5,330.167 119.5,321.833 119.5,313.5C 119.5,299.167 119.5,284.833 119.5,270.5C 119.5,258.167 119.5,245.833 119.5,233.5C 119.5,221.5 119.5,209.5 119.5,197.5C 119.5,197.167 119.5,196.833 119.5,196.5 Z"/></g>
<g><path style="opacity:1" fill="#00b281" d="M 55.5,270.5 C 76.8333,270.5 98.1667,270.5 119.5,270.5C 119.5,284.833 119.5,299.167 119.5,313.5C 98.1667,313.5 76.8333,313.5 55.5,313.5C 55.5,299.167 55.5,284.833 55.5,270.5 Z"/></g>
<g><path style="opacity:1" fill="#ff2f4d" d="M 167.5,270.5 C 188.833,270.5 210.167,270.5 231.5,270.5C 231.5,281.167 231.5,291.833 231.5,302.5C 210.167,302.5 188.833,302.5 167.5,302.5C 167.5,291.833 167.5,281.167 167.5,270.5 Z"/></g>
<g><path style="opacity:1" fill="#00070a" d="M 263.5,290.5 C 268.833,290.5 274.167,290.5 279.5,290.5C 279.5,297.5 279.5,304.5 279.5,311.5C 300.833,311.5 322.167,311.5 343.5,311.5C 343.5,304.5 343.5,297.5 343.5,290.5C 348.833,290.5 354.167,290.5 359.5,290.5C 359.667,301.505 359.5,312.505 359,323.5C 358.626,324.416 358.126,325.25 357.5,326C 344.933,327.461 332.266,327.961 319.5,327.5C 319.5,340.833 319.5,354.167 319.5,367.5C 314.167,367.5 308.833,367.5 303.5,367.5C 303.5,354.167 303.5,340.833 303.5,327.5C 290.734,327.961 278.067,327.461 265.5,326C 264.874,325.25 264.374,324.416 264,323.5C 263.5,312.505 263.333,301.505 263.5,290.5 Z"/></g>
<g><path style="opacity:1" fill="#ff2947" d="M 391.5,286.5 C 412.833,286.5 434.167,286.5 455.5,286.5C 455.5,295.5 455.5,304.5 455.5,313.5C 434.167,313.5 412.833,313.5 391.5,313.5C 391.5,304.5 391.5,295.5 391.5,286.5 Z"/></g>
<g><path style="opacity:1" fill="#ff2947" d="M 167.5,302.5 C 188.833,302.5 210.167,302.5 231.5,302.5C 231.5,311.5 231.5,320.5 231.5,329.5C 210.167,329.5 188.833,329.5 167.5,329.5C 167.5,320.5 167.5,311.5 167.5,302.5 Z"/></g>
<g><path style="opacity:1" fill="#000b11" d="M 375.5,236.5 C 380.833,236.5 386.167,236.5 391.5,236.5C 391.5,242.5 391.5,248.5 391.5,254.5C 391.5,265.167 391.5,275.833 391.5,286.5C 391.5,295.5 391.5,304.5 391.5,313.5C 391.5,322.5 391.5,331.5 391.5,340.5C 391.5,349.5 391.5,358.5 391.5,367.5C 391.5,371.167 391.5,374.833 391.5,378.5C 386.167,378.5 380.833,378.5 375.5,378.5C 375.5,331.167 375.5,283.833 375.5,236.5 Z"/></g>
<g><path style="opacity:1" fill="#000b11" d="M 455.5,236.5 C 460.833,236.5 466.167,236.5 471.5,236.5C 471.5,283.833 471.5,331.167 471.5,378.5C 466.167,378.5 460.833,378.5 455.5,378.5C 455.5,374.833 455.5,371.167 455.5,367.5C 455.5,358.5 455.5,349.5 455.5,340.5C 455.5,331.5 455.5,322.5 455.5,313.5C 455.5,304.5 455.5,295.5 455.5,286.5C 455.5,275.833 455.5,265.167 455.5,254.5C 455.5,248.5 455.5,242.5 455.5,236.5 Z"/></g>
<g><path style="opacity:1" fill="#00ab7d" d="M 55.5,313.5 C 76.8333,313.5 98.1667,313.5 119.5,313.5C 119.5,321.833 119.5,330.167 119.5,338.5C 119.5,345.5 119.5,352.5 119.5,359.5C 98.1667,359.5 76.8333,359.5 55.5,359.5C 55.5,352.5 55.5,345.5 55.5,338.5C 55.5,330.167 55.5,321.833 55.5,313.5 Z"/></g>
<g><path style="opacity:1" fill="#ff2341" d="M 391.5,313.5 C 412.833,313.5 434.167,313.5 455.5,313.5C 455.5,322.5 455.5,331.5 455.5,340.5C 434.167,340.5 412.833,340.5 391.5,340.5C 391.5,331.5 391.5,322.5 391.5,313.5 Z"/></g>
<g><path style="opacity:1" fill="#000b11" d="M 151.5,252.5 C 156.833,252.5 162.167,252.5 167.5,252.5C 167.5,258.5 167.5,264.5 167.5,270.5C 167.5,281.167 167.5,291.833 167.5,302.5C 167.5,311.5 167.5,320.5 167.5,329.5C 167.5,338.5 167.5,347.5 167.5,356.5C 167.5,365.5 167.5,374.5 167.5,383.5C 167.5,387.167 167.5,390.833 167.5,394.5C 162.167,394.5 156.833,394.5 151.5,394.5C 151.5,347.167 151.5,299.833 151.5,252.5 Z"/></g>
<g><path style="opacity:1" fill="#000b11" d="M 231.5,252.5 C 236.833,252.5 242.167,252.5 247.5,252.5C 247.5,299.833 247.5,347.167 247.5,394.5C 242.167,394.5 236.833,394.5 231.5,394.5C 231.5,390.833 231.5,387.167 231.5,383.5C 231.5,374.5 231.5,365.5 231.5,356.5C 231.5,347.5 231.5,338.5 231.5,329.5C 231.5,320.5 231.5,311.5 231.5,302.5C 231.5,291.833 231.5,281.167 231.5,270.5C 231.5,264.5 231.5,258.5 231.5,252.5 Z"/></g>
<g><path style="opacity:1" fill="#ff2341" d="M 167.5,329.5 C 188.833,329.5 210.167,329.5 231.5,329.5C 231.5,338.5 231.5,347.5 231.5,356.5C 210.167,356.5 188.833,356.5 167.5,356.5C 167.5,347.5 167.5,338.5 167.5,329.5 Z"/></g>
<g><path style="opacity:1" fill="#00070a" d="M 39.5,338.5 C 44.8333,338.5 50.1667,338.5 55.5,338.5C 55.5,345.5 55.5,352.5 55.5,359.5C 76.8333,359.5 98.1667,359.5 119.5,359.5C 119.5,352.5 119.5,345.5 119.5,338.5C 124.833,338.5 130.167,338.5 135.5,338.5C 135.667,349.505 135.5,360.505 135,371.5C 134.626,372.416 134.126,373.25 133.5,374C 120.933,375.461 108.266,375.961 95.5,375.5C 95.5,388.833 95.5,402.167 95.5,415.5C 90.1667,415.5 84.8333,415.5 79.5,415.5C 79.5,402.167 79.5,388.833 79.5,375.5C 66.7335,375.961 54.0668,375.461 41.5,374C 40.8742,373.25 40.3742,372.416 40,371.5C 39.5002,360.505 39.3335,349.505 39.5,338.5 Z"/></g>
<g><path style="opacity:1" fill="#ff1d3b" d="M 391.5,340.5 C 412.833,340.5 434.167,340.5 455.5,340.5C 455.5,349.5 455.5,358.5 455.5,367.5C 434.167,367.5 412.833,367.5 391.5,367.5C 391.5,358.5 391.5,349.5 391.5,340.5 Z"/></g>
<g><path style="opacity:1" fill="#ff1d3b" d="M 167.5,356.5 C 188.833,356.5 210.167,356.5 231.5,356.5C 231.5,365.5 231.5,374.5 231.5,383.5C 210.167,383.5 188.833,383.5 167.5,383.5C 167.5,374.5 167.5,365.5 167.5,356.5 Z"/></g>
<g><path style="opacity:1" fill="#00060a" d="M 375.5,378.5 C 380.833,378.5 386.167,378.5 391.5,378.5C 391.5,385.5 391.5,392.5 391.5,399.5C 412.833,399.5 434.167,399.5 455.5,399.5C 455.5,392.5 455.5,385.5 455.5,378.5C 460.833,378.5 466.167,378.5 471.5,378.5C 471.667,389.505 471.5,400.505 471,411.5C 470.626,412.416 470.126,413.25 469.5,414C 456.933,415.461 444.266,415.961 431.5,415.5C 431.5,428.833 431.5,442.167 431.5,455.5C 426.167,455.5 420.833,455.5 415.5,455.5C 415.5,442.167 415.5,428.833 415.5,415.5C 402.734,415.961 390.067,415.461 377.5,414C 376.874,413.25 376.374,412.416 376,411.5C 375.5,400.505 375.333,389.505 375.5,378.5 Z"/></g>
<g><path style="opacity:1" fill="#ff1734" d="M 391.5,367.5 C 412.833,367.5 434.167,367.5 455.5,367.5C 455.5,371.167 455.5,374.833 455.5,378.5C 455.5,385.5 455.5,392.5 455.5,399.5C 434.167,399.5 412.833,399.5 391.5,399.5C 391.5,392.5 391.5,385.5 391.5,378.5C 391.5,374.833 391.5,371.167 391.5,367.5 Z"/></g>
<g><path style="opacity:1" fill="#00060a" d="M 151.5,394.5 C 156.833,394.5 162.167,394.5 167.5,394.5C 167.5,401.5 167.5,408.5 167.5,415.5C 188.833,415.5 210.167,415.5 231.5,415.5C 231.5,408.5 231.5,401.5 231.5,394.5C 236.833,394.5 242.167,394.5 247.5,394.5C 247.667,405.505 247.5,416.505 247,427.5C 246.626,428.416 246.126,429.25 245.5,430C 232.933,431.461 220.266,431.961 207.5,431.5C 207.5,444.833 207.5,458.167 207.5,471.5C 202.167,471.5 196.833,471.5 191.5,471.5C 191.5,458.167 191.5,444.833 191.5,431.5C 178.734,431.961 166.067,431.461 153.5,430C 152.874,429.25 152.374,428.416 152,427.5C 151.5,416.505 151.333,405.505 151.5,394.5 Z"/></g>
<g><path style="opacity:1" fill="#ff1734" d="M 167.5,383.5 C 188.833,383.5 210.167,383.5 231.5,383.5C 231.5,387.167 231.5,390.833 231.5,394.5C 231.5,401.5 231.5,408.5 231.5,415.5C 210.167,415.5 188.833,415.5 167.5,415.5C 167.5,408.5 167.5,401.5 167.5,394.5C 167.5,390.833 167.5,387.167 167.5,383.5 Z"/></g>
</svg>
