<?xml version="1.0" encoding="utf-8"?>
<!-- Generator: Adobe Illustrator 26.0.1, SVG Export Plug-In . SVG Version: 6.00 Build 0)  -->
<svg version="1.1" id="Layer_1" xmlns="http://www.w3.org/2000/svg" xmlns:xlink="http://www.w3.org/1999/xlink" x="0px" y="0px"
	 viewBox="0 0 3516 1500" style="enable-background:new 0 0 3516 1500;" xml:space="preserve">
<style type="text/css">
	.st0{fill:#63C5DA;}
	.st1{fill:#C7EAEF;}
	.st2{fill:#A0D0D9;}
	.st3{fill:#BDFAFF;}
	.st4{fill:url(#SVGID_1_);}
	.st5{opacity:0.09;}
	.st6{fill:url(#SVGID_00000103241407919363227810000013246349041867532222_);}
	.st7{fill:url(#SVGID_00000041296087772455363660000005365151105772916359_);}
	.st8{fill:#F5F5F5;}
	.st9{fill:#405AD4;}
	.st10{fill:#152D94;}
	.st11{fill:#758FFF;}
	.st12{fill:#1E3FD1;}
	.st13{fill:#244DFF;}
	.st14{fill:#479D4F;}
	.st15{fill:#344DBF;}
	.st16{font-family:'OpenSans-Semibold';}
	.st17{font-size:20.2322px;}
	.st18{letter-spacing:1;}
	.st19{font-family:'OpenSans-Bold';}
	.st20{font-size:31.6937px;}
	.st21{fill:none;stroke:#ADADAD;stroke-width:0.3461;stroke-miterlimit:10;}
	.st22{fill:#E05150;}
	.st23{fill:url(#SVGID_00000024703694669866367900000017441547399448165520_);}
	.st24{fill:none;stroke:#FFFFFF;stroke-width:3;stroke-miterlimit:10;}
	.st25{fill:url(#SVGID_00000119078426830381118410000013040548931439004082_);}
	.st26{fill:none;stroke:#FFFFFF;stroke-miterlimit:10;}
	.st27{fill:url(#SVGID_00000179626774529406138110000015363022525283690125_);}
	.st28{fill:none;stroke:#FFFFFF;stroke-width:4;stroke-miterlimit:10;}
	.st29{fill:url(#SVGID_00000178913700010739296710000018214486740309172899_);}
	.st30{fill:url(#SVGID_00000063594549228975587630000013664044669172930481_);}
	.st31{fill:url(#SVGID_00000067916264806855192750000003811434720675380137_);}
	.st32{fill:url(#SVGID_00000000934596868851736300000013062348498991527845_);}
	.st33{fill:url(#SVGID_00000088830600487347032900000016229924352184915135_);}
	.st34{fill:url(#SVGID_00000049910402400583501160000001797748730221683339_);}
	.st35{fill:url(#SVGID_00000178901809695466482500000009507619694967954609_);}
	.st36{fill:url(#SVGID_00000135682050167177073740000007981181337801170617_);}
	.st37{fill:url(#SVGID_00000103975680529402420560000009616401177174383023_);}
	.st38{fill:url(#SVGID_00000016043210172716590630000014837120289993648032_);}
	.st39{opacity:0.15;}
	.st40{fill:#0072D8;}
	.st41{fill:#B0FC38;}
	.st42{font-size:38.643px;}
	.st43{fill:url(#SVGID_00000150070305349424541010000007280466104358175638_);}
	.st44{fill:url(#SVGID_00000026157864974367769410000016136046932497060743_);}
	.st45{fill:url(#SVGID_00000113343347790882280630000017238121507765912245_);}
	.st46{fill:#FFD991;}
	.st47{fill:#F47627;}
	.st48{fill:url(#SVGID_00000183211538481591100980000007171103691011327165_);}
	.st49{fill:url(#SVGID_00000148638973323742928180000016831399685946313111_);}
	.st50{fill:url(#SVGID_00000065759743078231741190000017667922954468364470_);}
	.st51{fill:url(#SVGID_00000132788667422845098040000010936113935881098940_);}
	.st52{fill:url(#SVGID_00000158708198296724697120000010304468022539325612_);}
	.st53{fill:#2C7591;}
	.st54{fill:#67A4C3;}
	.st55{fill:#A6D5E8;}
	.st56{fill:#F4A6A2;}
	.st57{fill:none;stroke:#C2392D;stroke-width:0.5712;stroke-miterlimit:10;}
	.st58{fill:#FFFFFF;}
	.st59{fill:#0E1D61;}
	.st60{fill:#040E3D;}
	.st61{fill:none;stroke:#B59E69;stroke-width:0.5;stroke-miterlimit:10;}
	.st62{fill:#C2392D;}
	.st63{fill:none;stroke:#344DBF;stroke-width:0.5;stroke-miterlimit:10;}
	.st64{fill:url(#SVGID_00000140002218147799123820000002201404200301766315_);}
	.st65{fill:#D87775;}
	.st66{fill:url(#SVGID_00000142171265968306187150000016496995639202583715_);}
	.st67{fill:url(#SVGID_00000145740017516422182190000013036742443876806801_);}
	.st68{fill:url(#SVGID_00000026144035514282850950000005075893484719653029_);}
	.st69{fill:url(#SVGID_00000021078002400700891500000015344850726291246506_);}
	.st70{fill:url(#SVGID_00000074406073658427564210000007747362919491133593_);}
	.st71{fill:url(#SVGID_00000150078145811563905470000004367857655114168451_);}
	.st72{fill:url(#SVGID_00000072275937653036293000000010071234879890251190_);}
	.st73{fill:#242E30;}
	.st74{fill:#152C96;}
	.st75{fill:#FFAB40;}
	.st76{fill:none;stroke:#0E1D61;stroke-width:0.5547;stroke-miterlimit:10;}
	.st77{fill:none;stroke:#344DBF;stroke-width:0.5547;stroke-miterlimit:10;}
	.st78{fill:#D9D9D9;}
	.st79{fill:#E07775;}
</style>
<path class="st0" d="M2666.76,1084H1059.85V100.53c0-14.84,12.03-26.87,26.87-26.87h1553.16c14.84,0,26.87,12.03,26.87,26.87V1084z"
	/>
<g>
	<path class="st1" d="M2132.14,304.4h-686.32c-7.72,0-14-6.28-14-14V53.68c0-7.72,6.28-14,14-14h686.32c7.72,0,14,6.28,14,14V290.4
		C2146.14,298.12,2139.86,304.4,2132.14,304.4z M1445.82,51.68c-1.1,0-2,0.9-2,2V290.4c0,1.1,0.9,2,2,2h686.32c1.1,0,2-0.9,2-2
		V53.68c0-1.1-0.9-2-2-2H1445.82z"/>
</g>
<path class="st2" d="M1397.65,660.28H974.42c-5.03,0-9.11-4.08-9.11-9.11V280.74c0-5.03,4.08-9.11,9.11-9.11h423.23
	c5.03,0,9.11,4.08,9.11,9.11v370.43C1406.76,656.2,1402.68,660.28,1397.65,660.28z"/>
<path class="st3" d="M2511.46,501.97H2264.9c-4.15,0-7.52-3.36-7.52-7.52V60.48c0-4.15,3.36-7.52,7.52-7.52h246.56
	c4.15,0,7.52,3.36,7.52,7.52v433.98C2518.97,498.6,2515.61,501.97,2511.46,501.97z"/>
<linearGradient id="SVGID_1_" gradientUnits="userSpaceOnUse" x1="2209.6575" y1="818.4418" x2="2209.6575" y2="954.3441">
	<stop  offset="3.729453e-08" style="stop-color:#AEF359"/>
	<stop  offset="1" style="stop-color:#F5F5F5;stop-opacity:0.4"/>
</linearGradient>
<path class="st4" d="M2325.71,847.14c0.61-4.84,0.96-9.76,0.96-14.76c0-5-0.35-9.92-0.96-14.76h-27.55
	c-0.96-5.78-2.46-11.36-4.47-16.72l23.89-13.8c-3.85-9.17-8.85-17.74-14.79-25.54L2279,775.3c-3.69-4.47-7.79-8.58-12.27-12.27
	l13.74-23.79c-7.81-5.94-16.37-10.94-25.54-14.79l-13.8,23.89c-5.35-2.01-10.93-3.51-16.72-4.47v-27.55
	c-4.84-0.61-9.76-0.96-14.76-0.96c-5,0-9.92,0.35-14.76,0.96v27.55c-5.78,0.96-11.36,2.46-16.72,4.47l-13.8-23.89
	c-9.17,3.85-17.74,8.85-25.54,14.79l13.74,23.79c-4.47,3.69-8.58,7.79-12.27,12.27l-23.79-13.74c-5.94,7.81-10.94,16.37-14.79,25.54
	l23.89,13.8c-2.01,5.35-3.51,10.93-4.47,16.72h-27.55c-0.61,4.84-0.96,9.76-0.96,14.76c0,5,0.35,9.92,0.96,14.76h27.55
	c0.96,5.78,2.46,11.36,4.47,16.72l-23.89,13.8c3.85,9.17,8.85,17.74,14.79,25.54l23.79-13.74c3.69,4.47,7.79,8.58,12.27,12.27
	l-13.74,23.79c7.81,5.94,16.37,10.94,25.54,14.79l13.8-23.89c5.35,2.01,10.93,3.51,16.72,4.47v27.55c4.84,0.61,9.76,0.96,14.76,0.96
	c5,0,9.92-0.35,14.76-0.96v-27.55c5.78-0.96,11.36-2.46,16.72-4.47l13.8,23.89c9.17-3.85,17.74-8.85,25.54-14.79l-13.74-23.79
	c4.47-3.69,8.58-7.79,12.27-12.27l23.79,13.74c5.94-7.81,10.94-16.37,14.79-25.54l-23.89-13.8c2.01-5.35,3.51-10.93,4.47-16.72
	H2325.71z M2209.66,872.83c-22.34,0-40.45-18.11-40.45-40.44c0-22.34,18.11-40.45,40.45-40.45c22.34,0,40.45,18.11,40.45,40.45
	C2250.1,854.72,2231.99,872.83,2209.66,872.83z"/>
<path class="st5" d="M2393,813.43H1333.61c-4.42,0-8-3.58-8-8V158.14c0-4.42,3.58-8,8-8H2393c4.42,0,8,3.58,8,8v647.29
	C2401,809.85,2397.41,813.43,2393,813.43z"/>
<linearGradient id="SVGID_00000012466361088121239050000001735872180648609954_" gradientUnits="userSpaceOnUse" x1="2000.358" y1="471.0508" x2="2181.2549" y2="471.0508">
	<stop  offset="0.0713" style="stop-color:#F5F5F5"/>
	<stop  offset="0.1614" style="stop-color:#EEF0F0"/>
	<stop  offset="0.2945" style="stop-color:#DAE2E4"/>
	<stop  offset="0.4544" style="stop-color:#B9CCCF"/>
	<stop  offset="0.6349" style="stop-color:#8CACB3"/>
	<stop  offset="0.8301" style="stop-color:#52858E"/>
	<stop  offset="1" style="stop-color:#1A5E6B"/>
</linearGradient>
<path style="fill:url(#SVGID_00000012466361088121239050000001735872180648609954_);" d="M2385.11,802.7H1325.72c-4.42,0-8-3.58-8-8
	V147.41c0-4.42,3.58-8,8-8h1059.38c4.42,0,8,3.58,8,8V794.7C2393.11,799.11,2389.53,802.7,2385.11,802.7z"/>
<linearGradient id="SVGID_00000000929709042748702910000014683587848692947105_" gradientUnits="userSpaceOnUse" x1="1708.5112" y1="764.8347" x2="1708.5112" y2="451.3809">
	<stop  offset="3.729453e-08" style="stop-color:#AEF359"/>
	<stop  offset="1" style="stop-color:#F5F5F5;stop-opacity:0.4"/>
</linearGradient>
<path style="fill:url(#SVGID_00000000929709042748702910000014683587848692947105_);" d="M2099.3,350.42
	c0,0-121.77,48.12-182.46,144.26c-43.67,69.19-78.49,101.49-137.67,100.62c-59.17-0.87-101.44,0.34-132.84,28.11
	c-31.4,27.77-49.51,105.14-113.51,88.8c-59.8-15.27-156.31-58.43-215.11-33.49v98.2c0,14.23,11.53,25.76,25.76,25.76h755.81V350.42z
	"/>
<path class="st8" d="M2367.35,139.41h-311.55V802.7h311.55c14.23,0,25.76-11.53,25.76-25.76V165.17
	C2393.11,150.94,2381.57,139.41,2367.35,139.41z"/>
<g>
	<g>
		<path class="st9" d="M1466.26,704.27v33.96c-43.65,0-79.04-35.39-79.04-79.04c0-16.83,5.26-32.44,14.27-45.26l27.8,19.45
			c-5.11,7.32-8.12,16.24-8.12,25.81C1421.18,684.11,1441.37,704.27,1466.26,704.27z"/>
		<path class="st10" d="M1545,652.65c0.21,2.17,0.3,4.34,0.3,6.54c0,43.65-35.39,79.04-79.04,79.04v-33.96
			c24.89,0,45.08-20.16,45.08-45.08c0-1.25-0.06-2.5-0.18-3.75L1545,652.65z"/>
		<path class="st11" d="M1545,652.65l-33.84,2.8c-0.8-9.9-4.82-18.94-11.03-25.99l25.51-22.42
			C1536.53,619.44,1543.6,635.23,1545,652.65z"/>
		<path class="st12" d="M1466.26,580.15v33.96c-15.28,0-28.82,7.61-36.96,19.27l-27.8-19.45
			C1415.73,593.5,1439.44,580.15,1466.26,580.15z"/>
		<path class="st13" d="M1525.64,607.03l-25.51,22.42c-8.24-9.4-20.37-15.34-33.87-15.34v-33.96
			C1489.93,580.15,1511.16,590.56,1525.64,607.03z"/>
	</g>
	<g>
		<path class="st12" d="M1685.84,580.15v33.96c-24.92,0-45.11,20.19-45.11,45.08c0,2.74,0.24,5.41,0.71,8l-33.36,6.01
			c-0.86-4.55-1.28-9.22-1.28-14.01C1606.79,615.54,1642.18,580.15,1685.84,580.15z"/>
		<path class="st9" d="M1650.21,686.85l-26.79,20.79c-7.73-9.87-13.08-21.62-15.34-34.44l33.36-6.01
			C1642.75,674.51,1645.81,681.23,1650.21,686.85z"/>
		<path class="st10" d="M1724.08,683.01l28.82,17.96c-13.95,22.36-38.78,37.26-67.06,37.26c-25.4,0-48-11.98-62.42-30.6l26.79-20.79
			c8.24,10.62,21.14,17.43,35.62,17.43C1701.98,704.27,1716.14,695.8,1724.08,683.01z"/>
		<path class="st11" d="M1730.53,665.08l33.6,4.46c-1.46,11.42-5.38,22.06-11.24,31.43l-28.82-17.96
			C1727.44,677.69,1729.7,671.62,1730.53,665.08z"/>
		<path class="st13" d="M1764.85,659.19c0,3.51-0.24,6.96-0.71,10.35l-33.6-4.46c0.27-1.93,0.39-3.9,0.39-5.89
			c0-24.89-20.19-45.08-45.08-45.08v-33.96C1729.46,580.15,1764.85,615.54,1764.85,659.19z"/>
	</g>
	<g>
		<path class="st9" d="M1905.37,704.27v33.96c-21.8,0-41.57-8.86-55.88-23.14c-14.27-14.33-23.14-34.08-23.14-55.91
			c0-13.08,3.18-25.45,8.86-36.31l30.12,15.58c-3.24,6.22-5.06,13.26-5.06,20.73C1860.29,684.11,1880.48,704.27,1905.37,704.27z"/>
		<path class="st10" d="M1949.71,667.58l33.34,6.27c-6.87,36.64-39.01,64.38-77.67,64.38v-33.96
			C1927.43,704.27,1945.78,688.48,1949.71,667.58z"/>
		<path class="st11" d="M1984.41,659.19c0,5-0.48,9.9-1.37,14.66l-33.34-6.27c0.51-2.71,0.77-5.53,0.77-8.39
			c0-16.09-8.45-30.21-21.14-38.18l18.05-28.76C1969.63,606.23,1984.41,630.97,1984.41,659.19z"/>
		<path class="st13" d="M1905.37,580.15c15.43,0,29.86,4.43,42.02,12.1l-18.05,28.76c-6.93-4.37-15.17-6.9-23.97-6.9V580.15z"/>
		<path class="st12" d="M1905.37,580.15v33.96c-17.43,0-32.53,9.9-40.03,24.35l-30.12-15.58
			C1848.33,597.49,1874.83,580.15,1905.37,580.15z"/>
	</g>
</g>
<g>
	<rect x="2176.71" y="283.56" class="st14" width="135.4" height="34.05"/>
	<rect x="2278.06" y="283.56" class="st15" width="34.05" height="34.05"/>
	<g>
		<text transform="matrix(1 0 0 1 2187.9941 307.7256)" class="st8 st16 st17 st18">+0.234</text>
	</g>
	<polygon class="st14" points="2165.7,269.43 2152.92,251.44 2140.14,269.43 2147.24,269.43 2147.24,317.61 2158.6,317.61 
		2158.6,269.43 	"/>
	<g>
		<text transform="matrix(1 0 0 1 2174.3105 275.5674)" class="st15 st19 st20">LOREM</text>
	</g>
	<line class="st21" x1="2136.8" y1="329.99" x2="2312.1" y2="329.99"/>
	<rect x="2176.71" y="374.49" class="st22" width="135.4" height="34.05"/>
	<rect x="2278.06" y="374.49" class="st15" width="34.05" height="34.05"/>
	<g>
		<text transform="matrix(1 0 0 1 2187.9941 398.6543)" class="st8 st16 st17 st18">-0.234</text>
	</g>
	<polygon class="st22" points="2140.14,390.55 2152.92,408.53 2165.7,390.55 2158.6,390.55 2158.6,342.37 2147.24,342.37 
		2147.24,390.55 	"/>
	<g>
		<text transform="matrix(1 0 0 1 2174.3105 366.4941)" class="st15 st19 st20">IPSUM</text>
	</g>
	<line class="st21" x1="2136.8" y1="420.91" x2="2312.1" y2="420.91"/>
	<rect x="2176.71" y="465.41" class="st22" width="135.4" height="34.05"/>
	<rect x="2278.06" y="465.41" class="st15" width="34.05" height="34.05"/>
	<g>
		<text transform="matrix(1 0 0 1 2187.9941 489.5801)" class="st8 st16 st17 st18">-1.234</text>
	</g>
	<polygon class="st22" points="2140.14,481.47 2152.92,499.46 2165.7,481.47 2158.6,481.47 2158.6,433.29 2147.24,433.29 
		2147.24,481.47 	"/>
	<g>
		<text transform="matrix(1 0 0 1 2174.3105 457.4219)" class="st15 st19 st20">DOLOR</text>
	</g>
	<line class="st21" x1="2136.8" y1="511.84" x2="2312.1" y2="511.84"/>
	<rect x="2176.71" y="556.34" class="st14" width="135.4" height="34.05"/>
	<rect x="2278.06" y="556.34" class="st15" width="34.05" height="34.05"/>
	<g>
		<text transform="matrix(1 0 0 1 2187.9941 580.5059)" class="st8 st16 st17 st18">+0.234</text>
	</g>
	<polygon class="st14" points="2165.7,542.21 2152.92,524.22 2140.14,542.21 2147.24,542.21 2147.24,590.39 2158.6,590.39 
		2158.6,542.21 	"/>
	<g>
		<text transform="matrix(1 0 0 1 2174.3105 548.3467)" class="st15 st19 st20">AMET</text>
	</g>
	<line class="st21" x1="2136.8" y1="602.77" x2="2312.1" y2="602.77"/>
	<rect x="2176.71" y="647.27" class="st14" width="135.4" height="34.05"/>
	<rect x="2278.06" y="647.27" class="st15" width="34.05" height="34.05"/>
	<g>
		<text transform="matrix(1 0 0 1 2187.9941 671.4307)" class="st8 st16 st17 st18">+0.234</text>
	</g>
	<polygon class="st14" points="2165.7,633.13 2152.92,615.15 2140.14,633.13 2147.24,633.13 2147.24,681.31 2158.6,681.31 
		2158.6,633.13 	"/>
	<g>
		<text transform="matrix(1 0 0 1 2174.3105 639.2725)" class="st15 st19 st20">VENIAM</text>
	</g>
	<line class="st21" x1="2136.8" y1="693.69" x2="2312.1" y2="693.69"/>
</g>
<g>
	<g>
		
			<linearGradient id="SVGID_00000124142691646713594060000001946588313760721078_" gradientUnits="userSpaceOnUse" x1="2437.8821" y1="1068.931" x2="2437.8821" y2="864.7849">
			<stop  offset="8.524463e-08" style="stop-color:#B0FC38"/>
			<stop  offset="1" style="stop-color:#3CB043"/>
		</linearGradient>
		<path style="fill:url(#SVGID_00000124142691646713594060000001946588313760721078_);" d="M2499.59,770.7
			c0.02,12.78-16.3,28.05-37.48,38.22c-21.19,10.18-36.83,31.45-35.61,69.58c1.22,38.13-6.34,54.21-28.96,66.71
			c-22.62,12.49-32.35,41.09-26.02,63.1c6.33,22-23.01,51.65-15.67,75.69h161.34c0,0,8.8-30.23,0-58.83
			c-8.8-28.6-19.07-30.07-20.53-59.4c-1.47-29.33,19.1-42.53,16.89-64.54c-2.22-22-10.29-19.07-10.29-39.6s5.28-15.78,10.29-30.19
			C2518.55,817.03,2510.59,786.1,2499.59,770.7z"/>
		<path class="st24" d="M2500.32,784.49c0.73,25.08-27.87,52.16-34.47,80.42c-6.6,28.26,7.99,52.65-2.97,77.86
			c-10.96,25.21-27.83,42.81-28.56,67.74c-0.73,24.93,5.13,56.05,0,73.49"/>
	</g>
	<g>
		
			<linearGradient id="SVGID_00000124140282401430900310000012953797264089943995_" gradientUnits="userSpaceOnUse" x1="2612.4038" y1="1050.5376" x2="2718.7415" y2="862.0633">
			<stop  offset="8.524463e-08" style="stop-color:#B0FC38"/>
			<stop  offset="1" style="stop-color:#3CB043"/>
		</linearGradient>
		<path style="fill:url(#SVGID_00000124140282401430900310000012953797264089943995_);" d="M2550.46,1084c0,0-10.76-22.89-4.89-66.4
			s44-42.05,59.16-46.94s23.47-15.16,23.47-34.71c0-19.56,9.78-28.36,30.31-29.33c20.53-0.98,40.09,1.47,46.94-14.67
			c6.84-16.13,37.65-32.27,63.56-25.42c-19.56,9.78-14.67,34.22-14.18,45.47c0.49,11.24-0.49,25.91-23.96,30.31
			c-23.47,4.4-20.53,24.4-13.69,35.67c6.84,11.27,16.62,32.29-9.78,39.13s-43.02,37.47-23.47,66.89H2550.46z"/>
		<path class="st26" d="M2757.72,867.35c-24.89,5.07-27.65,29.95-43.32,46.55c-15.67,16.59-34.1,15.21-43.78,39.17
			c-9.68,23.96-1.57,40.61-14.22,52.54c-12.65,11.92-59.06,46.64-55.37,78.39"/>
	</g>
	<g>
		
			<linearGradient id="SVGID_00000067230371661886920680000009406550198104624562_" gradientUnits="userSpaceOnUse" x1="2450.0925" y1="922.4594" x2="2702.231" y2="922.4594">
			<stop  offset="3.729453e-08" style="stop-color:#3CB043"/>
			<stop  offset="1" style="stop-color:#B0FC38"/>
		</linearGradient>
		<path style="fill:url(#SVGID_00000067230371661886920680000009406550198104624562_);" d="M2684.91,760.92
			c0,0,19.56,18.58,17.11,42.05c-2.44,23.47-21.33,39.73-25.42,58.67c-3.91,18.09,3.91,34.71,6.36,45.47
			c2.44,10.76,2.93,25.91-27.38,36.67c-30.31,10.76-32.76,32.76-19.07,46.93c13.69,14.18,14.67,31.29-17.11,49.38
			c-31.78,18.09-29.43,43.91-29.43,43.91h-138.76c0,0-5.87-3.82,9.29-25.34c15.16-21.51,23.47-30.8,23.47-50.36
			c0-19.56-4.89-32.76,7.82-50.36c12.71-17.6,41.88-17.62,52.8-29.33c10.93-11.72,2.76-47.44,4.89-64.05
			c2.13-16.6,17.11-18.09,39.11-22c22-3.91,28.85-9.78,30.8-26.4c1.96-16.62,12.22-31.29,28.85-35.93
			C2664.86,775.59,2687.84,774.61,2684.91,760.92z"/>
		<path class="st28" d="M2687.11,770.7c2.93,13.2-13.93,22.73-30.07,37.4c-16.13,14.67-29.33,39.6-33.73,58.67
			c-4.4,19.07-21.27,36.58-33.73,55.69c-12.47,19.11-27.45,49.12-32.27,76.31c-8.8,49.62-47.67,85.23-47.67,85.23"/>
	</g>
</g>
<g>
	<g>
		
			<linearGradient id="SVGID_00000093870573556257869060000015087956306542387902_" gradientUnits="userSpaceOnUse" x1="2422.8821" y1="1067.431" x2="2422.8821" y2="863.2849">
			<stop  offset="8.524463e-08" style="stop-color:#B0FC38"/>
			<stop  offset="1" style="stop-color:#3CB043"/>
		</linearGradient>
		<path style="fill:url(#SVGID_00000093870573556257869060000015087956306542387902_);" d="M2484.59,769.2
			c0.02,12.78-16.3,28.05-37.48,38.22c-21.19,10.18-36.83,31.45-35.61,69.58c1.22,38.13-6.34,54.21-28.96,66.71
			c-22.62,12.49-32.35,41.09-26.02,63.1c6.33,22-23.01,51.65-15.67,75.69h161.34c0,0,8.8-30.23,0-58.83
			c-8.8-28.6-19.07-30.07-20.53-59.4c-1.47-29.33,19.1-42.53,16.89-64.54c-2.22-22-10.29-19.07-10.29-39.6s5.28-15.78,10.29-30.19
			C2503.55,815.53,2495.59,784.6,2484.59,769.2z"/>
		<path class="st24" d="M2485.32,782.99c0.73,25.08-27.87,52.16-34.47,80.42c-6.6,28.26,7.99,52.65-2.97,77.86
			c-10.96,25.21-27.83,42.81-28.56,67.74c-0.73,24.93,5.13,56.05,0,73.49"/>
	</g>
	<g>
		
			<linearGradient id="SVGID_00000038382232281681389620000006452168667268931212_" gradientUnits="userSpaceOnUse" x1="2597.4038" y1="1049.0376" x2="2703.7415" y2="860.5633">
			<stop  offset="8.524463e-08" style="stop-color:#B0FC38"/>
			<stop  offset="1" style="stop-color:#3CB043"/>
		</linearGradient>
		<path style="fill:url(#SVGID_00000038382232281681389620000006452168667268931212_);" d="M2535.46,1082.5
			c0,0-10.76-22.89-4.89-66.4s44-42.05,59.16-46.94s23.47-15.16,23.47-34.71c0-19.56,9.78-28.36,30.31-29.33
			c20.53-0.98,40.09,1.47,46.94-14.67c6.84-16.13,37.65-32.27,63.56-25.42c-19.56,9.78-14.67,34.22-14.18,45.47
			c0.49,11.24-0.49,25.91-23.96,30.31c-23.47,4.4-20.53,24.4-13.69,35.67c6.84,11.27,16.62,32.29-9.78,39.13
			s-43.02,37.47-23.47,66.89H2535.46z"/>
		<path class="st26" d="M2742.72,865.85c-24.89,5.07-27.65,29.95-43.32,46.55c-15.67,16.59-34.1,15.21-43.78,39.17
			c-9.68,23.96-1.57,40.61-14.22,52.54c-12.65,11.92-59.06,46.64-55.37,78.39"/>
	</g>
	<g>
		
			<linearGradient id="SVGID_00000150785191103883600860000001833992802519087292_" gradientUnits="userSpaceOnUse" x1="2435.0925" y1="920.9594" x2="2687.231" y2="920.9594">
			<stop  offset="3.729453e-08" style="stop-color:#3CB043"/>
			<stop  offset="1" style="stop-color:#B0FC38"/>
		</linearGradient>
		<path style="fill:url(#SVGID_00000150785191103883600860000001833992802519087292_);" d="M2669.91,759.42
			c0,0,19.56,18.58,17.11,42.05c-2.44,23.47-21.33,39.73-25.42,58.67c-3.91,18.09,3.91,34.71,6.36,45.47
			c2.44,10.76,2.93,25.91-27.38,36.67c-30.31,10.76-32.76,32.76-19.07,46.93c13.69,14.18,14.67,31.29-17.11,49.38
			c-31.78,18.09-29.43,43.91-29.43,43.91h-138.76c0,0-5.87-3.82,9.29-25.34c15.16-21.51,23.47-30.8,23.47-50.36
			c0-19.56-4.89-32.76,7.82-50.36c12.71-17.6,41.88-17.62,52.8-29.33c10.93-11.72,2.76-47.44,4.89-64.05
			c2.13-16.6,17.11-18.09,39.11-22c22-3.91,28.85-9.78,30.8-26.4c1.96-16.62,12.22-31.29,28.85-35.93
			C2649.86,774.09,2672.84,773.11,2669.91,759.42z"/>
		<path class="st28" d="M2672.11,769.2c2.93,13.2-13.93,22.73-30.07,37.4c-16.13,14.67-29.33,39.6-33.73,58.67
			c-4.4,19.07-21.27,36.58-33.73,55.69c-12.47,19.11-27.45,49.12-32.27,76.31c-8.8,49.62-47.67,85.23-47.67,85.23"/>
	</g>
</g>
<g>
	<g>
		
			<linearGradient id="SVGID_00000148656398346203145280000002719871054254763429_" gradientUnits="userSpaceOnUse" x1="1205.8821" y1="1067.431" x2="1205.8821" y2="863.2849" gradientTransform="matrix(-1 0 0 1 2537.6638 0)">
			<stop  offset="8.524463e-08" style="stop-color:#B0FC38"/>
			<stop  offset="1" style="stop-color:#3CB043"/>
		</linearGradient>
		<path style="fill:url(#SVGID_00000148656398346203145280000002719871054254763429_);" d="M1270.08,769.2
			c-0.02,12.78,16.3,28.05,37.48,38.22c21.19,10.18,36.83,31.45,35.61,69.58c-1.22,38.13,6.34,54.21,28.96,66.71
			c22.62,12.49,32.35,41.09,26.02,63.1c-6.33,22,23.01,51.65,15.67,75.69h-161.34c0,0-8.8-30.23,0-58.83
			c8.8-28.6,19.07-30.07,20.53-59.4c1.47-29.33-19.1-42.53-16.89-64.54c2.22-22,10.29-19.07,10.29-39.6s-5.28-15.78-10.29-30.19
			C1251.11,815.53,1259.07,784.6,1270.08,769.2z"/>
		<path class="st24" d="M1269.34,782.99c-0.73,25.08,27.87,52.16,34.47,80.42c6.6,28.26-7.99,52.65,2.97,77.86
			c10.96,25.21,27.83,42.81,28.56,67.74c0.73,24.93-5.13,56.05,0,73.49"/>
	</g>
	<g>
		
			<linearGradient id="SVGID_00000024683563875243150340000011244559406221150117_" gradientUnits="userSpaceOnUse" x1="1380.4038" y1="1049.0376" x2="1486.7415" y2="860.5633" gradientTransform="matrix(-1 0 0 1 2537.6638 0)">
			<stop  offset="8.524463e-08" style="stop-color:#B0FC38"/>
			<stop  offset="1" style="stop-color:#3CB043"/>
		</linearGradient>
		<path style="fill:url(#SVGID_00000024683563875243150340000011244559406221150117_);" d="M1219.21,1082.5
			c0,0,10.76-22.89,4.89-66.4s-44-42.05-59.16-46.94c-15.16-4.89-23.47-15.16-23.47-34.71c0-19.56-9.78-28.36-30.31-29.33
			c-20.53-0.98-40.09,1.47-46.94-14.67c-6.84-16.13-37.65-32.27-63.56-25.42c19.56,9.78,14.67,34.22,14.18,45.47
			c-0.49,11.24,0.49,25.91,23.96,30.31s20.53,24.4,13.69,35.67c-6.84,11.27-16.62,32.29,9.78,39.13
			c26.4,6.84,43.02,37.47,23.47,66.89H1219.21z"/>
		<path class="st26" d="M1011.94,865.85c24.89,5.07,27.65,29.95,43.32,46.55c15.67,16.59,34.1,15.21,43.78,39.17
			c9.68,23.96,1.57,40.61,14.22,52.54c12.65,11.92,59.06,46.64,55.37,78.39"/>
	</g>
	<g>
		
			<linearGradient id="SVGID_00000124878245584366085790000013980155874750570926_" gradientUnits="userSpaceOnUse" x1="1218.0924" y1="920.9594" x2="1470.231" y2="920.9594" gradientTransform="matrix(-1 0 0 1 2537.6638 0)">
			<stop  offset="3.729453e-08" style="stop-color:#3CB043"/>
			<stop  offset="1" style="stop-color:#B0FC38"/>
		</linearGradient>
		<path style="fill:url(#SVGID_00000124878245584366085790000013980155874750570926_);" d="M1084.76,759.42
			c0,0-19.56,18.58-17.11,42.05c2.44,23.47,21.33,39.73,25.42,58.67c3.91,18.09-3.91,34.71-6.36,45.47
			c-2.44,10.76-2.93,25.91,27.38,36.67c30.31,10.76,32.76,32.76,19.07,46.93c-13.69,14.18-14.67,31.29,17.11,49.38
			c31.78,18.09,29.43,43.91,29.43,43.91h138.76c0,0,5.87-3.82-9.29-25.34c-15.16-21.51-23.47-30.8-23.47-50.36
			c0-19.56,4.89-32.76-7.82-50.36c-12.71-17.6-41.88-17.62-52.8-29.33c-10.93-11.72-2.76-47.44-4.89-64.05s-17.11-18.09-39.11-22
			c-22-3.91-28.85-9.78-30.8-26.4c-1.96-16.62-12.22-31.29-28.85-35.93C1104.8,774.09,1081.82,773.11,1084.76,759.42z"/>
		<path class="st28" d="M1082.56,769.2c-2.93,13.2,13.93,22.73,30.07,37.4c16.13,14.67,29.33,39.6,33.73,58.67
			c4.4,19.07,21.27,36.58,33.73,55.69c12.47,19.11,27.45,49.12,32.27,76.31c8.8,49.62,47.67,85.23,47.67,85.23"/>
	</g>
</g>
<path class="st5" d="M2055.46,1127.98h-615.23c-4.51,0-8.16-3.66-8.16-8.16v-260.4c0-4.51,3.66-8.16,8.16-8.16h615.23
	c4.51,0,8.16,3.66,8.16,8.16v260.41C2063.63,1124.33,2059.97,1127.98,2055.46,1127.98z"/>
<path class="st8" d="M2047.63,1120.94h-615.23c-4.51,0-8.16-3.66-8.16-8.16V852.37c0-4.51,3.66-8.16,8.16-8.16h615.23
	c4.51,0,8.16,3.66,8.16,8.16v260.41C2055.79,1117.29,2052.14,1120.94,2047.63,1120.94z"/>
<g>
	<path class="st22" d="M1994.14,900.88h-85.05c-0.69,0-1.25-0.56-1.25-1.25v-17.85c0-0.69,0.56-1.25,1.25-1.25h85.05
		c0.69,0,1.25,0.56,1.25,1.25v17.85C1995.39,900.33,1994.83,900.88,1994.14,900.88z"/>
	<path class="st14" d="M1888.42,900.88h-85.05c-0.69,0-1.25-0.56-1.25-1.25v-17.85c0-0.69,0.56-1.25,1.25-1.25h85.05
		c0.69,0,1.25,0.56,1.25,1.25v17.85C1889.67,900.33,1889.11,900.88,1888.42,900.88z"/>
</g>
<path class="st11" d="M1450.52,1120.94h578.98c14.52,0,26.29-11.77,26.29-26.29V887.27l-147.95,151.25l-61.94-48.91l-73.06,51.62
	l-84.68-111.4l-123.63,110.49l-44.38-42.57l-59.78,69.74l-36.15-43.79v70.93C1424.23,1109.17,1436,1120.94,1450.52,1120.94z"/>
<linearGradient id="SVGID_00000091006417102074273000000013933236506924054954_" gradientUnits="userSpaceOnUse" x1="1442.3014" y1="1110.8096" x2="1442.3014" y2="1057.1838">
	<stop  offset="0" style="stop-color:#344DBF;stop-opacity:0"/>
	<stop  offset="1" style="stop-color:#344DBF"/>
</linearGradient>
<path style="fill:url(#SVGID_00000091006417102074273000000013933236506924054954_);" d="M1424.23,1094.65
	c0,14.52,11.77,26.29,26.29,26.29h9.85v-53.44l-36.15-43.79V1094.65z"/>
<linearGradient id="SVGID_00000061446091394417665500000001072371123893968297_" gradientUnits="userSpaceOnUse" x1="1542.3394" y1="1110.8094" x2="1542.3394" y2="1057.1837">
	<stop  offset="0" style="stop-color:#344DBF;stop-opacity:0"/>
	<stop  offset="1" style="stop-color:#344DBF"/>
</linearGradient>
<polygon style="fill:url(#SVGID_00000061446091394417665500000001072371123893968297_);" points="1520.15,997.77 1564.53,1040.34 
	1564.53,1120.94 1520.15,1120.94 "/>
<linearGradient id="SVGID_00000142895431061565831060000003571946951210610349_" gradientUnits="userSpaceOnUse" x1="1730.4966" y1="1110.8096" x2="1730.4966" y2="1057.1838">
	<stop  offset="0" style="stop-color:#344DBF;stop-opacity:0"/>
	<stop  offset="1" style="stop-color:#344DBF"/>
</linearGradient>
<polygon style="fill:url(#SVGID_00000142895431061565831060000003571946951210610349_);" points="1688.15,929.84 1772.84,1041.24 
	1772.84,1120.94 1688.15,1120.94 "/>
<linearGradient id="SVGID_00000148640858190221213550000007515860822735647409_" gradientUnits="userSpaceOnUse" x1="1876.8685" y1="1110.8096" x2="1876.8685" y2="1057.1837">
	<stop  offset="0" style="stop-color:#344DBF;stop-opacity:0"/>
	<stop  offset="1" style="stop-color:#344DBF"/>
</linearGradient>
<polygon style="fill:url(#SVGID_00000148640858190221213550000007515860822735647409_);" points="1845.9,989.62 1907.84,1038.53 
	1907.84,1120.94 1845.9,1120.94 "/>
<path class="st22" d="M1465.67,1067.03c0,2.93-2.37,5.3-5.3,5.3c-2.93,0-5.3-2.37-5.3-5.3c0-2.93,2.37-5.3,5.3-5.3
	C1463.3,1061.73,1465.67,1064.1,1465.67,1067.03z"/>
<path class="st22" d="M1569.83,1039.64c0,2.93-2.37,5.3-5.3,5.3c-2.93,0-5.3-2.37-5.3-5.3c0-2.93,2.37-5.3,5.3-5.3
	C1567.46,1034.34,1569.83,1036.71,1569.83,1039.64z"/>
<circle class="st22" cx="1772.84" cy="1041.24" r="5.3"/>
<path class="st22" d="M1913.14,1038.53c0,2.93-2.37,5.3-5.3,5.3c-2.93,0-5.3-2.37-5.3-5.3c0-2.93,2.37-5.3,5.3-5.3
	C1910.77,1033.23,1913.14,1035.6,1913.14,1038.53z"/>
<path class="st14" d="M1851.2,989.62c0,2.93-2.37,5.3-5.3,5.3c-2.93,0-5.3-2.37-5.3-5.3c0-2.93,2.37-5.3,5.3-5.3
	C1848.82,984.32,1851.2,986.69,1851.2,989.62z"/>
<circle class="st14" cx="1688.15" cy="929.84" r="5.3"/>
<path class="st14" d="M1525.45,997.77c0,2.93-2.37,5.3-5.3,5.3c-2.93,0-5.3-2.37-5.3-5.3c0-2.93,2.37-5.3,5.3-5.3
	C1523.08,992.47,1525.45,994.84,1525.45,997.77z"/>
<path class="st39" d="M1986.68,527.12h-725.02c-4.87,0-8.82-3.95-8.82-8.82V121.74c0-4.87,3.95-8.82,8.82-8.82h725.02
	c4.87,0,8.82,3.95,8.82,8.82V518.3C1995.51,523.17,1991.56,527.12,1986.68,527.12z"/>
<path class="st40" d="M1979.74,519.76h-726.67c-4.42,0-8-3.58-8-8v-398.2c0-4.42,3.58-8,8-8h726.67c4.42,0,8,3.58,8,8v398.2
	C1987.74,516.17,1984.16,519.76,1979.74,519.76z"/>
<g>
	<g>
		<rect x="1294.41" y="279.75" class="st41" width="7.29" height="148.99"/>
		<rect x="1309.94" y="249.86" class="st41" width="7.29" height="76.05"/>
		<rect x="1325.47" y="196.42" class="st41" width="7.29" height="148.99"/>
		<rect x="1341" y="240.58" class="st41" width="7.29" height="148.99"/>
		<rect x="1356.53" y="232.19" class="st41" width="7.29" height="86.35"/>
		<rect x="1372.06" y="255.29" class="st41" width="7.29" height="78.82"/>
		<rect x="1387.33" y="271.63" class="st41" width="7.29" height="77.18"/>
		<rect x="1403.11" y="326.9" class="st41" width="7.29" height="101.83"/>
		<rect x="1434.17" y="354.24" class="st41" width="7.29" height="74.49"/>
		<rect x="1449.7" y="279.75" class="st41" width="7.29" height="122.25"/>
		<rect x="1465.23" y="228.83" class="st41" width="7.29" height="125.41"/>
		<rect x="1480.76" y="220.21" class="st41" width="7.29" height="63.67"/>
		<rect x="1496.29" y="238.58" class="st41" width="7.29" height="91.43"/>
		<rect x="1511.82" y="279.75" class="st41" width="7.29" height="95.1"/>
		<rect x="1527.35" y="252.04" class="st41" width="7.29" height="96.76"/>
		<rect x="1542.88" y="239.9" class="st41" width="7.29" height="62.04"/>
		<rect x="1558.41" y="251.42" class="st41" width="7.29" height="131.28"/>
		<rect x="1573.94" y="246.97" class="st41" width="7.29" height="121.53"/>
		<rect x="1589.47" y="225.93" class="st41" width="7.29" height="33.59"/>
		<rect x="1605" y="242.56" class="st41" width="7.29" height="64.13"/>
		<rect x="1620.53" y="254.61" class="st41" width="7.29" height="50.27"/>
		<rect x="1636.06" y="277.7" class="st41" width="7.29" height="54.36"/>
		<rect x="1651.59" y="274.31" class="st41" width="7.29" height="67.47"/>
		<rect x="1667.12" y="269.64" class="st41" width="7.29" height="65.36"/>
		<rect x="1682.65" y="279.75" class="st41" width="7.29" height="37.31"/>
		<rect x="1698.18" y="288.43" class="st41" width="7.29" height="71.47"/>
		<rect x="1713.7" y="308.81" class="st41" width="7.29" height="127.99"/>
		<rect x="1729.23" y="316.99" class="st41" width="7.29" height="103.62"/>
		<rect x="1744.76" y="312.65" class="st41" width="7.29" height="36.15"/>
		<rect x="1760.29" y="284.3" class="st41" width="7.29" height="42.61"/>
		<rect x="1775.82" y="291.54" class="st41" width="7.29" height="113.2"/>
		<rect x="1791.35" y="351.3" class="st41" width="7.29" height="105.89"/>
		<rect x="1822.41" y="363.41" class="st41" width="7.29" height="70.49"/>
		<rect x="1837.94" y="326.13" class="st41" width="7.29" height="85.34"/>
		<rect x="1853.47" y="231.44" class="st41" width="7.29" height="119.86"/>
		<rect x="1869" y="209.8" class="st41" width="7.29" height="95.8"/>
		<rect x="1884.53" y="210.67" class="st41" width="7.29" height="42.43"/>
		<rect x="1900.06" y="231.89" class="st41" width="7.29" height="51.62"/>
		<rect x="1915.59" y="200.47" class="st41" width="7.29" height="61.94"/>
		<rect x="1931.12" y="217.04" class="st41" width="7.29" height="71.38"/>
		<rect x="1806.88" y="382.69" class="st41" width="7.29" height="83.29"/>
	</g>
</g>
<path class="st8" d="M1961.98,105.55h-691.14c-14.23,0-25.76,11.53-25.76,25.76v46.69h742.67v-46.69
	C1987.74,117.09,1976.21,105.55,1961.98,105.55z"/>
<text transform="matrix(1 0 0 1 1274.6587 152.6748)" class="st15 st19 st42">STOCKS</text>
<rect x="1418.35" y="396.83" class="st41" width="7.29" height="79.93"/>
<linearGradient id="SVGID_00000134212834625362848590000001448993637393629117_" gradientUnits="userSpaceOnUse" x1="965.3084" y1="311.8965" x2="965.3084" y2="603.2183">
	<stop  offset="3.729453e-08" style="stop-color:#AEF359"/>
	<stop  offset="1" style="stop-color:#F5F5F5;stop-opacity:0.4"/>
</linearGradient>
<polygon style="fill:url(#SVGID_00000134212834625362848590000001448993637393629117_);" points="1044.45,360.52 965.31,249.13 
	886.16,360.52 930.13,360.52 930.13,510.2 1000.48,510.2 1000.48,360.52 "/>
<linearGradient id="SVGID_00000054268063167586930820000007184157050592403643_" gradientUnits="userSpaceOnUse" x1="2700.2385" y1="625.2737" x2="2700.2385" y2="168.6705">
	<stop  offset="3.729453e-08" style="stop-color:#AEF359"/>
	<stop  offset="1" style="stop-color:#F5F5F5;stop-opacity:0.4"/>
</linearGradient>
<polygon style="fill:url(#SVGID_00000054268063167586930820000007184157050592403643_);" points="2620.89,398.86 2700.24,510.53 
	2779.59,398.86 2735.5,398.86 2735.5,248.8 2664.97,248.8 2664.97,398.86 "/>
<g>
	<path class="st1" d="M1186.03,130.32c-31.24,0-56.66-25.42-56.66-56.66S1154.79,17,1186.03,17c31.24,0,56.66,25.42,56.66,56.66
		S1217.28,130.32,1186.03,130.32z M1186.03,23c-27.94,0-50.66,22.73-50.66,50.66c0,27.94,22.73,50.66,50.66,50.66
		s50.66-22.73,50.66-50.66C1236.7,45.73,1213.97,23,1186.03,23z"/>
</g>
<g>
	<g>
		
			<linearGradient id="SVGID_00000085967408006520094040000003515297431783377813_" gradientUnits="userSpaceOnUse" x1="2456.5515" y1="1284.0347" x2="2456.5515" y2="1237.0428">
			<stop  offset="0" style="stop-color:#FF9C08"/>
			<stop  offset="1" style="stop-color:#FFD991"/>
		</linearGradient>
		<path style="fill:url(#SVGID_00000085967408006520094040000003515297431783377813_);" d="M2291.16,1243.16v36.06
			c0,7.61,74.05,13.77,165.39,13.77c91.35,0,165.39-6.17,165.39-13.77v-36.06H2291.16z"/>
		<g>
			<path class="st46" d="M2399.58,1243.16h-2.02v48.93c0.68,0.02,1.34,0.05,2.02,0.07V1243.16z"/>
			<path class="st46" d="M2380.25,1243.16h-2.02v48.2c0.67,0.03,1.35,0.06,2.02,0.09V1243.16z"/>
			<path class="st46" d="M2418.91,1243.16h-2.02v49.44c0.67,0.01,1.35,0.03,2.02,0.04V1243.16z"/>
			<path class="st46" d="M2438.24,1243.16h-2.02v49.73c0.67,0.01,1.34,0.02,2.02,0.02V1243.16z"/>
			<path class="st46" d="M2360.92,1243.16h-2.02v47.18c0.67,0.04,1.35,0.08,2.02,0.12V1243.16z"/>
			<path class="st46" d="M2344.29,1243.16h-2.02v46.02c0.67,0.05,1.34,0.11,2.02,0.16V1243.16z"/>
			<path class="st46" d="M2296.27,1282.63c0.62,0.2,1.3,0.4,2.02,0.6v-40.07h-2.02V1282.63z"/>
			<path class="st46" d="M2306.12,1243.16h-2.02v41.42c0.64,0.13,1.34,0.25,2.02,0.37V1243.16z"/>
			<path class="st46" d="M2315.91,1243.16h-2.02v43.03c0.66,0.09,1.33,0.19,2.02,0.28V1243.16z"/>
			<path class="st46" d="M2328.96,1243.16h-2.02v44.62c0.68,0.07,1.33,0.14,2.02,0.21V1243.16z"/>
			<path class="st46" d="M2476.89,1243.16h-2.02v49.75c0.68-0.01,1.35-0.01,2.02-0.02V1243.16z"/>
			<path class="st46" d="M2457.56,1293v-49.84h-2.02V1293c0.34,0,0.67,0,1.01,0C2456.89,1293,2457.22,1293,2457.56,1293z"/>
			<path class="st46" d="M2599.22,1243.16h-2.02v43.31c0.69-0.09,1.36-0.19,2.02-0.28V1243.16z"/>
			<path class="st46" d="M2609,1243.16h-2.02v41.79c0.68-0.12,1.38-0.25,2.02-0.37V1243.16z"/>
			<path class="st46" d="M2570.84,1243.16h-2.02v46.18c0.68-0.05,1.35-0.11,2.02-0.16V1243.16z"/>
			<path class="st46" d="M2616.83,1243.16h-2.02v40.07c0.72-0.2,1.4-0.4,2.02-0.6V1243.16z"/>
			<path class="st46" d="M2586.17,1243.16h-2.02v44.83c0.69-0.07,1.34-0.14,2.02-0.21V1243.16z"/>
			<path class="st46" d="M2515.54,1243.16h-2.02v49c0.68-0.02,1.34-0.04,2.02-0.07V1243.16z"/>
			<path class="st46" d="M2496.22,1243.16h-2.02v49.48c0.67-0.01,1.35-0.03,2.02-0.04V1243.16z"/>
			<path class="st46" d="M2534.87,1243.16h-2.02v48.29c0.67-0.03,1.36-0.06,2.02-0.09V1243.16z"/>
			<path class="st46" d="M2554.2,1243.16h-2.02v47.3c0.67-0.04,1.35-0.08,2.02-0.12V1243.16z"/>
		</g>
		<ellipse class="st47" cx="2456.55" cy="1243.16" rx="165.39" ry="13.77"/>
	</g>
	<g>
		
			<linearGradient id="SVGID_00000022542761198850822530000015473651011446999229_" gradientUnits="userSpaceOnUse" x1="2461.4785" y1="1242.4606" x2="2461.4785" y2="1195.4688">
			<stop  offset="0" style="stop-color:#FF9C08"/>
			<stop  offset="1" style="stop-color:#FFD991"/>
		</linearGradient>
		<path style="fill:url(#SVGID_00000022542761198850822530000015473651011446999229_);" d="M2296.08,1201.59v36.07
			c0,7.61,74.05,13.77,165.39,13.77c91.35,0,165.39-6.17,165.39-13.77v-36.07H2296.08z"/>
		<g>
			<path class="st46" d="M2404.51,1201.59h-2.02v48.93c0.68,0.02,1.34,0.05,2.02,0.07V1201.59z"/>
			<path class="st46" d="M2385.18,1201.59h-2.02v48.2c0.67,0.03,1.35,0.06,2.02,0.09V1201.59z"/>
			<path class="st46" d="M2423.83,1201.59h-2.02v49.44c0.67,0.01,1.35,0.03,2.02,0.04V1201.59z"/>
			<path class="st46" d="M2443.16,1201.59h-2.02v49.73c0.67,0.01,1.34,0.02,2.02,0.02V1201.59z"/>
			<path class="st46" d="M2365.85,1201.59h-2.02v47.18c0.67,0.04,1.35,0.08,2.02,0.12V1201.59z"/>
			<path class="st46" d="M2349.21,1201.59h-2.02v46.02c0.67,0.05,1.34,0.11,2.02,0.16V1201.59z"/>
			<path class="st46" d="M2301.2,1241.06c0.62,0.2,1.3,0.4,2.02,0.6v-40.07h-2.02V1241.06z"/>
			<path class="st46" d="M2311.05,1201.59h-2.02V1243c0.64,0.13,1.34,0.25,2.02,0.37V1201.59z"/>
			<path class="st46" d="M2320.84,1201.59h-2.02v43.03c0.66,0.09,1.33,0.19,2.02,0.28V1201.59z"/>
			<path class="st46" d="M2333.88,1201.59h-2.02v44.62c0.68,0.07,1.33,0.14,2.02,0.21V1201.59z"/>
			<path class="st46" d="M2481.82,1201.59h-2.02v49.75c0.68-0.01,1.35-0.01,2.02-0.02V1201.59z"/>
			<path class="st46" d="M2462.49,1251.42v-49.84h-2.02v49.84c0.34,0,0.67,0,1.01,0
				C2461.82,1251.43,2462.15,1251.42,2462.49,1251.42z"/>
			<path class="st46" d="M2604.14,1201.59h-2.02v43.31c0.69-0.09,1.36-0.19,2.02-0.28V1201.59z"/>
			<path class="st46" d="M2613.93,1201.59h-2.02v41.79c0.68-0.12,1.38-0.25,2.02-0.37V1201.59z"/>
			<path class="st46" d="M2575.76,1201.59h-2.02v46.18c0.68-0.05,1.35-0.11,2.02-0.16V1201.59z"/>
			<path class="st46" d="M2621.76,1201.59h-2.02v40.07c0.72-0.2,1.4-0.4,2.02-0.6V1201.59z"/>
			<path class="st46" d="M2591.09,1201.59h-2.02v44.83c0.69-0.07,1.34-0.14,2.02-0.21V1201.59z"/>
			<path class="st46" d="M2520.47,1201.59h-2.02v49c0.68-0.02,1.34-0.04,2.02-0.07V1201.59z"/>
			<path class="st46" d="M2501.14,1201.59h-2.02v49.48c0.67-0.01,1.35-0.02,2.02-0.04V1201.59z"/>
			<path class="st46" d="M2539.8,1201.59h-2.02v48.29c0.67-0.03,1.36-0.06,2.02-0.09V1201.59z"/>
			<path class="st46" d="M2559.13,1201.59h-2.02v47.3c0.67-0.04,1.35-0.08,2.02-0.12V1201.59z"/>
		</g>
		<path class="st47" d="M2626.87,1201.59c0,7.61-74.05,13.77-165.39,13.77s-165.39-6.17-165.39-13.77
			c0-7.61,74.05-13.77,165.39-13.77S2626.87,1193.98,2626.87,1201.59z"/>
	</g>
	<g>
		
			<linearGradient id="SVGID_00000075841571933032187940000015986516186596151987_" gradientUnits="userSpaceOnUse" x1="2456.5515" y1="1200.8868" x2="2456.5515" y2="1153.8954">
			<stop  offset="0" style="stop-color:#FF9C08"/>
			<stop  offset="1" style="stop-color:#FFD991"/>
		</linearGradient>
		<path style="fill:url(#SVGID_00000075841571933032187940000015986516186596151987_);" d="M2291.16,1160.01v36.06
			c0,7.61,74.05,13.77,165.39,13.77c91.34,0,165.39-6.17,165.39-13.77v-36.06H2291.16z"/>
		<g>
			<path class="st46" d="M2399.58,1160.01h-2.02v48.93c0.68,0.02,1.34,0.05,2.02,0.07V1160.01z"/>
			<path class="st46" d="M2380.25,1160.01h-2.02v48.2c0.67,0.03,1.35,0.06,2.02,0.09V1160.01z"/>
			<path class="st46" d="M2418.91,1160.01h-2.02v49.44c0.67,0.01,1.35,0.03,2.02,0.04V1160.01z"/>
			<path class="st46" d="M2438.24,1160.01h-2.02v49.73c0.67,0.01,1.34,0.02,2.02,0.02V1160.01z"/>
			<path class="st46" d="M2360.92,1160.01h-2.02v47.18c0.67,0.04,1.35,0.08,2.02,0.12V1160.01z"/>
			<path class="st46" d="M2344.29,1160.01h-2.02v46.02c0.67,0.05,1.34,0.11,2.02,0.16V1160.01z"/>
			<path class="st46" d="M2296.27,1199.49c0.62,0.2,1.3,0.4,2.02,0.6v-40.07h-2.02V1199.49z"/>
			<path class="st46" d="M2306.12,1160.01h-2.02v41.42c0.64,0.13,1.34,0.25,2.02,0.37V1160.01z"/>
			<path class="st46" d="M2315.91,1160.01h-2.02v43.03c0.66,0.09,1.33,0.19,2.02,0.28V1160.01z"/>
			<path class="st46" d="M2328.96,1160.01h-2.02v44.62c0.68,0.07,1.33,0.14,2.02,0.21V1160.01z"/>
			<path class="st46" d="M2476.89,1160.01h-2.02v49.75c0.68-0.01,1.35-0.01,2.02-0.02V1160.01z"/>
			<path class="st46" d="M2457.56,1209.85v-49.84h-2.02v49.84c0.34,0,0.67,0,1.01,0
				C2456.89,1209.85,2457.22,1209.85,2457.56,1209.85z"/>
			<path class="st46" d="M2599.22,1160.01h-2.02v43.31c0.69-0.09,1.36-0.19,2.02-0.28V1160.01z"/>
			<path class="st46" d="M2609,1160.01h-2.02v41.79c0.68-0.12,1.38-0.25,2.02-0.37V1160.01z"/>
			<path class="st46" d="M2570.84,1160.01h-2.02v46.18c0.68-0.05,1.35-0.11,2.02-0.16V1160.01z"/>
			<path class="st46" d="M2616.83,1160.01h-2.02v40.07c0.72-0.2,1.4-0.4,2.02-0.6V1160.01z"/>
			<path class="st46" d="M2586.17,1160.01h-2.02v44.83c0.69-0.07,1.34-0.14,2.02-0.21V1160.01z"/>
			<path class="st46" d="M2515.54,1160.01h-2.02v49c0.68-0.02,1.34-0.04,2.02-0.07V1160.01z"/>
			<path class="st46" d="M2496.22,1160.01h-2.02v49.48c0.67-0.01,1.35-0.03,2.02-0.04V1160.01z"/>
			<path class="st46" d="M2534.87,1160.01h-2.02v48.29c0.67-0.03,1.36-0.06,2.02-0.09V1160.01z"/>
			<path class="st46" d="M2554.2,1160.01h-2.02v47.3c0.67-0.04,1.35-0.08,2.02-0.12V1160.01z"/>
		</g>
		<ellipse class="st47" cx="2456.55" cy="1160.01" rx="165.39" ry="13.77"/>
	</g>
	<g>
		
			<linearGradient id="SVGID_00000004511423183912509150000006603189893668175517_" gradientUnits="userSpaceOnUse" x1="2474.8694" y1="1159.9794" x2="2474.8694" y2="1112.9875">
			<stop  offset="0" style="stop-color:#FF9C08"/>
			<stop  offset="1" style="stop-color:#FFD991"/>
		</linearGradient>
		<path style="fill:url(#SVGID_00000004511423183912509150000006603189893668175517_);" d="M2309.47,1119.1v36.07
			c0,7.61,74.05,13.77,165.39,13.77s165.39-6.17,165.39-13.77v-36.07H2309.47z"/>
		<g>
			<path class="st46" d="M2417.9,1119.1h-2.02v48.93c0.68,0.02,1.34,0.05,2.02,0.07V1119.1z"/>
			<path class="st46" d="M2398.57,1119.1h-2.02v48.2c0.67,0.03,1.35,0.06,2.02,0.09V1119.1z"/>
			<path class="st46" d="M2437.23,1119.1h-2.02v49.44c0.67,0.01,1.35,0.03,2.02,0.04V1119.1z"/>
			<path class="st46" d="M2456.55,1119.1h-2.02v49.73c0.67,0.01,1.34,0.02,2.02,0.02V1119.1z"/>
			<path class="st46" d="M2379.24,1119.1h-2.02v47.18c0.67,0.04,1.35,0.08,2.02,0.12V1119.1z"/>
			<path class="st46" d="M2362.6,1119.1h-2.02v46.02c0.67,0.05,1.34,0.11,2.02,0.16V1119.1z"/>
			<path class="st46" d="M2314.59,1158.58c0.62,0.2,1.3,0.4,2.02,0.6v-40.07h-2.02V1158.58z"/>
			<path class="st46" d="M2324.44,1119.1h-2.02v41.42c0.64,0.13,1.34,0.25,2.02,0.37V1119.1z"/>
			<path class="st46" d="M2334.23,1119.1h-2.02v43.03c0.66,0.09,1.33,0.19,2.02,0.28V1119.1z"/>
			<path class="st46" d="M2347.28,1119.1h-2.02v44.62c0.68,0.07,1.33,0.14,2.02,0.21V1119.1z"/>
			<path class="st46" d="M2495.21,1119.1h-2.02v49.75c0.68-0.01,1.35-0.01,2.02-0.02V1119.1z"/>
			<path class="st46" d="M2475.88,1168.94v-49.84h-2.02v49.84c0.34,0,0.67,0,1.01,0
				C2475.21,1168.94,2475.54,1168.94,2475.88,1168.94z"/>
			<path class="st46" d="M2617.53,1119.1h-2.02v43.31c0.69-0.09,1.36-0.19,2.02-0.28V1119.1z"/>
			<path class="st46" d="M2627.32,1119.1h-2.02v41.79c0.68-0.12,1.38-0.25,2.02-0.37V1119.1z"/>
			<path class="st46" d="M2589.15,1119.1h-2.02v46.18c0.68-0.05,1.35-0.11,2.02-0.16V1119.1z"/>
			<path class="st46" d="M2635.15,1119.1h-2.02v40.07c0.72-0.2,1.4-0.4,2.02-0.6V1119.1z"/>
			<path class="st46" d="M2604.49,1119.1h-2.02v44.83c0.69-0.07,1.34-0.14,2.02-0.21V1119.1z"/>
			<path class="st46" d="M2533.86,1119.1h-2.02v49c0.68-0.02,1.34-0.04,2.02-0.07V1119.1z"/>
			<path class="st46" d="M2514.54,1119.1h-2.02v49.48c0.67-0.01,1.35-0.02,2.02-0.04V1119.1z"/>
			<path class="st46" d="M2553.19,1119.1h-2.02v48.29c0.67-0.03,1.36-0.06,2.02-0.09V1119.1z"/>
			<path class="st46" d="M2572.52,1119.1h-2.02v47.3c0.67-0.04,1.35-0.08,2.02-0.12V1119.1z"/>
		</g>
		<path class="st47" d="M2640.26,1119.1c0,7.61-74.05,13.77-165.39,13.77s-165.39-6.17-165.39-13.77
			c0-7.61,74.05-13.77,165.39-13.77S2640.26,1111.5,2640.26,1119.1z"/>
	</g>
	<g>
		
			<linearGradient id="SVGID_00000179642979267119606320000016975359778060428421_" gradientUnits="userSpaceOnUse" x1="2441.1416" y1="1118.5903" x2="2441.1416" y2="1071.5985">
			<stop  offset="0" style="stop-color:#FF9C08"/>
			<stop  offset="1" style="stop-color:#FFD991"/>
		</linearGradient>
		<path style="fill:url(#SVGID_00000179642979267119606320000016975359778060428421_);" d="M2275.75,1077.72v36.06
			c0,7.61,74.05,13.77,165.39,13.77c91.35,0,165.4-6.17,165.4-13.77v-36.06H2275.75z"/>
		<g>
			<path class="st46" d="M2384.17,1077.72h-2.02v48.93c0.68,0.02,1.34,0.05,2.02,0.07V1077.72z"/>
			<path class="st46" d="M2364.84,1077.72h-2.02v48.2c0.67,0.03,1.35,0.06,2.02,0.09V1077.72z"/>
			<path class="st46" d="M2403.5,1077.72h-2.02v49.44c0.67,0.01,1.35,0.03,2.02,0.04V1077.72z"/>
			<path class="st46" d="M2422.83,1077.72h-2.02v49.73c0.67,0.01,1.34,0.02,2.02,0.02V1077.72z"/>
			<path class="st46" d="M2345.51,1077.72h-2.02v47.18c0.67,0.04,1.35,0.08,2.02,0.12V1077.72z"/>
			<path class="st46" d="M2328.88,1077.72h-2.02v46.02c0.67,0.05,1.34,0.11,2.02,0.16V1077.72z"/>
			<path class="st46" d="M2280.86,1117.19c0.62,0.2,1.3,0.4,2.02,0.6v-40.07h-2.02V1117.19z"/>
			<path class="st46" d="M2290.71,1077.72h-2.02v41.42c0.64,0.13,1.34,0.25,2.02,0.37V1077.72z"/>
			<path class="st46" d="M2300.5,1077.72h-2.02v43.03c0.66,0.09,1.33,0.19,2.02,0.28V1077.72z"/>
			<path class="st46" d="M2313.55,1077.72h-2.02v44.62c0.68,0.07,1.33,0.14,2.02,0.21V1077.72z"/>
			<path class="st46" d="M2461.48,1077.72h-2.02v49.75c0.68-0.01,1.35-0.01,2.02-0.02V1077.72z"/>
			<path class="st46" d="M2442.15,1127.55v-49.84h-2.02v49.84c0.34,0,0.67,0,1.01,0
				C2441.48,1127.56,2441.81,1127.55,2442.15,1127.55z"/>
			<path class="st46" d="M2583.81,1077.72h-2.02v43.31c0.69-0.09,1.36-0.19,2.02-0.28V1077.72z"/>
			<path class="st46" d="M2593.59,1077.72h-2.02v41.79c0.68-0.12,1.38-0.25,2.02-0.37V1077.72z"/>
			<path class="st46" d="M2555.43,1077.72h-2.02v46.18c0.68-0.05,1.35-0.11,2.02-0.16V1077.72z"/>
			<path class="st46" d="M2601.42,1077.72h-2.02v40.07c0.72-0.2,1.4-0.4,2.02-0.6V1077.72z"/>
			<path class="st46" d="M2570.76,1077.72h-2.02v44.83c0.69-0.07,1.34-0.14,2.02-0.21V1077.72z"/>
			<path class="st46" d="M2500.13,1077.72h-2.02v49c0.68-0.02,1.34-0.04,2.02-0.07V1077.72z"/>
			<path class="st46" d="M2480.81,1077.72h-2.02v49.48c0.67-0.01,1.35-0.03,2.02-0.04V1077.72z"/>
			<path class="st46" d="M2519.46,1077.72h-2.02V1126c0.67-0.03,1.36-0.06,2.02-0.09V1077.72z"/>
			<path class="st46" d="M2538.79,1077.72h-2.02v47.3c0.67-0.04,1.35-0.08,2.02-0.12V1077.72z"/>
		</g>
		<ellipse class="st47" cx="2441.14" cy="1077.72" rx="165.39" ry="13.77"/>
	</g>
	<g>
		
			<linearGradient id="SVGID_00000173122627239124102800000000574694495148620717_" gradientUnits="userSpaceOnUse" x1="2454.5327" y1="1074.5526" x2="2454.5327" y2="1027.5609">
			<stop  offset="0" style="stop-color:#FF9C08"/>
			<stop  offset="1" style="stop-color:#FFD991"/>
		</linearGradient>
		<path style="fill:url(#SVGID_00000173122627239124102800000000574694495148620717_);" d="M2289.14,1033.68v36.07
			c0,7.61,74.05,13.77,165.39,13.77c91.34,0,165.39-6.17,165.39-13.77v-36.07H2289.14z"/>
		<g>
			<path class="st46" d="M2397.56,1033.68h-2.02v48.93c0.68,0.02,1.34,0.05,2.02,0.07V1033.68z"/>
			<path class="st46" d="M2378.23,1033.68h-2.02v48.2c0.67,0.03,1.35,0.06,2.02,0.09V1033.68z"/>
			<path class="st46" d="M2416.89,1033.68h-2.02v49.44c0.67,0.01,1.35,0.03,2.02,0.04V1033.68z"/>
			<path class="st46" d="M2436.22,1033.68h-2.02v49.73c0.68,0.01,1.34,0.02,2.02,0.02V1033.68z"/>
			<path class="st46" d="M2358.9,1033.68h-2.02v47.18c0.67,0.04,1.35,0.08,2.02,0.12V1033.68z"/>
			<path class="st46" d="M2342.27,1033.68h-2.02v46.02c0.67,0.05,1.34,0.11,2.02,0.16V1033.68z"/>
			<path class="st46" d="M2294.25,1073.15c0.62,0.2,1.3,0.4,2.02,0.6v-40.07h-2.02V1073.15z"/>
			<path class="st46" d="M2304.1,1033.68h-2.02v41.42c0.64,0.13,1.34,0.25,2.02,0.37V1033.68z"/>
			<path class="st46" d="M2313.89,1033.68h-2.02v43.03c0.66,0.09,1.33,0.19,2.02,0.28V1033.68z"/>
			<path class="st46" d="M2326.94,1033.68h-2.02v44.62c0.68,0.07,1.33,0.14,2.02,0.21V1033.68z"/>
			<path class="st46" d="M2474.87,1033.68h-2.02v49.75c0.68-0.01,1.35-0.01,2.02-0.02V1033.68z"/>
			<path class="st46" d="M2455.54,1083.52v-49.84h-2.02v49.84c0.34,0,0.67,0,1.01,0C2454.87,1083.52,2455.2,1083.52,2455.54,1083.52
				z"/>
			<path class="st46" d="M2597.2,1033.68h-2.02v43.31c0.69-0.09,1.36-0.19,2.02-0.28V1033.68z"/>
			<path class="st46" d="M2606.98,1033.68h-2.02v41.79c0.68-0.12,1.38-0.25,2.02-0.37V1033.68z"/>
			<path class="st46" d="M2568.82,1033.68h-2.02v46.18c0.68-0.05,1.35-0.11,2.02-0.16V1033.68z"/>
			<path class="st46" d="M2614.81,1033.68h-2.02v40.07c0.72-0.2,1.4-0.4,2.02-0.6V1033.68z"/>
			<path class="st46" d="M2584.15,1033.68h-2.02v44.83c0.69-0.07,1.34-0.14,2.02-0.21V1033.68z"/>
			<path class="st46" d="M2513.53,1033.68h-2.02v49c0.68-0.02,1.34-0.04,2.02-0.07V1033.68z"/>
			<path class="st46" d="M2494.2,1033.68h-2.02v49.48c0.67-0.01,1.35-0.03,2.02-0.04V1033.68z"/>
			<path class="st46" d="M2532.85,1033.68h-2.02v48.29c0.67-0.03,1.36-0.06,2.02-0.09V1033.68z"/>
			<path class="st46" d="M2552.18,1033.68h-2.02v47.3c0.67-0.04,1.35-0.08,2.02-0.12V1033.68z"/>
		</g>
		<ellipse class="st47" cx="2454.53" cy="1033.68" rx="165.39" ry="13.77"/>
	</g>
</g>
<g>
	<path class="st53" d="M2067.33,1439.36c0,0,8.67,31.43,10.3,52.57c0,0-14.09,3.79-26.56,0c-12.47-3.79-52.57,13.55-72.62-0.54
		l46.95-28.08c6.95-4.16,11.53-11.35,12.36-19.41l0.85-8.33L2067.33,1439.36z"/>
	<path class="st53" d="M2305.71,1406.76c0,0,16.97,27.84,24.35,47.72c0,0-12.51,7.52-25.53,7.3c-13.03-0.22-46.82,27.47-69.98,19.43
		l37.42-39.9c5.54-5.91,7.97-14.08,6.55-22.06l-1.47-8.25L2305.71,1406.76z"/>
	<path class="st54" d="M2029.74,847.75l-24.71,307.47c-0.46,5.75-0.47,11.53-0.03,17.29l21.01,272.45c0,0,28.9,4.34,49.14,0
		l16.62-278.21l58.8-308.28l-30.66-90.71L2029.74,847.75z"/>
	<path class="st55" d="M2119.29,1022.49l31.28-164.01l-30.66-90.71l-90.18,79.98l-4.55,56.57
		C2049.43,916.77,2098.57,950.11,2119.29,1022.49z"/>
	<path class="st54" d="M2107.01,848.24l60.73,302.43c1.14,5.66,2.72,11.22,4.72,16.63l95.06,256.19c0,0,28.98-3.77,47.25-13.5
		l-60.46-272.07l-28.17-312.57l-54.4-78.79L2107.01,848.24z"/>
	<g>
		<path class="st56" d="M1805.22,600.56l-17.54-24.07c0,0-0.37-8.16-2.56-19.2l4.94-25.07l-3.97,0.57
			c-3.15,0.45-5.77,2.63-6.79,5.64l-5.33,15.74l-32.6-41.06c-1.13-1.42-3.14-1.79-4.69-0.85l0,0c-1.61,0.97-2.21,3.01-1.38,4.7
			l14.42,29.14l-17.07,12.58c-3.17,2.34-4.23,6.54-2.65,10.14c3.75,8.56,12.68,22.74,31.05,24.43l11.03,24.96L1805.22,600.56z"/>
		<path class="st57" d="M1770.45,554.96c0,0-12.23,12.8-2.28,29.04"/>
		<path class="st57" d="M1749.73,546.09l8.13,13.32c2.2,3.6,1.28,8.27-2.1,10.78l-16.73,12.39"/>
		<line class="st57" x1="1742.78" y1="553.01" x2="1754.38" y2="571.22"/>
		<line class="st57" x1="1735.05" y1="559.15" x2="1746.65" y2="577.35"/>
	</g>
	<polygon class="st58" points="1810.72,598.05 1799.81,581.51 1759.06,604.16 1767.36,623.34 	"/>
	<path class="st59" d="M1976.88,560.84c-26.01,20.05-91.05,125.74-91.05,125.74l-75.87-93.76l-48.23,27.1
		c0,0,37.94,88.46,65.58,136.37c27.64,47.9,93.22,58.56,123.57,1.28c25.65-48.41,64.49-134.93,64.49-134.93L1976.88,560.84z"/>
	<path class="st60" d="M1871.47,711.5l14.36-24.93l-21.41-26.46C1868.07,683.6,1871.47,711.5,1871.47,711.5z"/>
	<path class="st60" d="M1971.64,716.29c16.05-33.03,32.17-68.2,39.54-84.45l-25.28-43.55
		C1985.91,588.3,1977.25,686.03,1971.64,716.29L1971.64,716.29z"/>
	<path class="st59" d="M2111.68,876.49l9.03-65.81l18.12,64.94c3.54,12.7,16.38,20.5,29.27,17.74
		c50.5-10.78,81.93-32.28,81.93-32.28l-33.24-91.77l15.9-229.88c-52.03-20.32-122.97-26.65-122.97-26.65
		c-87.86,9.57-132.84,48.05-132.84,48.05l57.81,230.15l-23.85,88.97c25.85,10.16,50.58,15.69,73.69,18.02
		C2097.87,899.33,2109.85,889.78,2111.68,876.49z"/>
	<path class="st58" d="M2135.32,526.15l-14.75-22.59l-42.54,4.74l-9.57,24.35c0,0,18.97,156.08,48.23,249.84
		C2145.43,690.37,2135.32,526.15,2135.32,526.15z"/>
	<polyline class="st61" points="2107.17,547.9 2119.77,555.35 2131.91,530.31 	"/>
	<polyline class="st61" points="2086.4,552.14 2081.3,559.02 2072.62,546.75 	"/>
	<path class="st62" d="M2134.44,673.09c-11.05-40.59-26.57-97.52-30.2-110.45l5.48-14.45l-10.71-6.27
		c-2.41-1.41-5.51-0.78-7.17,1.48l-6.84,9.31l7.52,11.65c0,0,0.68,71.18,2.4,130.42c6.35,30.93,13.67,61.72,21.79,87.72
		C2126.45,751.25,2131.72,711.71,2134.44,673.09z"/>
	<path class="st63" d="M2063.7,521.06l-33.96,47.51l36.21,63.98l-19.51,34.72c0,0,45.97,91.4,63.28,115.23"/>
	<path class="st63" d="M2141.36,516.82l34.96,37.34l-23.85,72.26l26.56,25.37c0,0-41.98,101.45-56.91,130.72"/>
	<polygon class="st60" points="2196.83,588.3 2189.88,613.95 2216.79,769.31 2225.06,649.66 	"/>
	<g>
		
			<linearGradient id="SVGID_00000080900524779482675420000016028168742237398662_" gradientUnits="userSpaceOnUse" x1="2206.3511" y1="930.9308" x2="2206.3511" y2="692.856">
			<stop  offset="0" style="stop-color:#FF9C08"/>
			<stop  offset="1" style="stop-color:#FFD991"/>
		</linearGradient>
		<circle style="fill:url(#SVGID_00000080900524779482675420000016028168742237398662_);" cx="2206.35" cy="832.35" r="107.89"/>
		<path class="st46" d="M2206.35,743.37c-49.14,0-88.98,39.84-88.98,88.98c0,49.14,39.84,88.98,88.98,88.98s88.98-39.84,88.98-88.98
			C2295.33,783.21,2255.49,743.37,2206.35,743.37z M2206.35,913.31c-44.71,0-80.96-36.25-80.96-80.96
			c0-44.71,36.25-80.96,80.96-80.96c44.71,0,80.96,36.25,80.96,80.96C2287.31,877.06,2251.06,913.31,2206.35,913.31z"/>
		<g>
			<path class="st47" d="M2236.77,848.14c0,6.42-2.32,11.58-6.97,15.48c-4.65,3.9-11.15,6.23-19.51,7v12.42h-8.3v-12.18
				c-9.86-0.2-18.5-1.94-25.93-5.21v-16c3.51,1.74,7.75,3.27,12.69,4.61s9.36,2.12,13.24,2.36v-18.78l-4.06-1.58
				c-8-3.15-13.66-6.57-17-10.27c-3.33-3.7-5-8.27-5-13.72c0-5.86,2.29-10.67,6.88-14.45c4.58-3.78,10.98-6.07,19.18-6.88v-9.27h8.3
				v9.03c9.25,0.4,17.61,2.26,25.09,5.57l-5.7,14.18c-6.3-2.59-12.76-4.16-19.39-4.73v17.87c7.88,3.03,13.48,5.66,16.81,7.88
				c3.33,2.22,5.78,4.67,7.33,7.33C2235.99,841.47,2236.77,844.58,2236.77,848.14z M2194.17,812.26c0,1.78,0.62,3.24,1.85,4.39
				c1.23,1.15,3.22,2.33,5.97,3.54v-14.24C2196.78,806.73,2194.17,808.83,2194.17,812.26z M2218.53,849.04c0-1.7-0.69-3.13-2.06-4.3
				c-1.37-1.17-3.43-2.38-6.18-3.64v15.09C2215.78,855.27,2218.53,852.88,2218.53,849.04z"/>
		</g>
		<g>
			<path class="st46" d="M2155.24,759.54l-11.12-15.3c-0.79,0.56-1.59,1.1-2.36,1.68l11.12,15.31
				C2153.66,760.65,2154.45,760.09,2155.24,759.54z"/>
			<path class="st46" d="M2167.25,752.42l-8.59-16.85c-0.86,0.43-1.72,0.87-2.57,1.32l8.59,16.85
				C2165.52,753.29,2166.38,752.84,2167.25,752.42z"/>
			<path class="st46" d="M2118.72,817.01l-18.68-2.96c-0.16,0.95-0.32,1.9-0.46,2.85l18.69,2.96
				C2118.4,818.91,2118.55,817.96,2118.72,817.01z"/>
			<path class="st46" d="M2193.86,744.26l-2.96-18.69c-0.96,0.14-1.9,0.3-2.85,0.46l2.96,18.68
				C2191.96,744.55,2192.91,744.4,2193.86,744.26z"/>
			<path class="st46" d="M2180.23,747.28l-5.85-18c-0.92,0.29-1.83,0.61-2.74,0.92l5.85,17.99
				C2178.4,747.88,2179.3,747.56,2180.23,747.28z"/>
			<path class="st46" d="M2144.48,768.44l-13.38-13.38c-0.69,0.67-1.37,1.36-2.05,2.05l13.38,13.38
				C2143.11,769.79,2143.79,769.11,2144.48,768.44z"/>
			<path class="st46" d="M2122.19,803.49l-17.99-5.85c-0.31,0.91-0.63,1.82-0.92,2.74l18,5.85
				C2121.56,805.31,2121.88,804.4,2122.19,803.49z"/>
			<path class="st46" d="M2135.23,778.89l-15.31-11.12c-0.58,0.77-1.12,1.57-1.68,2.36l15.3,11.12
				C2134.09,780.45,2134.65,779.66,2135.23,778.89z"/>
			<path class="st46" d="M2206.35,743.37c0.48,0,0.96,0.03,1.45,0.04v-18.92c-0.48-0.01-0.96-0.04-1.45-0.04s-0.96,0.03-1.45,0.04
				v18.92C2205.39,743.4,2205.87,743.37,2206.35,743.37z"/>
			<path class="st46" d="M2127.74,790.67l-16.85-8.59c-0.45,0.85-0.89,1.71-1.32,2.57l16.85,8.59
				C2126.84,792.38,2127.29,791.52,2127.74,790.67z"/>
			<path class="st46" d="M2235.22,748.19l5.85-17.99c-0.91-0.31-1.82-0.64-2.74-0.92l-5.85,18
				C2233.4,747.56,2234.31,747.88,2235.22,748.19z"/>
			<path class="st46" d="M2221.69,744.72l2.96-18.68c-0.95-0.16-1.9-0.32-2.85-0.46l-2.96,18.69
				C2219.8,744.4,2220.75,744.55,2221.69,744.72z"/>
			<path class="st46" d="M2286.28,793.24l16.85-8.59c-0.43-0.86-0.87-1.72-1.32-2.57l-16.85,8.59
				C2285.42,791.52,2285.86,792.38,2286.28,793.24z"/>
			<path class="st46" d="M2291.42,806.23l18-5.85c-0.29-0.92-0.61-1.83-0.92-2.74l-17.99,5.85
				C2290.83,804.4,2291.14,805.31,2291.42,806.23z"/>
			<path class="st46" d="M2294.44,819.86l18.69-2.96c-0.14-0.96-0.3-1.9-0.46-2.85l-18.68,2.96
				C2294.15,817.96,2294.3,818.91,2294.44,819.86z"/>
			<path class="st46" d="M2279.16,781.24l15.3-11.12c-0.56-0.79-1.1-1.59-1.68-2.36l-15.31,11.12
				C2278.05,779.66,2278.61,780.45,2279.16,781.24z"/>
			<path class="st46" d="M2248.03,753.74l8.59-16.85c-0.85-0.45-1.71-0.89-2.57-1.32l-8.59,16.85
				C2246.32,752.84,2247.18,753.29,2248.03,753.74z"/>
			<path class="st46" d="M2270.27,770.48l13.38-13.38c-0.67-0.69-1.36-1.37-2.05-2.05l-13.38,13.38
				C2268.91,769.11,2269.6,769.79,2270.27,770.48z"/>
			<path class="st46" d="M2117.37,832.35c0-0.48,0.03-0.96,0.04-1.45h-18.92c-0.01,0.48-0.04,0.96-0.04,1.45
				c0,0.48,0.03,0.96,0.04,1.45h18.92C2117.4,833.31,2117.37,832.84,2117.37,832.35z"/>
			<path class="st46" d="M2259.81,761.23l11.12-15.31c-0.77-0.58-1.57-1.12-2.36-1.68l-11.12,15.3
				C2258.25,760.09,2259.04,760.65,2259.81,761.23z"/>
			<path class="st46" d="M2293.98,847.69l18.68,2.96c0.16-0.95,0.32-1.9,0.46-2.85l-18.69-2.96
				C2294.3,845.8,2294.15,846.75,2293.98,847.69z"/>
			<path class="st46" d="M2257.46,905.16l11.12,15.3c0.79-0.56,1.59-1.1,2.36-1.68l-11.12-15.31
				C2259.04,904.05,2258.25,904.61,2257.46,905.16z"/>
			<path class="st46" d="M2268.22,896.27l13.38,13.38c0.69-0.67,1.37-1.36,2.05-2.05l-13.38-13.38
				C2269.6,894.91,2268.91,895.6,2268.22,896.27z"/>
			<path class="st46" d="M2245.46,912.28l8.59,16.85c0.86-0.43,1.72-0.87,2.57-1.32l-8.59-16.85
				C2247.18,911.42,2246.32,911.86,2245.46,912.28z"/>
			<path class="st46" d="M2232.47,917.42l5.85,18c0.92-0.29,1.83-0.61,2.74-0.92l-5.85-17.99
				C2234.31,916.83,2233.4,917.14,2232.47,917.42z"/>
			<path class="st46" d="M2277.47,885.81l15.31,11.12c0.58-0.77,1.12-1.57,1.68-2.36l-15.3-11.12
				C2278.61,884.25,2278.05,885.04,2277.47,885.81z"/>
			<path class="st46" d="M2290.51,861.22l17.99,5.85c0.31-0.91,0.63-1.82,0.92-2.74l-18-5.85
				C2291.14,859.4,2290.83,860.31,2290.51,861.22z"/>
			<path class="st46" d="M2314.21,830.91h-18.92c0.01,0.48,0.04,0.96,0.04,1.45c0,0.48-0.03,0.96-0.04,1.45h18.92
				c0.01-0.48,0.04-0.96,0.04-1.45C2314.24,831.87,2314.21,831.39,2314.21,830.91z"/>
			<path class="st46" d="M2284.97,874.03l16.85,8.59c0.45-0.85,0.89-1.71,1.32-2.57l-16.85-8.59
				C2285.86,872.32,2285.42,873.18,2284.97,874.03z"/>
			<path class="st46" d="M2218.84,920.44l2.96,18.69c0.96-0.14,1.9-0.3,2.85-0.46l-2.96-18.68
				C2220.75,920.15,2219.8,920.3,2218.84,920.44z"/>
			<path class="st46" d="M2118.26,844.84l-18.69,2.96c0.14,0.96,0.3,1.9,0.46,2.85l18.68-2.96
				C2118.55,846.75,2118.4,845.8,2118.26,844.84z"/>
			<path class="st46" d="M2126.42,871.46l-16.85,8.59c0.43,0.86,0.87,1.72,1.32,2.57l16.85-8.59
				C2127.29,873.18,2126.84,872.32,2126.42,871.46z"/>
			<path class="st46" d="M2142.44,894.22l-13.38,13.38c0.67,0.69,1.36,1.37,2.05,2.05l13.38-13.38
				C2143.79,895.6,2143.11,894.91,2142.44,894.22z"/>
			<path class="st46" d="M2206.35,921.33c-0.48,0-0.96-0.03-1.45-0.04v18.92c0.48,0.01,0.96,0.04,1.45,0.04s0.96-0.03,1.45-0.04
				v-18.92C2207.31,921.3,2206.84,921.33,2206.35,921.33z"/>
			<path class="st46" d="M2121.28,858.47l-18,5.85c0.29,0.92,0.61,1.83,0.92,2.74l17.99-5.85
				C2121.88,860.31,2121.56,859.4,2121.28,858.47z"/>
			<path class="st46" d="M2133.54,883.46l-15.3,11.12c0.56,0.79,1.1,1.59,1.68,2.36l15.31-11.12
				C2134.65,885.04,2134.09,884.25,2133.54,883.46z"/>
			<path class="st46" d="M2191.01,919.98l-2.96,18.68c0.95,0.16,1.9,0.32,2.85,0.46l2.96-18.69
				C2192.91,920.3,2191.96,920.15,2191.01,919.98z"/>
			<path class="st46" d="M2177.49,916.51l-5.85,17.99c0.91,0.31,1.82,0.63,2.74,0.92l5.85-18
				C2179.31,917.14,2178.4,916.83,2177.49,916.51z"/>
			<path class="st46" d="M2164.67,910.97l-8.59,16.85c0.85,0.45,1.71,0.89,2.57,1.32l8.59-16.85
				C2166.38,911.86,2165.52,911.42,2164.67,910.97z"/>
			<path class="st46" d="M2152.89,903.47l-11.12,15.31c0.77,0.58,1.57,1.12,2.36,1.68l11.12-15.3
				C2154.45,904.61,2153.66,904.05,2152.89,903.47z"/>
		</g>
	</g>
	<path class="st56" d="M2232.47,882.09l-10.65,22.28c0,0,1.85,36.67-14.94,44.76c0,0-7.19,1.06-8.79-3.39
		c-7.47,4.24-10.5-1.48-10.5-1.48s-9.32,1.57-10.23-3.81c-5.98,2.81-11.67-0.36-12.35-4.27c-0.66-3.76,15.23-7.33,17.2-24.77
		c0,0-8.65-1.42-14.89,4.81c-1.56,1.56-4.27,1.39-5.83-0.16l-2.16-2.16c0,0,11.64-17.04,27.48-17.87c2.63-0.14,5.04-1.48,6.3-3.79
		l11.79-21.59L2232.47,882.09z"/>
	<path class="st59" d="M2064.31,441.97c-24.03-1.45-21.44-29.98-6.32-36.31c7.43-3.11,11.56-0.42,13.77,2.58
		c2.17,2.95,5.94,4.23,9.56,3.68c8.63-1.31,22.94-2.57,31.59,1.51c13.01,6.14,8.85,17.89,8.85,17.89s9.5,2.3,10.12,10.66
		c1.26,17.16-18.43,29.81-18.43,29.81L2064.31,441.97z"/>
	<path class="st56" d="M2064.31,441.97l2.71,16.98c0,0-5.03,10.18-2.71,21.14c2.66,12.6,12.1,15.72,12.1,15.72l3,23.19
		c0.62,4.77,3.3,9.03,7.33,11.65l8.1,5.26l15.84-11.49c6.42-4.66,9.34-12.78,7.35-20.46l-6.93-26.76c0,0,8.13-1.63,9.76-8.85
		c1.63-7.23-4.7-14.99-12.83-5.96c0,0-3.79-9.94,0.36-20.41c-14.09,6.5-27.64,3.79-13.37-7.77
		C2075.51,444.13,2064.31,441.97,2064.31,441.97z"/>
	<path class="st65" d="M2076.42,495.8c6.96,3.39,20.23,0.41,26.19-6.1c0,0-1.86,17.2-24.77,17.07L2076.42,495.8z"/>
	<path class="st59" d="M2232.68,539.43c22.72,11.15,63.73,88.45,90.33,148.58c12.27,27.74,10.01,59.75-5.84,85.61l-79.59,129.87
		l-46.13-23.53L2244,733.72c0,0-38.87-84.55-51.11-110.02C2180.66,598.23,2198,539.7,2232.68,539.43z"/>
</g>
<g>
	<g>
		
			<linearGradient id="SVGID_00000129887661937824711200000004206545383102726830_" gradientUnits="userSpaceOnUse" x1="889.9883" y1="1393.36" x2="889.9883" y2="1336.2123">
			<stop  offset="0" style="stop-color:#FF9C08"/>
			<stop  offset="1" style="stop-color:#FFD991"/>
		</linearGradient>
		<path style="fill:url(#SVGID_00000129887661937824711200000004206545383102726830_);" d="M688.85,1343.65v43.86
			c0,9.25,90.05,16.75,201.14,16.75c111.09,0,201.14-7.5,201.14-16.75v-43.86H688.85z"/>
		<g>
			<path class="st46" d="M820.71,1343.65h-2.46v59.51c0.82,0.03,1.63,0.06,2.46,0.08V1343.65z"/>
			<path class="st46" d="M797.2,1343.65h-2.46v58.62c0.81,0.04,1.64,0.07,2.46,0.1V1343.65z"/>
			<path class="st46" d="M844.21,1343.65h-2.46v60.12c0.81,0.02,1.64,0.03,2.46,0.05V1343.65z"/>
			<path class="st46" d="M867.71,1343.65h-2.46v60.48c0.82,0.01,1.63,0.02,2.46,0.03V1343.65z"/>
			<path class="st46" d="M773.69,1343.65h-2.46v57.38c0.81,0.05,1.64,0.1,2.46,0.15V1343.65z"/>
			<path class="st46" d="M753.46,1343.65H751v55.96c0.82,0.07,1.63,0.13,2.46,0.2V1343.65z"/>
			<path class="st46" d="M695.07,1391.66c0.75,0.24,1.58,0.49,2.46,0.73v-48.73h-2.46V1391.66z"/>
			<path class="st46" d="M707.05,1343.65h-2.46v50.37c0.78,0.15,1.63,0.3,2.46,0.45V1343.65z"/>
			<path class="st46" d="M718.95,1343.65h-2.46v52.33c0.81,0.11,1.62,0.23,2.46,0.34V1343.65z"/>
			<path class="st46" d="M734.82,1343.65h-2.46v54.26c0.82,0.09,1.61,0.18,2.46,0.26V1343.65z"/>
			<path class="st46" d="M914.72,1343.65h-2.46v60.51c0.82-0.01,1.64-0.02,2.46-0.03V1343.65z"/>
			<path class="st46" d="M891.22,1404.26v-60.61h-2.46v60.61c0.41,0,0.82,0,1.23,0C890.4,1404.26,890.81,1404.26,891.22,1404.26z"/>
			<path class="st46" d="M1063.49,1343.65h-2.46v52.67c0.84-0.11,1.65-0.23,2.46-0.34V1343.65z"/>
			<path class="st46" d="M1075.39,1343.65h-2.46v50.82c0.83-0.15,1.68-0.3,2.46-0.45V1343.65z"/>
			<path class="st46" d="M1028.97,1343.65h-2.46v56.16c0.83-0.06,1.64-0.13,2.46-0.2V1343.65z"/>
			<path class="st46" d="M1084.91,1343.65h-2.46v48.73c0.88-0.24,1.71-0.48,2.46-0.73V1343.65z"/>
			<path class="st46" d="M1047.62,1343.65h-2.46v54.52c0.84-0.08,1.63-0.17,2.46-0.26V1343.65z"/>
			<path class="st46" d="M961.73,1343.65h-2.46v59.59c0.83-0.03,1.63-0.05,2.46-0.08V1343.65z"/>
			<path class="st46" d="M938.23,1343.65h-2.46v60.17c0.82-0.02,1.64-0.03,2.46-0.05V1343.65z"/>
			<path class="st46" d="M985.24,1343.65h-2.46v58.72c0.82-0.04,1.65-0.07,2.46-0.1V1343.65z"/>
			<path class="st46" d="M1008.74,1343.65h-2.46v57.52c0.82-0.05,1.65-0.1,2.46-0.15V1343.65z"/>
		</g>
		<ellipse class="st47" cx="889.99" cy="1343.65" rx="201.14" ry="16.75"/>
	</g>
	<g>
		
			<linearGradient id="SVGID_00000095333573423398077450000003449515467771908243_" gradientUnits="userSpaceOnUse" x1="895.9799" y1="1342.8008" x2="895.9799" y2="1285.6531">
			<stop  offset="0" style="stop-color:#FF9C08"/>
			<stop  offset="1" style="stop-color:#FFD991"/>
		</linearGradient>
		<path style="fill:url(#SVGID_00000095333573423398077450000003449515467771908243_);" d="M694.84,1293.09v43.86
			c0,9.25,90.05,16.75,201.14,16.75c111.09,0,201.14-7.5,201.14-16.75v-43.86H694.84z"/>
		<g>
			<path class="st46" d="M826.7,1293.09h-2.46v59.51c0.82,0.03,1.63,0.06,2.46,0.08V1293.09z"/>
			<path class="st46" d="M803.19,1293.09h-2.46v58.62c0.81,0.04,1.64,0.07,2.46,0.1V1293.09z"/>
			<path class="st46" d="M850.2,1293.09h-2.46v60.12c0.81,0.02,1.64,0.03,2.46,0.05V1293.09z"/>
			<path class="st46" d="M873.71,1293.09h-2.46v60.48c0.82,0.01,1.63,0.02,2.46,0.03V1293.09z"/>
			<path class="st46" d="M779.68,1293.09h-2.46v57.38c0.81,0.05,1.64,0.1,2.46,0.15V1293.09z"/>
			<path class="st46" d="M759.45,1293.09h-2.46v55.96c0.82,0.06,1.63,0.13,2.46,0.2V1293.09z"/>
			<path class="st46" d="M701.06,1341.1c0.75,0.24,1.58,0.49,2.46,0.73v-48.73h-2.46V1341.1z"/>
			<path class="st46" d="M713.04,1293.09h-2.46v50.37c0.78,0.15,1.63,0.3,2.46,0.45V1293.09z"/>
			<path class="st46" d="M724.94,1293.09h-2.46v52.33c0.81,0.11,1.62,0.23,2.46,0.34V1293.09z"/>
			<path class="st46" d="M740.81,1293.09h-2.46v54.26c0.82,0.09,1.61,0.18,2.46,0.26V1293.09z"/>
			<path class="st46" d="M920.71,1293.09h-2.46v60.51c0.82-0.01,1.64-0.02,2.46-0.03V1293.09z"/>
			<path class="st46" d="M897.21,1353.7v-60.61h-2.46v60.61c0.41,0,0.82,0,1.23,0C896.39,1353.7,896.8,1353.7,897.21,1353.7z"/>
			<path class="st46" d="M1069.48,1293.09h-2.46v52.67c0.84-0.11,1.65-0.23,2.46-0.34V1293.09z"/>
			<path class="st46" d="M1081.38,1293.09h-2.46v50.82c0.83-0.15,1.68-0.3,2.46-0.45V1293.09z"/>
			<path class="st46" d="M1034.96,1293.09h-2.46v56.16c0.83-0.06,1.64-0.13,2.46-0.2V1293.09z"/>
			<path class="st46" d="M1090.9,1293.09h-2.46v48.73c0.88-0.24,1.71-0.48,2.46-0.73V1293.09z"/>
			<path class="st46" d="M1053.61,1293.09h-2.46v54.52c0.84-0.08,1.63-0.17,2.46-0.26V1293.09z"/>
			<path class="st46" d="M967.72,1293.09h-2.46v59.59c0.83-0.02,1.63-0.05,2.46-0.08V1293.09z"/>
			<path class="st46" d="M944.22,1293.09h-2.46v60.17c0.82-0.02,1.64-0.03,2.46-0.05V1293.09z"/>
			<path class="st46" d="M991.23,1293.09h-2.46v58.72c0.82-0.04,1.65-0.07,2.46-0.1V1293.09z"/>
			<path class="st46" d="M1014.73,1293.09h-2.46v57.52c0.82-0.05,1.65-0.1,2.46-0.15V1293.09z"/>
		</g>
		<path class="st47" d="M1097.12,1293.09c0,9.25-90.05,16.75-201.14,16.75c-111.09,0-201.14-7.5-201.14-16.75
			c0-9.25,90.05-16.75,201.14-16.75C1007.07,1276.34,1097.12,1283.84,1097.12,1293.09z"/>
	</g>
	<g>
		
			<linearGradient id="SVGID_00000104673669925568309920000002763580920571749248_" gradientUnits="userSpaceOnUse" x1="889.9883" y1="1292.2422" x2="889.9883" y2="1235.0948">
			<stop  offset="0" style="stop-color:#FF9C08"/>
			<stop  offset="1" style="stop-color:#FFD991"/>
		</linearGradient>
		<path style="fill:url(#SVGID_00000104673669925568309920000002763580920571749248_);" d="M688.85,1242.53v43.86
			c0,9.25,90.05,16.75,201.14,16.75c111.09,0,201.14-7.5,201.14-16.75v-43.86H688.85z"/>
		<g>
			<path class="st46" d="M820.71,1242.53h-2.46v59.51c0.82,0.03,1.63,0.06,2.46,0.08V1242.53z"/>
			<path class="st46" d="M797.2,1242.53h-2.46v58.62c0.81,0.04,1.64,0.07,2.46,0.1V1242.53z"/>
			<path class="st46" d="M844.21,1242.53h-2.46v60.12c0.81,0.02,1.64,0.03,2.46,0.05V1242.53z"/>
			<path class="st46" d="M867.71,1242.53h-2.46v60.48c0.82,0.01,1.63,0.02,2.46,0.03V1242.53z"/>
			<path class="st46" d="M773.69,1242.53h-2.46v57.38c0.81,0.05,1.64,0.1,2.46,0.15V1242.53z"/>
			<path class="st46" d="M753.46,1242.53H751v55.96c0.82,0.06,1.63,0.13,2.46,0.2V1242.53z"/>
			<path class="st46" d="M695.07,1290.54c0.75,0.25,1.58,0.49,2.46,0.73v-48.73h-2.46V1290.54z"/>
			<path class="st46" d="M707.05,1242.53h-2.46v50.37c0.78,0.15,1.63,0.3,2.46,0.45V1242.53z"/>
			<path class="st46" d="M718.95,1242.53h-2.46v52.33c0.81,0.11,1.62,0.23,2.46,0.34V1242.53z"/>
			<path class="st46" d="M734.82,1242.53h-2.46v54.26c0.82,0.09,1.61,0.18,2.46,0.26V1242.53z"/>
			<path class="st46" d="M914.72,1242.53h-2.46v60.51c0.82-0.01,1.64-0.02,2.46-0.03V1242.53z"/>
			<path class="st46" d="M891.22,1303.14v-60.61h-2.46v60.61c0.41,0,0.82,0,1.23,0C890.4,1303.15,890.81,1303.14,891.22,1303.14z"/>
			<path class="st46" d="M1063.49,1242.53h-2.46v52.67c0.84-0.11,1.65-0.23,2.46-0.34V1242.53z"/>
			<path class="st46" d="M1075.39,1242.53h-2.46v50.82c0.83-0.15,1.68-0.3,2.46-0.45V1242.53z"/>
			<path class="st46" d="M1028.97,1242.53h-2.46v56.16c0.83-0.06,1.64-0.13,2.46-0.2V1242.53z"/>
			<path class="st46" d="M1084.91,1242.53h-2.46v48.73c0.88-0.24,1.71-0.48,2.46-0.73V1242.53z"/>
			<path class="st46" d="M1047.62,1242.53h-2.46v54.52c0.84-0.08,1.63-0.17,2.46-0.26V1242.53z"/>
			<path class="st46" d="M961.73,1242.53h-2.46v59.59c0.83-0.03,1.63-0.05,2.46-0.08V1242.53z"/>
			<path class="st46" d="M938.23,1242.53h-2.46v60.17c0.82-0.02,1.64-0.03,2.46-0.05V1242.53z"/>
			<path class="st46" d="M985.24,1242.53h-2.46v58.72c0.82-0.04,1.65-0.07,2.46-0.1V1242.53z"/>
			<path class="st46" d="M1008.74,1242.53h-2.46v57.52c0.82-0.05,1.65-0.1,2.46-0.15V1242.53z"/>
		</g>
		<ellipse class="st47" cx="889.99" cy="1242.53" rx="201.14" ry="16.75"/>
	</g>
	<g>
		
			<linearGradient id="SVGID_00000039117209868819009530000000872218560744443780_" gradientUnits="userSpaceOnUse" x1="912.265" y1="1242.4937" x2="912.265" y2="1185.3459">
			<stop  offset="0" style="stop-color:#FF9C08"/>
			<stop  offset="1" style="stop-color:#FFD991"/>
		</linearGradient>
		<path style="fill:url(#SVGID_00000039117209868819009530000000872218560744443780_);" d="M711.13,1192.79v43.86
			c0,9.25,90.05,16.75,201.14,16.75c111.09,0,201.14-7.5,201.14-16.75v-43.86H711.13z"/>
		<g>
			<path class="st46" d="M842.98,1192.79h-2.46v59.51c0.82,0.03,1.63,0.06,2.46,0.08V1192.79z"/>
			<path class="st46" d="M819.47,1192.79h-2.46v58.62c0.81,0.04,1.64,0.07,2.46,0.1V1192.79z"/>
			<path class="st46" d="M866.49,1192.79h-2.46v60.12c0.81,0.02,1.64,0.03,2.46,0.05V1192.79z"/>
			<path class="st46" d="M889.99,1192.79h-2.46v60.48c0.82,0.01,1.63,0.02,2.46,0.03V1192.79z"/>
			<path class="st46" d="M795.97,1192.79h-2.46v57.38c0.81,0.05,1.64,0.1,2.46,0.15V1192.79z"/>
			<path class="st46" d="M775.74,1192.79h-2.46v55.96c0.82,0.06,1.63,0.13,2.46,0.2V1192.79z"/>
			<path class="st46" d="M717.35,1240.79c0.75,0.24,1.58,0.49,2.46,0.73v-48.73h-2.46V1240.79z"/>
			<path class="st46" d="M729.32,1192.79h-2.46v50.37c0.78,0.15,1.63,0.3,2.46,0.45V1192.79z"/>
			<path class="st46" d="M741.23,1192.79h-2.46v52.33c0.81,0.11,1.62,0.23,2.46,0.34V1192.79z"/>
			<path class="st46" d="M757.09,1192.79h-2.46v54.26c0.82,0.09,1.61,0.18,2.46,0.26V1192.79z"/>
			<path class="st46" d="M937,1192.79h-2.46v60.51c0.82-0.01,1.64-0.02,2.46-0.03V1192.79z"/>
			<path class="st46" d="M913.49,1253.39v-60.61h-2.46v60.61c0.41,0,0.82,0,1.23,0C912.68,1253.4,913.08,1253.39,913.49,1253.39z"/>
			<path class="st46" d="M1085.76,1192.79h-2.46v52.67c0.84-0.11,1.65-0.23,2.46-0.34V1192.79z"/>
			<path class="st46" d="M1097.66,1192.79h-2.46v50.82c0.83-0.15,1.68-0.3,2.46-0.45V1192.79z"/>
			<path class="st46" d="M1051.25,1192.79h-2.46v56.16c0.83-0.06,1.64-0.13,2.46-0.2V1192.79z"/>
			<path class="st46" d="M1107.19,1192.79h-2.46v48.73c0.88-0.24,1.71-0.48,2.46-0.73V1192.79z"/>
			<path class="st46" d="M1069.89,1192.79h-2.46v54.52c0.84-0.08,1.63-0.17,2.46-0.26V1192.79z"/>
			<path class="st46" d="M984.01,1192.79h-2.46v59.59c0.83-0.02,1.63-0.05,2.46-0.08V1192.79z"/>
			<path class="st46" d="M960.5,1192.79h-2.46v60.17c0.82-0.02,1.64-0.03,2.46-0.05V1192.79z"/>
			<path class="st46" d="M1007.51,1192.79h-2.46v58.72c0.82-0.04,1.65-0.07,2.46-0.1V1192.79z"/>
			<path class="st46" d="M1031.02,1192.79h-2.46v57.52c0.82-0.05,1.65-0.1,2.46-0.15V1192.79z"/>
		</g>
		<path class="st47" d="M1113.4,1192.79c0,9.25-90.05,16.75-201.14,16.75c-111.09,0-201.14-7.5-201.14-16.75
			c0-9.25,90.05-16.75,201.14-16.75C1023.35,1176.03,1113.4,1183.53,1113.4,1192.79z"/>
	</g>
	<g>
		
			<linearGradient id="SVGID_00000115481679998218813190000010955769111764438953_" gradientUnits="userSpaceOnUse" x1="871.248" y1="1192.1597" x2="871.248" y2="1135.012">
			<stop  offset="0" style="stop-color:#FF9C08"/>
			<stop  offset="1" style="stop-color:#FFD991"/>
		</linearGradient>
		<path style="fill:url(#SVGID_00000115481679998218813190000010955769111764438953_);" d="M670.11,1142.45v43.86
			c0,9.25,90.05,16.75,201.14,16.75c111.09,0,201.14-7.5,201.14-16.75v-43.86H670.11z"/>
		<g>
			<path class="st46" d="M801.96,1142.45h-2.46v59.51c0.82,0.03,1.63,0.06,2.46,0.08V1142.45z"/>
			<path class="st46" d="M778.46,1142.45H776v58.62c0.81,0.04,1.64,0.07,2.46,0.1V1142.45z"/>
			<path class="st46" d="M825.47,1142.45h-2.46v60.12c0.82,0.02,1.64,0.03,2.46,0.05V1142.45z"/>
			<path class="st46" d="M848.97,1142.45h-2.46v60.48c0.82,0.01,1.63,0.02,2.46,0.03V1142.45z"/>
			<path class="st46" d="M754.95,1142.45h-2.46v57.38c0.81,0.05,1.64,0.1,2.46,0.14V1142.45z"/>
			<path class="st46" d="M734.72,1142.45h-2.46v55.96c0.82,0.07,1.63,0.13,2.46,0.2V1142.45z"/>
			<path class="st46" d="M676.33,1190.46c0.75,0.24,1.58,0.49,2.46,0.73v-48.73h-2.46V1190.46z"/>
			<path class="st46" d="M688.31,1142.45h-2.46v50.37c0.78,0.15,1.63,0.3,2.46,0.45V1142.45z"/>
			<path class="st46" d="M700.21,1142.45h-2.46v52.33c0.81,0.11,1.62,0.23,2.46,0.34V1142.45z"/>
			<path class="st46" d="M716.08,1142.45h-2.46v54.26c0.82,0.09,1.61,0.18,2.46,0.26V1142.45z"/>
			<path class="st46" d="M895.98,1142.45h-2.46v60.51c0.82-0.01,1.64-0.02,2.46-0.03V1142.45z"/>
			<path class="st46" d="M872.48,1203.06v-60.61h-2.46v60.61c0.41,0,0.82,0,1.23,0C871.66,1203.06,872.07,1203.06,872.48,1203.06z"
				/>
			<path class="st46" d="M1044.75,1142.45h-2.46v52.67c0.84-0.11,1.65-0.23,2.46-0.34V1142.45z"/>
			<path class="st46" d="M1056.65,1142.45h-2.46v50.82c0.83-0.15,1.68-0.3,2.46-0.45V1142.45z"/>
			<path class="st46" d="M1010.23,1142.45h-2.46v56.16c0.83-0.06,1.64-0.13,2.46-0.2V1142.45z"/>
			<path class="st46" d="M1066.17,1142.45h-2.46v48.73c0.88-0.24,1.71-0.48,2.46-0.73V1142.45z"/>
			<path class="st46" d="M1028.88,1142.45h-2.46v54.52c0.84-0.08,1.63-0.17,2.46-0.26V1142.45z"/>
			<path class="st46" d="M942.99,1142.45h-2.46v59.59c0.83-0.03,1.63-0.05,2.46-0.08V1142.45z"/>
			<path class="st46" d="M919.49,1142.45h-2.46v60.17c0.82-0.02,1.64-0.03,2.46-0.05V1142.45z"/>
			<path class="st46" d="M966.49,1142.45h-2.46v58.72c0.82-0.04,1.65-0.07,2.46-0.1V1142.45z"/>
			<path class="st46" d="M990,1142.45h-2.46v57.52c0.82-0.05,1.65-0.1,2.46-0.15V1142.45z"/>
		</g>
		<ellipse class="st47" cx="871.25" cy="1142.45" rx="201.14" ry="16.75"/>
	</g>
	<g>
		
			<linearGradient id="SVGID_00000128461225002608852010000002646136894668651948_" gradientUnits="userSpaceOnUse" x1="887.533" y1="1138.6045" x2="887.533" y2="1081.4568">
			<stop  offset="0" style="stop-color:#FF9C08"/>
			<stop  offset="1" style="stop-color:#FFD991"/>
		</linearGradient>
		<path style="fill:url(#SVGID_00000128461225002608852010000002646136894668651948_);" d="M686.39,1088.9v43.86
			c0,9.25,90.05,16.75,201.14,16.75c111.09,0,201.14-7.5,201.14-16.75v-43.86H686.39z"/>
		<g>
			<path class="st46" d="M818.25,1088.9h-2.46v59.51c0.82,0.03,1.63,0.06,2.46,0.08V1088.9z"/>
			<path class="st46" d="M794.74,1088.9h-2.46v58.62c0.81,0.04,1.64,0.07,2.46,0.1V1088.9z"/>
			<path class="st46" d="M841.75,1088.9h-2.46v60.12c0.81,0.02,1.64,0.03,2.46,0.05V1088.9z"/>
			<path class="st46" d="M865.26,1088.9h-2.46v60.48c0.82,0.01,1.63,0.02,2.46,0.03V1088.9z"/>
			<path class="st46" d="M771.24,1088.9h-2.46v57.38c0.81,0.05,1.64,0.1,2.46,0.15V1088.9z"/>
			<path class="st46" d="M751,1088.9h-2.46v55.96c0.82,0.06,1.63,0.13,2.46,0.2V1088.9z"/>
			<path class="st46" d="M692.61,1136.9c0.75,0.25,1.58,0.49,2.46,0.73v-48.73h-2.46V1136.9z"/>
			<path class="st46" d="M704.59,1088.9h-2.46v50.37c0.78,0.15,1.63,0.3,2.46,0.45V1088.9z"/>
			<path class="st46" d="M716.49,1088.9h-2.46v52.33c0.81,0.11,1.62,0.23,2.46,0.34V1088.9z"/>
			<path class="st46" d="M732.36,1088.9h-2.46v54.26c0.82,0.09,1.61,0.18,2.46,0.26V1088.9z"/>
			<path class="st46" d="M912.27,1088.9h-2.46v60.51c0.82-0.01,1.64-0.02,2.46-0.03V1088.9z"/>
			<path class="st46" d="M888.76,1149.51v-60.61h-2.46v60.61c0.41,0,0.82,0,1.23,0C887.95,1149.51,888.35,1149.51,888.76,1149.51z"
				/>
			<path class="st46" d="M1061.03,1088.9h-2.46v52.67c0.84-0.11,1.65-0.23,2.46-0.34V1088.9z"/>
			<path class="st46" d="M1072.93,1088.9h-2.46v50.82c0.83-0.15,1.68-0.3,2.46-0.45V1088.9z"/>
			<path class="st46" d="M1026.52,1088.9h-2.46v56.16c0.83-0.06,1.64-0.13,2.46-0.2V1088.9z"/>
			<path class="st46" d="M1082.45,1088.9H1080v48.73c0.88-0.24,1.71-0.48,2.46-0.73V1088.9z"/>
			<path class="st46" d="M1045.16,1088.9h-2.46v54.52c0.84-0.08,1.63-0.17,2.46-0.26V1088.9z"/>
			<path class="st46" d="M959.28,1088.9h-2.46v59.59c0.83-0.02,1.63-0.05,2.46-0.08V1088.9z"/>
			<path class="st46" d="M935.77,1088.9h-2.46v60.17c0.82-0.02,1.64-0.03,2.46-0.05V1088.9z"/>
			<path class="st46" d="M982.78,1088.9h-2.46v58.72c0.82-0.04,1.65-0.07,2.46-0.1V1088.9z"/>
			<path class="st46" d="M1006.28,1088.9h-2.46v57.52c0.82-0.05,1.65-0.1,2.46-0.15V1088.9z"/>
		</g>
		<ellipse class="st47" cx="887.53" cy="1088.9" rx="201.14" ry="16.75"/>
	</g>
	<g>
		
			<linearGradient id="SVGID_00000148648397231901850610000006256837283694379426_" gradientUnits="userSpaceOnUse" x1="887.533" y1="1088.7708" x2="887.533" y2="1031.623">
			<stop  offset="0" style="stop-color:#FF9C08"/>
			<stop  offset="1" style="stop-color:#FFD991"/>
		</linearGradient>
		<path style="fill:url(#SVGID_00000148648397231901850610000006256837283694379426_);" d="M686.39,1039.06v43.86
			c0,9.25,90.05,16.75,201.14,16.75c111.09,0,201.14-7.5,201.14-16.75v-43.86H686.39z"/>
		<g>
			<path class="st46" d="M818.25,1039.06h-2.46v59.51c0.82,0.03,1.63,0.06,2.46,0.08V1039.06z"/>
			<path class="st46" d="M794.74,1039.06h-2.46v58.62c0.81,0.04,1.64,0.07,2.46,0.1V1039.06z"/>
			<path class="st46" d="M841.75,1039.06h-2.46v60.12c0.81,0.02,1.64,0.03,2.46,0.05V1039.06z"/>
			<path class="st46" d="M865.26,1039.06h-2.46v60.48c0.82,0.01,1.63,0.02,2.46,0.03V1039.06z"/>
			<path class="st46" d="M771.24,1039.06h-2.46v57.38c0.81,0.05,1.64,0.1,2.46,0.15V1039.06z"/>
			<path class="st46" d="M751,1039.06h-2.46v55.96c0.82,0.07,1.63,0.13,2.46,0.2V1039.06z"/>
			<path class="st46" d="M692.61,1087.07c0.75,0.24,1.58,0.49,2.46,0.73v-48.73h-2.46V1087.07z"/>
			<path class="st46" d="M704.59,1039.06h-2.46v50.37c0.78,0.15,1.63,0.3,2.46,0.45V1039.06z"/>
			<path class="st46" d="M716.49,1039.06h-2.46v52.33c0.81,0.11,1.62,0.23,2.46,0.34V1039.06z"/>
			<path class="st46" d="M732.36,1039.06h-2.46v54.26c0.82,0.09,1.61,0.18,2.46,0.26V1039.06z"/>
			<path class="st46" d="M912.27,1039.06h-2.46v60.51c0.82-0.01,1.64-0.02,2.46-0.03V1039.06z"/>
			<path class="st46" d="M888.76,1099.67v-60.61h-2.46v60.61c0.41,0,0.82,0,1.23,0C887.95,1099.67,888.35,1099.67,888.76,1099.67z"
				/>
			<path class="st46" d="M1061.03,1039.06h-2.46v52.67c0.84-0.11,1.65-0.23,2.46-0.34V1039.06z"/>
			<path class="st46" d="M1072.93,1039.06h-2.46v50.82c0.83-0.15,1.68-0.3,2.46-0.45V1039.06z"/>
			<path class="st46" d="M1026.52,1039.06h-2.46v56.16c0.83-0.06,1.64-0.13,2.46-0.2V1039.06z"/>
			<path class="st46" d="M1082.45,1039.06H1080v48.73c0.88-0.24,1.71-0.48,2.46-0.73V1039.06z"/>
			<path class="st46" d="M1045.16,1039.06h-2.46v54.52c0.84-0.08,1.63-0.17,2.46-0.26V1039.06z"/>
			<path class="st46" d="M959.28,1039.06h-2.46v59.59c0.83-0.03,1.63-0.05,2.46-0.08V1039.06z"/>
			<path class="st46" d="M935.77,1039.06h-2.46v60.17c0.82-0.02,1.64-0.03,2.46-0.05V1039.06z"/>
			<path class="st46" d="M982.78,1039.06h-2.46v58.72c0.82-0.04,1.65-0.07,2.46-0.1V1039.06z"/>
			<path class="st46" d="M1006.28,1039.06h-2.46v57.52c0.82-0.05,1.65-0.1,2.46-0.15V1039.06z"/>
		</g>
		<ellipse class="st47" cx="887.53" cy="1039.06" rx="201.14" ry="16.75"/>
	</g>
</g>
<g>
	<path class="st73" d="M950.59,551.33c30.32,0.85,40.18,13.8,41.3,26.75c1.42,16.34-11.26,18.87-10.98,30.98
		c0.28,12.11,15.09,22.25,11.49,41.12c-3.6,18.87-14.02,27.04-14.02,27.04l-150.3,15.25c0,0-6.93-28.45,5.06-47.88
		c11.99-19.43,40.62-19.1,49.2-50.73C892.2,557.53,915.58,532.74,950.59,551.33z"/>
	<path class="st74" d="M937.73,659.19c0,0,56.53,0.09,72.19,13.52c27.6,23.66,64.77,242.76,64.77,242.76H781.24l54.64-85.61
		l-9.01-158.84C826.86,671.02,835.69,654.13,937.73,659.19z"/>
	<path class="st59" d="M1074.69,915.47c0,0-0.63-3.73-1.79-10.22c-37.6-7.07-206.97-42.1-252.29-51.48l-39.37,61.7H1074.69z"/>
	<path class="st75" d="M1020.81,903.65l16.78,46.19l13.26,111.9c0,0-108.9,0-156.96,0c-48.06,0-140.55,0-140.55-63.25
		c0-56.33,40.66-94.83,40.66-94.83H1020.81z"/>
	<polygon class="st59" points="861.34,734.63 835.88,829.86 832.05,762.45 	"/>
	<path class="st15" d="M915.01,640.89c0,0-24.22,13.24-35.2,24.78c-10.98,11.55,35.2,27.32,35.2,27.32s-14.64,6.95,0,16.15
		c14.64,9.2,37.74,7.79,44.22,19.62c0,0,7.1-13.14,11.64-19.62c6.57-9.39,1.5-18.4-6.76-19.53c10.14-10.42,14.06-22.91,8.26-28.54
		c-5.8-5.63-34.5-14.55-34.5-14.55L915.01,640.89z"/>
	<line class="st76" x1="999.22" y1="714.96" x2="1008.23" y2="794.69"/>
	<path class="st77" d="M957.54,718.9l2.58,22.59c1.26,11.06-0.16,22.27-4.14,32.67l-54.2,141.32"/>
	<g>
		<rect x="832.05" y="938.53" class="st78" width="144.61" height="11.3"/>
		<path class="st56" d="M870.51,903.65l94.34,6.48c0,0,39.99,11.83,43.37,24.22h-71.81l-75.08,9.86L870.51,903.65z"/>
		<g>
			<polygon class="st58" points="1156.55,949.83 956.03,949.83 1002.56,759.83 1203.08,759.83 			"/>
			<polygon class="st78" points="946.31,949.83 960.48,949.83 1007.01,759.83 992.84,759.83 			"/>
			<path class="st78" d="M1109.31,864.41h-64.21c-5.29,0-8.53-4.29-7.23-9.58l0,0c1.3-5.29,6.63-9.58,11.92-9.58H1114
				c5.29,0,8.53,4.29,7.23,9.58l0,0C1119.94,860.12,1114.6,864.41,1109.31,864.41z"/>
		</g>
	</g>
	<g>
		<path class="st56" d="M990.77,949.83c31.54,0,128.22-15.77,147.37,70.41c19.15,86.18,44.41,325.14,44.41,325.14l23.01,53.92
			l20.39,18.17c2.69,2.4,0.97,6.85-2.63,6.78c-9.91-0.2-25.98-2.56-41.06-13.68c-21.83-16.11-22.91-36.42-22.91-36.42l0.29,43.2
			l-8.93,0.35c0,0-16.52-50.51,3.02-70.23c0,0-20.67-69.84-37.56-106.45c-16.9-36.61-57.45-122.6-49-179.3h-51.82L990.77,949.83z"/>
		<path class="st79" d="M1135.77,1011.42c-23.63-76.22-114.58-61.59-145-61.59l24.58,111.9h51.82c-2.39,16.03-0.86,34.41,2.95,53.34
			C1061.25,1068.8,1109.16,1014.71,1135.77,1011.42z"/>
		<path class="st73" d="M1159.64,1417.35l-0.29-43.2c0,0,1.07,20.32,22.91,36.42c15.08,11.12,31.14,13.48,41.06,13.68
			c3.6,0.07,5.32-4.38,2.63-6.78l-20.39-18.17l-10.42-24.41l-14.74,8.64c-6.48-9.72-22.04-24.06-30.3-31.37
			c-13.61,22.01,0.62,65.54,0.62,65.54L1159.64,1417.35z"/>
	</g>
	<path class="st56" d="M944.14,575.02c0,0-5.57,16.58-19.46,24.09c0,0-3.19-7.7-9.76-6.01c-6.57,1.69-8.96,18.07,4.74,19.76
		l-15.07,46.33c0,0,35.3,28.54,49,49.94c0,0,1.69-35.86-6.76-50.69l3.76-20.84c0,0,8.5-0.09,13-6.85
		c4.51-6.76,1.45-18.12,3.52-25.06c2.07-6.95,3.76-13.14,3.76-13.14S952.33,592.73,944.14,575.02z"/>
	<path class="st79" d="M950.59,637.6c-11.78,0.75-23.19-6.71-25.44-12.49c0.85,11.55,9.09,21.3,23.63,22.55L950.59,637.6z"/>
	<g>
		<g>
			<path class="st56" d="M933.08,958.26c-14.48,14.64-38.33,47.83-20.06,95.49c1.86,4.84,6.6,7.98,11.79,7.98h9.98
				c0,0-16.86,51.07-16.86,120.16c0,69.09-10.01,135.78-26.29,162.22c-13.76,22.34-13.76,46.36-9.08,81.73h6.01l2.67-40.04
				c0,0,6.64,22.69,20,34.7c13.36,12.01,38.72,20.68,40.72,18.02c2-2.67-16.68-31.36-16.68-31.36l-10.68-58.72
				c0,0,52.05-144.79,71.4-199.51c19.35-54.72,35.07-109.33,41.6-130.94c9.13-30.23-7.95-68.15-45.69-68.15h-38.62
				C945.68,949.83,938.42,952.86,933.08,958.26z"/>
			<path class="st56" d="M934.78,1061.73c10.17-30.79,32.7-57.45,32.7-57.45"/>
			<path class="st79" d="M910.33,994.98c-5.13,15.93-6.19,35.79,2.82,59.09c1.79,4.64,6.33,7.66,11.3,7.66h10.33
				c9.67-26.31,21.24-41.89,21.24-41.89C932.69,1013.46,918.25,1002.69,910.33,994.98z"/>
		</g>
		<path class="st73" d="M930.53,1381.13l-19,3.9c-7.98-7.39-17.11-29.86-20.63-39.65c-12.99,21.99-12.93,45.76-8.35,80.45h6.01
			l2.67-40.04c0,0,6.64,22.69,20,34.7c13.36,12.01,38.72,20.69,40.72,18.02c2-2.67-16.68-31.36-16.68-31.36L930.53,1381.13z"/>
	</g>
	<g>
		<path class="st74" d="M826.86,671.02c-34.52,36.32-238.72,242.17-133.49,279.37c55.76,19.71,173.48,5.07,173.48,5.07l9.01-56.33
			l-105.2-12.95l90.67-151.56C861.34,734.63,856.15,685.1,826.86,671.02z"/>
		<path class="st59" d="M770.67,886.18l-46.88-5.07C723.79,881.12,750.71,863.47,770.67,886.18z"/>
	</g>
</g>
</svg>
