<?xml version="1.0" encoding="UTF-8"?>
<svg version="1.1" xmlns="http://www.w3.org/2000/svg" width="193" height="150">
<path d="M0 0 C1.57397461 1.34179687 1.57397461 1.34179687 2.90234375 3.21875 C3.40056641 3.90453125 3.89878906 4.5903125 4.41210938 5.296875 C4.91548828 6.02390625 5.41886719 6.7509375 5.9375 7.5 C6.43701172 8.19609375 6.93652344 8.8921875 7.45117188 9.609375 C8.47114672 11.0307593 9.48462231 12.45682725 10.49194336 13.88720703 C11.91533472 15.88138363 13.38491643 17.82884189 14.875 19.7734375 C19.62470096 26.06921063 23.84268179 32.7406532 28.16601562 39.33203125 C32.23310081 45.55267307 32.23310081 45.55267307 36.79296875 51.41015625 C38.94428101 53.93461648 40.59607759 56.44425036 42.25 59.3125 C43.88592307 62.33554073 43.88592307 62.33554073 46 65 C46.12510193 72.00570789 43.70501689 75.16231578 39.0078125 80.21484375 C37 82 37 82 34 83 C33.443125 84.2684375 33.443125 84.2684375 32.875 85.5625 C30.62668689 89.68440737 27.88383699 91.91700848 24.33203125 94.91796875 C21.55434587 97.39787882 19.27635499 100.10767311 16.99609375 103.04296875 C11.01233785 108.90962571 3.03858986 111.91575999 -4.5625 115.125 C-6.06586914 115.76888672 -6.06586914 115.76888672 -7.59960938 116.42578125 C-9.47213417 117.22705914 -11.34576938 118.02575157 -13.22094727 118.82080078 C-14.13803467 119.20993652 -15.05512207 119.59907227 -16 120 C-17.1250293 120.47711426 -18.25005859 120.95422852 -19.40917969 121.44580078 C-22.928276 122.96895601 -26.40885371 124.55702174 -29.88671875 126.171875 C-31.82332252 127.06116228 -33.76085674 127.94839956 -35.69848633 128.83544922 C-37.03165297 129.44844078 -38.36302514 130.06534925 -39.69262695 130.68603516 C-41.62751748 131.58804991 -43.56871721 132.47499449 -45.51171875 133.359375 C-46.66115967 133.89014648 -47.81060059 134.42091797 -48.99487305 134.96777344 C-51.98948191 135.99638716 -53.17079595 136.33469258 -56 135 C-57.45703125 132.91796875 -57.45703125 132.91796875 -58.8125 130.1875 C-60.9819001 125.95331555 -63.24623325 121.83422898 -65.6875 117.75 C-67.52216867 114.63467639 -69.27518471 111.60547304 -70.625 108.25 C-71.7848257 105.5085938 -72.99579606 103.39519117 -74.625 100.9375 C-76.75738534 97.65247394 -77.70254521 94.96606381 -78 91 C-78.99 90.67 -79.98 90.34 -81 90 C-82.92028467 87.36456389 -84.28273584 84.40675675 -85.75 81.5 C-86.17410156 80.72140625 -86.59820312 79.9428125 -87.03515625 79.140625 C-89.97791287 73.35096703 -90.41088568 69.31056276 -89 63 C-88.80921875 62.04351562 -88.6184375 61.08703125 -88.421875 60.1015625 C-86.91598409 54.55077858 -84.94560201 49.55909142 -82.46484375 44.37890625 C-80.1223652 38.97558906 -78.28558959 33.39686557 -76.41113281 27.81665039 C-76.1272168 26.97996826 -75.84330078 26.14328613 -75.55078125 25.28125 C-75.29981689 24.52908203 -75.04885254 23.77691406 -74.7902832 23.00195312 C-74 21 -74 21 -72 18 C-67.75012268 16.35348438 -63.28947778 15.3697475 -58.875 14.25 C-57.05742188 13.75693359 -57.05742188 13.75693359 -55.203125 13.25390625 C-47.34957015 11.22635451 -41.77918894 10.40693702 -34 13 C-33.68832886 11.83174683 -33.68832886 11.83174683 -33.37036133 10.63989258 C-32 8 -32 8 -29.3737793 6.69799805 C-28.28492432 6.38902588 -27.19606934 6.08005371 -26.07421875 5.76171875 C-24.88505859 5.41689453 -23.69589844 5.07207031 -22.47070312 4.71679688 C-20.59801758 4.20729492 -20.59801758 4.20729492 -18.6875 3.6875 C-17.45064453 3.32849609 -16.21378906 2.96949219 -14.93945312 2.59960938 C-3.94939971 -0.51750464 -3.94939971 -0.51750464 0 0 Z " fill="#F2F2F2" transform="translate(120,12)"/>
<path d="M0 0 C5.86142017 5.14661283 9.82880053 11.21333964 13.73046875 17.890625 C14.8313997 19.91180486 14.8313997 19.91180486 16 21 C16.12510193 28.00570789 13.70501689 31.16231578 9.0078125 36.21484375 C7 38 7 38 4 39 C3.443125 40.2684375 3.443125 40.2684375 2.875 41.5625 C0.62668689 45.68440737 -2.11616301 47.91700848 -5.66796875 50.91796875 C-8.44565413 53.39787882 -10.72364501 56.10767311 -13.00390625 59.04296875 C-18.98766215 64.90962571 -26.96141014 67.91575999 -34.5625 71.125 C-35.56474609 71.55425781 -36.56699219 71.98351562 -37.59960938 72.42578125 C-39.47213417 73.22705914 -41.34576938 74.02575157 -43.22094727 74.82080078 C-44.13803467 75.20993652 -45.05512207 75.59907227 -46 76 C-47.1250293 76.47711426 -48.25005859 76.95422852 -49.40917969 77.44580078 C-52.928276 78.96895601 -56.40885371 80.55702174 -59.88671875 82.171875 C-61.82332252 83.06116228 -63.76085674 83.94839956 -65.69848633 84.83544922 C-67.03165297 85.44844078 -68.36302514 86.06534925 -69.69262695 86.68603516 C-71.62751748 87.58804991 -73.56871721 88.47499449 -75.51171875 89.359375 C-76.66115967 89.89014648 -77.81060059 90.42091797 -78.99487305 90.96777344 C-82 92 -82 92 -84.29223633 91.83691406 C-87.27225313 90.37651412 -87.90337578 88.00128734 -89 85 C-88.8545707 81.94598472 -88.47809808 80.53546984 -86.4375 78.25 C-83.83832348 74.18172371 -84.51562592 69.36805105 -85.45703125 64.765625 C-85.63621094 64.03859375 -85.81539063 63.3115625 -86 62.5625 C-88.09239797 53.77301882 -87.50531868 47.71144937 -82.88085938 39.8515625 C-82.32205078 38.95179687 -81.76324219 38.05203125 -81.1875 37.125 C-80.64029297 36.20203125 -80.09308594 35.2790625 -79.52929688 34.328125 C-72.66189422 22.84083329 -72.66189422 22.84083329 -67.9296875 21.2890625 C-66.71998291 20.88022827 -66.71998291 20.88022827 -65.48583984 20.46313477 C-64.6242627 20.18655029 -63.76268555 19.90996582 -62.875 19.625 C-61.07274175 19.02265854 -59.27066162 18.41978388 -57.46875 17.81640625 C-56.55867188 17.51621582 -55.64859375 17.21602539 -54.7109375 16.90673828 C-49.84702349 15.2798852 -45.0290631 13.52288717 -40.20654297 11.77783203 C-35.2195838 10 -35.2195838 10 -33 10 C-32.70464503 18.71297174 -32.70464503 18.71297174 -35 23 C-37.6262207 24.5456543 -37.6262207 24.5456543 -40.92578125 25.82421875 C-42.11494141 26.29537109 -43.30410156 26.76652344 -44.52929688 27.25195312 C-45.79019964 27.73090322 -47.05126902 28.20941488 -48.3125 28.6875 C-49.56250162 29.17606781 -50.8118595 29.66628606 -52.06054688 30.15820312 C-54.36573247 31.06109862 -56.67381305 31.95666142 -58.9855957 32.8425293 C-60.47772583 33.41547729 -60.47772583 33.41547729 -62 34 C-62.90999756 34.31646484 -63.81999512 34.63292969 -64.75756836 34.95898438 C-68.22729344 36.56975277 -69.52021996 39.56916242 -71.25 42.8125 C-71.600625 43.42931641 -71.95125 44.04613281 -72.3125 44.68164062 C-75.98815668 51.3331655 -76.20618056 55.5033673 -74.5625 62.8125 C-74.41490234 63.50537109 -74.26730469 64.19824219 -74.11523438 64.91210938 C-73.75224388 66.60996815 -73.37731777 68.30526763 -73 70 C-73.0928125 69.20078125 -73.185625 68.4015625 -73.28125 67.578125 C-73.9137363 57.95529779 -71.31420849 52.21781249 -65 45 C-61.53388826 41.95533636 -58.25436467 40.03567512 -54 38.2734375 C-52.865625 37.7990625 -51.73125 37.3246875 -50.5625 36.8359375 C-49.386875 36.35382813 -48.21125 35.87171875 -47 35.375 C-45.824375 34.88515625 -44.64875 34.3953125 -43.4375 33.890625 C-34.3177061 30.09761981 -34.3177061 30.09761981 -31.19042969 29.13671875 C-28.81485136 28.21296769 -28.81485136 28.21296769 -28.20800781 25.90869141 C-28.12389648 25.06483887 -28.03978516 24.22098633 -27.953125 23.3515625 C-27.829375 22.42859375 -27.705625 21.505625 -27.578125 20.5546875 C-27.36042662 18.61095195 -27.1571494 16.66554381 -26.96875 14.71875 C-25.99924666 7.75771605 -25.99924666 7.75771605 -23.05566406 5.52563477 C-20.73059928 4.48576824 -18.44415816 3.70996478 -16 3 C-14.97390625 2.57074219 -13.9478125 2.14148437 -12.890625 1.69921875 C-12.01921875 1.36535156 -11.1478125 1.03148437 -10.25 0.6875 C-9.36828125 0.34074219 -8.4865625 -0.00601563 -7.578125 -0.36328125 C-4.61238721 -1.09572861 -2.89535849 -0.92632072 0 0 Z " fill="#101010" transform="translate(150,56)"/>
<path d="M0 0 C3.63559661 3.43361902 6.36113346 6.7973607 9 11 C8.67 11.66 8.34 12.32 8 13 C7.05833984 12.68675781 7.05833984 12.68675781 6.09765625 12.3671875 C-0.79611169 11.55001955 -8.02230215 14.00321505 -14.03515625 17.31103516 C-19.11398924 21.67676162 -19.07304508 29.19618918 -19.59765625 35.45703125 C-19.63383057 36.28178955 -19.67000488 37.10654785 -19.70727539 37.95629883 C-20 40 -20 40 -22 42 C-23.79093182 42.76121979 -25.60907609 43.4588481 -27.4375 44.125 C-29.25264572 44.8158088 -31.0677831 45.50663955 -32.8828125 46.19775391 C-34.37848576 46.76449541 -35.87607704 47.3261874 -37.375 47.88427734 C-39.90598201 48.83586726 -42.42169886 49.82155213 -44.9375 50.8125 C-45.74179443 51.10721191 -46.54608887 51.40192383 -47.37475586 51.70556641 C-53.56314252 54.18866866 -56.38454826 57.51669687 -60 63 C-60.78375 63.86625 -61.5675 64.7325 -62.375 65.625 C-65.03732677 71.1544479 -64.29743034 76.96877366 -64 83 C-64.99 82.505 -64.99 82.505 -66 82 C-66.6729424 79.56910675 -67.2153243 77.22019998 -67.6875 74.75 C-67.82994141 74.08097656 -67.97238281 73.41195312 -68.11914062 72.72265625 C-68.89148843 68.81096439 -69.15495541 65.81743158 -68 62 C-67.68933594 60.906875 -67.37867188 59.81375 -67.05859375 58.6875 C-64.55108007 52.44117241 -61.61072821 48.30969726 -55.46972656 45.22900391 C-49.77938173 42.83244601 -43.99611748 40.74826082 -38.10131836 38.91601562 C-34.07862812 37.59420966 -30.56693218 36.3235521 -27 34 C-25.13467974 29.95836546 -24.79849084 26.41749368 -25 22 C-29.89328667 23.81396634 -34.78626206 25.62876898 -39.67895508 27.44433594 C-41.34228189 28.06142614 -43.00569245 28.67829062 -44.66918945 29.29492188 C-47.06483846 30.18299505 -49.46018176 31.07188844 -51.85546875 31.9609375 C-52.5952446 32.23497406 -53.33502045 32.50901062 -54.09721375 32.79135132 C-55.4689762 33.30084195 -56.83887617 33.81538832 -58.20645142 34.33601379 C-59.72618647 34.89863202 -61.26971758 35.39631213 -62.81665039 35.87915039 C-65.75914132 37.38971462 -66.56343704 39.05773842 -68.078125 41.97265625 C-68.59890625 42.95427734 -69.1196875 43.93589844 -69.65625 44.94726562 C-70.1821875 45.97529297 -70.708125 47.00332031 -71.25 48.0625 C-72.31670084 50.09558101 -73.38435703 52.12816115 -74.453125 54.16015625 C-74.91879883 55.06386963 -75.38447266 55.96758301 -75.86425781 56.89868164 C-77 59 -77 59 -78 60 C-78.42333464 64.9618758 -78.20175708 69.72990237 -77 74.5625 C-75.90260292 79.05546633 -75.24730325 83.39421274 -76 88 C-77.875 90.875 -77.875 90.875 -80 93 C-80.66 93.99 -81.32 94.98 -82 96 C-82.39832031 95.26394531 -82.79664062 94.52789062 -83.20703125 93.76953125 C-83.73683594 92.79371094 -84.26664063 91.81789063 -84.8125 90.8125 C-85.33457031 89.84957031 -85.85664062 88.88664062 -86.39453125 87.89453125 C-87.43195506 86.02413941 -88.50299222 84.17182879 -89.61328125 82.34375 C-91.03619813 79.93882007 -92.05406016 77.47277832 -93.109375 74.890625 C-94.11064787 72.76511592 -95.32569629 70.89392283 -96.625 68.9375 C-98.75738534 65.65247394 -99.70254521 62.96606381 -100 59 C-100.99 58.67 -101.98 58.34 -103 58 C-104.640625 55.34765625 -104.640625 55.34765625 -106.25 52.0625 C-106.79140625 50.98097656 -107.3328125 49.89945313 -107.890625 48.78515625 C-108.25671875 47.86605469 -108.6228125 46.94695312 -109 46 C-106.66666667 41.33333333 -104.33333333 36.66666667 -102 32 C-97.05 32 -92.1 32 -87 32 C-86.608125 30.72125 -86.21625 29.4425 -85.8125 28.125 C-81.15986451 14.55302642 -81.15986451 14.55302642 -76.88671875 11.48046875 C-72.5126991 9.40005268 -68.86531613 8.41251165 -64 9 C-59.68022316 10.86319133 -55.61257269 13.22281317 -51.51953125 15.53320312 C-50.67003906 15.98759766 -49.82054687 16.44199219 -48.9453125 16.91015625 C-48.18750488 17.33433838 -47.42969727 17.75852051 -46.64892578 18.19555664 C-40.12372463 20.17717303 -33.52319448 17.36387245 -27.4140625 15.05859375 C-26.23957047 14.6278933 -26.23957047 14.6278933 -25.04135132 14.18849182 C-22.56620664 13.27946538 -20.09546484 12.35916043 -17.625 11.4375 C-15.13247049 10.51415405 -12.63908411 9.59324734 -10.14437866 8.67579651 C-8.59821701 8.10651597 -7.05342324 7.53350358 -5.51016235 6.95640564 C-0.22207613 5 -0.22207613 5 2 5 C1.01 2.525 1.01 2.525 0 0 Z " fill="#0A0A0A" transform="translate(142,44)"/>
<path d="M0 0 C0.99 0.495 0.99 0.495 2 1 C2.73075648 3.3140622 3.40138258 5.64828869 4 8 C-2.94995949 10.62762706 -9.90696568 13.23565858 -16.87011719 15.828125 C-19.62982231 16.86139993 -22.38203202 17.91202761 -25.1328125 18.96875 C-26.60906652 19.52165766 -28.08560676 20.07380204 -29.5625 20.625 C-30.22048584 20.8842627 -30.87847168 21.14352539 -31.55639648 21.41064453 C-36.86590248 23.3567528 -40.93105356 23.3420293 -46.1394043 21.06445312 C-49.27472016 19.50303144 -52.34328694 17.83082897 -55.41601562 16.15039062 C-60.73306864 13.34554386 -64.19461212 11.99519238 -70.20703125 13.58276367 C-74.85446597 15.21936543 -77.39300492 16.87326812 -79.62890625 21.328125 C-80.30499861 22.95599786 -80.94924185 24.59743068 -81.5625 26.25 C-81.90345703 27.09046875 -82.24441406 27.9309375 -82.59570312 28.796875 C-83.42533629 30.85343044 -84.21667553 32.92536407 -85 35 C-89.95 35 -94.9 35 -100 35 C-100.433125 36.4025 -100.86625 37.805 -101.3125 39.25 C-102.43703944 42.65039306 -103.54922663 45.31581964 -106 48 C-108.46323782 46.17934596 -109.02175133 44.92387034 -109.875 41.9375 C-110.03563339 36.87754815 -108.81756775 32.69688301 -107 28 C-105.05909174 26.05909174 -101.52706098 26.60080565 -98.9375 26.4375 C-97.64714844 26.35371094 -96.35679688 26.26992187 -95.02734375 26.18359375 C-94.02832031 26.12300781 -93.02929688 26.06242187 -92 26 C-91.76812988 25.43490723 -91.53625977 24.86981445 -91.29736328 24.28759766 C-90.2450564 21.73124395 -89.18513103 19.17811833 -88.125 16.625 C-87.76019531 15.73554687 -87.39539063 14.84609375 -87.01953125 13.9296875 C-86.66503906 13.07890625 -86.31054688 12.228125 -85.9453125 11.3515625 C-85.62062988 10.56604004 -85.29594727 9.78051758 -84.96142578 8.97119141 C-83.28981307 5.54391842 -81.93255566 4.97524195 -78.296875 3.640625 C-76.78348103 3.16985042 -75.26773218 2.70659506 -73.75 2.25 C-72.99847656 2.00378906 -72.24695313 1.75757813 -71.47265625 1.50390625 C-64.8684851 -0.49002326 -61.20044453 0.81291025 -55.1953125 3.98046875 C-53.15078396 5.08182503 -51.11581351 6.19273046 -49.09765625 7.34179688 C-42.58605356 10.79834127 -38.28683856 9.95791936 -31.39453125 7.94921875 C-30.21246094 7.53285156 -29.03039062 7.11648437 -27.8125 6.6875 C-26.51217649 6.23695797 -25.21138473 5.78776539 -23.91015625 5.33984375 C-23.26191895 5.11538574 -22.61368164 4.89092773 -21.94580078 4.65966797 C-17.86402382 3.27585851 -13.73312196 2.0483604 -9.609375 0.796875 C-3.40418333 -1.09812365 -3.40418333 -1.09812365 0 0 Z " fill="#F5F5F5" transform="translate(140,41)"/>
<path d="M0 0 C3.07572977 2.4776712 4.20262872 4.19653901 5 8 C4.44014404 8.13760742 3.88028809 8.27521484 3.3034668 8.41699219 C-2.79909751 10.04974298 -9.14949892 11.80005922 -14 16 C-16.00180138 20.15320357 -16.27231434 24.3814515 -16.37036133 28.94042969 C-16.5118176 35.51347245 -16.5118176 35.51347245 -19.3046875 38.296875 C-20.95141602 39.13964844 -20.95141602 39.13964844 -23 40 C-23.857146 40.38446289 -24.71429199 40.76892578 -25.59741211 41.16503906 C-28.65017331 42.49438916 -31.72497289 43.75365878 -34.8125 45 C-37.91751015 46.26735108 -41.02123211 47.53738317 -44.12084961 48.81787109 C-45.94547903 49.56703209 -47.77645174 50.30107164 -49.61547852 51.01416016 C-54.54329772 53.00958525 -57.3175919 54.79606127 -60.3125 59.375 C-61.28703125 60.81939453 -61.28703125 60.81939453 -62.28125 62.29296875 C-63.28620419 63.87577159 -64.28783463 65.46071092 -65.28125 67.05078125 C-66.13321529 68.40295344 -67.05791584 69.70899578 -68 71 C-68.99 71 -69.98 71 -71 71 C-72.52946722 65.42566081 -73.75551237 60.65665098 -72 55 C-65.17660149 43.63847422 -57.87048014 39.71133711 -45.9375 34.875 C-44.86177734 34.43285156 -43.78605469 33.99070313 -42.67773438 33.53515625 C-34.25113002 30.07674826 -34.25113002 30.07674826 -31.2199707 29.15039062 C-28.81666981 28.21823094 -28.81666981 28.21823094 -28.20800781 25.90869141 C-28.12389648 25.06483887 -28.03978516 24.22098633 -27.953125 23.3515625 C-27.829375 22.42859375 -27.705625 21.505625 -27.578125 20.5546875 C-27.36042662 18.61095195 -27.1571494 16.66554381 -26.96875 14.71875 C-25.99924666 7.75771605 -25.99924666 7.75771605 -23.05566406 5.52563477 C-20.73059928 4.48576824 -18.44415816 3.70996478 -16 3 C-14.97390625 2.57074219 -13.9478125 2.14148437 -12.890625 1.69921875 C-12.01921875 1.36535156 -11.1478125 1.03148437 -10.25 0.6875 C-8.92742187 0.16736328 -8.92742187 0.16736328 -7.578125 -0.36328125 C-4.62475367 -1.09267447 -2.88808814 -0.89764902 0 0 Z " fill="#F8F8F8" transform="translate(150,56)"/>
<path d="M0 0 C0.29535497 8.71297174 0.29535497 8.71297174 -2 13 C-4.6262207 14.5456543 -4.6262207 14.5456543 -7.92578125 15.82421875 C-9.11494141 16.29537109 -10.30410156 16.76652344 -11.52929688 17.25195312 C-12.79019964 17.73090322 -14.05126902 18.20941488 -15.3125 18.6875 C-16.56250162 19.17606781 -17.8118595 19.66628606 -19.06054688 20.15820312 C-21.36573247 21.06109862 -23.67381305 21.95666142 -25.9855957 22.8425293 C-27.47772583 23.41547729 -27.47772583 23.41547729 -29 24 C-29.90999756 24.31646484 -30.81999512 24.63292969 -31.75756836 24.95898438 C-35.22729344 26.56975277 -36.52021996 29.56916242 -38.25 32.8125 C-38.600625 33.42931641 -38.95125 34.04613281 -39.3125 34.68164062 C-43.14820133 41.62278476 -43.09296671 45.94146941 -41.5625 53.4375 C-38.98843663 66.30781684 -38.98843663 66.30781684 -41.8984375 71.17578125 C-42.71570313 72.21089844 -43.53296875 73.24601562 -44.375 74.3125 C-44.99375 75.1178418 -44.99375 75.1178418 -45.625 75.93945312 C-48.67114713 79.83557356 -48.67114713 79.83557356 -51 81 C-53.61324697 78.80824447 -54.89032726 77.32216368 -56 74.0625 C-56 71 -56 71 -54.0625 68.6875 C-51.10326907 64.83153242 -51.46094056 61.70521883 -52 57 C-52.30685885 55.51511523 -52.64023266 54.03546049 -53 52.5625 C-55.09129828 43.77240179 -54.50575248 37.71218668 -49.88085938 29.8515625 C-49.32205078 28.95179687 -48.76324219 28.05203125 -48.1875 27.125 C-47.36668945 25.74054688 -47.36668945 25.74054688 -46.52929688 24.328125 C-39.66189422 12.84083329 -39.66189422 12.84083329 -34.9296875 11.2890625 C-33.71998291 10.88022827 -33.71998291 10.88022827 -32.48583984 10.46313477 C-31.6242627 10.18655029 -30.76268555 9.90996582 -29.875 9.625 C-28.07274175 9.02265854 -26.27066162 8.41978388 -24.46875 7.81640625 C-23.55867188 7.51621582 -22.64859375 7.21602539 -21.7109375 6.90673828 C-16.84702349 5.2798852 -12.0290631 3.52288717 -7.20654297 1.77783203 C-2.2195838 0 -2.2195838 0 0 0 Z " fill="#F8F8F8" transform="translate(117,66)"/>
<path d="M0 0 C0.495 1.485 0.495 1.485 1 3 C-0.328125 5.0078125 -0.328125 5.0078125 -2.25 7.125 C-2.87390625 7.82882813 -3.4978125 8.53265625 -4.140625 9.2578125 C-6 11 -6 11 -9 12 C-9.37125 12.845625 -9.7425 13.69125 -10.125 14.5625 C-12.37331311 18.68440737 -15.11616301 20.91700848 -18.66796875 23.91796875 C-21.44565413 26.39787882 -23.72364501 29.10767311 -26.00390625 32.04296875 C-31.75349514 37.68004122 -39.38112274 40.70922598 -46.6875 43.8125 C-48.07291992 44.42254883 -48.07291992 44.42254883 -49.48632812 45.04492188 C-50.38158203 45.42841797 -51.27683594 45.81191406 -52.19921875 46.20703125 C-53.00190186 46.5522583 -53.80458496 46.89748535 -54.6315918 47.25317383 C-57.20916807 48.06595662 -59.31370593 48.13683376 -62 48 C-54.26778957 36.75314847 -39.23535367 31.97709302 -27 27 C-27.74765625 27.30035156 -28.4953125 27.60070312 -29.265625 27.91015625 C-30.25046875 28.29042969 -31.2353125 28.67070313 -32.25 29.0625 C-33.22453125 29.44535156 -34.1990625 29.82820313 -35.203125 30.22265625 C-38.10301238 31.02863054 -39.26158291 31.11760185 -42 30 C-42.99 29.34 -43.98 28.68 -45 28 C-50.79600241 28.32022113 -56.34683552 31.82060855 -61.49414062 34.29296875 C-62.65913086 34.83244141 -62.65913086 34.83244141 -63.84765625 35.3828125 C-64.54898682 35.71684082 -65.25031738 36.05086914 -65.97290039 36.39501953 C-68.3671621 37.10957819 -69.66851323 36.80517891 -72 36 C-67.46677154 26.90993252 -58.96255987 24.32543796 -50 21 C-48.90816406 20.56558594 -47.81632812 20.13117188 -46.69140625 19.68359375 C-45.80324219 19.45800781 -44.91507813 19.23242188 -44 19 C-41.96868328 20.28511874 -39.96722008 21.61876037 -38 23 C-33.25852753 22.67477265 -28.96503634 20.36793418 -24.6875 18.4375 C-23.57665039 17.9434668 -23.57665039 17.9434668 -22.44335938 17.43945312 C-20.62688438 16.63082877 -18.81316069 15.81602884 -17 15 C-18.18078125 15.52851562 -19.3615625 16.05703125 -20.578125 16.6015625 C-22.13506181 17.27686039 -23.69237334 17.95129481 -25.25 18.625 C-26.02730469 18.975625 -26.80460937 19.32625 -27.60546875 19.6875 C-28.35957031 20.00976562 -29.11367187 20.33203125 -29.890625 20.6640625 C-30.58188477 20.96779785 -31.27314453 21.2715332 -31.98535156 21.58447266 C-34.64609561 22.13325918 -35.72775701 21.393872 -38 20 C-38.66 19.67 -39.32 19.34 -40 19 C-40 18.34 -40 17.68 -40 17 C-26.8 11.39 -13.6 5.78 0 0 Z " fill="#ECECEC" transform="translate(163,83)"/>
<path d="M0 0 C3.73884332 2.65654657 5.64978174 4.58110387 7 9 C5.9171875 8.70029297 5.9171875 8.70029297 4.8125 8.39453125 C1.54860288 7.93667901 0.02496079 8.44708163 -3 9.6875 C-9.24676679 12.12239566 -15.57420854 14.09490508 -22 16 C-23.00933594 16.31453125 -24.01867187 16.6290625 -25.05859375 16.953125 C-26.00863281 17.23671875 -26.95867187 17.5203125 -27.9375 17.8125 C-28.77152344 18.06644531 -29.60554688 18.32039063 -30.46484375 18.58203125 C-36.83197227 19.63177355 -41.67939636 16.88950397 -47.125 14 C-48.52151166 13.26715168 -49.91989555 12.53785774 -51.3203125 11.8125 C-51.93148926 11.48894531 -52.54266602 11.16539063 -53.17236328 10.83203125 C-59.62350211 7.89515159 -65.61324865 10.11507536 -72.0390625 12.2265625 C-75.71678786 13.6664029 -77.51335746 15.05483641 -79.3125 18.6875 C-79.92606475 20.44129453 -80.48786198 22.21395084 -81 24 C-81.73530614 25.86004272 -82.48486521 27.71452739 -83.25 29.5625 C-83.56453125 30.38878906 -83.8790625 31.21507813 -84.203125 32.06640625 C-85 34 -85 34 -86 35 C-88.35313555 35.07271741 -90.70833668 35.08370868 -93.0625 35.0625 C-94.35285156 35.05347656 -95.64320312 35.04445312 -96.97265625 35.03515625 C-97.97167969 35.02355469 -98.97070312 35.01195312 -100 35 C-99.45276317 31.62537285 -98.9451 29.91765 -97 27 C-97 27.66 -97 28.32 -97 29 C-93.04 28.505 -93.04 28.505 -89 28 C-88.85191895 27.39003174 -88.70383789 26.78006348 -88.55126953 26.15161133 C-84.17807544 9.34084878 -84.17807544 9.34084878 -78.98339844 5.51464844 C-73.89763393 3.19447613 -68.54021178 2.37633265 -63 2 C-61.6903125 1.88140625 -60.380625 1.7628125 -59.03125 1.640625 C-53.09416285 1.73688223 -48.14754319 5.1197377 -43.06640625 7.88867188 C-33.95858999 12.57543308 -27.51993311 10.01230733 -18.15234375 7.06835938 C-16.98832031 6.69517578 -15.82429688 6.32199219 -14.625 5.9375 C-12.28461401 5.1942178 -9.94350418 4.45320963 -7.6015625 3.71484375 C-6.05976318 3.22165649 -6.05976318 3.22165649 -4.48681641 2.71850586 C-2 2 -2 2 0 2 C0 1.34 0 0.68 0 0 Z " fill="#0B0B0B" transform="translate(134,33)"/>
<path d="M0 0 C3.09867539 1.51468797 6.06224129 3.19471063 9 5 C9 5.66 9 6.32 9 7 C7.65808594 7.22816406 7.65808594 7.22816406 6.2890625 7.4609375 C0.47120085 8.91230171 -4.21233334 10.32959975 -7.69921875 15.4609375 C-9.90294759 19.23748173 -11.77726423 23.17102357 -13.62841797 27.12988281 C-15.73982555 31.54812907 -18.04144527 35.86359237 -20.32202148 40.19628906 C-22.90928285 45.11646491 -25.45505728 50.05783894 -28 55 C-28.99 55 -29.98 55 -31 55 C-33.39060454 52.18250179 -34.03052723 50.60905896 -33.84448242 46.8972168 C-32.79999631 42.07699944 -30.93611281 38.09892056 -28.73828125 33.70703125 C-28.31000534 32.83858078 -27.88172943 31.97013031 -27.44047546 31.07536316 C-26.53518515 29.24829581 -25.62466408 27.42381196 -24.70922852 25.60180664 C-23.31615956 22.81980824 -21.95140918 20.02509243 -20.58789062 17.22851562 C-19.70221138 15.44967811 -18.81489581 13.67165418 -17.92578125 11.89453125 C-17.32072502 10.64601128 -17.32072502 10.64601128 -16.70344543 9.37226868 C-12.92532105 1.96395317 -8.89037977 -2.56163485 0 0 Z " fill="#F7F7F7" transform="translate(79,62)"/>
<path d="M0 0 C1.57739258 1.28515625 1.57739258 1.28515625 2.89453125 3.0625 C3.37470703 3.69414062 3.85488281 4.32578125 4.34960938 4.9765625 C4.83236328 5.64429688 5.31511719 6.31203125 5.8125 7 C6.56563477 8.00160156 6.56563477 8.00160156 7.33398438 9.0234375 C8.57020191 10.67172755 9.78701654 12.3345376 11 14 C10.67 14.66 10.34 15.32 10 16 C9.34 15.67 8.68 15.34 8 15 C5.75111097 15.40558219 5.75111097 15.40558219 3.1875 16.1875 C1.71603516 16.60322266 1.71603516 16.60322266 0.21484375 17.02734375 C-1.99078849 17.6946614 -4.18599023 18.39716243 -6.37109375 19.12890625 C-15.75806362 22.24342689 -20.47152533 22.3368885 -29.4375 17.9375 C-31.29672217 16.96796697 -33.15263309 15.99193593 -35 15 C-34.35487047 11.86922436 -33.98455856 10.42879536 -32 8 C-27.7201348 5.89414523 -23.22883378 4.76131534 -18.625 3.5625 C-17.39265625 3.21251953 -16.1603125 2.86253906 -14.890625 2.50195312 C-4.04234253 -0.50426832 -4.04234253 -0.50426832 0 0 Z " fill="#EAEAEA" transform="translate(120,12)"/>
<path d="M0 0 C1.75 1.3125 1.75 1.3125 3.75 3.3125 C3.193125 3.52003906 2.63625 3.72757812 2.0625 3.94140625 C-7.66604707 7.86897846 -14.59400938 15.18416755 -21.61816406 22.79492188 C-24.38069461 25.36402568 -27.75982465 26.57113901 -31.1875 28.0625 C-31.90357422 28.39121094 -32.61964844 28.71992188 -33.35742188 29.05859375 C-34.05287109 29.36410156 -34.74832031 29.66960937 -35.46484375 29.984375 C-36.09511475 30.2637793 -36.72538574 30.54318359 -37.37475586 30.83105469 C-39.65363708 31.41612874 -41.04245219 31.0423386 -43.25 30.3125 C-41.49783536 25.98046105 -39.71437439 22.9889773 -35.375 20.984375 C-33.11864305 20.22870828 -30.86212615 19.47351903 -28.60546875 18.71875 C-23.11083603 16.41599356 -19.40595389 12.47579657 -15.25 8.3125 C-4.68515097 -1.43157391 -4.68515097 -1.43157391 0 0 Z " fill="#EDEDED" transform="translate(116.25,112.6875)"/>
<path d="M0 0 C2.60608273 2.5162178 4.89381685 5.05134359 7 8 C6.67 8.66 6.34 9.32 6 10 C5.34 9.67 4.68 9.34 4 9 C1.75111097 9.40558219 1.75111097 9.40558219 -0.8125 10.1875 C-2.28396484 10.60322266 -2.28396484 10.60322266 -3.78515625 11.02734375 C-5.99078849 11.6946614 -8.18599023 12.39716243 -10.37109375 13.12890625 C-19.75806362 16.24342689 -24.47152533 16.3368885 -33.4375 11.9375 C-35.29672217 10.96796697 -37.15263309 9.99193593 -39 9 C-38.01 6.69 -37.02 4.38 -36 2 C-35.40832031 2.42152344 -34.81664063 2.84304687 -34.20703125 3.27734375 C-33.41683594 3.82519531 -32.62664062 4.37304688 -31.8125 4.9375 C-31.03519531 5.48277344 -30.25789063 6.02804688 -29.45703125 6.58984375 C-26.04693361 8.54699041 -23.80520114 9.41757322 -19.87329102 8.50805664 C-17.3502703 7.75199305 -14.86388548 6.92418232 -12.375 6.0625 C-10.67573944 5.48714977 -8.97526305 4.91537462 -7.2734375 4.34765625 C-6.52497559 4.08992432 -5.77651367 3.83219238 -5.00537109 3.56665039 C-3 3 -3 3 0 3 C0 2.01 0 1.02 0 0 Z " fill="#0C0C0C" transform="translate(124,18)"/>
<path d="M0 0 C2.35953094 2.35953094 2.49141413 3.77895617 3 7 C-0.97901336 9.55575089 -5.11501346 11.39705481 -9.5 13.125 C-10.15097656 13.38925781 -10.80195313 13.65351562 -11.47265625 13.92578125 C-14.95477382 15.3115937 -18.2946557 16.41569571 -22 17 C-22.16089273 12.28514344 -21.87836369 8.36048713 -20 4 C-14.73933358 -0.37755192 -6.17499717 -3.61051747 0 0 Z " fill="#F3F3F3" transform="translate(162,72)"/>
<path d="M0 0 C-5.41573615 2.75482532 -10.82248564 5.49136752 -16.37109375 7.96875 C-17.11689697 8.30583984 -17.8627002 8.64292969 -18.63110352 8.99023438 C-20.09405143 9.64856889 -21.56184958 10.29626065 -23.03491211 10.93164062 C-28.0661838 13.21102083 -31.28747141 15.90341673 -35 20 C-34.34 20.66 -33.68 21.32 -33 22 C-37.455 23.485 -37.455 23.485 -42 25 C-40.0293869 22.63526429 -38.03486767 20.30879216 -36 18 C-35.39671875 17.30519531 -34.7934375 16.61039063 -34.171875 15.89453125 C-29.36201311 10.68384753 -24.75373466 8.10362227 -18 6 C-18.99 5.01 -19.98 4.02 -21 3 C-28.40869762 5.11677075 -32.53858222 8.45736849 -37.75 13.9375 C-42.31106819 18.61605024 -46.85197131 21.7536049 -53 24 C-53.66 24 -54.32 24 -55 24 C-54.40323978 20.70326367 -53.31828226 18.8276819 -51.125 16.3125 C-50.61195312 15.71050781 -50.09890625 15.10851562 -49.5703125 14.48828125 C-48 13 -48 13 -45 12 C-45.33 11.34 -45.66 10.68 -46 10 C-45.18917969 9.69707031 -44.37835938 9.39414063 -43.54296875 9.08203125 C-36.98079346 6.59925247 -30.61176588 3.97042076 -24.33984375 0.8203125 C-21.65939838 -0.11940958 -20.60322076 -0.04994767 -18 1 C-17.01 1.66 -16.02 2.32 -15 3 C-11.00318081 2.6574155 -7.43993856 1.05335871 -3.76953125 -0.4765625 C-2 -1 -2 -1 0 0 Z " fill="#262626" transform="translate(137,110)"/>
<path d="M0 0 C-6.90271395 9.35701224 -14.5770644 13.44932257 -25 18 C-26.16273437 18.52980469 -27.32546875 19.05960938 -28.5234375 19.60546875 C-36.89336463 23.29443663 -36.89336463 23.29443663 -42 23 C-34.69683511 12.37721471 -21.22413215 7.86827663 -9.6328125 3.2265625 C-6.87867224 2.27559768 -6.87867224 2.27559768 -6 0 C-3 -1 -3 -1 0 0 Z " fill="#D4D4D4" transform="translate(143,108)"/>
<path d="M0 0 C2.97 0 5.94 0 9 0 C8.02986575 3.01252216 7.028865 6.00730933 6 9 C5.61328125 10.14082031 5.2265625 11.28164062 4.828125 12.45703125 C4.20164062 14.21080078 4.20164062 14.21080078 3.5625 16 C3.17191406 17.11375 2.78132813 18.2275 2.37890625 19.375 C1 22 1 22 -1.16015625 22.875 C-1.76730469 22.91625 -2.37445313 22.9575 -3 23 C-5.16338352 20.14433375 -6 18.49683399 -6 14.875 C-4.98393464 9.6078106 -2.34309146 4.78128996 0 0 Z " fill="#EFEFEF" transform="translate(43,80)"/>
<path d="M0 0 C0.66 0 1.32 0 2 0 C3.57531709 4.8244086 4.48503732 8.85860437 4 14 C2.5 16.4375 2.5 16.4375 1 18 C-0.875 17.75 -0.875 17.75 -3 17 C-5.11133655 14.04412883 -5.56622517 11.55912964 -5 8 C-3.57639347 5.15807916 -2.01652857 2.46260913 0 0 Z " fill="#EBEBEB" transform="translate(58,114)"/>
<path d="M0 0 C-2.04411121 5.01736387 -5.54039892 8.12423935 -10.125 10.875 C-13 12 -13 12 -16 11 C-7.40380048 0 -7.40380048 0 0 0 Z " fill="#E9E9E9" transform="translate(98,120)"/>
<path d="M0 0 C0 0.66 0 1.32 0 2 C-1.4562545 2.67119549 -2.91507867 3.33681807 -4.375 4 C-5.59316406 4.556875 -5.59316406 4.556875 -6.8359375 5.125 C-9 6 -9 6 -11 6 C-11 4.68 -11 3.36 -11 2 C-9.73392393 1.46770674 -8.46189588 0.94955456 -7.1875 0.4375 C-6.47980469 0.14746094 -5.77210937 -0.14257812 -5.04296875 -0.44140625 C-3 -1 -3 -1 0 0 Z " fill="#1A1A1A" transform="translate(108,105)"/>
<path d="M0 0 C2.375 0.25 2.375 0.25 5 1 C6.3125 3.0625 6.3125 3.0625 7 5 C6.01 5.33 5.02 5.66 4 6 C4 5.34 4 4.68 4 4 C2.68 3.34 1.36 2.68 0 2 C0 1.34 0 0.68 0 0 Z " fill="#0A0A0A" transform="translate(116,111)"/>
<path d="M0 0 C0.33 0.66 0.66 1.32 1 2 C1.66 2.33 2.32 2.66 3 3 C-3.4 6.07692308 -3.4 6.07692308 -6.4375 5.6875 C-6.953125 5.460625 -7.46875 5.23375 -8 5 C-7.4225 4.731875 -6.845 4.46375 -6.25 4.1875 C-3.9674132 2.98280141 -2.0262058 1.59201885 0 0 Z " fill="#202020" transform="translate(72,142)"/>
</svg>
