<?xml version="1.0" encoding="UTF-8"?>
<!DOCTYPE svg PUBLIC "-//W3C//DTD SVG 1.1//EN" "http://www.w3.org/Graphics/SVG/1.1/DTD/svg11.dtd">
<svg xmlns="http://www.w3.org/2000/svg" version="1.1" width="512px" height="512px" style="shape-rendering:geometricPrecision; text-rendering:geometricPrecision; image-rendering:optimizeQuality; fill-rule:evenodd; clip-rule:evenodd" xmlns:xlink="http://www.w3.org/1999/xlink">
<g><path style="opacity:0.993" fill="#04add0" d="M 232.5,-0.5 C 247.833,-0.5 263.167,-0.5 278.5,-0.5C 313.923,3.02353 347.256,13.3569 378.5,30.5C 296.126,30.1723 213.792,30.5056 131.5,31.5C 152.638,19.1109 175.305,10.2776 199.5,5C 210.576,2.74641 221.576,0.913081 232.5,-0.5 Z"/></g>
<g><path style="opacity:0.997" fill="#09a8cd" d="M 378.5,30.5 C 393.287,38.303 406.954,47.6363 419.5,58.5C 310.43,58.8311 201.43,58.4977 92.5,57.5C 104.407,47.2718 117.407,38.6052 131.5,31.5C 213.792,30.5056 296.126,30.1723 378.5,30.5 Z"/></g>
<g><path style="opacity:0.997" fill="#0fa3cb" d="M 92.5,57.5 C 201.43,58.4977 310.43,58.8311 419.5,58.5C 430.134,67.4669 440.134,77.1336 449.5,87.5C 320.167,87.5 190.833,87.5 61.5,87.5C 71.1989,76.8004 81.5322,66.8004 92.5,57.5 Z"/></g>
<g><path style="opacity:0.992" fill="#159ec8" d="M 61.5,87.5 C 190.833,87.5 320.167,87.5 449.5,87.5C 456.938,95.9365 463.604,104.937 469.5,114.5C 425.833,115.167 382.167,115.833 338.5,116.5C 282.865,85.8586 227.199,85.8586 171.5,116.5C 128.167,115.833 84.8333,115.167 41.5,114.5C 47.3955,104.937 54.0622,95.9365 61.5,87.5 Z"/></g>
<g><path style="opacity:0.992" fill="#1c98c5" d="M 41.5,114.5 C 84.8333,115.167 128.167,115.833 171.5,116.5C 157.19,126.182 144.19,137.515 132.5,150.5C 95.4272,150.827 58.4272,150.493 21.5,149.5C 27.4027,137.296 34.0694,125.63 41.5,114.5 Z"/></g>
<g><path style="opacity:0.993" fill="#1c98c5" d="M 469.5,114.5 C 473.559,120.266 477.392,126.266 481,132.5C 484.068,137.964 486.568,143.631 488.5,149.5C 452.004,150.498 415.337,150.832 378.5,150.5C 366.693,137.279 353.36,125.946 338.5,116.5C 382.167,115.833 425.833,115.167 469.5,114.5 Z"/></g>
<g><path style="opacity:0.983" fill="#1d98c5" d="M 340.5,149.5 C 283.336,150.499 226.002,150.832 168.5,150.5C 208.487,119.389 252.82,111.556 301.5,127C 316.134,131.973 329.134,139.473 340.5,149.5 Z"/></g>
<g><path style="opacity:0.994" fill="#2293c2" d="M 21.5,149.5 C 58.4272,150.493 95.4272,150.827 132.5,150.5C 125.416,159.012 119.083,168.012 113.5,177.5C 79.5,177.5 45.5,177.5 11.5,177.5C 14.2386,167.951 17.5719,158.617 21.5,149.5 Z"/></g>
<g><path style="opacity:0.993" fill="#2293c2" d="M 340.5,149.5 C 350.54,157.206 359.207,166.206 366.5,176.5C 334.004,177.498 301.338,177.832 268.5,177.5C 265.247,166.209 258.247,163.042 247.5,168C 244.926,170.318 243.259,173.151 242.5,176.5C 209.833,177.833 177.167,177.833 144.5,176.5C 151.424,166.906 159.424,158.24 168.5,150.5C 226.002,150.832 283.336,150.499 340.5,149.5 Z"/></g>
<g><path style="opacity:0.994" fill="#2293c2" d="M 488.5,149.5 C 492.99,157.291 496.324,165.624 498.5,174.5C 498.5,175.5 498.5,176.5 498.5,177.5C 464.833,177.5 431.167,177.5 397.5,177.5C 391.917,168.012 385.584,159.012 378.5,150.5C 415.337,150.832 452.004,150.498 488.5,149.5 Z"/></g>
<g><path style="opacity:0.993" fill="#288ec0" d="M 11.5,177.5 C 45.5,177.5 79.5,177.5 113.5,177.5C 108.916,186.587 104.916,195.92 101.5,205.5C 68.9957,205.832 36.6624,205.498 4.5,204.5C 5.76155,195.117 8.09488,186.117 11.5,177.5 Z"/></g>
<g><path style="opacity:0.997" fill="#288dc0" d="M 144.5,176.5 C 177.167,177.833 209.833,177.833 242.5,176.5C 242.5,184.5 242.5,192.5 242.5,200.5C 241.549,201.919 241.216,203.585 241.5,205.5C 203.833,205.5 166.167,205.5 128.5,205.5C 132.566,195.026 137.899,185.359 144.5,176.5 Z"/></g>
<g><path style="opacity:0.995" fill="#288dc0" d="M 366.5,176.5 C 373.101,185.359 378.434,195.026 382.5,205.5C 344.833,205.5 307.167,205.5 269.5,205.5C 269.784,203.585 269.451,201.919 268.5,200.5C 268.5,192.833 268.5,185.167 268.5,177.5C 301.338,177.832 334.004,177.498 366.5,176.5 Z"/></g>
<g><path style="opacity:0.994" fill="#288ec0" d="M 498.5,174.5 C 502.394,184.069 505.061,194.069 506.5,204.5C 474.32,204.835 442.32,205.835 410.5,207.5C 406.753,197.331 402.42,187.331 397.5,177.5C 431.167,177.5 464.833,177.5 498.5,177.5C 498.5,176.5 498.5,175.5 498.5,174.5 Z"/></g>
<g><path style="opacity:0.993" fill="#2e88bd" d="M 4.5,204.5 C 36.6624,205.498 68.9957,205.832 101.5,205.5C 98.5276,215.032 96.1943,224.699 94.5,234.5C 62.76,234.175 31.0933,234.508 -0.5,235.5C -0.5,234.5 -0.5,233.5 -0.5,232.5C 0.608415,223.077 2.27508,213.743 4.5,204.5 Z"/></g>
<g><path style="opacity:0.995" fill="#2e88bd" d="M 242.5,200.5 C 242.5,210.167 242.5,219.833 242.5,229.5C 241.549,230.919 241.216,232.585 241.5,234.5C 201.094,234.827 160.761,234.494 120.5,233.5C 122.544,223.992 125.21,214.659 128.5,205.5C 166.167,205.5 203.833,205.5 241.5,205.5C 241.216,203.585 241.549,201.919 242.5,200.5 Z"/></g>
<g><path style="opacity:0.996" fill="#2e88bd" d="M 268.5,200.5 C 269.451,201.919 269.784,203.585 269.5,205.5C 307.167,205.5 344.833,205.5 382.5,205.5C 385.942,214.935 388.609,224.601 390.5,234.5C 350.167,234.5 309.833,234.5 269.5,234.5C 269.784,232.585 269.451,230.919 268.5,229.5C 268.5,219.833 268.5,210.167 268.5,200.5 Z"/></g>
<g><path style="opacity:0.994" fill="#2e88bd" d="M 506.5,204.5 C 508.656,213.753 510.323,223.086 511.5,232.5C 511.5,233.167 511.5,233.833 511.5,234.5C 479.833,234.5 448.167,234.5 416.5,234.5C 414.691,225.583 412.691,216.583 410.5,207.5C 442.32,205.835 474.32,204.835 506.5,204.5 Z"/></g>
<g><path style="opacity:0.972" fill="#3384bb" d="M 242.5,229.5 C 242.5,233.833 242.5,238.167 242.5,242.5C 219.634,242.182 196.8,242.515 174,243.5C 167.098,246.637 164.431,251.971 166,259.5C 167.012,262.202 168.512,264.535 170.5,266.5C 153.598,267.18 136.598,267.847 119.5,268.5C 119.334,256.813 119.667,245.146 120.5,233.5C 160.761,234.494 201.094,234.827 241.5,234.5C 241.216,232.585 241.549,230.919 242.5,229.5 Z"/></g>
<g><path style="opacity:0.972" fill="#3384bb" d="M 268.5,229.5 C 269.451,230.919 269.784,232.585 269.5,234.5C 309.833,234.5 350.167,234.5 390.5,234.5C 391.345,245.143 391.679,255.81 391.5,266.5C 373.91,267.486 356.243,267.819 338.5,267.5C 345.83,262.246 347.33,255.579 343,247.5C 341.786,245.951 340.286,244.785 338.5,244C 315.232,242.531 291.899,242.031 268.5,242.5C 268.5,238.167 268.5,233.833 268.5,229.5 Z"/></g>
<g><path style="opacity:0.996" fill="#3582ba" d="M 94.5,234.5 C 93.7507,245.484 93.4174,256.484 93.5,267.5C 62.1667,267.5 30.8333,267.5 -0.5,267.5C -0.5,256.833 -0.5,246.167 -0.5,235.5C 31.0933,234.508 62.76,234.175 94.5,234.5 Z"/></g>
<g><path style="opacity:0.996" fill="#3582ba" d="M 416.5,234.5 C 448.167,234.5 479.833,234.5 511.5,234.5C 511.5,244.833 511.5,255.167 511.5,265.5C 480.39,267.481 449.057,268.147 417.5,267.5C 417.583,256.484 417.249,245.484 416.5,234.5 Z"/></g>
<g><path style="opacity:0.984" fill="#3a7eb8" d="M 170.5,266.5 C 172.179,266.892 173.846,267.392 175.5,268C 197.831,268.5 220.164,268.667 242.5,268.5C 242.5,277.167 242.5,285.833 242.5,294.5C 241.539,292.735 241.205,290.735 241.5,288.5C 202.167,288.5 162.833,288.5 123.5,288.5C 121.529,281.979 120.196,275.312 119.5,268.5C 136.598,267.847 153.598,267.18 170.5,266.5 Z"/></g>
<g><path style="opacity:0.985" fill="#3a7eb8" d="M 391.5,266.5 C 390.979,274.014 389.646,281.347 387.5,288.5C 347.833,288.5 308.167,288.5 268.5,288.5C 268.5,281.833 268.5,275.167 268.5,268.5C 291.866,268.803 315.199,268.47 338.5,267.5C 356.243,267.819 373.91,267.486 391.5,266.5 Z"/></g>
<g><path style="opacity:0.994" fill="#4079b5" d="M 268.5,288.5 C 308.167,288.5 347.833,288.5 387.5,288.5C 384.82,301.561 379.82,313.561 372.5,324.5C 338.167,324.5 303.833,324.5 269.5,324.5C 269.737,323.209 269.404,322.209 268.5,321.5C 268.5,310.5 268.5,299.5 268.5,288.5 Z"/></g>
<g><path style="opacity:0.994" fill="#3f7ab6" d="M -0.5,267.5 C 30.8333,267.5 62.1667,267.5 93.5,267.5C 95.5026,287.172 100.503,306.172 108.5,324.5C 75.0935,324.826 41.7602,324.493 8.5,323.5C 4.10018,308.765 1.10018,293.765 -0.5,278.5C -0.5,274.833 -0.5,271.167 -0.5,267.5 Z"/></g>
<g><path style="opacity:0.993" fill="#4079b6" d="M 123.5,288.5 C 162.833,288.5 202.167,288.5 241.5,288.5C 241.205,290.735 241.539,292.735 242.5,294.5C 242.5,305.5 242.5,316.5 242.5,327.5C 241.596,326.791 241.263,325.791 241.5,324.5C 207.167,324.5 172.833,324.5 138.5,324.5C 131.18,313.561 126.18,301.561 123.5,288.5 Z"/></g>
<g><path style="opacity:0.993" fill="#3e7bb7" d="M 511.5,265.5 C 511.5,269.833 511.5,274.167 511.5,278.5C 510.09,288.743 508.423,299.076 506.5,309.5C 473.833,309.5 441.167,309.5 408.5,309.5C 412.8,295.652 415.8,281.652 417.5,267.5C 449.057,268.147 480.39,267.481 511.5,265.5 Z"/></g>
<g><path style="opacity:0.993" fill="#4773b2" d="M 268.5,321.5 C 269.404,322.209 269.737,323.209 269.5,324.5C 303.833,324.5 338.167,324.5 372.5,324.5C 366.42,335.969 358.42,345.969 348.5,354.5C 286.664,354.168 224.998,354.501 163.5,355.5C 153.01,346.822 144.676,336.488 138.5,324.5C 172.833,324.5 207.167,324.5 241.5,324.5C 241.263,325.791 241.596,326.791 242.5,327.5C 242.122,342.961 249.122,348.128 263.5,343C 265.049,341.786 266.215,340.286 267,338.5C 268.351,332.928 268.851,327.262 268.5,321.5 Z"/></g>
<g><path style="opacity:0.992" fill="#4773b2" d="M 8.5,323.5 C 41.7602,324.493 75.0935,324.826 108.5,324.5C 113.734,334.634 119.734,344.301 126.5,353.5C 90.6705,354.498 54.6705,354.832 18.5,354.5C 14.3674,344.435 11.0341,334.102 8.5,323.5 Z"/></g>
<g><path style="opacity:0.993" fill="#4674b3" d="M 408.5,309.5 C 441.167,309.5 473.833,309.5 506.5,309.5C 503.072,325.449 498.072,340.782 491.5,355.5C 455.833,354.833 420.167,354.167 384.5,353.5C 394.592,339.984 402.592,325.317 408.5,309.5 Z"/></g>
<g><path style="opacity:0.994" fill="#4e6daf" d="M 126.5,353.5 C 136.51,365.843 147.843,376.843 160.5,386.5C 119.167,387.167 77.8333,387.833 36.5,388.5C 29.4827,377.803 23.4827,366.47 18.5,354.5C 54.6705,354.832 90.6705,354.498 126.5,353.5 Z"/></g>
<g><path style="opacity:0.992" fill="#4e6daf" d="M 348.5,354.5 C 322.648,379.242 291.648,391.576 255.5,391.5C 219.863,391.663 189.196,379.663 163.5,355.5C 224.998,354.501 286.664,354.168 348.5,354.5 Z"/></g>
<g><path style="opacity:0.994" fill="#4e6daf" d="M 384.5,353.5 C 420.167,354.167 455.833,354.833 491.5,355.5C 487.632,365.568 482.966,375.235 477.5,384.5C 435.876,385.489 394.209,385.822 352.5,385.5C 364.167,375.833 374.833,365.167 384.5,353.5 Z"/></g>
<g><path style="opacity:0.991" fill="#5467ad" d="M 160.5,386.5 C 178.244,399.534 197.911,408.534 219.5,413.5C 164.669,414.499 109.669,414.832 54.5,414.5C 47.5162,406.539 41.5162,397.872 36.5,388.5C 77.8333,387.833 119.167,387.167 160.5,386.5 Z"/></g>
<g><path style="opacity:0.993" fill="#5468ad" d="M 477.5,384.5 C 471.246,395.076 464.246,405.076 456.5,414.5C 400.5,414.5 344.5,414.5 288.5,414.5C 311.743,409.084 333.076,399.417 352.5,385.5C 394.209,385.822 435.876,385.489 477.5,384.5 Z"/></g>
<g><path style="opacity:0.994" fill="#5864ab" d="M 219.5,413.5 C 242.424,418.413 265.424,418.747 288.5,414.5C 344.5,414.5 400.5,414.5 456.5,414.5C 453.514,418.817 450.18,422.817 446.5,426.5C 319.167,426.5 191.833,426.5 64.5,426.5C 60.8197,422.817 57.4864,418.817 54.5,414.5C 109.669,414.832 164.669,414.499 219.5,413.5 Z"/></g>
<g><path style="opacity:0.997" fill="#5b62aa" d="M 64.5,426.5 C 191.833,426.5 319.167,426.5 446.5,426.5C 441.5,432.167 436.167,437.5 430.5,442.5C 313.999,442.167 197.665,442.5 81.5,443.5C 75.5,438.167 69.8333,432.5 64.5,426.5 Z"/></g>
<g><path style="opacity:0.998" fill="#605ea8" d="M 430.5,442.5 C 418.771,454.193 405.771,464.193 391.5,472.5C 300.335,471.501 209.002,471.167 117.5,471.5C 104.375,463.605 92.3754,454.272 81.5,443.5C 197.665,442.5 313.999,442.167 430.5,442.5 Z"/></g>
<g><path style="opacity:0.994" fill="#6559a5" d="M 117.5,471.5 C 209.002,471.167 300.335,471.501 391.5,472.5C 379.53,480.986 366.53,487.653 352.5,492.5C 288.491,491.837 224.825,492.504 161.5,494.5C 145.916,488.377 131.249,480.71 117.5,471.5 Z"/></g>
<g><path style="opacity:0.99" fill="#6956a4" d="M 352.5,492.5 C 328.787,502.595 304.12,508.928 278.5,511.5C 263.167,511.5 247.833,511.5 232.5,511.5C 208.227,508.85 184.561,503.183 161.5,494.5C 224.825,492.504 288.491,491.837 352.5,492.5 Z"/></g>
</svg>
