<?xml version="1.0" standalone="no"?>
<!DOCTYPE svg PUBLIC "-//W3C//DTD SVG 20010904//EN"
 "http://www.w3.org/TR/2001/REC-SVG-20010904/DTD/svg10.dtd">
<svg version="1.0" xmlns="http://www.w3.org/2000/svg"
 width="1040.000000pt" height="1000.000000pt" viewBox="0 0 1040.000000 1000.000000"
 preserveAspectRatio="xMidYMid meet">

<g transform="translate(0.000000,1000.000000) scale(0.100000,-0.100000)"
fill="#000000" stroke="none">
<path d="M0 5000 l0 -5000 5200 0 5200 0 0 5000 0 5000 -5200 0 -5200 0 0
-5000z m6350 3542 c138 -34 264 -79 281 -101 9 -10 27 -21 40 -24 13 -2 -199
-2 -471 0 -272 3 -501 6 -507 8 -7 3 -10 11 -7 19 4 10 -3 20 -20 27 -36 17
-28 31 29 52 96 36 191 46 385 43 147 -2 202 -7 270 -24z m1723 -337 c-3 -9
-8 -14 -10 -11 -3 3 -2 9 2 15 9 16 15 13 8 -4z m369 -149 c10 6 11 4 0 -7
-10 -11 -15 -10 -30 6 -15 17 -15 18 0 6 9 -7 23 -9 30 -5z m-235 -70 c1 -42
-3 -58 -23 -81 -22 -26 -24 -53 -2 -39 6 4 9 -3 7 -17 -4 -35 10 -69 26 -63 8
4 15 -3 17 -18 2 -13 9 -22 15 -21 8 2 10 -4 6 -14 -5 -11 -8 -13 -11 -4 -3 8
-8 7 -19 -6 -13 -17 -14 -17 -9 0 3 9 0 17 -7 18 -9 0 -9 2 1 6 18 7 14 19 -7
19 -11 0 -17 -4 -15 -8 9 -14 -17 -8 -32 7 -9 8 -24 15 -35 15 -10 0 -19 5
-19 10 0 6 7 10 15 10 8 0 15 5 15 10 0 6 -20 10 -44 10 -31 0 -46 5 -50 16
-10 26 -7 36 10 30 11 -4 18 1 21 14 3 11 10 20 15 20 5 0 7 4 4 9 -3 5 5 16
19 25 14 9 25 26 25 38 0 26 47 78 64 72 7 -3 12 -27 13 -58z m264 7 c13 -16
12 -17 -3 -4 -10 7 -18 15 -18 17 0 8 8 3 21 -13z m264 -101 c-3 -3 -11 0 -18
7 -9 10 -8 11 6 5 10 -3 15 -9 12 -12z m-165 -17 c13 -14 21 -25 18 -25 -2 0
-15 11 -28 25 -13 14 -21 25 -18 25 2 0 15 -11 28 -25z m174 -62 c-3 -27 -7
-67 -9 -91 -1 -24 -10 -51 -18 -60 -8 -9 -18 -27 -21 -39 -5 -16 -15 -23 -34
-24 l-27 -1 30 -13 30 -14 -30 -2 c-47 -2 -69 2 -85 16 -23 21 -100 36 -100
20 0 -7 -7 -16 -16 -19 -14 -5 -15 -4 -5 8 15 18 -6 59 -26 52 -7 -3 -15 -1
-18 4 -4 6 4 11 17 11 42 3 53 5 70 13 10 5 15 12 12 17 -3 5 0 9 5 9 6 0 11
-5 11 -12 0 -6 7 -4 18 5 10 10 23 17 29 17 6 0 13 5 15 11 2 5 11 11 20 13
10 1 21 6 25 10 4 5 -8 6 -27 2 -26 -4 -30 -3 -15 3 11 5 17 10 13 12 -22 5
-29 7 -40 8 -8 1 -6 7 6 16 14 11 23 12 33 4 7 -6 10 -15 7 -20 -3 -5 5 -9 17
-9 18 0 20 3 11 12 -15 15 -16 45 -2 53 6 4 7 -1 3 -10 -8 -23 16 -37 34 -20
17 18 17 23 -4 29 -10 2 -1 2 20 -1 33 -5 37 -3 37 16 0 11 5 21 10 21 7 0 8
-18 4 -47z m-499 7 c3 -6 -1 -7 -9 -4 -18 7 -21 14 -7 14 6 0 13 -4 16 -10z
m-301 -59 c-2 -3 -12 3 -22 13 -16 17 -16 18 5 5 12 -7 20 -15 17 -18z m599
12 c-7 -2 -19 -2 -25 0 -7 3 -2 5 12 5 14 0 19 -2 13 -5z m300 -48 c-7 -21
-12 -19 -10 4 0 11 5 18 9 15 4 -3 5 -11 1 -19z m-1054 -104 c141 -146 295
-321 315 -359 10 -20 24 -40 30 -44 6 -4 -101 -9 -239 -10 -137 -1 -270 -2
-294 -2 -24 -1 -45 3 -47 9 -3 6 5 37 16 69 28 81 58 246 66 359 l7 94 31 -15
c17 -8 69 -54 115 -101z m226 101 c-3 -3 -11 0 -18 7 -9 10 -8 11 6 5 10 -3
15 -9 12 -12z m115 6 c0 -4 -6 -8 -14 -8 -8 0 -17 4 -20 8 -2 4 4 8 15 8 10 0
19 -4 19 -8z m250 -59 c0 -11 -4 -18 -10 -14 -5 3 -7 12 -3 20 7 21 13 19 13
-6z m430 7 c0 -2 -8 -10 -17 -17 -16 -13 -17 -12 -4 4 13 16 21 21 21 13z
m-70 -26 c0 -5 -2 -10 -4 -10 -3 0 -8 5 -11 10 -3 6 -1 10 4 10 6 0 11 -4 11
-10z m-3463 -112 c-7 -142 -23 -201 -97 -358 -70 -149 -99 -245 -107 -361 -13
-196 46 -336 167 -393 42 -19 60 -21 248 -19 130 1 202 -2 202 -8 0 -29 -65
-276 -106 -401 -25 -79 -106 -295 -180 -480 -73 -185 -143 -374 -155 -420 -60
-231 -18 -459 100 -543 42 -30 44 -30 199 -33 87 -2 161 -7 165 -12 8 -7 -73
-334 -129 -517 -22 -73 -27 -82 -52 -87 -15 -3 -105 -17 -201 -31 -95 -14
-178 -28 -183 -31 -5 -3 -23 1 -41 9 -22 10 -87 17 -212 21 -403 15 -634 52
-1025 162 -107 31 -248 68 -313 84 -161 40 -228 85 -243 165 -9 49 21 166 65
250 l36 70 91 0 c62 0 96 4 107 14 26 21 39 85 36 178 -2 51 1 87 8 91 18 12
110 127 127 160 10 20 16 56 16 101 0 86 -9 93 -94 79 -47 -8 -60 -8 -67 3
-15 25 -10 45 26 91 19 25 49 74 67 109 30 58 33 72 33 149 0 71 -4 94 -26
141 -57 122 -151 189 -274 196 -102 6 -175 -22 -313 -123 -23 -17 -24 -16 -53
19 -85 104 -237 14 -335 -198 -19 -42 -45 -115 -57 -163 l-23 -87 -56 -6
c-109 -12 -188 -102 -188 -217 0 -130 147 -286 347 -367 l58 -24 -1 -93 c0
-78 -5 -102 -26 -148 -38 -81 -89 -134 -166 -172 -70 -35 -73 -35 -248 -29
-75 3 -127 -6 -119 -19 3 -5 0 -12 -6 -16 -8 -4 -9 -3 -5 4 23 38 -63 -14
-127 -76 -52 -51 -75 -84 -45 -66 7 4 8 3 4 -5 -4 -6 -11 -9 -16 -6 -13 8 -73
-115 -98 -200 -34 -118 -42 -204 -41 -462 1 -205 12 -414 18 -338 1 14 4 16 9
8 4 -7 38 -17 76 -22 37 -5 73 -14 80 -20 15 -13 86 -43 86 -37 0 2 -20 14
-45 26 -25 12 -45 27 -45 33 0 8 4 7 12 -1 7 -7 21 -12 33 -12 11 0 36 -13 55
-30 35 -29 57 -39 45 -19 -4 5 14 -5 38 -23 25 -18 46 -38 46 -45 1 -19 22
-27 33 -12 8 11 9 10 4 -3 -3 -10 -4 -18 -2 -18 3 0 13 -3 23 -6 15 -5 15 -4
3 5 -13 9 -13 11 3 11 9 0 17 -7 17 -15 0 -8 15 -22 32 -31 18 -9 36 -21 39
-27 4 -5 25 -10 47 -11 25 0 36 -4 29 -9 -8 -6 -4 -7 11 -4 12 3 20 1 16 -4
-8 -13 10 -11 24 3 9 9 12 9 12 0 0 -7 -4 -12 -8 -12 -5 0 -9 -7 -9 -15 0 -9
6 -14 14 -10 34 14 46 15 26 3 -21 -13 -20 -13 18 -13 29 0 45 -6 55 -20 8
-10 14 -15 14 -9 0 18 72 12 91 -7 11 -11 27 -19 37 -19 15 0 15 -2 2 -11 -12
-9 -11 -10 5 -4 11 4 25 8 32 9 7 1 16 5 19 9 12 12 41 8 54 -8 7 -8 18 -15
24 -15 6 0 4 4 -4 10 -8 5 -11 12 -7 16 4 4 16 -1 27 -11 10 -9 26 -15 35 -12
8 4 15 3 15 -2 0 -7 146 -22 217 -23 12 0 24 -7 27 -15 3 -8 10 -11 16 -8 6 4
8 11 5 16 -3 5 1 6 10 3 12 -5 13 -9 4 -20 -9 -11 -7 -14 10 -14 11 0 20 3 18
8 -1 4 3 7 8 7 6 0 9 -3 8 -7 -4 -12 15 -9 20 2 3 6 4 5 3 -2 -1 -7 -18 -14
-36 -15 -42 -4 -53 -13 -14 -13 49 0 104 12 98 21 -3 5 -11 6 -17 3 -8 -4 -7
-2 1 7 11 12 14 12 21 0 5 -7 14 -11 20 -7 6 4 20 2 31 -4 11 -6 20 -7 20 -3
0 4 16 9 35 10 19 2 34 0 34 -5 -4 -21 3 -23 22 -6 14 13 22 15 27 7 4 -7 24
-14 44 -16 40 -4 71 -24 62 -39 -4 -6 2 -7 16 -3 14 5 20 3 16 -3 -4 -6 2 -8
15 -5 16 4 17 8 7 14 -10 7 -10 9 2 9 8 -1 23 -7 33 -15 11 -7 24 -12 30 -10
18 6 41 -16 56 -53 10 -23 17 -30 24 -23 17 17 31 13 17 -4 -8 -9 -9 -15 -2
-15 6 0 14 5 17 10 3 6 11 10 17 10 6 0 3 -10 -8 -22 -10 -12 -13 -18 -5 -13
9 5 21 -2 36 -19 13 -15 32 -28 43 -29 16 -1 20 -7 17 -30 -3 -24 -1 -26 11
-16 8 6 18 9 21 5 4 -4 1 -11 -7 -16 -12 -8 -12 -10 2 -15 14 -6 15 -27 13
-173 -3 -172 2 -235 16 -227 4 3 11 0 15 -6 4 -8 3 -9 -4 -5 -7 4 -12 1 -12
-10 0 -11 6 -15 20 -11 11 3 20 1 20 -4 0 -5 -4 -9 -9 -9 -5 0 -11 -9 -14 -20
-3 -13 0 -20 9 -20 20 0 17 -27 -6 -50 -17 -17 -18 -23 -8 -39 7 -11 17 -17
23 -14 5 3 4 0 -2 -8 -15 -16 -17 -49 -3 -49 14 0 13 -27 -1 -32 -6 -2 -12
-26 -13 -53 -1 -28 -5 -56 -9 -62 -5 -8 -3 -13 4 -13 8 0 8 -4 -1 -15 -7 -8
-9 -15 -4 -15 5 0 2 -5 -6 -10 -13 -9 -13 -10 0 -10 13 0 13 -1 0 -10 -12 -8
-13 -11 -1 -19 10 -6 10 -10 1 -16 -8 -5 -6 -11 7 -20 15 -11 15 -15 4 -29
-10 -12 -11 -16 -1 -16 10 0 10 -3 0 -15 -7 -9 -11 -36 -8 -70 1 -30 1 -55 -2
-55 -3 0 -4 -18 -4 -40 2 -34 -1 -40 -20 -41 -18 -1 -17 -2 8 -14 29 -12 29
-12 7 -24 -12 -7 -30 -9 -41 -6 -10 3 -21 1 -25 -5 -5 -9 15 -15 38 -11 5 1 6
-2 4 -7 -3 -4 -19 -9 -35 -10 -22 -2 -32 3 -34 15 -2 10 -2 245 0 523 4 563
-2 662 -44 746 -26 52 -88 125 -134 157 -16 12 -18 16 -7 13 12 -4 16 -2 11 6
-5 8 -1 9 12 4 14 -5 16 -4 8 4 -9 9 -17 9 -31 1 -15 -8 -33 -5 -71 9 -36 14
-109 24 -249 35 -654 52 -862 112 -1388 401 -43 23 -95 42 -135 49 l-65 12
-115 -58 c-63 -32 -118 -55 -122 -51 -4 4 -20 50 -37 103 -122 380 -212 827
-251 1239 -5 58 -16 173 -24 255 -30 310 -39 523 -40 965 -1 503 7 626 54 862
42 207 83 332 124 373 l33 33 28 -132 c52 -247 71 -286 141 -286 30 0 184 31
319 65 l60 15 48 -52 c27 -29 53 -52 59 -50 5 1 7 -2 3 -8 -3 -5 9 -31 27 -57
l32 -48 7 30 c3 17 18 63 33 104 14 41 24 84 20 95 -4 17 -3 18 5 6 10 -13 11
-13 12 0 1 8 1 18 0 22 0 4 7 4 16 1 12 -5 14 -3 8 7 -5 8 -4 11 2 7 6 -4 26
-1 44 7 19 8 88 25 155 39 66 14 137 32 157 41 34 14 37 18 37 55 0 81 -127
641 -157 691 -9 16 -27 31 -39 34 -13 4 -89 -8 -171 -24 -81 -17 -195 -41
-252 -52 -57 -12 -97 -24 -88 -27 9 -4 -9 -7 -41 -7 l-57 -1 27 29 c61 65 257
132 603 204 39 8 80 16 93 19 12 3 22 13 22 21 0 10 6 14 15 10 8 -3 54 -11
102 -18 128 -19 1942 -19 2060 0 78 12 320 76 331 87 20 20 24 -5 19 -107z
m3168 71 c0 -9 -10 -13 -29 -12 -33 2 -41 8 -32 22 9 14 61 6 61 -10z m85 -39
c0 -13 -30 -13 -50 0 -11 7 -7 10 18 10 17 0 32 -4 32 -10z m-1290 -19 c32 -6
1 -8 -105 -8 -89 0 -136 3 -115 7 48 10 165 10 220 1z m987 -13 c-3 -8 -6 -5
-6 6 -1 11 2 17 5 13 3 -3 4 -12 1 -19z m200 16 c-3 -3 -12 -4 -19 -1 -8 3 -5
6 6 6 11 1 17 -2 13 -5z m-1029 -41 c7 -12 17 -14 41 -10 27 6 33 3 47 -24 8
-17 13 -37 10 -45 -3 -8 -1 -14 4 -14 6 0 6 -9 0 -25 -5 -14 -7 -32 -4 -40 3
-8 2 -28 -4 -43 -10 -30 -5 -82 8 -82 5 0 16 25 26 55 9 31 19 54 21 51 2 -2
-16 -73 -41 -158 -54 -182 -92 -347 -101 -440 -9 -86 9 -197 41 -243 13 -20
24 -38 24 -40 0 -3 -345 -6 -767 -6 -423 -1 -887 -4 -1033 -8 -344 -8 -397 -4
-452 35 -88 62 -129 196 -110 363 14 117 36 188 111 351 51 110 69 159 85 235
2 14 4 12 5 -7 1 -20 6 -28 20 -28 17 0 50 28 44 37 -2 1 -3 8 -3 13 0 16 27
11 34 -6 5 -14 17 -15 74 -10 37 3 86 8 110 12 25 4 42 2 42 -4 0 -6 18 -5 47
4 29 9 64 12 88 8 31 -4 44 -2 54 10 8 9 24 16 37 16 14 0 24 6 24 15 0 12
-27 14 -166 14 -91 0 -169 2 -172 6 -4 4 386 5 865 4 480 -1 876 1 880 4 3 4
12 2 18 -3 9 -7 16 -6 25 5 17 20 57 19 68 -2z m1322 -29 c0 -8 -19 -13 -24
-6 -3 5 1 9 9 9 8 0 15 -2 15 -3z m-1153 -86 c-3 -8 -6 -5 -6 6 -1 11 2 17 5
13 3 -3 4 -12 1 -19z m-10 -40 c-3 -8 -6 -5 -6 6 -1 11 2 17 5 13 3 -3 4 -12
1 -19z m-5380 -54 c-3 -3 -12 -4 -19 -1 -8 3 -5 6 6 6 11 1 17 -2 13 -5z m450
-16 c-3 -8 -6 -5 -6 6 -1 11 2 17 5 13 3 -3 4 -12 1 -19z m-87 -15 c40 -7 61
-33 56 -66 -3 -20 -1 -27 8 -24 8 3 11 -4 8 -23 -2 -15 1 -37 8 -49 12 -23 3
-142 -9 -124 -3 5 -15 15 -26 22 -19 12 -19 12 3 8 15 -4 22 0 22 9 0 8 -6 14
-12 13 -32 -4 -44 3 -55 32 -11 29 -15 31 -45 24 -43 -10 -69 -10 -92 0 -14 6
-17 5 -12 -3 4 -7 1 -12 -8 -12 -9 0 -16 6 -16 14 0 18 -42 29 -52 13 -6 -9
-8 -9 -8 0 0 6 -13 11 -30 11 -26 -1 -28 -2 -12 -14 12 -9 19 -9 24 -1 4 7 6
2 5 -11 -1 -23 -12 -29 -22 -12 -4 7 -12 7 -25 0 -23 -13 -60 -13 -60 -1 0 5
-8 12 -17 15 -10 2 -4 3 12 2 17 -2 36 2 42 10 10 10 7 14 -17 19 -21 5 -30
13 -30 26 0 10 -5 19 -11 19 -5 0 -7 4 -4 10 3 6 -3 9 -14 7 -11 -1 -19 3 -18
8 1 6 12 10 25 9 26 0 31 16 5 17 -10 0 -5 5 12 10 19 5 31 5 36 -3 5 -7 14
-6 30 6 13 9 31 16 41 16 9 0 20 5 24 12 4 7 3 8 -4 4 -7 -4 -12 -2 -12 4 0 7
7 9 17 6 39 -15 103 -19 103 -6 0 10 3 10 16 -1 13 -10 17 -10 25 2 6 10 9 10
9 2 0 -7 5 -13 10 -13 6 0 9 3 9 8 -3 18 2 24 19 17 9 -4 28 -9 42 -12z m-495
-41 c-3 -3 -11 0 -18 7 -9 10 -8 11 6 5 10 -3 15 -9 12 -12z m5975 -66 c0 -6
-10 -27 -23 -46 -29 -43 -64 -142 -113 -315 -76 -271 -140 -348 -288 -347 -72
0 -100 19 -135 88 -37 72 -34 195 8 369 33 140 57 223 69 242 6 9 58 13 182
16 295 5 300 5 300 -7z m215 -22 c59 -28 110 -91 131 -161 22 -72 19 -218 -6
-316 -11 -45 -58 -192 -105 -327 -155 -448 -395 -1179 -425 -1296 -23 -89 -30
-137 -30 -213 0 -117 17 -181 65 -244 19 -25 35 -47 35 -49 0 -2 -208 -2 -462
-1 -472 2 -532 -1 -525 -21 4 -12 957 -16 1098 -5 127 11 185 56 222 174 23
74 24 81 72 409 85 584 137 772 252 912 45 56 77 68 166 62 112 -7 175 -47
216 -138 28 -62 28 -204 1 -319 -11 -46 -61 -197 -111 -335 -151 -417 -233
-681 -364 -1181 -42 -159 -119 -450 -172 -645 -52 -195 -114 -428 -138 -517
-24 -89 -46 -167 -50 -173 -9 -14 -2835 -14 -2835 0 0 6 6 23 14 38 7 15 19
52 26 82 15 64 39 95 89 111 50 16 325 128 449 183 256 114 445 222 535 305
185 171 363 596 523 1249 30 124 63 241 73 261 11 20 51 71 90 113 77 85 101
125 125 208 27 96 30 170 11 279 l-18 101 92 93 c50 51 106 115 124 142 39 58
137 229 137 239 0 12 -32 6 -78 -15 -232 -106 -277 -132 -372 -219 -53 -48
-57 -50 -113 -50 -53 0 -62 -3 -89 -32 -16 -17 -35 -46 -43 -64 -12 -29 -18
-33 -53 -32 -46 0 -106 -36 -164 -100 -32 -36 -62 -97 -57 -118 5 -22 -21 -51
-120 -133 -58 -49 -122 -103 -141 -121 -19 -18 -71 -60 -115 -93 -157 -121
-312 -255 -334 -290 -42 -69 -17 -135 90 -231 54 -49 91 -58 136 -33 45 25
203 168 366 330 141 140 187 181 187 165 -1 -20 -61 -172 -110 -273 -213 -450
-488 -835 -645 -906 -35 -15 -190 -39 -260 -39 -27 0 -34 25 -15 59 12 23 132
465 138 509 2 17 9 32 16 33 6 1 124 0 262 -1 182 -1 254 1 259 10 4 6 5 13 3
15 -2 3 -202 8 -444 12 l-441 8 -36 28 c-22 16 -49 53 -69 94 -31 64 -33 75
-36 193 -5 169 12 236 144 568 134 335 215 555 247 669 21 74 34 124 73 289 3
15 504 24 1289 24 690 0 675 -1 754 66 55 48 100 144 150 326 23 82 50 172 61
201 27 72 75 146 102 157 32 13 95 3 153 -26z m-6267 -9 c3 -3 -4 -4 -16 -2
-12 2 -24 6 -28 10 -4 3 4 4 16 2 12 -2 25 -7 28 -10z m107 -5 c3 -5 1 -10 -4
-10 -6 0 -11 5 -11 10 0 6 2 10 4 10 3 0 8 -4 11 -10z m5 -40 c26 -30 49 -44
90 -56 96 -27 107 -27 153 -5 61 30 84 27 123 -16 19 -20 34 -32 34 -27 0 6
-6 16 -12 24 -11 12 -10 12 4 2 18 -14 17 -84 -2 -107 -5 -6 -8 -15 -5 -18 3
-4 2 -5 -2 -2 -9 7 -44 -26 -38 -35 4 -7 -47 1 -90 15 -32 9 -154 -89 -172
-140 -8 -22 -15 -45 -15 -52 -1 -7 -6 -11 -12 -10 -6 1 -10 -2 -9 -8 2 -13
-84 -18 -92 -5 -9 15 -28 12 -19 -2 4 -8 3 -10 -2 -5 -5 5 -8 12 -8 15 1 4 -5
16 -12 27 -16 23 -18 88 -4 116 17 31 63 50 99 39 41 -11 66 -2 137 51 58 43
59 58 4 59 -14 0 -47 7 -74 15 -46 14 -50 14 -90 -10 -56 -33 -87 -32 -125 4
-26 24 -31 37 -31 74 0 38 5 49 31 71 48 41 95 36 139 -14z m-210 18 c0 -7
-12 -24 -25 -37 -14 -13 -25 -30 -25 -38 0 -12 2 -12 16 1 19 20 25 20 18 2
-4 -11 0 -13 18 -8 22 5 22 5 5 -12 -17 -17 -14 -42 4 -31 5 4 6 -3 1 -17 -4
-13 -5 -43 -1 -68 3 -25 7 -38 8 -30 1 9 8 4 17 -13 8 -15 19 -25 24 -22 4 3
6 -4 3 -15 -3 -11 -9 -17 -14 -14 -5 3 -7 9 -4 14 3 5 1 11 -4 14 -16 10 -22
-11 -11 -39 5 -14 6 -24 2 -21 -5 3 -10 -16 -11 -42 -1 -40 2 -49 21 -57 13
-6 27 -20 32 -31 10 -23 64 -61 80 -56 5 2 16 0 25 -3 12 -5 6 -11 -24 -26
-39 -19 -39 -20 -7 -14 19 4 32 2 32 -3 0 -19 -31 -42 -56 -42 -13 0 -24 -5
-24 -11 0 -5 -4 -7 -10 -4 -5 3 -15 3 -21 -1 -6 -3 -28 -7 -48 -9 -20 -1 -47
-5 -61 -9 -19 -6 -21 -5 -10 3 13 9 13 11 0 11 -9 0 -24 17 -35 38 -11 20 -23
39 -27 42 -4 3 -10 36 -13 74 -4 37 -11 80 -15 96 -5 16 -6 31 -2 34 3 3 1 6
-5 6 -11 0 -19 31 -29 110 -3 24 -9 51 -13 60 -4 8 -8 38 -9 66 -2 44 1 52 16
50 10 0 18 7 20 20 2 16 11 23 35 26 45 5 67 -1 67 -19 0 -13 3 -13 15 -3 8 7
15 19 15 26 0 8 7 14 15 14 8 0 15 -6 15 -12z m775 2 c3 -5 1 -10 -4 -10 -6 0
-11 5 -11 10 0 6 2 10 4 10 3 0 8 -4 11 -10z m-535 -25 c13 -14 21 -25 18 -25
-2 0 -15 11 -28 25 -13 14 -21 25 -18 25 2 0 15 -11 28 -25z m607 -7 c-3 -8
-6 -5 -6 6 -1 11 2 17 5 13 3 -3 4 -12 1 -19z m-492 -28 c-3 -5 -11 -10 -16
-10 -6 0 -7 5 -4 10 3 6 11 10 16 10 6 0 7 -4 4 -10z m50 -20 l20 -9 -20 0
c-11 0 -27 4 -35 9 -13 9 -13 10 0 9 8 0 24 -4 35 -9z m432 -62 c-3 -8 -6 -5
-6 6 -1 11 2 17 5 13 3 -3 4 -12 1 -19z m-780 -23 c0 -8 -4 -12 -9 -9 -4 3 -9
-3 -9 -13 -1 -17 -2 -17 -6 0 -2 9 -9 17 -15 17 -7 0 -6 5 2 14 13 17 37 11
37 -9z m165 8 c-6 -2 -9 -10 -5 -16 3 -7 3 -9 -2 -5 -4 4 -17 3 -29 -3 -17 -8
-16 -6 4 10 14 11 30 20 35 20 6 0 4 -3 -3 -6z m576 -37 c-5 -22 13 -105 40
-193 10 -31 10 -32 -10 -22 -11 6 -18 7 -15 2 13 -20 -38 -59 -93 -70 -30 -6
-56 -7 -58 -2 -5 11 -30 0 -60 -27 -14 -13 -32 -24 -41 -24 -10 0 -23 -6 -30
-12 -10 -11 -11 -9 -5 7 7 18 6 19 -12 5 -40 -31 -64 -55 -64 -66 0 -7 -7 -14
-15 -18 -8 -3 -15 -1 -15 4 0 5 -7 7 -15 4 -8 -4 -21 -1 -29 5 -11 9 -18 8
-30 -4 -14 -15 -16 -15 -16 -1 0 9 -9 16 -21 16 -11 0 -17 5 -14 10 3 6 1 10
-4 10 -6 0 -11 10 -11 21 0 16 -5 20 -20 16 -24 -6 -28 18 -5 27 18 6 45 -2
45 -15 0 -5 6 -9 14 -9 19 0 29 31 16 44 -8 8 -9 6 -4 -9 7 -17 6 -18 -8 -5
-11 10 -13 19 -6 27 8 10 13 9 25 -3 14 -13 17 -12 30 13 17 35 81 92 111 99
12 4 22 10 22 15 0 5 7 6 15 3 13 -6 20 6 16 28 0 4 8 12 19 18 15 8 22 6 32
-8 14 -18 68 -27 68 -10 0 5 14 21 30 35 17 13 30 32 30 41 0 10 5 24 10 32 8
13 11 12 24 -5 9 -11 16 -18 16 -15 1 3 3 14 5 24 3 16 21 35 34 36 2 0 1 -11
-1 -24z m-478 -36 c-19 -16 -42 -29 -50 -29 -13 1 -13 1 0 6 27 11 41 31 27
37 -6 3 -2 3 10 1 12 -3 24 -1 28 5 3 5 9 10 13 10 4 0 -9 -14 -28 -30z m-197
-34 c5 -20 5 -20 -10 2 -8 12 -22 22 -29 22 -8 0 -14 4 -14 10 0 18 48 -12 53
-34z m90 27 c-7 -2 -19 -2 -25 0 -7 3 -2 5 12 5 14 0 19 -2 13 -5z m30 -20
c-7 -2 -19 -2 -25 0 -7 3 -2 5 12 5 14 0 19 -2 13 -5z m149 -42 c-22 -16 -43
-34 -47 -40 -3 -6 -11 -11 -17 -11 -5 0 12 18 38 40 27 22 53 40 58 40 5 0 -9
-13 -32 -29z m75 -12 c-9 -6 -14 -15 -11 -21 4 -7 2 -8 -5 -4 -14 9 3 36 23
36 6 0 3 -5 -7 -11z m393 -43 c0 -3 -4 -8 -10 -11 -5 -3 -10 -1 -10 4 0 6 5
11 10 11 6 0 10 -2 10 -4z m67 -68 c-3 -8 -6 -5 -6 6 -1 11 2 17 5 13 3 -3 4
-12 1 -19z m5659 -29 c8 -8 30 -51 48 -95 75 -179 90 -212 127 -279 21 -39 45
-90 54 -115 9 -24 21 -47 27 -51 12 -8 -140 -17 -359 -22 -106 -3 -143 0 -143
9 0 6 11 40 24 75 53 144 166 490 166 510 0 22 0 22 20 3 12 -10 28 -26 36
-35z m-5752 10 c-3 -5 -10 -7 -15 -3 -5 3 -7 10 -3 15 3 5 10 7 15 3 5 -3 7
-10 3 -15z m-693 -47 c-7 -2 -18 1 -23 6 -8 8 -4 9 13 5 13 -4 18 -8 10 -11z
m93 -7 c-4 -8 -11 -12 -16 -9 -6 4 -5 10 3 15 19 12 19 11 13 -6z m603 -1 c-3
-3 -12 -4 -19 -1 -8 3 -5 6 6 6 11 1 17 -2 13 -5z m-130 -10 c-3 -3 -12 -4
-19 -1 -8 3 -5 6 6 6 11 1 17 -2 13 -5z m-50 -30 c-3 -3 -12 -4 -19 -1 -8 3
-5 6 6 6 11 1 17 -2 13 -5z m-391 -19 c-3 -8 -1 -15 4 -15 6 0 10 -8 10 -17 0
-15 -2 -14 -15 3 -11 14 -14 15 -9 3 3 -10 0 -20 -7 -25 -7 -4 -10 -3 -6 3 9
15 -16 23 -34 12 -12 -7 -12 -9 0 -9 8 0 12 -2 9 -5 -3 -3 -13 -3 -22 1 -15 6
-16 8 -1 24 9 10 24 16 35 13 12 -3 22 1 26 11 3 9 8 16 11 16 3 0 3 -7 -1
-15z m65 -102 c13 -16 12 -17 -3 -4 -10 7 -18 15 -18 17 0 8 8 3 21 -13z
m-397 -2 c4 -5 -3 -7 -14 -4 -23 6 -26 13 -6 13 8 0 17 -4 20 -9z m-17 -37
c-3 -3 -12 -4 -19 -1 -8 3 -5 6 6 6 11 1 17 -2 13 -5z m454 -11 c13 -16 12
-17 -3 -4 -10 7 -18 15 -18 17 0 8 8 3 21 -13z m5229 -303 c0 -5 -26 -51 -57
-102 -55 -89 -213 -268 -237 -268 -6 0 -37 29 -68 64 l-57 64 52 49 c29 27 69
59 90 72 l38 24 38 -42 c35 -39 61 -52 61 -31 0 5 -13 25 -30 43 -16 19 -30
39 -30 45 0 9 173 91 193 92 4 0 7 -4 7 -10z m1083 -36 c4 -4 -10 -25 -30 -47
-19 -22 -51 -73 -70 -114 -76 -165 -111 -327 -188 -863 -40 -282 -55 -348 -93
-409 -39 -63 -81 -83 -166 -79 -64 4 -71 6 -97 38 -53 62 -72 117 -77 215 -6
128 25 248 208 800 l151 454 127 4 c70 1 150 4 178 5 28 1 54 -1 57 -4z
m-1550 -227 c18 -8 56 -40 84 -71 64 -70 83 -125 90 -261 9 -179 -21 -263
-146 -398 -91 -100 -97 -115 -161 -387 -121 -514 -297 -965 -453 -1161 -100
-125 -403 -289 -887 -481 -146 -58 -276 -109 -290 -113 -51 -15 -120 -48 -120
-57 0 -6 -7 -7 -16 -4 -8 3 -12 2 -9 -4 6 -9 -21 -42 -56 -68 -12 -9 -16 -9
-16 3 0 8 3 12 7 10 10 -6 24 8 41 40 9 17 21 29 27 28 13 -3 81 134 121 244
67 185 83 381 42 502 -13 36 -33 85 -47 110 -13 25 -20 48 -16 52 8 8 273 42
499 63 123 12 161 19 207 41 165 78 426 440 644 894 89 186 122 278 122 342 0
60 41 201 83 287 38 76 65 145 96 248 25 83 72 154 101 154 12 0 35 -6 53 -13z
m-193 -120 c0 -16 -179 -177 -197 -177 -22 0 13 70 59 117 59 61 138 95 138
60z m-17 -99 c-3 -13 -28 -70 -55 -128 -45 -95 -98 -251 -98 -286 0 -17 -155
-174 -172 -174 -7 0 -44 36 -82 80 -70 81 -86 93 -86 64 0 -19 105 -131 131
-139 11 -4 19 -11 19 -17 0 -6 -32 -42 -70 -82 l-71 -71 -32 37 c-18 20 -59
66 -92 103 -33 36 -60 71 -60 77 0 7 32 35 70 64 39 29 104 84 145 122 74 70
186 163 277 232 26 19 72 59 103 87 60 57 81 66 73 31z m2102 -288 c-3 -11 3
-46 14 -77 33 -98 55 -469 48 -818 -8 -390 -25 -538 -97 -866 -179 -810 -512
-1390 -1069 -1862 -307 -261 -714 -459 -1176 -572 -465 -114 -810 -151 -1341
-143 -264 3 -303 6 -337 22 -21 10 -42 27 -48 38 -5 10 -14 16 -19 13 -5 -3
-12 0 -16 6 -4 8 -3 9 4 5 17 -10 15 9 -1 23 -8 6 -18 7 -22 3 -5 -4 -5 -2 -2
4 9 15 -54 99 -63 84 -5 -8 -9 -7 -13 5 -4 9 -3 13 3 10 17 -11 11 4 -21 48
-17 23 -34 41 -38 40 -4 -1 -8 4 -8 11 0 25 -45 74 -65 71 -10 -2 -16 0 -13 6
4 5 11 6 17 3 6 -4 8 -1 6 7 -3 8 -11 13 -17 12 -6 -2 -10 1 -8 6 1 5 -22 48
-52 95 -47 74 -57 84 -70 73 -14 -10 -14 -10 -3 5 11 14 10 23 -10 57 -24 43
-36 49 -56 29 -9 -9 -12 -8 -12 8 0 16 -2 17 -11 4 -9 -13 -10 -13 -6 2 3 9
-3 26 -14 39 -10 12 -19 31 -18 43 0 12 3 15 6 9 7 -20 26 -15 19 5 -4 10 2 7
14 -8 11 -14 20 -30 20 -36 0 -6 8 -18 19 -28 17 -15 107 -16 1217 -14 l1199
3 50 22 c132 56 1166 574 1184 592 28 28 29 109 2 142 l-19 24 -1339 1 c-736
0 -1359 -3 -1384 -7 -30 -5 -225 -97 -550 -259 -276 -138 -497 -245 -490 -237
10 13 9 26 -3 68 -9 29 -16 63 -16 76 0 13 -3 22 -7 20 -5 -3 -9 39 -11 93 -3
73 0 105 11 126 18 34 77 91 129 126 21 14 35 28 30 33 -4 5 -2 5 5 1 16 -9
64 14 56 27 -3 6 -1 7 5 3 6 -4 62 13 124 38 62 24 159 59 215 76 61 20 100
37 96 43 -4 6 -1 7 6 2 8 -4 24 4 42 21 37 35 38 56 2 23 l-28 -24 24 27 c13
15 27 26 32 25 5 -1 23 20 41 48 29 43 42 53 113 82 44 17 88 32 98 33 20 0
18 -10 -14 -115 -31 -103 -33 -100 37 -103 l61 -3 10 -81 c7 -49 17 -87 27
-97 15 -15 134 -16 1389 -21 755 -4 1381 -9 1393 -14 33 -12 100 11 122 42 25
36 41 86 106 342 30 118 66 258 80 310 13 52 45 174 70 270 25 96 85 330 135
520 113 437 116 453 101 491 -15 36 -85 79 -128 79 -23 0 -32 5 -32 16 0 37
254 774 267 774 2 0 2 -9 -2 -20z m-5290 -110 c0 -10 -12 -16 -32 -18 -24 -2
-33 1 -33 12 0 8 6 17 13 20 22 9 52 1 52 -14z m163 -76 c5 -89 -34 -144 -67
-94 -18 27 -53 122 -46 128 7 8 69 20 90 19 17 -2 20 -10 23 -53z m-133 -27
c8 -28 26 -68 39 -87 27 -41 24 -53 -26 -107 -27 -28 -30 -37 -29 -95 1 -76
-8 -160 -20 -179 -6 -10 -33 -14 -106 -14 l-98 0 -37 -70 c-64 -121 -86 -224
-66 -304 11 -43 53 -94 113 -137 40 -29 29 -39 -70 -64 -303 -76 -656 -28
-805 110 -48 44 -51 65 -10 74 70 13 185 77 242 133 80 79 111 151 116 269 l4
91 84 6 c106 6 162 35 193 100 12 24 21 52 21 63 0 10 3 30 7 42 6 26 15 26
92 -3 51 -18 81 -14 61 10 -7 8 -21 15 -32 15 -28 0 -96 37 -108 59 -18 34
-12 99 9 111 33 17 70 11 93 -15 26 -31 41 -31 60 -4 10 16 31 25 73 31 94 16
169 24 177 20 4 -1 14 -26 23 -55z m2511 -119 c28 -29 69 -76 91 -103 l41 -51
-67 -61 c-110 -100 -152 -133 -172 -133 -26 0 -156 129 -164 163 -6 21 -1 37
19 67 27 42 171 170 190 170 7 0 34 -24 62 -52z m2523 -507 c23 -22 31 -38 31
-65 0 -19 -69 -298 -154 -618 -85 -321 -184 -695 -220 -833 -83 -319 -103
-382 -127 -406 -19 -19 -46 -19 -1389 -19 -1367 0 -1370 0 -1390 20 -17 17
-20 31 -18 83 l3 62 1360 1 1360 0 9 30 c5 16 12 38 16 49 5 11 24 83 44 160
20 77 45 174 57 215 35 129 49 182 79 295 16 61 36 136 44 168 90 327 135 497
147 552 4 22 22 87 39 145 18 58 35 119 40 136 15 63 25 66 69 25z m-6213
-246 c-12 -13 -13 -21 -6 -36 6 -11 8 -24 5 -29 -3 -5 0 -12 6 -16 8 -4 9 -3
5 4 -12 19 -1 14 20 -10 10 -12 14 -18 7 -14 -6 3 -21 -3 -32 -15 -17 -18 -23
-20 -35 -9 -12 9 -13 17 -5 31 7 14 5 25 -6 42 -17 27 -8 45 10 21 9 -13 11
-11 9 15 -1 17 2 29 6 26 5 -3 12 0 15 6 4 5 9 8 12 5 3 -3 -2 -12 -11 -21z
m-236 2 c0 -2 -15 -13 -32 -26 l-33 -22 28 25 c26 24 37 31 37 23z m-70 -61
c0 -2 -8 -10 -17 -17 -16 -13 -17 -12 -4 4 13 16 21 21 21 13z m250 -6 c0 -5
-2 -10 -4 -10 -3 0 -8 5 -11 10 -3 6 -1 10 4 10 6 0 11 -4 11 -10z m-29 -62
c8 -11 22 -29 32 -40 9 -12 17 -24 17 -29 0 -4 9 -5 20 -2 11 3 20 9 20 14 0
5 -6 7 -12 5 -7 -1 -10 -1 -5 1 4 3 4 10 1 16 -5 8 -3 8 6 0 10 -9 17 -10 27
-2 9 8 13 8 13 1 0 -6 -5 -14 -11 -18 -6 -3 -9 -19 -7 -35 4 -22 1 -29 -13
-29 -9 0 -19 6 -22 14 -5 13 -67 29 -67 17 0 -4 12 -15 27 -26 38 -29 63 -57
63 -72 0 -26 84 -104 139 -131 66 -31 174 -39 331 -22 52 6 136 13 185 15 182
10 228 16 248 30 12 8 28 15 37 15 26 0 123 50 137 70 8 11 28 23 46 28 18 5
33 14 33 20 3 25 4 25 19 6 11 -14 14 -15 15 -4 0 13 2 13 9 1 6 -9 31 -15 67
-17 40 -3 67 -10 87 -25 22 -16 43 -21 88 -20 33 0 58 -3 55 -8 -8 -13 30 -43
58 -45 18 -1 22 -4 14 -13 -8 -10 -6 -13 6 -13 9 0 16 6 16 13 0 8 3 9 8 1 4
-6 21 -14 37 -17 17 -3 48 -10 70 -16 22 -5 56 -13 75 -16 19 -3 39 -10 44
-16 6 -5 19 -9 30 -10 21 0 21 0 1 -9 -32 -14 126 -9 160 5 31 12 104 13 124
1 6 -4 11 -3 11 2 0 13 133 3 145 -11 6 -7 26 -12 45 -12 19 0 44 -5 55 -11
11 -6 48 -17 82 -24 70 -14 94 -34 95 -79 1 -17 7 -36 15 -42 7 -6 13 -18 13
-26 0 -8 5 -24 12 -36 7 -12 14 -33 16 -46 2 -14 7 -32 13 -42 5 -11 5 -20 0
-23 -5 -3 -9 -49 -9 -102 0 -63 -3 -99 -11 -103 -6 -4 -11 -21 -10 -37 1 -16
-5 -49 -14 -73 -11 -30 -13 -50 -6 -62 13 -25 11 -69 -3 -69 -6 0 -3 -7 8 -15
18 -15 18 -15 0 -8 -13 4 -17 3 -12 -5 4 -7 3 -12 -2 -12 -5 0 -15 -12 -23
-27 -23 -47 -52 -82 -60 -77 -5 3 -6 -3 -2 -12 5 -13 3 -15 -8 -9 -12 8 -12 6
0 -9 8 -9 20 -15 28 -12 20 8 16 2 -16 -27 l-30 -26 4 30 c3 25 1 28 -10 19
-8 -7 -17 -20 -20 -30 -4 -11 -20 -20 -47 -24 -23 -4 -49 -12 -57 -19 -8 -7
-12 -7 -9 -2 3 6 -6 11 -20 11 -15 1 -21 -1 -14 -3 32 -12 -11 -33 -76 -37
-13 -1 -27 -8 -32 -15 -4 -8 -17 -12 -29 -8 -12 3 -23 2 -26 -3 -2 -4 -31 -5
-64 -3 -36 3 -62 0 -66 -6 -3 -6 1 -11 9 -11 15 0 20 -10 14 -27 -2 -4 -11 -8
-20 -8 -9 -1 -14 3 -11 8 9 15 -19 26 -44 16 -12 -5 -23 -5 -23 -1 0 5 -21 9
-47 11 -26 1 -49 4 -51 6 -2 2 9 29 24 60 22 43 39 62 68 77 22 11 81 57 132
102 113 99 151 129 184 146 28 15 39 27 76 83 28 42 42 145 26 187 -9 24 -9
24 -28 -15 -25 -56 -104 -169 -104 -152 0 8 11 35 25 58 58 103 6 233 -118
292 -82 40 -185 77 -211 77 -14 0 -37 5 -53 11 -15 5 -59 12 -98 14 -38 2 -85
9 -104 14 -25 8 -38 7 -48 -1 -18 -14 -182 6 -227 28 -36 18 -157 17 -255 -2
-41 -7 -77 -12 -79 -10 -2 3 -16 0 -30 -5 -14 -5 -50 -12 -81 -15 -31 -3 -87
-16 -126 -27 -94 -29 -345 -32 -387 -5 -14 10 -48 23 -75 29 -26 7 -73 24
-103 39 -79 39 -145 58 -225 64 -125 10 -209 31 -247 59 -19 15 -40 27 -46 27
-23 0 -38 55 -35 130 3 97 5 110 14 110 16 0 41 33 29 40 -12 7 -3 40 12 40 5
0 6 -5 2 -11 -4 -7 1 -9 12 -7 11 2 18 10 16 17 -1 7 2 10 7 7 5 -4 17 1 25
10 14 13 17 13 22 1 3 -9 13 -13 24 -10 13 4 17 12 14 33 -4 24 -2 28 14 23
10 -2 25 -14 33 -25z m133 -5 c20 -17 20 -17 7 0 -20 25 -5 21 46 -13 24 -16
49 -30 54 -30 6 0 8 -4 5 -9 -4 -5 -1 -11 6 -13 7 -3 2 -7 -10 -10 -12 -4 -20
-2 -16 3 5 8 -17 14 -39 10 -5 -1 -5 4 -1 10 5 8 2 10 -8 7 -9 -4 -15 0 -15 8
0 9 6 13 14 10 8 -3 11 -1 8 4 -11 17 -21 11 -48 -27 -15 -21 -27 -33 -27 -27
0 7 7 17 15 24 20 17 19 27 -5 35 -11 3 -20 13 -20 21 0 19 9 18 34 -3z m932
-58 c-11 -8 -25 -15 -30 -15 -6 1 0 7 14 15 32 19 40 18 16 0z m-749 -15 c16
-6 30 -17 30 -24 0 -8 -7 -12 -15 -8 -10 3 -13 1 -8 -6 3 -6 2 -13 -3 -16 -16
-10 -22 12 -7 26 11 11 10 15 -13 25 -33 14 -23 16 16 3z m670 -18 c-21 -10
-36 -20 -33 -23 3 -3 -11 -3 -32 -1 l-37 5 55 14 c29 7 56 16 59 18 2 3 9 5
15 4 6 0 -6 -8 -27 -17z m-1326 -35 c-10 -9 -11 -8 -5 6 3 10 9 15 12 12 3 -3
0 -11 -7 -18z m1216 7 c-3 -3 -12 -4 -19 -1 -8 3 -5 6 6 6 11 1 17 -2 13 -5z
m-130 -23 c7 -4 3 -10 -13 -18 -13 -6 -22 -7 -18 -2 7 12 -43 11 -66 -1 -14
-7 -23 -6 -34 5 -8 8 -21 15 -28 15 -11 0 -11 -2 0 -9 10 -6 7 -10 -11 -13
-17 -3 -24 -1 -21 7 3 7 -9 16 -28 22 -25 8 -3 9 87 5 66 -2 125 -7 132 -11z
m46 12 c-7 -2 -19 -2 -25 0 -7 3 -2 5 12 5 14 0 19 -2 13 -5z m12 -33 c-3 -5
-16 -10 -28 -9 -20 1 -20 2 3 9 14 4 26 8 28 9 2 1 0 -3 -3 -9z m992 -6 c-3
-3 -12 -4 -19 -1 -8 3 -5 6 6 6 11 1 17 -2 13 -5z m50 -10 c-3 -3 -12 -4 -19
-1 -8 3 -5 6 6 6 11 1 17 -2 13 -5z m-2090 -26 c-3 -8 -6 -5 -6 6 -1 11 2 17
5 13 3 -3 4 -12 1 -19z m0 -60 c-3 -8 -6 -5 -6 6 -1 11 2 17 5 13 3 -3 4 -12
1 -19z m2770 6 c-3 -3 -12 -4 -19 -1 -8 3 -5 6 6 6 11 1 17 -2 13 -5z m71 -1
c-10 -2 -28 -2 -40 0 -13 2 -5 4 17 4 22 1 32 -1 23 -4z m192 -29 c0 -8 -19
-13 -24 -6 -3 5 1 9 9 9 8 0 15 -2 15 -3z m-62 -749 c-3 -3 -9 2 -12 12 -6 14
-5 15 5 6 7 -7 10 -15 7 -18z m27 -55 c-3 -5 -1 -10 5 -10 7 0 6 -5 -2 -14
-17 -18 -32 2 -16 21 12 15 22 17 13 3z m-2619 -107 c-6 -6 -36 9 -36 18 0 5
9 4 20 -3 10 -7 18 -14 16 -15z m384 -128 c8 -9 8 -15 2 -15 -18 0 -42 12 -42
21 0 14 26 10 40 -6z m2021 -88 c-10 -9 -11 -8 -5 6 3 10 9 15 12 12 3 -3 0
-11 -7 -18z m-25 -14 c-6 -6 -36 9 -36 18 0 5 9 4 20 -3 10 -7 18 -14 16 -15z
m-79 -9 c-3 -3 -12 -4 -19 -1 -8 3 -5 6 6 6 11 1 17 -2 13 -5z m-163 -73 c-2
-3 -12 3 -22 13 -16 17 -16 18 5 5 12 -7 20 -15 17 -18z m-73 10 c-11 -7 -9
-10 8 -16 13 -4 20 -9 18 -12 -3 -2 -15 0 -26 7 -22 11 -20 30 2 30 8 0 7 -3
-2 -9z m-593 -56 c-3 -3 -9 2 -12 12 -6 14 -5 15 5 6 7 -7 10 -15 7 -18z
m4090 -120 c37 -14 -5 -41 -255 -166 -148 -72 -311 -153 -364 -180 -56 -28
-96 -43 -97 -36 -1 7 -3 23 -4 37 -3 23 -8 26 -61 31 -96 11 -776 19 -867 11
l-85 -7 -3 -42 c-2 -23 -10 -47 -18 -55 -9 -7 -80 -47 -157 -89 -107 -56 -143
-80 -145 -96 -4 -26 22 -42 87 -53 25 -4 -172 -8 -439 -8 -340 0 -475 3 -450
10 49 14 60 26 60 64 0 28 6 38 38 58 119 75 263 132 370 147 44 6 92 20 111
32 l35 21 -30 8 c-16 4 -207 12 -425 16 -246 6 -403 13 -415 20 -25 13 -111
18 -144 8 -34 -10 86 55 316 170 180 91 196 97 270 103 89 7 2652 4 2672 -4z
m-3815 -623 c10 -10 14 -21 11 -25 -9 -9 -40 9 -48 28 -8 21 17 19 37 -3z
m221 -190 c2 -4 -5 -9 -17 -9 -17 -2 -19 0 -7 7 18 12 18 12 24 2z m-46 -241
c12 -11 22 -24 22 -29 0 -5 19 -12 42 -15 24 -3 44 -11 46 -17 2 -5 11 -17 19
-25 8 -9 12 -23 9 -31 -4 -11 1 -18 14 -21 11 -3 20 -9 20 -14 0 -5 -3 -8 -7
-7 -5 1 -18 -2 -31 -6 -23 -8 -92 10 -92 24 0 4 -14 10 -31 14 -38 7 -34 32 5
28 14 -1 26 2 26 7 0 13 -29 41 -43 41 -24 1 -60 37 -54 54 8 21 27 20 55 -3z
m217 -30 c-9 -8 -36 -10 -30 -2 2 4 11 8 20 8 8 0 13 -3 10 -6z m85 -105 c0
-2 -8 -10 -17 -17 -16 -13 -17 -12 -4 4 13 16 21 21 21 13z m83 -129 c-8 -13
-26 9 -28 34 -2 21 -1 21 16 -2 10 -13 15 -27 12 -32z m-640 -4 c-7 -2 -19 -2
-25 0 -7 3 -2 5 12 5 14 0 19 -2 13 -5z m595 -80 c-10 -2 -26 -2 -35 0 -10 3
-2 5 17 5 19 0 27 -2 18 -5z"/>
<path d="M8050 7840 c0 -5 5 -10 10 -10 6 0 10 5 10 10 0 6 -4 10 -10 10 -5 0
-10 -4 -10 -10z"/>
<path d="M3493 7118 c-31 -34 -125 -228 -119 -245 3 -8 2 -12 -3 -9 -9 6 -82
-154 -95 -206 -5 -22 -1 -31 20 -44 14 -10 39 -17 55 -17 16 0 25 -3 20 -7
-16 -9 135 -81 156 -74 14 4 15 4 4 -4 -15 -11 2 -27 18 -17 10 6 41 -32 41
-50 -1 -5 -8 3 -16 18 -9 16 -18 26 -22 23 -3 -4 0 -12 6 -18 7 -7 12 -45 12
-96 l0 -84 48 38 c58 46 72 60 52 49 -8 -4 -24 -15 -35 -24 -18 -14 -18 -13 1
8 12 12 32 24 45 26 13 2 35 7 49 10 18 5 58 -9 143 -50 65 -31 126 -55 135
-53 21 4 154 265 148 291 -2 9 -1 15 4 12 10 -6 90 175 90 206 0 14 -78 55
-316 165 -270 125 -383 174 -405 174 -8 0 -25 -10 -36 -22z m293 -283 c13 -19
25 -25 53 -25 27 0 44 -7 61 -25 12 -13 26 -23 29 -20 11 6 6 -69 -6 -90 -6
-11 -20 -29 -32 -39 -11 -10 -18 -22 -16 -27 3 -4 0 -11 -6 -15 -8 -4 -9 -3
-5 4 10 16 5 15 -54 -8 -28 -11 -61 -20 -75 -20 -30 0 -58 35 -85 106 -27 75
-26 119 5 149 26 27 25 30 -8 14 -19 -9 -20 -8 -6 3 9 8 42 15 73 16 49 2 57
0 72 -23z m-306 -35 c0 -5 -7 -10 -16 -10 -8 0 -12 5 -9 10 3 6 10 10 16 10 5
0 9 -4 9 -10z m-139 -27 c-12 -20 -14 -14 -5 12 4 9 9 14 11 11 3 -2 0 -13 -6
-23z m145 -8 c4 -8 13 -15 21 -15 8 0 11 -4 8 -10 -3 -5 -2 -10 4 -10 5 0 13
-10 17 -22 4 -13 11 -26 16 -29 6 -4 4 -18 -6 -35 -8 -16 -15 -23 -16 -16 0 7
-8 12 -17 10 -26 -4 -90 29 -95 49 -6 24 10 83 22 83 6 0 10 -5 10 -11 0 -5 5
-7 10 -4 6 4 8 11 5 16 -4 5 -1 9 5 9 6 0 13 -7 16 -15z m-175 -58 c-10 -9
-11 -8 -5 6 3 10 9 15 12 12 3 -3 0 -11 -7 -18z m766 -13 c-3 -3 -12 -4 -19
-1 -8 3 -5 6 6 6 11 1 17 -2 13 -5z m9 -36 c15 -11 25 -48 13 -48 -5 0 -9 -8
-9 -18 0 -10 -5 -23 -12 -30 -7 -7 -8 -13 -3 -13 50 -7 56 -6 50 10 -5 12 -3
13 5 5 9 -9 9 -17 0 -33 -10 -19 -13 -20 -26 -6 -20 20 -41 20 -24 0 8 -10 9
-19 3 -27 -5 -7 -10 -23 -11 -36 -1 -19 2 -21 13 -12 12 10 12 8 2 -13 -10
-22 -13 -23 -23 -8 -7 8 -10 19 -8 23 3 5 -2 8 -10 8 -20 0 -21 -19 -2 -26 18
-7 13 -70 -6 -66 -7 2 -14 8 -16 13 -2 5 -11 9 -19 9 -11 0 -13 -3 -5 -13 9
-10 4 -13 -19 -15 -16 -1 -29 3 -29 9 0 6 7 8 17 5 10 -4 14 -3 9 1 -4 4 -17
9 -29 10 -12 1 -40 7 -62 13 -22 6 -48 11 -57 11 -12 0 -18 8 -18 22 0 17 -2
19 -9 8 -8 -12 -12 -12 -25 2 -9 8 -16 22 -16 29 0 10 2 10 9 -1 6 -9 16 -11
27 -6 13 5 15 9 7 12 -7 3 -13 13 -13 24 0 17 5 18 40 13 37 -6 40 -5 40 18 0
17 5 24 21 24 19 0 19 -1 3 -13 -10 -7 -15 -15 -12 -18 3 -3 16 5 29 19 19 20
27 22 38 13 10 -9 9 -2 -4 23 -17 34 -17 35 1 19 21 -18 44 -15 44 7 0 8 5 14
11 14 6 0 9 5 7 12 -3 7 3 20 11 30 15 18 42 16 67 -4z m-599 -54 c2 -5 -6
-10 -17 -10 -20 0 -25 7 -13 20 9 8 26 3 30 -10z m180 -40 c-3 -3 -12 -4 -19
-1 -8 3 -5 6 6 6 11 1 17 -2 13 -5z m103 -8 c0 -2 -7 -7 -16 -10 -8 -3 -12 -2
-9 4 6 10 25 14 25 6z m-15 -116 c3 -5 1 -10 -4 -10 -6 0 -11 5 -11 10 0 6 2
10 4 10 3 0 8 -4 11 -10z m56 -47 c13 -16 12 -17 -3 -4 -10 7 -18 15 -18 17 0
8 8 3 21 -13z m85 -18 c-1 -8 -5 -17 -8 -21 -5 -4 -4 16 1 34 3 9 9 -1 7 -13z"/>
<path d="M4053 6494 c-3 -8 -2 -19 3 -24 5 -5 9 1 9 16 0 28 -3 30 -12 8z"/>
<path d="M4350 5995 c0 -20 45 -65 65 -65 24 0 18 19 -17 51 -36 33 -48 36
-48 14z"/>
<path d="M4582 6003 c-17 -7 -44 -61 -33 -67 16 -10 38 4 50 31 13 27 5 44
-17 36z"/>
<path d="M4383 5794 c-30 -23 -45 -64 -24 -64 15 0 72 70 66 81 -8 12 -5 13
-42 -17z"/>
<path d="M4540 5797 c0 -16 42 -57 58 -57 20 0 14 25 -11 48 -26 25 -47 29
-47 9z"/>
<path d="M4585 5185 c-18 -17 -25 -35 -25 -63 0 -46 20 -67 72 -77 51 -10 88
26 88 84 0 73 -84 108 -135 56z m95 -30 c15 -18 5 -64 -15 -72 -43 -16 -84 23
-70 67 8 24 66 28 85 5z"/>
<path d="M2290 3009 c0 -5 3 -8 8 -6 10 7 32 -19 24 -27 -3 -4 1 -4 11 0 15 5
14 8 -7 25 -27 22 -36 24 -36 8z"/>
<path d="M3845 2610 c-3 -5 3 -10 15 -10 12 0 18 5 15 10 -3 6 -10 10 -15 10
-5 0 -12 -4 -15 -10z"/>
<path d="M3965 2512 c17 -17 34 -32 38 -32 9 0 -19 29 -48 50 -11 8 -6 0 10
-18z"/>
<path d="M4010 2460 c0 -4 7 -7 15 -6 23 3 26 12 5 13 -11 1 -20 -2 -20 -7z"/>
<path d="M2430 7106 c0 -2 7 -7 16 -10 8 -3 12 -2 9 4 -6 10 -25 14 -25 6z"/>
<path d="M5750 5988 c-31 -67 -180 -495 -180 -518 0 -11 9 -29 20 -40 20 -20
30 -21 388 -18 353 2 368 3 387 23 12 11 37 65 58 120 151 413 156 433 115
457 -17 10 -115 14 -395 16 l-373 3 -20 -43z m763 0 c16 -12 16 -18 2 -70 -8
-32 -35 -112 -60 -180 -25 -67 -45 -126 -45 -130 0 -5 -9 -28 -20 -50 -11 -23
-20 -47 -20 -53 0 -6 -7 -20 -16 -31 -13 -16 -15 -16 -10 -1 3 9 1 17 -4 17
-6 0 -10 -4 -10 -10 0 -5 -8 -10 -17 -10 -17 1 -17 1 0 11 9 6 15 15 11 21 -4
6 4 5 17 -2 23 -12 23 -11 7 6 -15 15 -15 19 -2 28 12 9 -7 33 -110 135 -108
107 -128 122 -141 111 -9 -7 -14 -19 -11 -25 5 -13 -53 -75 -69 -75 -5 0 0 7
11 15 10 8 14 15 7 15 -6 0 -15 -4 -18 -10 -13 -21 -35 -7 -106 65 -40 42 -84
78 -96 81 -27 7 -56 -13 -49 -32 3 -8 1 -13 -5 -11 -6 1 -18 -9 -27 -23 l-16
-25 22 19 c12 11 22 16 22 13 0 -4 0 -10 0 -14 0 -5 -6 -8 -12 -8 -8 0 -12
-12 -10 -33 1 -20 -3 -32 -10 -32 -7 -1 1 -8 17 -17 19 -11 25 -18 16 -21 -7
-2 -17 2 -22 9 -8 11 -12 10 -21 -6 -7 -11 -14 -33 -15 -50 -2 -25 -1 -27 7
-10 7 16 9 17 9 3 1 -9 -3 -19 -7 -22 -9 -5 -34 8 -33 18 1 3 -1 6 -4 6 -3 0
-10 0 -16 0 -8 0 -7 -6 2 -17 9 -10 9 -14 2 -10 -8 5 -14 -4 -19 -28 -7 -39
-24 -57 -24 -26 0 11 5 23 10 26 6 3 10 17 10 30 0 13 5 27 10 30 6 3 10 16
10 28 1 20 2 20 11 5 5 -10 15 -18 22 -18 9 0 8 3 -1 9 -7 4 -13 16 -14 27 -1
27 54 197 96 297 l16 37 353 0 c267 0 357 -3 370 -12z m-343 -273 c13 -14 21
-25 18 -25 -2 0 -15 11 -28 25 -13 14 -21 25 -18 25 2 0 15 -11 28 -25z m-179
-42 c2 1 3 0 1 -2 -6 -11 -39 -6 -39 5 0 9 5 10 17 4 10 -5 19 -8 21 -7z m250
-30 c13 -16 12 -17 -3 -4 -10 7 -18 15 -18 17 0 8 8 3 21 -13z m64 -90 c-17
-16 -18 -16 -6 -1 14 19 6 42 -11 32 -7 -5 -8 -2 -3 5 6 10 11 9 23 -3 15 -15
15 -17 -3 -33z m35 3 c0 -2 -8 -10 -17 -17 -16 -13 -17 -12 -4 4 13 16 21 21
21 13z m-705 -96 c-3 -5 -14 -10 -23 -9 -14 0 -13 2 3 9 27 11 27 11 20 0z
m505 -4 c0 -2 -7 -7 -16 -10 -8 -3 -12 -2 -9 4 6 10 25 14 25 6z m143 -3 c-23
-2 -64 -2 -90 0 -26 2 -7 3 42 3 50 0 71 -1 48 -3z"/>
<path d="M6246 5884 c-22 -21 -20 -51 3 -64 27 -14 47 -13 65 6 22 22 21 64
-1 64 -14 0 -15 -2 -4 -9 18 -12 5 -48 -20 -56 -20 -7 -49 9 -49 26 0 5 9 18
20 29 11 11 16 20 11 20 -5 0 -17 -7 -25 -16z"/>
<path d="M5710 5739 c0 -5 5 -7 10 -4 6 3 10 8 10 11 0 2 -4 4 -10 4 -5 0 -10
-5 -10 -11z"/>
<path d="M6050 5735 c-20 -24 -6 -28 15 -5 10 11 13 20 8 20 -6 0 -16 -7 -23
-15z"/>
<path d="M5699 5688 c-5 -18 -6 -38 -1 -34 7 8 12 36 6 36 -2 0 -4 -1 -5 -2z"/>
<path d="M7908 5895 c-3 -3 -88 -9 -189 -13 -218 -8 -249 -26 -54 -30 163 -3
270 7 270 27 0 15 -17 25 -27 16z"/>
<path d="M7551 5609 c-113 -5 -206 -11 -209 -13 -25 -26 107 -32 343 -17 79 5
100 9 100 21 0 19 6 19 -234 9z"/>
<path d="M7735 5339 c-11 -4 -109 -8 -217 -8 -108 -1 -199 -5 -202 -9 -2 -4
-1 -14 3 -21 7 -10 53 -11 225 -5 192 6 218 9 226 24 12 22 -6 31 -35 19z"/>
<path d="M5432 5068 c4 -10 51 -14 181 -16 153 -2 177 0 177 13 0 13 -26 15
-181 15 -140 0 -180 -3 -177 -12z"/>
<path d="M7333 5050 c-180 -8 -203 -11 -203 -32 0 -8 69 -9 238 -3 263 8 323
14 330 33 4 14 -57 14 -365 2z"/>
<path d="M7361 4776 c-149 -7 -226 -15 -228 -22 -2 -6 2 -13 9 -16 27 -9 462
13 475 23 16 14 8 30 -15 27 -9 -1 -118 -6 -241 -12z"/>
<path d="M7631 4321 c-29 -5 -32 -8 -19 -19 12 -9 95 -12 364 -10 323 3 349 4
352 21 3 16 -17 17 -330 16 -183 -1 -348 -4 -367 -8z"/>
<path d="M6843 4053 c-3 -8 -3 -16 -1 -18 3 -3 887 -8 1056 -5 6 0 12 7 12 15
0 13 -58 15 -457 17 -252 1 -491 3 -531 3 -55 2 -75 -1 -79 -12z"/>
<path d="M8046 4051 c-12 -18 22 -26 119 -26 87 0 100 2 103 18 3 15 -7 17
-107 17 -60 0 -112 -4 -115 -9z"/>
<path d="M7460 3852 c-100 -5 -105 -13 -169 -267 -22 -88 -49 -189 -60 -225
-28 -88 -27 -125 4 -155 l24 -25 399 0 c303 0 402 3 415 13 20 14 54 108 90
247 14 52 37 138 51 190 14 52 27 117 28 145 5 80 6 80 -397 80 -187 0 -360
-1 -385 -3z m728 -43 c28 -10 30 -13 25 -47 -7 -44 -83 -334 -118 -449 -17
-55 -32 -86 -46 -93 -28 -16 -786 -7 -802 9 -13 13 -7 44 42 221 17 63 43 158
57 211 14 53 34 111 45 128 l19 31 373 0 c240 0 385 -4 405 -11z"/>
<path d="M7965 3689 c-4 -6 -5 -12 -2 -15 2 -3 7 2 10 11 7 17 1 20 -8 4z"/>
<path d="M8026 3662 c-4 -13 -17 -27 -29 -32 -15 -6 -17 -9 -6 -9 20 -1 52 34
47 51 -3 8 -8 4 -12 -10z"/>
<path d="M6752 3788 c6 -16 423 -31 451 -16 42 22 -4 28 -224 28 -180 0 -230
-3 -227 -12z"/>
<path d="M6682 3523 c3 -16 24 -18 236 -21 191 -2 232 0 232 11 0 16 -153 27
-357 27 -104 0 -114 -2 -111 -17z"/>
<path d="M6336 3262 c-3 -6 2 -13 11 -16 10 -2 182 -8 381 -12 352 -6 364 -6
360 12 -3 18 -21 19 -375 22 -242 2 -373 0 -377 -6z"/>
<path d="M5725 2999 c-15 -24 17 -29 161 -27 125 3 149 5 149 18 0 13 -25 15
-152 18 -103 2 -154 -1 -158 -9z"/>
<path d="M6510 2988 c0 -20 276 -28 988 -28 519 0 552 1 552 18 0 16 -45 17
-770 21 -667 3 -770 1 -770 -11z"/>
<path d="M1855 6970 c-3 -5 -1 -10 4 -10 6 0 11 5 11 10 0 6 -2 10 -4 10 -3 0
-8 -4 -11 -10z"/>
<path d="M2425 6802 c-17 -12 -14 -28 5 -28 9 0 17 6 16 13 -3 18 -10 23 -21
15z"/>
<path d="M2205 6530 c3 -5 8 -10 11 -10 2 0 4 5 4 10 0 6 -5 10 -11 10 -5 0
-7 -4 -4 -10z"/>
<path d="M7162 5913 c-50 -55 -61 -73 -44 -73 24 0 112 96 112 122 0 19 -20 5
-68 -49z"/>
<path d="M6619 5447 c-19 -17 -79 -68 -132 -112 -87 -72 -114 -105 -87 -105 5
0 31 19 58 43 26 23 87 74 135 112 81 65 104 95 75 95 -7 0 -29 -15 -49 -33z"/>
<path d="M4370 1747 c0 -2 14 -16 31 -33 19 -18 28 -22 24 -11 -4 9 -11 17
-17 17 -5 0 -6 5 -2 12 4 7 3 8 -4 4 -7 -4 -12 -2 -12 3 0 6 -4 11 -10 11 -5
0 -10 -1 -10 -3z"/>
<path d="M2437 4145 c-4 -8 -2 -17 3 -20 6 -4 10 -4 10 -1 0 2 3 11 6 20 3 9
2 16 -4 16 -5 0 -12 -7 -15 -15z"/>
<path d="M4530 1250 c-9 -6 -10 -10 -3 -10 6 0 15 5 18 10 8 12 4 12 -15 0z"/>
</g>
</svg>
