<svg version="1.1" id="Layer_1" xmlns="http://www.w3.org/2000/svg" xmlns:xlink="http://www.w3.org/1999/xlink" x="0px" y="0px"
	 width="100%" viewBox="0 0 79 61" enable-background="new 0 0 79 61" xml:space="preserve">
<path fill="#000000" opacity="1.000000" stroke="none" 
	d="
M80.000000,32.000000 
	C80.000000,41.953724 80.000000,51.907452 80.000000,62.000000 
	C58.645950,62.000000 37.291634,62.000000 15.468658,61.561218 
	C15.666666,58.005611 16.753613,54.909767 16.910526,51.767483 
	C17.215933,45.651562 17.265648,39.493008 16.884193,33.385662 
	C16.702543,30.477325 15.289385,27.645908 14.434079,24.779646 
	C13.664006,24.843632 12.893934,24.907618 12.123861,24.971603 
	C11.415908,30.384483 10.526276,35.781845 10.062239,41.215553 
	C9.739115,44.999229 9.981318,48.832935 10.012998,52.643944 
	C10.021094,53.617905 10.026283,55.387142 10.307291,55.444420 
	C14.595778,56.318577 12.543462,59.664989 13.000000,62.000000 
	C9.011860,62.000000 5.023719,62.000000 1.017789,62.000000 
	C1.017789,41.738823 1.017789,21.477629 1.017789,1.000000 
	C25.687140,1.000000 50.374912,1.000000 75.531326,1.433565 
	C75.001755,3.493867 73.110603,5.142579 73.150002,6.743781 
	C73.408516,17.248392 70.808182,28.172375 76.977165,37.826141 
	C77.976570,35.899918 78.988281,33.949959 80.000000,32.000000 
M38.000000,39.302898 
	C37.167381,30.526604 40.236706,21.242830 34.611645,12.171618 
	C28.731005,25.504555 29.617760,37.763073 35.124535,50.849213 
	C36.256111,46.676933 37.128052,43.461971 38.000000,39.302898 
M52.000008,47.275543 
	C53.315479,50.526772 54.630951,53.777996 56.388584,58.122032 
	C59.504936,44.577530 60.933426,32.278229 56.623459,20.074760 
	C55.789017,20.040964 54.954575,20.007166 54.120129,19.973368 
	C53.413422,25.421459 52.557175,30.855837 52.055809,36.322762 
	C51.752674,39.628166 52.000000,42.984055 52.000008,47.275543 
z"/>
<path fill="#FFFFFF" opacity="1.000000" stroke="none" 
	d="
M80.000000,31.531342 
	C78.988281,33.949959 77.976570,35.899918 76.977165,37.826141 
	C70.808182,28.172375 73.408516,17.248392 73.150002,6.743781 
	C73.110603,5.142579 75.001755,3.493867 75.999985,1.433565 
	C77.316429,1.000000 78.632866,1.000000 80.000000,1.000000 
	C80.000000,11.020850 80.000000,21.041767 80.000000,31.531342 
z"/>
<path fill="#FFFFFF" opacity="1.000000" stroke="none" 
	d="
M13.333333,62.000000 
	C12.543462,59.664989 14.595778,56.318577 10.307291,55.444420 
	C10.026283,55.387142 10.021094,53.617905 10.012998,52.643944 
	C9.981318,48.832935 9.739115,44.999229 10.062239,41.215553 
	C10.526276,35.781845 11.415908,30.384483 12.123861,24.971603 
	C12.893934,24.907618 13.664006,24.843632 14.434079,24.779646 
	C15.289385,27.645908 16.702543,30.477325 16.884193,33.385662 
	C17.265648,39.493008 17.215933,45.651562 16.910526,51.767483 
	C16.753613,54.909767 15.666666,58.005611 15.000000,61.561218 
	C14.555555,62.000000 14.111111,62.000000 13.333333,62.000000 
z"/>
<path fill="#FFFFFF" opacity="1.000000" stroke="none" 
	d="
M37.999996,39.774956 
	C37.128052,43.461971 36.256111,46.676933 35.124535,50.849213 
	C29.617760,37.763073 28.731005,25.504555 34.611645,12.171618 
	C40.236706,21.242830 37.167381,30.526604 37.999996,39.774956 
z"/>
<path fill="#FFFFFF" opacity="1.000000" stroke="none" 
	d="
M52.000004,46.796402 
	C52.000000,42.984055 51.752674,39.628166 52.055809,36.322762 
	C52.557175,30.855837 53.413422,25.421459 54.120129,19.973368 
	C54.954575,20.007166 55.789017,20.040964 56.623459,20.074760 
	C60.933426,32.278229 59.504936,44.577530 56.388584,58.122032 
	C54.630951,53.777996 53.315479,50.526772 52.000004,46.796402 
z"/>
</svg>