<svg version="1.1" id="Layer_1" xmlns="http://www.w3.org/2000/svg" xmlns:xlink="http://www.w3.org/1999/xlink" x="0px" y="0px"
	 width="100%" viewBox="0 0 150 150" enable-background="new 0 0 150 150" xml:space="preserve">
<path fill="#FEFFFF" opacity="1.000000" stroke="none" 
	d="
M151.000000,59.000000 
	C151.000000,70.020897 151.000000,81.041786 150.662262,92.234604 
	C148.114685,98.183784 146.471359,104.261665 143.593826,109.684639 
	C132.922943,129.794968 116.996567,143.600418 94.464302,149.073471 
	C93.856102,149.221191 93.482826,150.336105 93.000000,151.000000 
	C81.979103,151.000000 70.958214,151.000000 59.765404,150.662262 
	C53.816219,148.114655 47.738342,146.471344 42.315353,143.593826 
	C22.204981,132.922974 8.399607,116.996552 2.926547,94.464310 
	C2.778815,93.856110 1.663893,93.482834 0.999999,93.000000 
	C1.000000,81.979103 1.000000,70.958214 1.337743,59.765404 
	C3.885330,53.816227 5.528653,47.738354 8.406169,42.315369 
	C19.077023,22.204990 35.003441,8.399608 57.535694,2.926548 
	C58.143902,2.778816 58.517174,1.663896 59.000000,1.000001 
	C70.020897,1.000000 81.041786,1.000000 92.234596,1.337740 
	C98.183769,3.885324 104.261642,5.528646 109.684624,8.406160 
	C129.794998,19.077026 143.600372,35.003448 149.073441,57.535709 
	C149.221176,58.143909 150.336105,58.517178 151.000000,59.000000 
M70.154045,120.343887 
	C71.530136,122.548820 72.906219,124.753754 74.722733,127.664383 
	C74.722733,100.618568 74.722733,74.450768 74.722733,48.141644 
	C58.836658,48.141644 43.267719,48.141644 27.043715,48.141644 
	C29.324341,52.166798 31.534552,55.652096 33.316612,59.344055 
	C34.748486,62.310513 36.697529,63.263081 39.974468,63.156574 
	C47.907600,62.898731 55.854774,63.072823 63.742004,63.072823 
	C63.742004,66.804390 63.742004,69.859032 63.742004,73.304352 
	C56.442787,73.304352 49.537071,73.304352 41.866390,73.304352 
	C43.533463,76.017876 45.057781,77.990189 46.036316,80.203773 
	C47.769569,84.124641 50.516224,85.492119 54.721706,84.993393 
	C57.760056,84.633072 60.875526,84.923134 64.140663,84.923134 
	C64.140663,89.583130 64.335648,93.423645 64.100380,97.237610 
	C63.598598,105.372231 64.040375,113.196205 70.154045,120.343887 
M78.961784,113.487495 
	C78.961784,117.919167 78.961784,122.350838 78.961784,126.479393 
	C92.328110,115.280563 89.978203,99.945023 89.798279,84.632492 
	C100.134071,86.438416 108.529190,85.530708 110.679680,73.088867 
	C103.812286,73.088867 96.964569,73.088867 90.110779,73.088867 
	C90.110779,69.470604 90.110779,66.538620 90.110779,63.071682 
	C98.460823,63.071682 106.570732,63.165157 114.674934,62.991852 
	C116.272621,62.957687 118.531029,62.362648 119.311104,61.222965 
	C122.081642,57.175213 124.344681,52.780102 126.936188,48.279980 
	C110.617882,48.279980 94.928192,48.279980 78.961769,48.279980 
	C78.961769,69.931053 78.961769,91.211487 78.961784,113.487495 
z"/>
<path fill="#000000" opacity="1.000000" stroke="none" 
	d="
M58.531342,1.000001 
	C58.517174,1.663896 58.143902,2.778816 57.535694,2.926548 
	C35.003441,8.399608 19.077023,22.204990 8.406169,42.315369 
	C5.528653,47.738354 3.885330,53.816227 1.337743,59.296745 
	C1.000000,39.739868 1.000000,20.479736 1.000000,1.000000 
	C20.020330,1.000000 39.041508,1.000000 58.531342,1.000001 
z"/>
<path fill="#000000" opacity="1.000000" stroke="none" 
	d="
M151.000000,58.531342 
	C150.336105,58.517178 149.221176,58.143909 149.073441,57.535709 
	C143.600372,35.003448 129.794998,19.077026 109.684624,8.406160 
	C104.261642,5.528646 98.183769,3.885324 92.703255,1.337740 
	C112.260124,1.000000 131.520248,1.000000 151.000000,1.000000 
	C151.000000,20.020330 151.000000,39.041508 151.000000,58.531342 
z"/>
<path fill="#000000" opacity="1.000000" stroke="none" 
	d="
M0.999999,93.468658 
	C1.663893,93.482834 2.778815,93.856110 2.926547,94.464310 
	C8.399607,116.996552 22.204981,132.922974 42.315353,143.593826 
	C47.738342,146.471344 53.816219,148.114655 59.296745,150.662262 
	C39.739868,151.000000 20.479736,151.000000 1.000000,151.000000 
	C1.000000,131.979675 1.000000,112.958496 0.999999,93.468658 
z"/>
<path fill="#000000" opacity="1.000000" stroke="none" 
	d="
M93.468658,151.000000 
	C93.482826,150.336105 93.856102,149.221191 94.464302,149.073471 
	C116.996567,143.600418 132.922943,129.794968 143.593826,109.684639 
	C146.471359,104.261665 148.114685,98.183784 150.662262,92.703262 
	C151.000000,112.260132 151.000000,131.520264 151.000000,151.000000 
	C131.979675,151.000000 112.958496,151.000000 93.468658,151.000000 
z"/>
<path fill="#466CF5" opacity="1.000000" stroke="none" 
	d="
M70.002800,120.013321 
	C64.040375,113.196205 63.598598,105.372231 64.100380,97.237610 
	C64.335648,93.423645 64.140663,89.583130 64.140663,84.923134 
	C60.875526,84.923134 57.760056,84.633072 54.721706,84.993393 
	C50.516224,85.492119 47.769569,84.124641 46.036316,80.203773 
	C45.057781,77.990189 43.533463,76.017876 41.866390,73.304352 
	C49.537071,73.304352 56.442787,73.304352 63.742004,73.304352 
	C63.742004,69.859032 63.742004,66.804390 63.742004,63.072823 
	C55.854774,63.072823 47.907600,62.898731 39.974468,63.156574 
	C36.697529,63.263081 34.748486,62.310513 33.316612,59.344055 
	C31.534552,55.652096 29.324341,52.166798 27.043715,48.141644 
	C43.267719,48.141644 58.836658,48.141644 74.722733,48.141644 
	C74.722733,74.450768 74.722733,100.618568 74.722733,127.664383 
	C72.906219,124.753754 71.530136,122.548820 70.002800,120.013321 
z"/>
<path fill="#466CF5" opacity="1.000000" stroke="none" 
	d="
M78.961777,112.989700 
	C78.961769,91.211487 78.961769,69.931053 78.961769,48.279980 
	C94.928192,48.279980 110.617882,48.279980 126.936188,48.279980 
	C124.344681,52.780102 122.081642,57.175213 119.311104,61.222965 
	C118.531029,62.362648 116.272621,62.957687 114.674934,62.991852 
	C106.570732,63.165157 98.460823,63.071682 90.110779,63.071682 
	C90.110779,66.538620 90.110779,69.470604 90.110779,73.088867 
	C96.964569,73.088867 103.812286,73.088867 110.679680,73.088867 
	C108.529190,85.530708 100.134071,86.438416 89.798279,84.632492 
	C89.978203,99.945023 92.328110,115.280563 78.961784,126.479393 
	C78.961784,122.350838 78.961784,117.919167 78.961777,112.989700 
z"/>
</svg>