<svg version="1.1" id="Layer_1" xmlns="http://www.w3.org/2000/svg" xmlns:xlink="http://www.w3.org/1999/xlink" x="0px" y="0px"
	 width="100%" viewBox="0 0 152 150" enable-background="new 0 0 152 150" xml:space="preserve">
<path fill="#FEFEFF" opacity="1.000000" stroke="none" 
	d="
M1.000000,93.000000 
	C1.000000,81.979103 1.000000,70.958214 1.337550,59.765488 
	C2.039093,59.257507 2.628160,58.980846 2.734988,58.576714 
	C10.456045,29.367716 29.094652,11.043200 58.033840,2.896721 
	C58.497158,2.766296 58.684090,1.654062 59.000000,1.000000 
	C70.354225,1.000000 81.708458,1.000000 93.234505,1.337641 
	C94.218498,2.115852 94.982178,2.754147 95.850189,2.967077 
	C107.282837,5.771591 117.445412,11.135406 126.237648,18.831751 
	C139.126251,30.113871 148.119934,43.833267 151.111588,61.039818 
	C151.184067,61.456718 152.346130,61.684181 153.000000,62.000000 
	C153.000000,71.020897 153.000000,80.041786 152.657776,89.233826 
	C151.878006,90.220810 151.226013,90.989456 151.034561,91.859451 
	C147.089981,109.785095 137.765320,124.164452 123.232666,135.416977 
	C114.707550,142.017914 105.492439,146.808029 94.959671,149.109329 
	C94.522934,149.204742 94.314690,150.345993 94.000000,151.000000 
	C82.645775,151.000000 71.291542,151.000000 59.764229,150.667847 
	C58.203640,149.599304 56.894638,148.581116 55.416683,148.169479 
	C37.714371,143.238739 23.847994,133.054535 13.436419,117.976517 
	C8.461962,110.772507 4.936526,102.978218 2.923006,94.462021 
	C2.779946,93.856949 1.663720,93.481972 1.000000,93.000000 
M39.572536,114.677841 
	C64.141930,114.677841 88.711319,114.677841 113.822472,114.677841 
	C112.114861,87.908928 104.627632,64.625732 82.177109,48.734966 
	C70.010605,40.123363 56.417488,38.395454 42.230412,43.149151 
	C40.809963,43.625103 38.952816,45.707336 38.944592,47.054142 
	C38.810310,69.036102 38.941525,91.019691 38.921852,113.505226 
	C38.996635,113.658081 39.071415,113.810944 39.572536,114.677841 
M108.430649,36.243698 
	C100.599304,36.243698 92.767952,36.243698 84.936607,36.243698 
	C99.526093,45.882168 109.057655,59.127327 116.685043,74.868683 
	C116.685043,61.432304 116.685043,49.046875 116.685043,36.243950 
	C114.001602,36.243950 111.702431,36.243950 108.430649,36.243698 
z"/>
<path fill="#000000" opacity="1.000000" stroke="none" 
	d="
M94.468658,151.000000 
	C94.314690,150.345993 94.522934,149.204742 94.959671,149.109329 
	C105.492439,146.808029 114.707550,142.017914 123.232666,135.416977 
	C137.765320,124.164452 147.089981,109.785095 151.034561,91.859451 
	C151.226013,90.989456 151.878006,90.220810 152.657776,89.702484 
	C153.000000,110.258919 153.000000,130.517838 153.000000,151.000000 
	C133.646347,151.000000 114.291832,151.000000 94.468658,151.000000 
z"/>
<path fill="#000000" opacity="1.000000" stroke="none" 
	d="
M153.000000,61.531342 
	C152.346130,61.684181 151.184067,61.456718 151.111588,61.039818 
	C148.119934,43.833267 139.126251,30.113871 126.237648,18.831751 
	C117.445412,11.135406 107.282837,5.771591 95.850189,2.967077 
	C94.982178,2.754147 94.218498,2.115852 93.703163,1.337641 
	C113.594688,1.000000 133.189377,1.000000 153.000000,1.000000 
	C153.000000,21.020376 153.000000,41.041531 153.000000,61.531342 
z"/>
<path fill="#000000" opacity="1.000000" stroke="none" 
	d="
M58.531342,1.000000 
	C58.684090,1.654062 58.497158,2.766296 58.033840,2.896721 
	C29.094652,11.043200 10.456045,29.367716 2.734988,58.576714 
	C2.628160,58.980846 2.039093,59.257507 1.337550,59.296829 
	C1.000000,39.739868 1.000000,20.479736 1.000000,1.000000 
	C20.020330,1.000000 39.041508,1.000000 58.531342,1.000000 
z"/>
<path fill="#000000" opacity="1.000000" stroke="none" 
	d="
M1.000000,93.468658 
	C1.663720,93.481972 2.779946,93.856949 2.923006,94.462021 
	C4.936526,102.978218 8.461962,110.772507 13.436419,117.976517 
	C23.847994,133.054535 37.714371,143.238739 55.416683,148.169479 
	C56.894638,148.581116 58.203640,149.599304 59.295570,150.667847 
	C39.739868,151.000000 20.479736,151.000000 1.000000,151.000000 
	C1.000000,131.979675 1.000000,112.958496 1.000000,93.468658 
z"/>
<path fill="#3A7FD1" opacity="1.000000" stroke="none" 
	d="
M39.012890,113.002907 
	C38.941525,91.019691 38.810310,69.036102 38.944592,47.054142 
	C38.952816,45.707336 40.809963,43.625103 42.230412,43.149151 
	C56.417488,38.395454 70.010605,40.123363 82.177109,48.734966 
	C104.627632,64.625732 112.114861,87.908928 113.822472,114.677841 
	C88.711319,114.677841 64.141930,114.677841 39.502144,114.217010 
	C39.292130,113.505096 39.152508,113.253998 39.012890,113.002907 
z"/>
<path fill="#4184D3" opacity="1.000000" stroke="none" 
	d="
M108.916962,36.243824 
	C111.702431,36.243950 114.001602,36.243950 116.685043,36.243950 
	C116.685043,49.046875 116.685043,61.432304 116.685043,74.868683 
	C109.057655,59.127327 99.526093,45.882168 84.936607,36.243698 
	C92.767952,36.243698 100.599304,36.243698 108.916962,36.243824 
z"/>
<path fill="#2D79CF" opacity="1.000000" stroke="none" 
	d="
M38.967369,113.254066 
	C39.152508,113.253998 39.292130,113.505096 39.288971,113.859993 
	C39.071415,113.810944 38.996635,113.658081 38.967369,113.254066 
z"/>
</svg>