<?xml version="1.0" encoding="UTF-8"?>
<!DOCTYPE svg PUBLIC "-//W3C//DTD SVG 1.1//EN" "http://www.w3.org/Graphics/SVG/1.1/DTD/svg11.dtd">
<svg xmlns="http://www.w3.org/2000/svg" version="1.1" width="512px" height="512px" style="shape-rendering:geometricPrecision; text-rendering:geometricPrecision; image-rendering:optimizeQuality; fill-rule:evenodd; clip-rule:evenodd" xmlns:xlink="http://www.w3.org/1999/xlink">
<g><path style="opacity:0.995" fill="#77afd8" d="M 232.5,-0.5 C 247.833,-0.5 263.167,-0.5 278.5,-0.5C 355.64,8.31232 417.473,43.6456 464,105.5C 469.484,113.141 474.317,121.141 478.5,129.5C 459.062,119.614 439.729,109.447 420.5,99C 415.493,96.7443 410.493,96.2443 405.5,97.5C 386.101,106.366 367.101,116.033 348.5,126.5C 320.86,112.013 293.193,97.5128 265.5,83C 262.274,81.8011 258.941,81.3011 255.5,81.5C 252.059,81.3011 248.726,81.8011 245.5,83C 217.604,97.781 189.604,112.281 161.5,126.5C 144.214,116.52 126.547,107.02 108.5,98C 104.389,96.4723 100.389,96.3057 96.5,97.5C 74.8988,107.634 53.5655,118.301 32.5,129.5C 70.2063,64.2741 125.873,22.7741 199.5,5C 210.576,2.74641 221.576,0.913081 232.5,-0.5 Z"/></g>
<g><path style="opacity:1" fill="#593476" d="M 255.5,81.5 C 255.5,85.5 255.5,89.5 255.5,93.5C 252.09,93.4571 248.757,93.9571 245.5,95C 210.5,113.333 175.5,131.667 140.5,150C 137.172,151.479 134.506,153.645 132.5,156.5C 132.5,153.167 132.5,149.833 132.5,146.5C 133.391,144.709 134.391,142.876 135.5,141C 141.229,137.806 146.896,134.639 152.5,131.5C 155.992,130.59 158.992,128.924 161.5,126.5C 189.604,112.281 217.604,97.781 245.5,83C 248.726,81.8011 252.059,81.3011 255.5,81.5 Z"/></g>
<g><path style="opacity:1" fill="#8b70b2" d="M 255.5,81.5 C 258.941,81.3011 262.274,81.8011 265.5,83C 293.193,97.5128 320.86,112.013 348.5,126.5C 351.515,128.674 354.849,130.341 358.5,131.5C 363.113,134.812 368.113,137.646 373.5,140C 375.07,141.397 376.404,142.897 377.5,144.5C 377.5,144.833 377.5,145.167 377.5,145.5C 377.665,148.85 377.498,152.183 377,155.5C 375.833,154.333 374.667,153.167 373.5,152C 336.626,132.397 299.626,113.063 262.5,94C 260.19,93.5034 257.857,93.3367 255.5,93.5C 255.5,89.5 255.5,85.5 255.5,81.5 Z"/></g>
<g><path style="opacity:1" fill="#704f85" d="M 255.5,93.5 C 257.857,93.3367 260.19,93.5034 262.5,94C 299.626,113.063 336.626,132.397 373.5,152C 374.667,153.167 375.833,154.333 377,155.5C 377.498,152.183 377.665,148.85 377.5,145.5C 379.065,152.52 378.565,159.52 376,166.5C 374.587,168.414 372.753,169.747 370.5,170.5C 369.186,175.652 369.186,180.652 370.5,185.5C 370.158,186.338 369.492,186.672 368.5,186.5C 368.666,181.489 368.499,176.489 368,171.5C 365.722,172.719 363.555,174.052 361.5,175.5C 355.702,178.233 350.035,181.233 344.5,184.5C 343.503,191.803 343.169,199.137 343.5,206.5C 343.672,207.492 343.338,208.158 342.5,208.5C 342.666,200.826 342.5,193.159 342,185.5C 338.01,187.912 333.843,189.912 329.5,191.5C 333.402,171.145 326.402,155.979 308.5,146C 285.605,135.538 261.605,131.871 236.5,135C 232.048,135.42 227.715,136.253 223.5,137.5C 223.5,153.833 223.5,170.167 223.5,186.5C 223.167,186.5 222.833,186.5 222.5,186.5C 222.5,170.5 222.5,154.5 222.5,138.5C 204.073,141.448 190.573,151.115 182,167.5C 181.5,175.827 181.334,184.16 181.5,192.5C 176.686,189.591 171.686,186.925 166.5,184.5C 165.378,185.63 164.044,186.297 162.5,186.5C 161.837,184.958 161.17,183.291 160.5,181.5C 152.167,177 143.833,172.5 135.5,168C 132.986,164.587 131.986,160.753 132.5,156.5C 134.506,153.645 137.172,151.479 140.5,150C 175.5,131.667 210.5,113.333 245.5,95C 248.757,93.9571 252.09,93.4571 255.5,93.5 Z"/></g>
<g><path style="opacity:0.985" fill="#593475" d="M 96.5,97.5 C 97.8333,97.5 99.1667,97.5 100.5,97.5C 100.5,100.5 100.5,103.5 100.5,106.5C 97.7294,106.421 95.0627,106.921 92.5,108C 62.9915,123.921 33.3248,139.588 3.5,155C 1.7518,157.013 0.418466,159.18 -0.5,161.5C -0.5,157.5 -0.5,153.5 -0.5,149.5C 0.60064,148.152 1.60064,146.652 2.5,145C 12.3699,139.565 22.3699,134.399 32.5,129.5C 53.5655,118.301 74.8988,107.634 96.5,97.5 Z"/></g>
<g><path style="opacity:1" fill="#8b70b1" d="M 96.5,97.5 C 100.389,96.3057 104.389,96.4723 108.5,98C 126.547,107.02 144.214,116.52 161.5,126.5C 158.992,128.924 155.992,130.59 152.5,131.5C 138.721,123.774 124.721,116.274 110.5,109C 107.232,107.85 103.899,107.016 100.5,106.5C 100.5,103.5 100.5,100.5 100.5,97.5C 99.1667,97.5 97.8333,97.5 96.5,97.5 Z"/></g>
<g><path style="opacity:1" fill="#593576" d="M 405.5,97.5 C 406.833,97.5 408.167,97.5 409.5,97.5C 409.5,100.5 409.5,103.5 409.5,106.5C 406.834,106.933 404.168,107.433 401.5,108C 387.105,115.862 372.771,123.695 358.5,131.5C 354.849,130.341 351.515,128.674 348.5,126.5C 367.101,116.033 386.101,106.366 405.5,97.5 Z"/></g>
<g><path style="opacity:1" fill="#8b6fb1" d="M 405.5,97.5 C 410.493,96.2443 415.493,96.7443 420.5,99C 439.729,109.447 459.062,119.614 478.5,129.5C 487.692,134.506 497.026,139.339 506.5,144C 507.667,145.167 508.833,146.333 510,147.5C 510.499,151.152 510.665,154.818 510.5,158.5C 509.028,156.866 507.362,155.366 505.5,154C 476.167,138.667 446.833,123.333 417.5,108C 415.187,107.338 412.854,106.838 410.5,106.5C 410.81,103.287 410.477,100.287 409.5,97.5C 408.167,97.5 406.833,97.5 405.5,97.5 Z"/></g>
<g><path style="opacity:0.999" fill="#704f85" d="M 409.5,97.5 C 410.477,100.287 410.81,103.287 410.5,106.5C 412.854,106.838 415.187,107.338 417.5,108C 446.833,123.333 476.167,138.667 505.5,154C 507.362,155.366 509.028,156.866 510.5,158.5C 510.789,161.649 510.289,164.649 509,167.5C 505.717,169.891 502.217,171.891 498.5,173.5C 491.348,176.577 484.348,179.91 477.5,183.5C 479.687,171.053 475.687,161.219 465.5,154C 452.89,146.464 439.223,142.131 424.5,141C 410.76,140.051 397.094,140.551 383.5,142.5C 381.214,142.595 379.214,143.262 377.5,144.5C 376.404,142.897 375.07,141.397 373.5,140C 368.113,137.646 363.113,134.812 358.5,131.5C 372.771,123.695 387.105,115.862 401.5,108C 404.168,107.433 406.834,106.933 409.5,106.5C 409.5,103.5 409.5,100.5 409.5,97.5 Z"/></g>
<g><path style="opacity:0.999" fill="#6f4f85" d="M 100.5,106.5 C 103.899,107.016 107.232,107.85 110.5,109C 124.721,116.274 138.721,123.774 152.5,131.5C 146.896,134.639 141.229,137.806 135.5,141C 134.391,142.876 133.391,144.709 132.5,146.5C 132.119,145.069 131.119,144.236 129.5,144C 114.671,140.706 99.6711,139.706 84.5,141C 80.9618,141.535 77.6284,142.368 74.5,143.5C 62.8783,145.56 53.0449,150.894 45,159.5C 43.4138,161.67 42.0804,164.004 41,166.5C 40.5004,173.492 40.3337,180.492 40.5,187.5C 31.1401,182.82 21.8068,178.153 12.5,173.5C 6.70964,171.803 2.37631,168.47 -0.5,163.5C -0.5,162.833 -0.5,162.167 -0.5,161.5C 0.418466,159.18 1.7518,157.013 3.5,155C 33.3248,139.588 62.9915,123.921 92.5,108C 95.0627,106.921 97.7294,106.421 100.5,106.5 Z"/></g>
<g><path style="opacity:1" fill="#8d71b2" d="M 329.5,191.5 C 329.5,200.5 329.5,209.5 329.5,218.5C 323.313,204.2 312.647,194.7 297.5,190C 277.957,183.82 257.957,181.82 237.5,184C 234.964,184.186 232.631,184.686 230.5,185.5C 228.139,185.674 225.806,186.007 223.5,186.5C 223.5,170.167 223.5,153.833 223.5,137.5C 227.715,136.253 232.048,135.42 236.5,135C 261.605,131.871 285.605,135.538 308.5,146C 326.402,155.979 333.402,171.145 329.5,191.5 Z"/></g>
<g><path style="opacity:1" fill="#593374" d="M 222.5,186.5 C 209.826,189.753 198.659,195.753 189,204.5C 186.21,208.428 183.71,212.428 181.5,216.5C 181.5,208.5 181.5,200.5 181.5,192.5C 181.334,184.16 181.5,175.827 182,167.5C 190.573,151.115 204.073,141.448 222.5,138.5C 222.5,154.5 222.5,170.5 222.5,186.5 Z"/></g>
<g><path style="opacity:1" fill="#8c70b2" d="M 132.5,146.5 C 132.5,149.833 132.5,153.167 132.5,156.5C 131.986,160.753 132.986,164.587 135.5,168C 143.833,172.5 152.167,177 160.5,181.5C 161.17,183.291 161.837,184.958 162.5,186.5C 161.536,193.746 161.203,201.08 161.5,208.5C 156.135,197.309 147.468,189.809 135.5,186C 118.186,180.555 100.519,179.055 82.5,181.5C 80.4352,181.517 78.4352,181.85 76.5,182.5C 74.5191,169.876 73.8524,156.876 74.5,143.5C 77.6284,142.368 80.9618,141.535 84.5,141C 99.6711,139.706 114.671,140.706 129.5,144C 131.119,144.236 132.119,145.069 132.5,146.5 Z"/></g>
<g><path style="opacity:1" fill="#8d70b1" d="M 477.5,183.5 C 477.5,192.167 477.5,200.833 477.5,209.5C 470.566,196.764 459.899,188.597 445.5,185C 425.654,180.073 405.654,179.24 385.5,182.5C 384.833,182.5 384.167,182.5 383.5,182.5C 383.5,169.167 383.5,155.833 383.5,142.5C 397.094,140.551 410.76,140.051 424.5,141C 439.223,142.131 452.89,146.464 465.5,154C 475.687,161.219 479.687,171.053 477.5,183.5 Z"/></g>
<g><path style="opacity:1" fill="#593375" d="M 74.5,143.5 C 73.8524,156.876 74.5191,169.876 76.5,182.5C 61.0011,185.345 49.0011,193.345 40.5,206.5C 40.5,200.167 40.5,193.833 40.5,187.5C 40.3337,180.492 40.5004,173.492 41,166.5C 42.0804,164.004 43.4138,161.67 45,159.5C 53.0449,150.894 62.8783,145.56 74.5,143.5 Z"/></g>
<g><path style="opacity:1" fill="#593375" d="M 383.5,142.5 C 383.5,155.833 383.5,169.167 383.5,182.5C 379.126,183.344 374.793,184.344 370.5,185.5C 369.186,180.652 369.186,175.652 370.5,170.5C 372.753,169.747 374.587,168.414 376,166.5C 378.565,159.52 379.065,152.52 377.5,145.5C 377.5,145.167 377.5,144.833 377.5,144.5C 379.214,143.262 381.214,142.595 383.5,142.5 Z"/></g>
<g><path style="opacity:1" fill="#f1d86c" d="M 368.5,186.5 C 368.5,192.167 368.5,197.833 368.5,203.5C 366.167,202.167 363.833,202.167 361.5,203.5C 361.5,199.167 361.5,194.833 361.5,190.5C 361.5,185.5 361.5,180.5 361.5,175.5C 363.555,174.052 365.722,172.719 368,171.5C 368.499,176.489 368.666,181.489 368.5,186.5 Z"/></g>
<g><path style="opacity:0.992" fill="#77afd8" d="M 12.5,173.5 C 21.8068,178.153 31.1401,182.82 40.5,187.5C 40.5,193.833 40.5,200.167 40.5,206.5C 40.5,218.167 40.5,229.833 40.5,241.5C 30.0994,245.626 25.9328,253.293 28,264.5C 31.1438,273.154 37.3105,277.487 46.5,277.5C 49.4939,298.478 60.4939,313.478 79.5,322.5C 78.8333,322.5 78.1667,322.5 77.5,322.5C 66.1618,322.333 54.8284,322.5 43.5,323C 39.2076,324.396 35.7076,326.896 33,330.5C 28.3003,337.924 23.1336,344.924 17.5,351.5C 8.1786,327.882 2.1786,303.549 -0.5,278.5C -0.5,263.167 -0.5,247.833 -0.5,232.5C 1.64405,212.457 5.97738,192.79 12.5,173.5 Z"/></g>
<g><path style="opacity:0.987" fill="#79afd6" d="M 498.5,173.5 C 505.022,192.789 509.356,212.455 511.5,232.5C 511.5,247.833 511.5,263.167 511.5,278.5C 508.928,304.12 502.595,328.787 492.5,352.5C 488.918,346.246 484.918,340.246 480.5,334.5C 480.667,296.832 480.5,259.165 480,221.5C 478.717,217.586 477.884,213.586 477.5,209.5C 477.5,200.833 477.5,192.167 477.5,183.5C 484.348,179.91 491.348,176.577 498.5,173.5 Z"/></g>
<g><path style="opacity:1" fill="#5a3374" d="M 361.5,175.5 C 361.5,180.5 361.5,185.5 361.5,190.5C 353.781,194.007 347.781,199.34 343.5,206.5C 343.169,199.137 343.503,191.803 344.5,184.5C 350.035,181.233 355.702,178.233 361.5,175.5 Z"/></g>
<g><path style="opacity:1" fill="#454562" d="M 161.5,208.5 C 161.189,219.914 161.523,231.248 162.5,242.5C 161.51,248.31 161.177,254.31 161.5,260.5C 159.435,260.483 157.435,260.15 155.5,259.5C 150.436,256.932 146.936,252.932 145,247.5C 144.5,238.84 144.334,230.173 144.5,221.5C 118.5,221.5 92.5,221.5 66.5,221.5C 66.3043,205.9 71.6377,192.567 82.5,181.5C 100.519,179.055 118.186,180.555 135.5,186C 147.468,189.809 156.135,197.309 161.5,208.5 Z"/></g>
<g><path style="opacity:1" fill="#d56d22" d="M 477.5,209.5 C 477.884,213.586 478.717,217.586 480,221.5C 480.5,259.165 480.667,296.832 480.5,334.5C 477.531,328.706 472.864,324.873 466.5,323C 456.172,322.5 445.839,322.334 435.5,322.5C 450.739,313.739 460.573,300.739 465,283.5C 466.213,273.537 466.713,263.537 466.5,253.5C 457.375,252.941 448.375,251.608 439.5,249.5C 436.598,248.422 433.598,247.756 430.5,247.5C 423.989,244.658 417.322,241.991 410.5,239.5C 409.71,238.599 408.71,237.932 407.5,237.5C 399.61,233.114 392.11,228.114 385,222.5C 383.794,227.916 381.294,232.582 377.5,236.5C 376.483,233.456 375.149,230.456 373.5,227.5C 374.117,227.389 374.617,227.056 375,226.5C 376.405,211.301 379.905,196.634 385.5,182.5C 405.654,179.24 425.654,180.073 445.5,185C 459.899,188.597 470.566,196.764 477.5,209.5 Z"/></g>
<g><path style="opacity:1" fill="#232441" d="M 82.5,181.5 C 71.6377,192.567 66.3043,205.9 66.5,221.5C 64.8333,221.5 63.1667,221.5 61.5,221.5C 60.1667,221.5 58.8333,221.5 57.5,221.5C 57.6664,230.173 57.4998,238.84 57,247.5C 54.4255,255.58 48.9255,259.58 40.5,259.5C 40.5,253.5 40.5,247.5 40.5,241.5C 40.5,229.833 40.5,218.167 40.5,206.5C 49.0011,193.345 61.0011,185.345 76.5,182.5C 78.4352,181.85 80.4352,181.517 82.5,181.5 Z"/></g>
<g><path style="opacity:1" fill="#bb5c1b" d="M 383.5,182.5 C 384.167,182.5 384.833,182.5 385.5,182.5C 379.905,196.634 376.405,211.301 375,226.5C 374.617,227.056 374.117,227.389 373.5,227.5C 372.139,225.15 370.806,222.816 369.5,220.5C 374.87,216.281 375.703,211.281 372,205.5C 370.887,204.695 369.721,204.028 368.5,203.5C 368.5,197.833 368.5,192.167 368.5,186.5C 369.492,186.672 370.158,186.338 370.5,185.5C 374.793,184.344 379.126,183.344 383.5,182.5 Z"/></g>
<g><path style="opacity:1" fill="#f5df6e" d="M 329.5,218.5 C 329.5,231.833 329.5,245.167 329.5,258.5C 329.5,265.833 329.5,273.167 329.5,280.5C 327.167,280.5 324.833,280.5 322.5,280.5C 315.45,277.445 310.95,272.112 309,264.5C 308.5,254.172 308.334,243.839 308.5,233.5C 276.833,233.5 245.167,233.5 213.5,233.5C 213.081,214.916 219.414,199.083 232.5,186C 231.906,185.536 231.239,185.369 230.5,185.5C 232.631,184.686 234.964,184.186 237.5,184C 257.957,181.82 277.957,183.82 297.5,190C 312.647,194.7 323.313,204.2 329.5,218.5 Z"/></g>
<g><path style="opacity:1" fill="#78aed7" d="M 181.5,192.5 C 181.5,200.5 181.5,208.5 181.5,216.5C 181.5,230.5 181.5,244.5 181.5,258.5C 178.55,259.308 175.883,260.642 173.5,262.5C 174.884,252.92 171.218,246.253 162.5,242.5C 161.523,231.248 161.189,219.914 161.5,208.5C 161.203,201.08 161.536,193.746 162.5,186.5C 164.044,186.297 165.378,185.63 166.5,184.5C 171.686,186.925 176.686,189.591 181.5,192.5 Z"/></g>
<g><path style="opacity:1" fill="#78afd8" d="M 342.5,208.5 C 341.019,214.757 340.019,221.09 339.5,227.5C 338.669,239.326 338.169,251.326 338,263.5C 335.519,261.176 332.686,259.509 329.5,258.5C 329.5,245.167 329.5,231.833 329.5,218.5C 329.5,209.5 329.5,200.5 329.5,191.5C 333.843,189.912 338.01,187.912 342,185.5C 342.5,193.159 342.666,200.826 342.5,208.5 Z"/></g>
<g><path style="opacity:1" fill="#bb5a1a" d="M 361.5,190.5 C 361.5,194.833 361.5,199.167 361.5,203.5C 353.622,209.465 353.622,215.465 361.5,221.5C 356.107,227.144 353.107,233.978 352.5,242C 352.544,243.764 352.878,245.431 353.5,247C 356.333,247.446 358.999,246.946 361.5,245.5C 362.833,245.5 364.167,245.5 365.5,245.5C 362.496,248.012 358.996,249.679 355,250.5C 353.908,263.28 354.575,275.946 357,288.5C 362.004,303.665 371.504,314.999 385.5,322.5C 374.495,322.333 363.495,322.5 352.5,323C 347.07,324.934 343.07,328.434 340.5,333.5C 339.34,320.673 339.173,307.673 340,294.5C 344.167,287.755 345.5,280.421 344,272.5C 342.92,270.004 341.586,267.67 340,265.5C 339.5,252.838 339.333,240.171 339.5,227.5C 340.019,221.09 341.019,214.757 342.5,208.5C 343.338,208.158 343.672,207.492 343.5,206.5C 347.781,199.34 353.781,194.007 361.5,190.5 Z"/></g>
<g><path style="opacity:1" fill="#f9f6f4" d="M 368.5,203.5 C 369.721,204.028 370.887,204.695 372,205.5C 375.703,211.281 374.87,216.281 369.5,220.5C 367.621,221.341 365.621,221.675 363.5,221.5C 362.833,221.5 362.167,221.5 361.5,221.5C 353.622,215.465 353.622,209.465 361.5,203.5C 363.833,202.167 366.167,202.167 368.5,203.5 Z"/></g>
<g><path style="opacity:1" fill="#895b3e" d="M 61.5,221.5 C 61.3334,240.17 61.5001,258.836 62,277.5C 66.5619,304.395 82.2285,320.395 109,325.5C 113.202,324.598 117.368,323.598 121.5,322.5C 120.117,327.598 118.45,332.598 116.5,337.5C 106.167,337.5 95.8333,337.5 85.5,337.5C 83.2615,332.676 81.2615,327.676 79.5,322.5C 60.4939,313.478 49.4939,298.478 46.5,277.5C 37.3105,277.487 31.1438,273.154 28,264.5C 25.9328,253.293 30.0994,245.626 40.5,241.5C 40.5,247.5 40.5,253.5 40.5,259.5C 48.9255,259.58 54.4255,255.58 57,247.5C 57.4998,238.84 57.6664,230.173 57.5,221.5C 58.8333,221.5 60.1667,221.5 61.5,221.5 Z"/></g>
<g><path style="opacity:1" fill="#a27653" d="M 61.5,221.5 C 63.1667,221.5 64.8333,221.5 66.5,221.5C 92.5,221.5 118.5,221.5 144.5,221.5C 144.334,230.173 144.5,238.84 145,247.5C 146.936,252.932 150.436,256.932 155.5,259.5C 155.5,265.5 155.5,271.5 155.5,277.5C 152.047,298.088 141.047,313.088 122.5,322.5C 122.167,322.5 121.833,322.5 121.5,322.5C 117.368,323.598 113.202,324.598 109,325.5C 82.2285,320.395 66.5619,304.395 62,277.5C 61.5001,258.836 61.3334,240.17 61.5,221.5 Z"/></g>
<g><path style="opacity:1" fill="#dcbd36" d="M 361.5,221.5 C 362.167,221.5 362.833,221.5 363.5,221.5C 362.071,229.415 361.404,237.415 361.5,245.5C 358.999,246.946 356.333,247.446 353.5,247C 352.878,245.431 352.544,243.764 352.5,242C 353.107,233.978 356.107,227.144 361.5,221.5 Z"/></g>
<g><path style="opacity:1" fill="#f5dd6d" d="M 369.5,220.5 C 370.806,222.816 372.139,225.15 373.5,227.5C 375.149,230.456 376.483,233.456 377.5,236.5C 377.5,240.167 377.5,243.833 377.5,247.5C 373.833,246.833 370.167,246.167 366.5,245.5C 366.167,245.5 365.833,245.5 365.5,245.5C 364.167,245.5 362.833,245.5 361.5,245.5C 361.404,237.415 362.071,229.415 363.5,221.5C 365.621,221.675 367.621,221.341 369.5,220.5 Z"/></g>
<g><path style="opacity:1" fill="#eab7a4" d="M 407.5,237.5 C 406.228,251.952 404.228,266.286 401.5,280.5C 404.5,280.5 407.5,280.5 410.5,280.5C 410.5,266.833 410.5,253.167 410.5,239.5C 417.322,241.991 423.989,244.658 430.5,247.5C 428.92,250.532 428.253,253.865 428.5,257.5C 426.686,264.823 429.353,268.323 436.5,268C 437.333,267.167 438.167,266.333 439,265.5C 439.499,260.177 439.666,254.844 439.5,249.5C 448.375,251.608 457.375,252.941 466.5,253.5C 466.713,263.537 466.213,273.537 465,283.5C 460.573,300.739 450.739,313.739 435.5,322.5C 433.486,322.392 431.82,323.058 430.5,324.5C 404.71,329.527 385.21,320.527 372,297.5C 369.929,292.621 368.263,287.621 367,282.5C 366.5,270.171 366.333,257.838 366.5,245.5C 370.167,246.167 373.833,246.833 377.5,247.5C 377.5,243.833 377.5,240.167 377.5,236.5C 381.294,232.582 383.794,227.916 385,222.5C 392.11,228.114 399.61,233.114 407.5,237.5 Z"/></g>
<g><path style="opacity:1" fill="#895b3d" d="M 99.5,228.5 C 100.496,242.99 100.829,257.657 100.5,272.5C 97.1016,272.82 93.7683,272.487 90.5,271.5C 94.1387,257.307 97.1387,242.973 99.5,228.5 Z"/></g>
<g><path style="opacity:1" fill="#dbbd35" d="M 230.5,185.5 C 231.239,185.369 231.906,185.536 232.5,186C 219.414,199.083 213.081,214.916 213.5,233.5C 211.5,233.5 209.5,233.5 207.5,233.5C 205.833,233.5 204.167,233.5 202.5,233.5C 202.909,244.896 202.409,256.23 201,267.5C 197.296,276.039 190.796,280.372 181.5,280.5C 181.5,273.167 181.5,265.833 181.5,258.5C 181.5,244.5 181.5,230.5 181.5,216.5C 183.71,212.428 186.21,208.428 189,204.5C 198.659,195.753 209.826,189.753 222.5,186.5C 222.833,186.5 223.167,186.5 223.5,186.5C 225.806,186.007 228.139,185.674 230.5,185.5 Z"/></g>
<g><path style="opacity:1" fill="#daa290" d="M 207.5,233.5 C 207.333,255.836 207.5,278.169 208,300.5C 213.117,333.453 231.95,353.786 264.5,361.5C 270.186,360.158 275.853,358.825 281.5,357.5C 279.147,363.571 276.814,369.571 274.5,375.5C 261.833,375.5 249.167,375.5 236.5,375.5C 234.263,369.971 232.097,364.305 230,358.5C 229.583,357.244 228.75,356.577 227.5,356.5C 205.291,345.272 192.291,327.272 188.5,302.5C 172.738,300.405 164.738,291.405 164.5,275.5C 166.744,270.691 169.744,266.358 173.5,262.5C 175.883,260.642 178.55,259.308 181.5,258.5C 181.5,265.833 181.5,273.167 181.5,280.5C 190.796,280.372 197.296,276.039 201,267.5C 202.409,256.23 202.909,244.896 202.5,233.5C 204.167,233.5 205.833,233.5 207.5,233.5 Z"/></g>
<g><path style="opacity:1" fill="#ecbaa6" d="M 207.5,233.5 C 209.5,233.5 211.5,233.5 213.5,233.5C 245.167,233.5 276.833,233.5 308.5,233.5C 308.334,243.839 308.5,254.172 309,264.5C 310.95,272.112 315.45,277.445 322.5,280.5C 322.5,287.833 322.5,295.167 322.5,302.5C 318.308,327.879 304.641,346.213 281.5,357.5C 275.853,358.825 270.186,360.158 264.5,361.5C 231.95,353.786 213.117,333.453 208,300.5C 207.5,278.169 207.333,255.836 207.5,233.5 Z"/></g>
<g><path style="opacity:1" fill="#dca492" d="M 407.5,237.5 C 408.71,237.932 409.71,238.599 410.5,239.5C 410.5,253.167 410.5,266.833 410.5,280.5C 407.5,280.5 404.5,280.5 401.5,280.5C 404.228,266.286 406.228,251.952 407.5,237.5 Z"/></g>
<g><path style="opacity:1" fill="#875c40" d="M 82.5,260.5 C 82.6658,255.821 82.4992,251.155 82,246.5C 76.8156,241.973 72.9823,242.973 70.5,249.5C 69.5,249.5 68.5,249.5 67.5,249.5C 68.8042,240.508 73.8042,237.675 82.5,241C 85.3208,243.141 86.6541,245.975 86.5,249.5C 85.5,249.5 84.5,249.5 83.5,249.5C 83.815,253.371 83.4816,257.038 82.5,260.5 Z"/></g>
<g><path style="opacity:1" fill="#895d40" d="M 130.5,260.5 C 130.666,255.821 130.499,251.155 130,246.5C 124.737,241.941 120.904,242.941 118.5,249.5C 117.167,249.5 115.833,249.5 114.5,249.5C 117.016,239.909 122.682,237.409 131.5,242C 133.747,243.995 134.747,246.495 134.5,249.5C 133.5,249.5 132.5,249.5 131.5,249.5C 131.815,253.371 131.482,257.038 130.5,260.5 Z"/></g>
<g><path style="opacity:1" fill="#dba290" d="M 254.5,238.5 C 255.497,257.659 255.83,276.993 255.5,296.5C 251.116,296.826 246.783,296.492 242.5,295.5C 247.036,276.617 251.036,257.617 254.5,238.5 Z"/></g>
<g><path style="opacity:1" fill="#895c3e" d="M 162.5,242.5 C 171.218,246.253 174.884,252.92 173.5,262.5C 169.744,266.358 166.744,270.691 164.5,275.5C 161.598,276.578 158.598,277.244 155.5,277.5C 155.5,271.5 155.5,265.5 155.5,259.5C 157.435,260.15 159.435,260.483 161.5,260.5C 161.177,254.31 161.51,248.31 162.5,242.5 Z"/></g>
<g><path style="opacity:1" fill="#484660" d="M 82.5,260.5 C 78.7533,267.053 74.92,267.053 71,260.5C 70.5014,256.848 70.3347,253.182 70.5,249.5C 72.9823,242.973 76.8156,241.973 82,246.5C 82.4992,251.155 82.6658,255.821 82.5,260.5 Z"/></g>
<g><path style="opacity:1" fill="#474661" d="M 130.5,260.5 C 127.233,266.604 123.399,266.937 119,261.5C 118.501,257.514 118.334,253.514 118.5,249.5C 120.904,242.941 124.737,241.941 130,246.5C 130.499,251.155 130.666,255.821 130.5,260.5 Z"/></g>
<g><path style="opacity:1" fill="#daa18f" d="M 365.5,245.5 C 365.833,245.5 366.167,245.5 366.5,245.5C 366.333,257.838 366.5,270.171 367,282.5C 368.263,287.621 369.929,292.621 372,297.5C 385.21,320.527 404.71,329.527 430.5,324.5C 429.028,328.917 427.362,333.25 425.5,337.5C 415.167,337.5 404.833,337.5 394.5,337.5C 392.645,333.274 390.979,328.94 389.5,324.5C 388.643,323.575 387.643,322.908 386.5,322.5C 386.167,322.5 385.833,322.5 385.5,322.5C 371.504,314.999 362.004,303.665 357,288.5C 354.575,275.946 353.908,263.28 355,250.5C 358.996,249.679 362.496,248.012 365.5,245.5 Z"/></g>
<g><path style="opacity:1" fill="#494864" d="M 382.5,247.5 C 384.857,247.337 387.19,247.503 389.5,248C 390.701,248.903 391.535,250.069 392,251.5C 392.667,255.833 392.667,260.167 392,264.5C 388.645,269.31 384.979,269.644 381,265.5C 380.333,260.167 380.333,254.833 381,249.5C 381.717,248.956 382.217,248.289 382.5,247.5 Z"/></g>
<g><path style="opacity:1" fill="#464662" d="M 430.5,247.5 C 433.598,247.756 436.598,248.422 439.5,249.5C 439.666,254.844 439.499,260.177 439,265.5C 438.167,266.333 437.333,267.167 436.5,268C 429.353,268.323 426.686,264.823 428.5,257.5C 428.253,253.865 428.92,250.532 430.5,247.5 Z"/></g>
<g><path style="opacity:1" fill="#d8a08f" d="M 233.5,268.5 C 232.442,262.294 228.776,260.128 222.5,262C 220.266,263.638 218.933,265.805 218.5,268.5C 216.833,268.5 215.167,268.5 213.5,268.5C 215.832,257.033 222.499,253.533 233.5,258C 236.805,260.781 238.472,264.281 238.5,268.5C 236.833,268.5 235.167,268.5 233.5,268.5 Z"/></g>
<g><path style="opacity:1" fill="#d39e8e" d="M 291.5,281.5 C 291.666,275.824 291.499,270.157 291,264.5C 287.627,261.114 283.794,260.614 279.5,263C 278.139,264.584 277.472,266.418 277.5,268.5C 275.833,268.5 274.167,268.5 272.5,268.5C 272.979,261.018 276.979,256.684 284.5,255.5C 292.539,256.206 296.872,260.539 297.5,268.5C 295.833,268.5 294.167,268.5 292.5,268.5C 292.818,273.032 292.485,277.366 291.5,281.5 Z"/></g>
<g><path style="opacity:1" fill="#d49e8c" d="M 339.5,227.5 C 339.333,240.171 339.5,252.838 340,265.5C 341.586,267.67 342.92,270.004 344,272.5C 345.5,280.421 344.167,287.755 340,294.5C 339.173,307.673 339.34,320.673 340.5,333.5C 340.167,334.5 339.5,335.167 338.5,335.5C 338.667,322.496 338.5,309.496 338,296.5C 333.427,299.97 328.26,301.97 322.5,302.5C 322.5,295.167 322.5,287.833 322.5,280.5C 324.833,280.5 327.167,280.5 329.5,280.5C 329.5,273.167 329.5,265.833 329.5,258.5C 332.686,259.509 335.519,261.176 338,263.5C 338.169,251.326 338.669,239.326 339.5,227.5 Z"/></g>
<g><path style="opacity:1" fill="#494864" d="M 233.5,268.5 C 233.666,273.179 233.499,277.845 233,282.5C 228.003,289.266 223.337,288.933 219,281.5C 218.501,277.179 218.334,272.846 218.5,268.5C 218.933,265.805 220.266,263.638 222.5,262C 228.776,260.128 232.442,262.294 233.5,268.5 Z"/></g>
<g><path style="opacity:1" fill="#464662" d="M 291.5,281.5 C 289.415,286.876 285.748,288.376 280.5,286C 279.299,285.097 278.465,283.931 278,282.5C 277.501,277.845 277.334,273.179 277.5,268.5C 277.472,266.418 278.139,264.584 279.5,263C 283.794,260.614 287.627,261.114 291,264.5C 291.499,270.157 291.666,275.824 291.5,281.5 Z"/></g>
<g><path style="opacity:1" fill="#78afd7" d="M 164.5,275.5 C 164.738,291.405 172.738,300.405 188.5,302.5C 192.291,327.272 205.291,345.272 227.5,356.5C 214.656,356.171 201.989,356.505 189.5,357.5C 188.833,357.5 188.167,357.5 187.5,357.5C 180.1,346.592 172.1,336.092 163.5,326C 161.5,325 159.5,324 157.5,323C 145.838,322.5 134.171,322.333 122.5,322.5C 141.047,313.088 152.047,298.088 155.5,277.5C 158.598,277.244 161.598,276.578 164.5,275.5 Z"/></g>
<g><path style="opacity:1" fill="#f7f7f8" d="M 122.5,283.5 C 108.663,289.688 94.6632,290.022 80.5,284.5C 80.0825,283.778 79.4158,283.278 78.5,283C 93.3391,282.172 108.006,282.339 122.5,283.5 Z"/></g>
<g><path style="opacity:1" fill="#474663" d="M 122.5,283.5 C 122.559,289.711 120.226,294.711 115.5,298.5C 105.783,290.678 96.1165,290.678 86.5,298.5C 81.1466,295.07 79.1466,290.403 80.5,284.5C 94.6632,290.022 108.663,289.688 122.5,283.5 Z"/></g>
<g><path style="opacity:1" fill="#f1f1f2" d="M 432.5,287.5 C 418.314,293.755 403.98,294.089 389.5,288.5C 389.082,287.778 388.416,287.278 387.5,287C 402.672,286.172 417.672,286.339 432.5,287.5 Z"/></g>
<g><path style="opacity:1" fill="#494764" d="M 432.5,287.5 C 432.082,293.793 429.416,298.793 424.5,302.5C 414.767,295.879 405.1,295.879 395.5,302.5C 390.658,298.839 388.658,294.172 389.5,288.5C 403.98,294.089 418.314,293.755 432.5,287.5 Z"/></g>
<g><path style="opacity:1" fill="#ce497e" d="M 115.5,298.5 C 111.54,302.826 106.54,304.826 100.5,304.5C 94.8304,304.661 90.1638,302.661 86.5,298.5C 96.1165,290.678 105.783,290.678 115.5,298.5 Z"/></g>
<g><path style="opacity:1" fill="#79afd7" d="M 338.5,335.5 C 333.5,342.833 328.5,350.167 323.5,357.5C 309.5,357.5 295.5,357.5 281.5,357.5C 304.641,346.213 318.308,327.879 322.5,302.5C 328.26,301.97 333.427,299.97 338,296.5C 338.5,309.496 338.667,322.496 338.5,335.5 Z"/></g>
<g><path style="opacity:1" fill="#d24a7f" d="M 424.5,302.5 C 423.327,304.504 421.66,306.004 419.5,307C 413.152,308.947 406.819,308.947 400.5,307C 398.34,306.004 396.673,304.504 395.5,302.5C 405.1,295.879 414.767,295.879 424.5,302.5 Z"/></g>
<g><path style="opacity:1" fill="#fafafb" d="M 228.5,309.5 C 246.5,308.167 264.5,308.167 282.5,309.5C 264.465,317.371 246.465,317.371 228.5,309.5 Z"/></g>
<g><path style="opacity:1" fill="#494864" d="M 228.5,309.5 C 246.465,317.371 264.465,317.371 282.5,309.5C 281.894,317.042 278.894,323.375 273.5,328.5C 268.353,323.285 262.02,320.951 254.5,321.5C 247.754,321.378 242.087,323.711 237.5,328.5C 232.106,323.375 229.106,317.042 228.5,309.5 Z"/></g>
<g><path style="opacity:1" fill="#d14a7f" d="M 273.5,328.5 C 261.461,337.828 249.461,337.828 237.5,328.5C 242.087,323.711 247.754,321.378 254.5,321.5C 262.02,320.951 268.353,323.285 273.5,328.5 Z"/></g>
<g><path style="opacity:1" fill="#593476" d="M 77.5,322.5 C 69.2265,326.214 60.8932,330.048 52.5,334C 50.3333,336.167 48.1667,338.333 46,340.5C 40.8911,351.718 36.0578,363.051 31.5,374.5C 30.675,375.386 29.675,375.719 28.5,375.5C 24.2857,367.739 20.619,359.739 17.5,351.5C 23.1336,344.924 28.3003,337.924 33,330.5C 35.7076,326.896 39.2076,324.396 43.5,323C 54.8284,322.5 66.1618,322.333 77.5,322.5 Z"/></g>
<g><path style="opacity:1" fill="#704f85" d="M 77.5,322.5 C 78.1667,322.5 78.8333,322.5 79.5,322.5C 81.2615,327.676 83.2615,332.676 85.5,337.5C 89.9731,350.412 95.1397,363.079 101,375.5C 106.456,362.926 111.623,350.259 116.5,337.5C 118.45,332.598 120.117,327.598 121.5,322.5C 121.833,322.5 122.167,322.5 122.5,322.5C 134.171,322.333 145.838,322.5 157.5,323C 159.5,324 161.5,325 163.5,326C 172.1,336.092 180.1,346.592 187.5,357.5C 183.577,358.795 179.91,360.628 176.5,363C 150.932,395.071 127.932,428.905 107.5,464.5C 73.7057,441.377 47.3723,411.71 28.5,375.5C 29.675,375.719 30.675,375.386 31.5,374.5C 36.0578,363.051 40.8911,351.718 46,340.5C 48.1667,338.333 50.3333,336.167 52.5,334C 60.8932,330.048 69.2265,326.214 77.5,322.5 Z"/></g>
<g><path style="opacity:1" fill="#593375" d="M 385.5,322.5 C 385.833,322.5 386.167,322.5 386.5,322.5C 378.257,326.284 369.924,330.118 361.5,334C 359.667,335.833 357.833,337.667 356,339.5C 351.07,350.125 346.236,360.791 341.5,371.5C 337.4,364.444 331.4,359.777 323.5,357.5C 328.5,350.167 333.5,342.833 338.5,335.5C 339.5,335.167 340.167,334.5 340.5,333.5C 343.07,328.434 347.07,324.934 352.5,323C 363.495,322.5 374.495,322.333 385.5,322.5 Z"/></g>
<g><path style="opacity:1" fill="#704f85" d="M 386.5,322.5 C 387.643,322.908 388.643,323.575 389.5,324.5C 390.979,328.94 392.645,333.274 394.5,337.5C 399.377,350.259 404.544,362.926 410,375.5C 415.469,362.918 420.636,350.251 425.5,337.5C 427.362,333.25 429.028,328.917 430.5,324.5C 431.82,323.058 433.486,322.392 435.5,322.5C 445.839,322.334 456.172,322.5 466.5,323C 472.864,324.873 477.531,328.706 480.5,334.5C 484.918,340.246 488.918,346.246 492.5,352.5C 469.589,408.586 431.589,451.419 378.5,481C 347.029,497.695 313.696,507.861 278.5,511.5C 263.167,511.5 247.833,511.5 232.5,511.5C 201.674,508.447 172.341,500.114 144.5,486.5C 146.81,483.898 148.643,480.898 150,477.5C 162.226,444.15 175.226,411.15 189,378.5C 191.869,375.296 195.035,372.463 198.5,370C 207.833,366 217.167,362 226.5,358C 214.171,357.5 201.838,357.333 189.5,357.5C 201.989,356.505 214.656,356.171 227.5,356.5C 228.75,356.577 229.583,357.244 230,358.5C 232.097,364.305 234.263,369.971 236.5,375.5C 242.28,391.06 248.613,406.393 255.5,421.5C 262.393,406.382 268.727,391.049 274.5,375.5C 276.814,369.571 279.147,363.571 281.5,357.5C 295.5,357.5 309.5,357.5 323.5,357.5C 331.4,359.777 337.4,364.444 341.5,371.5C 346.236,360.791 351.07,350.125 356,339.5C 357.833,337.667 359.667,335.833 361.5,334C 369.924,330.118 378.257,326.284 386.5,322.5 Z"/></g>
<g><path style="opacity:1" fill="#74b6a3" d="M 85.5,337.5 C 95.8333,337.5 106.167,337.5 116.5,337.5C 111.623,350.259 106.456,362.926 101,375.5C 95.1397,363.079 89.9731,350.412 85.5,337.5 Z"/></g>
<g><path style="opacity:1" fill="#f3dc6f" d="M 394.5,337.5 C 404.833,337.5 415.167,337.5 425.5,337.5C 420.636,350.251 415.469,362.918 410,375.5C 404.544,362.926 399.377,350.259 394.5,337.5 Z"/></g>
<g><path style="opacity:1" fill="#593375" d="M 187.5,357.5 C 188.167,357.5 188.833,357.5 189.5,357.5C 201.838,357.333 214.171,357.5 226.5,358C 217.167,362 207.833,366 198.5,370C 195.035,372.463 191.869,375.296 189,378.5C 175.226,411.15 162.226,444.15 150,477.5C 148.643,480.898 146.81,483.898 144.5,486.5C 131.117,480.751 118.783,473.418 107.5,464.5C 127.932,428.905 150.932,395.071 176.5,363C 179.91,360.628 183.577,358.795 187.5,357.5 Z"/></g>
<g><path style="opacity:1" fill="#d44c80" d="M 236.5,375.5 C 249.167,375.5 261.833,375.5 274.5,375.5C 268.727,391.049 262.393,406.382 255.5,421.5C 248.613,406.393 242.28,391.06 236.5,375.5 Z"/></g>
</svg>
