<?xml version="1.0" encoding="UTF-8"?>
<!DOCTYPE svg PUBLIC "-//W3C//DTD SVG 1.1//EN" "http://www.w3.org/Graphics/SVG/1.1/DTD/svg11.dtd">
<svg xmlns="http://www.w3.org/2000/svg" version="1.1" width="512px" height="512px" style="shape-rendering:geometricPrecision; text-rendering:geometricPrecision; image-rendering:optimizeQuality; fill-rule:evenodd; clip-rule:evenodd" xmlns:xlink="http://www.w3.org/1999/xlink">
<g><path style="opacity:0.981" fill="#010101" d="M 150.5,-0.5 C 159.167,-0.5 167.833,-0.5 176.5,-0.5C 219.152,10.0623 242.152,37.3957 245.5,81.5C 244.713,87.1569 244.046,92.8236 243.5,98.5C 244.822,98.33 245.989,98.6634 247,99.5C 255.399,85.7753 267.566,77.6087 283.5,75C 305.857,73.2976 326.69,78.1309 346,89.5C 351.127,84.3727 356.294,79.206 361.5,74C 377.702,63.0217 390.036,66.1884 398.5,83.5C 407.139,73.7639 417.972,68.4306 431,67.5C 446.023,68.3572 453.856,76.3572 454.5,91.5C 463.54,83.4898 473.873,80.9898 485.5,84C 493.625,88.1383 497.625,94.805 497.5,104C 497.229,109.69 496.062,115.19 494,120.5C 485.333,139.009 473.833,155.509 459.5,170C 461.908,188.391 463.742,206.891 465,225.5C 488.878,234.594 496.545,251.261 488,275.5C 483.022,284.643 475.522,290.643 465.5,293.5C 466.695,324.437 455.028,349.104 430.5,367.5C 436.449,371.946 441.949,376.946 447,382.5C 449.054,386.613 448.887,390.613 446.5,394.5C 443.531,395.329 440.531,395.495 437.5,395C 430.389,386.957 422.055,380.624 412.5,376C 404.215,376.986 395.881,377.986 387.5,379C 391.918,385.838 393.918,393.338 393.5,401.5C 393.88,411.119 391.547,419.952 386.5,428C 384.966,428.923 383.299,429.423 381.5,429.5C 368.533,426.934 356.366,422.267 345,415.5C 344.333,432.833 344.333,450.167 345,467.5C 350.525,463.154 356.691,459.987 363.5,458C 376.162,457.5 388.829,457.333 401.5,457.5C 401.051,447.395 401.551,437.395 403,427.5C 407.625,423.354 411.959,423.687 416,428.5C 416.483,429.448 416.649,430.448 416.5,431.5C 416.5,433.5 416.5,435.5 416.5,437.5C 420.833,437.5 425.167,437.5 429.5,437.5C 436.167,437.5 442.833,437.5 449.5,437.5C 449.805,429.745 449.139,422.078 447.5,414.5C 447.577,412.701 448.077,411.034 449,409.5C 450.518,408.837 451.685,407.837 452.5,406.5C 460.645,406.82 464.478,411.153 464,419.5C 465.577,442.137 465.911,464.804 465,487.5C 462.606,499.387 455.772,507.387 444.5,511.5C 372.5,511.5 300.5,511.5 228.5,511.5C 218.414,507.911 211.914,500.911 209,490.5C 208.333,467.5 208.333,444.5 209,421.5C 212.801,398.386 224.301,380.22 243.5,367C 225.254,355.399 214.088,338.899 210,317.5C 208.816,309.208 208.316,300.875 208.5,292.5C 191.736,288.025 182.736,277.025 181.5,259.5C 181.843,250.322 184.843,242.156 190.5,235C 189.594,232.209 188.927,229.376 188.5,226.5C 171.146,227.984 153.813,227.817 136.5,226C 119.575,217.811 114.242,204.811 120.5,187C 108.016,180.198 102.85,169.698 105,155.5C 105.898,151.205 107.731,147.372 110.5,144C 80.63,115.297 73.7966,81.797 90,43.5C 92.7258,38.1073 96.2258,33.274 100.5,29C 103.555,28.3658 106.555,28.5325 109.5,29.5C 111.191,32.6454 111.691,35.9787 111,39.5C 91.5707,67.7037 91.9041,95.7037 112,123.5C 115.534,127.369 119.367,130.869 123.5,134C 134.341,134.825 145.008,134.659 155.5,133.5C 155.5,126.5 155.5,119.5 155.5,112.5C 139.065,106.929 132.731,95.7627 136.5,79C 140.714,76.7306 144.547,77.2306 148,80.5C 149.105,84.123 150.105,87.7897 151,91.5C 154.845,97.667 160.345,99.8337 167.5,98C 174.651,94.8729 178.151,89.3729 178,81.5C 181.958,76.5639 186.291,76.2305 191,80.5C 192.98,96.1895 186.48,106.856 171.5,112.5C 170.508,119.648 170.175,126.981 170.5,134.5C 178.833,134.5 187.167,134.5 195.5,134.5C 197.262,134.357 198.929,134.691 200.5,135.5C 222.476,119.435 231.976,97.768 229,70.5C 222.59,39.9234 204.09,21.5901 173.5,15.5C 162.778,13.74 152.111,14.5733 141.5,18C 136.26,20.4555 130.926,22.6221 125.5,24.5C 122.954,23.9433 120.621,22.9433 118.5,21.5C 116.935,17.0249 117.935,13.1916 121.5,10C 130.747,4.97658 140.413,1.47658 150.5,-0.5 Z"/></g>
<g><path style="opacity:0.902" fill="#000000" d="M 40.5,15.5 C 42.9267,15.523 45.26,16.023 47.5,17C 55.3333,24.8333 63.1667,32.6667 71,40.5C 73.5753,47.4264 71.2419,51.7598 64,53.5C 62.5,53 61,52.5 59.5,52C 51.6667,44.1667 43.8333,36.3333 36,28.5C 33.5283,22.7792 35.0283,18.4458 40.5,15.5 Z"/></g>
<g><path style="opacity:1" fill="#e7af4c" d="M 173.5,15.5 C 168.879,14.9927 164.546,15.826 160.5,18C 126.384,42.3577 116.884,74.1911 132,113.5C 135.677,120.846 140.511,127.346 146.5,133C 149.482,133.498 152.482,133.665 155.5,133.5C 145.008,134.659 134.341,134.825 123.5,134C 119.367,130.869 115.534,127.369 112,123.5C 91.9041,95.7037 91.5707,67.7037 111,39.5C 111.691,35.9787 111.191,32.6454 109.5,29.5C 112.526,26.8046 115.526,24.1379 118.5,21.5C 120.621,22.9433 122.954,23.9433 125.5,24.5C 130.926,22.6221 136.26,20.4555 141.5,18C 152.111,14.5733 162.778,13.74 173.5,15.5 Z"/></g>
<g><path style="opacity:1" fill="#f2db44" d="M 173.5,15.5 C 204.09,21.5901 222.59,39.9234 229,70.5C 231.976,97.768 222.476,119.435 200.5,135.5C 198.929,134.691 197.262,134.357 195.5,134.5C 187.684,133.508 179.684,133.174 171.5,133.5C 171.5,126.5 171.5,119.5 171.5,112.5C 186.48,106.856 192.98,96.1895 191,80.5C 186.291,76.2305 181.958,76.5639 178,81.5C 178.151,89.3729 174.651,94.8729 167.5,98C 160.345,99.8337 154.845,97.667 151,91.5C 150.105,87.7897 149.105,84.123 148,80.5C 144.547,77.2306 140.714,76.7306 136.5,79C 132.731,95.7627 139.065,106.929 155.5,112.5C 155.5,119.5 155.5,126.5 155.5,133.5C 152.482,133.665 149.482,133.498 146.5,133C 140.511,127.346 135.677,120.846 132,113.5C 116.884,74.1911 126.384,42.3577 160.5,18C 164.546,15.826 168.879,14.9927 173.5,15.5 Z"/></g>
<g><path style="opacity:0.916" fill="#000000" d="M 17.5,67.5 C 30.1711,67.3334 42.8377,67.5001 55.5,68C 60.4459,72.3003 60.7793,76.967 56.5,82C 55.5,82.3333 54.5,82.6667 53.5,83C 42.1667,83.6667 30.8333,83.6667 19.5,83C 12.2807,78.8343 11.614,73.6676 17.5,67.5 Z"/></g>
<g><path style="opacity:1" fill="#443f44" d="M 378.5,83.5 C 373.286,94.9293 367.786,106.263 362,117.5C 353.066,133.776 339.233,141.109 320.5,139.5C 328.958,134.561 336.458,128.228 343,120.5C 351.745,108.417 361.245,96.9173 371.5,86C 373.65,84.5886 375.984,83.7553 378.5,83.5 Z"/></g>
<g><path style="opacity:1" fill="#655d65" d="M 378.5,83.5 C 380.752,83.9156 382.252,85.249 383,87.5C 383.642,97.6427 382.975,107.643 381,117.5C 383.913,122.689 388.08,123.856 393.5,121C 394.066,120.005 394.733,119.172 395.5,118.5C 400.229,118.219 404.063,116.219 407,112.5C 410.392,103.384 414.559,94.7174 419.5,86.5C 435.345,78.8505 441.178,83.5172 437,100.5C 435.026,106.755 432.86,112.922 430.5,119C 432.203,126.451 436.536,128.451 443.5,125C 451.306,114.263 460.973,105.596 472.5,99C 478.36,95.8619 481.36,97.5285 481.5,104C 480.514,112.477 477.681,120.31 473,127.5C 454.64,156.528 430.474,179.361 400.5,196C 360.434,210.643 321.434,208.309 283.5,189C 277.953,185.721 272.953,181.721 268.5,177C 265.403,174.554 262.069,174.054 258.5,175.5C 254.153,166.63 252.153,157.13 252.5,147C 252.968,133.686 255.635,120.853 260.5,108.5C 267.673,96.208 278.506,89.8747 293,89.5C 308.809,90.7695 323.642,95.2695 337.5,103C 329.91,113.925 320.41,122.758 309,129.5C 307.358,138.944 311.191,142.277 320.5,139.5C 339.233,141.109 353.066,133.776 362,117.5C 367.786,106.263 373.286,94.9293 378.5,83.5 Z"/></g>
<g><path style="opacity:1" fill="#443f44" d="M 419.5,86.5 C 414.559,94.7174 410.392,103.384 407,112.5C 404.063,116.219 400.229,118.219 395.5,118.5C 400.108,105.234 408.108,94.5671 419.5,86.5 Z"/></g>
<g><path style="opacity:0.902" fill="#000000" d="M 60.5,97.5 C 70.0313,96.5201 73.5313,100.52 71,109.5C 62.8333,117.667 54.6667,125.833 46.5,134C 35.5953,134.956 32.4286,130.456 37,120.5C 44.7285,112.604 52.5618,104.937 60.5,97.5 Z"/></g>
<g><path style="opacity:1" fill="#443f44" d="M 260.5,108.5 C 255.635,120.853 252.968,133.686 252.5,147C 252.153,157.13 254.153,166.63 258.5,175.5C 257.164,177.01 255.997,178.677 255,180.5C 252.769,196.132 245.935,209.298 234.5,220C 231.036,222.047 227.37,223.713 223.5,225C 217.174,225.056 211.007,225.889 205,227.5C 201.721,221.504 202.054,215.837 206,210.5C 208.439,202.251 207.939,194.251 204.5,186.5C 217.664,179.839 223.164,169.173 221,154.5C 219.25,150.359 217.584,146.359 216,142.5C 225.324,134.866 232.491,125.533 237.5,114.5C 240.626,113.581 243.626,114.081 246.5,116C 248.833,116.667 251.167,116.667 253.5,116C 256.412,113.985 258.745,111.485 260.5,108.5 Z"/></g>
<g><path style="opacity:1" fill="#b6a533" d="M 171.5,112.5 C 171.5,119.5 171.5,126.5 171.5,133.5C 179.684,133.174 187.684,133.508 195.5,134.5C 187.167,134.5 178.833,134.5 170.5,134.5C 170.175,126.981 170.508,119.648 171.5,112.5 Z"/></g>
<g><path style="opacity:1" fill="#aac4c8" d="M 149.5,149.5 C 145.536,156.969 145.536,164.469 149.5,172C 165.163,172.5 180.83,172.667 196.5,172.5C 185.505,173.167 174.338,173.5 163,173.5C 150.766,173.637 138.6,173.137 126.5,172C 117.714,165.402 117.38,158.402 125.5,151C 133.389,149.565 141.389,149.065 149.5,149.5 Z"/></g>
<g><path style="opacity:1" fill="#dee9ee" d="M 149.5,149.5 C 165.837,149.333 182.17,149.5 198.5,150C 206.725,154.193 208.558,160.359 204,168.5C 202.117,171.024 199.617,172.358 196.5,172.5C 180.83,172.667 165.163,172.5 149.5,172C 145.536,164.469 145.536,156.969 149.5,149.5 Z"/></g>
<g><path style="opacity:1" fill="#efcfa4" d="M 306.5,364.5 C 302.018,363.674 297.351,363.174 292.5,363C 287.727,357.216 284.227,350.716 282,343.5C 279.465,334.622 277.465,325.622 276,316.5C 275.5,299.17 275.333,281.837 275.5,264.5C 282.374,267.991 287.207,265.991 290,258.5C 292.722,250.47 291.556,243.137 286.5,236.5C 283.026,234.275 279.359,233.941 275.5,235.5C 275.6,224.491 275.934,213.491 276.5,202.5C 316.393,222.858 357.726,226.025 400.5,212C 417.157,205.011 432.157,195.511 445.5,183.5C 447.493,196.416 448.66,209.416 449,222.5C 449.667,250.833 449.667,279.167 449,307.5C 444.962,338.204 427.795,356.704 397.5,363C 367.18,364.261 336.847,364.761 306.5,364.5 Z"/></g>
<g><path style="opacity:1" fill="#a9c3c8" d="M 183.5,188.5 C 173.494,188.334 163.494,188.5 153.5,189C 148.196,196.46 148.196,203.96 153.5,211.5C 149.154,211.666 144.821,211.499 140.5,211C 134.636,207.434 132.47,202.267 134,195.5C 135.892,191.942 138.725,189.442 142.5,188C 156.34,187.173 170.006,187.339 183.5,188.5 Z"/></g>
<g><path style="opacity:1" fill="#dde8ed" d="M 183.5,188.5 C 191.628,190.838 194.461,196.171 192,204.5C 190.878,206.624 189.378,208.457 187.5,210C 176.244,211.433 164.91,211.933 153.5,211.5C 148.196,203.96 148.196,196.46 153.5,189C 163.494,188.5 173.494,188.334 183.5,188.5 Z"/></g>
<g><path style="opacity:1" fill="#efb785" d="M 276.5,202.5 C 275.934,213.491 275.6,224.491 275.5,235.5C 267.5,245.167 267.5,254.833 275.5,264.5C 275.333,281.837 275.5,299.17 276,316.5C 277.465,325.622 279.465,334.622 282,343.5C 284.227,350.716 287.727,357.216 292.5,363C 297.351,363.174 302.018,363.674 306.5,364.5C 291.925,364.984 277.592,363.484 263.5,360C 239.76,350.035 226.593,332.202 224,306.5C 223.5,284.169 223.333,261.836 223.5,239.5C 239.317,236.853 251.151,228.52 259,214.5C 261.937,208.508 264.77,202.508 267.5,196.5C 270.738,198.275 273.738,200.275 276.5,202.5 Z"/></g>
<g><path style="opacity:1" fill="#070504" d="M 275.5,264.5 C 267.5,254.833 267.5,245.167 275.5,235.5C 279.359,233.941 283.026,234.275 286.5,236.5C 291.556,243.137 292.722,250.47 290,258.5C 287.207,265.991 282.374,267.991 275.5,264.5 Z"/></g>
<g><path style="opacity:1" fill="#070604" d="M 388.5,234.5 C 396.14,233.625 400.973,236.958 403,244.5C 404.413,252.253 402.58,259.087 397.5,265C 388.606,267.448 383.439,263.948 382,254.5C 380.455,246.599 382.621,239.932 388.5,234.5 Z"/></g>
<g><path style="opacity:1" fill="#e8b281" d="M 206.5,242.5 C 207.829,247.792 208.496,253.458 208.5,259.5C 208.167,265.167 207.833,270.833 207.5,276.5C 197.404,269.703 194.904,260.703 200,249.5C 201.694,246.642 203.861,244.309 206.5,242.5 Z"/></g>
<g><path style="opacity:1" fill="#e9b381" d="M 466.5,243.5 C 476.123,249.546 478.623,257.88 474,268.5C 472.285,271.717 469.785,274.05 466.5,275.5C 465.167,264.833 465.167,254.167 466.5,243.5 Z"/></g>
<g><path style="opacity:1" fill="#856649" d="M 466.5,243.5 C 465.167,254.167 465.167,264.833 466.5,275.5C 466.44,276.043 466.107,276.376 465.5,276.5C 464.167,265.167 464.167,253.833 465.5,242.5C 466.107,242.624 466.44,242.957 466.5,243.5 Z"/></g>
<g><path style="opacity:1" fill="#050403" d="M 308.5,287.5 C 311.649,287.211 314.649,287.711 317.5,289C 326.591,304.355 338.091,306.522 352,295.5C 354.406,287.739 359.239,285.572 366.5,289C 367.848,290.574 368.514,292.407 368.5,294.5C 364.262,307.561 355.262,315.061 341.5,317C 327.506,318.584 316.339,313.751 308,302.5C 303.309,297.085 303.476,292.085 308.5,287.5 Z"/></g>
<g><path style="opacity:1" fill="#538df4" d="M 265.5,376.5 C 246.447,392.281 237.447,412.615 238.5,437.5C 233.5,437.5 228.5,437.5 223.5,437.5C 223.238,409.293 235.572,388.793 260.5,376C 262.265,375.36 263.932,375.527 265.5,376.5 Z"/></g>
<g><path style="opacity:0.999" fill="#7fb2f9" d="M 446.5,394.5 C 448.5,398.5 450.5,402.5 452.5,406.5C 451.685,407.837 450.518,408.837 449,409.5C 448.077,411.034 447.577,412.701 447.5,414.5C 449.139,422.078 449.805,429.745 449.5,437.5C 442.833,437.5 436.167,437.5 429.5,437.5C 429.5,435.5 429.5,433.5 429.5,431.5C 425.167,431.5 420.833,431.5 416.5,431.5C 416.649,430.448 416.483,429.448 416,428.5C 411.959,423.687 407.625,423.354 403,427.5C 401.551,437.395 401.051,447.395 401.5,457.5C 388.829,457.333 376.162,457.5 363.5,458C 356.691,459.987 350.525,463.154 345,467.5C 344.333,450.167 344.333,432.833 345,415.5C 356.366,422.267 368.533,426.934 381.5,429.5C 383.299,429.423 384.966,428.923 386.5,428C 391.547,419.952 393.88,411.119 393.5,401.5C 393.918,393.338 391.918,385.838 387.5,379C 395.881,377.986 404.215,376.986 412.5,376C 422.055,380.624 430.389,386.957 437.5,395C 440.531,395.495 443.531,395.329 446.5,394.5 Z"/></g>
<g><path style="opacity:1" fill="#7fb2f9" d="M 265.5,376.5 C 272.12,377.719 278.787,378.719 285.5,379.5C 277.739,394.703 277.572,410.037 285,425.5C 286.167,426.667 287.333,427.833 288.5,429C 302.294,427.347 315.294,423.18 327.5,416.5C 328.833,433.167 328.833,449.833 327.5,466.5C 320.98,461.747 313.646,458.913 305.5,458C 294.172,457.5 282.838,457.333 271.5,457.5C 271.949,447.395 271.449,437.395 270,427.5C 264.879,423.125 260.545,423.791 257,429.5C 256.503,432.146 256.336,434.813 256.5,437.5C 250.5,437.5 244.5,437.5 238.5,437.5C 237.447,412.615 246.447,392.281 265.5,376.5 Z"/></g>
<g><path style="opacity:1" fill="#ebb482" d="M 310.5,379.5 C 328.17,379.333 345.836,379.5 363.5,380C 353.044,392.031 340.044,395.697 324.5,391C 318.118,389.106 313.451,385.273 310.5,379.5 Z"/></g>
<g><path style="opacity:1" fill="#508aef" d="M 296.5,389.5 C 300.57,392.06 304.236,395.227 307.5,399C 310.5,400.833 313.5,402.667 316.5,404.5C 310.105,408.743 303.105,411.41 295.5,412.5C 293.983,404.742 294.316,397.076 296.5,389.5 Z"/></g>
<g><path style="opacity:1" fill="#518bf0" d="M 375.5,388.5 C 376.41,390.019 377.243,391.685 378,393.5C 378.706,399.87 378.539,406.203 377.5,412.5C 369.915,411.415 362.915,408.749 356.5,404.5C 364.282,400.791 370.616,395.458 375.5,388.5 Z"/></g>
<g><path style="opacity:1" fill="#50719e" d="M 327.5,416.5 C 327.56,415.957 327.893,415.624 328.5,415.5C 329.833,432.833 329.833,450.167 328.5,467.5C 327.893,467.376 327.56,467.043 327.5,466.5C 328.833,449.833 328.833,433.167 327.5,416.5 Z"/></g>
<g><path style="opacity:1" fill="#548ff5" d="M 416.5,431.5 C 420.833,431.5 425.167,431.5 429.5,431.5C 429.5,433.5 429.5,435.5 429.5,437.5C 425.167,437.5 420.833,437.5 416.5,437.5C 416.5,435.5 416.5,433.5 416.5,431.5 Z"/></g>
<g><path style="opacity:1" fill="#edb684" d="M 238.5,452.5 C 238.333,464.505 238.5,476.505 239,488.5C 239.906,491.31 241.073,493.976 242.5,496.5C 233.949,498.14 227.782,495.14 224,487.5C 223.5,475.838 223.333,464.171 223.5,452.5C 228.5,452.5 233.5,452.5 238.5,452.5 Z"/></g>
<g><path style="opacity:1" fill="#efcea4" d="M 238.5,452.5 C 244.5,452.5 250.5,452.5 256.5,452.5C 256.334,457.511 256.501,462.511 257,467.5C 257.465,468.931 258.299,470.097 259.5,471C 275.408,472.304 291.408,472.97 307.5,473C 319.223,476.614 326.223,484.447 328.5,496.5C 299.833,496.5 271.167,496.5 242.5,496.5C 241.073,493.976 239.906,491.31 239,488.5C 238.5,476.505 238.333,464.505 238.5,452.5 Z"/></g>
<g><path style="opacity:1" fill="#eab382" d="M 428.5,452.5 C 428.5,456.5 428.5,460.5 428.5,464.5C 424.173,464.016 420.173,464.682 416.5,466.5C 416.5,461.833 416.5,457.167 416.5,452.5C 420.5,452.5 424.5,452.5 428.5,452.5 Z"/></g>
<g><path style="opacity:1" fill="#efcfa4" d="M 428.5,452.5 C 435.5,452.5 442.5,452.5 449.5,452.5C 449.667,463.838 449.5,475.172 449,486.5C 448.332,490.499 446.165,493.332 442.5,495C 412.897,496.476 383.23,496.976 353.5,496.5C 353.351,493.393 353.851,490.393 355,487.5C 357.018,482.785 359.518,478.451 362.5,474.5C 363.263,473.732 364.263,473.232 365.5,473C 380.833,472.667 396.167,472.333 411.5,472C 414.079,470.924 415.746,469.091 416.5,466.5C 420.173,464.682 424.173,464.016 428.5,464.5C 428.5,460.5 428.5,456.5 428.5,452.5 Z"/></g>
<g><path style="opacity:1" fill="#eab483" d="M 362.5,474.5 C 359.518,478.451 357.018,482.785 355,487.5C 353.851,490.393 353.351,493.393 353.5,496.5C 350.833,496.5 348.167,496.5 345.5,496.5C 346.619,485.708 352.286,478.374 362.5,474.5 Z"/></g>
</svg>
