<?xml version="1.0" encoding="UTF-8"?>
<!DOCTYPE svg PUBLIC "-//W3C//DTD SVG 1.1//EN" "http://www.w3.org/Graphics/SVG/1.1/DTD/svg11.dtd">
<svg xmlns="http://www.w3.org/2000/svg" version="1.1" width="512px" height="512px" style="shape-rendering:geometricPrecision; text-rendering:geometricPrecision; image-rendering:optimizeQuality; fill-rule:evenodd; clip-rule:evenodd" xmlns:xlink="http://www.w3.org/1999/xlink">
<g><path style="opacity:0.996" fill="#1f2526" d="M 351.5,87.5 C 340.655,89.7983 329.988,92.4649 319.5,95.5C 298.303,100.757 277.137,106.091 256,111.5C 234.706,106.599 213.539,101.265 192.5,95.5C 181.884,92.7673 171.217,89.7673 160.5,86.5C 159.893,86.6236 159.56,86.9569 159.5,87.5C 138.951,81.7085 118.285,76.2085 97.5,71C 92.1667,66 92.1667,61 97.5,56C 150.153,44.7695 202.819,33.6028 255.5,22.5C 308.953,33.5569 362.286,45.0569 415.5,57C 417.429,60.2559 417.929,63.7559 417,67.5C 416.5,69.3333 415.333,70.5 413.5,71C 392.815,76.5043 372.148,82.0043 351.5,87.5 Z"/></g>
<g><path style="opacity:1" fill="#2b3133" d="M 192.5,95.5 C 191.338,111.995 191.172,128.662 192,145.5C 192.599,148.254 194.099,150.254 196.5,151.5C 194.833,151.5 193.167,151.5 191.5,151.5C 181.727,151.948 172.061,151.448 162.5,150C 161.299,149.097 160.465,147.931 160,146.5C 159.5,140.175 159.334,133.842 159.5,127.5C 159.5,114.167 159.5,100.833 159.5,87.5C 159.56,86.9569 159.893,86.6236 160.5,86.5C 171.217,89.7673 181.884,92.7673 192.5,95.5 Z"/></g>
<g><path style="opacity:1" fill="#596265" d="M 351.5,87.5 C 351.5,100.833 351.5,114.167 351.5,127.5C 351.666,133.842 351.5,140.175 351,146.5C 350.535,147.931 349.701,149.097 348.5,150C 338.939,151.448 329.273,151.948 319.5,151.5C 317.5,151.5 315.5,151.5 313.5,151.5C 316.484,150.679 318.317,148.679 319,145.5C 319.5,128.837 319.667,112.17 319.5,95.5C 329.988,92.4649 340.655,89.7983 351.5,87.5 Z"/></g>
<g><path style="opacity:1" fill="#41494c" d="M 192.5,95.5 C 213.539,101.265 234.706,106.599 256,111.5C 277.137,106.091 298.303,100.757 319.5,95.5C 319.667,112.17 319.5,128.837 319,145.5C 318.317,148.679 316.484,150.679 313.5,151.5C 274.5,151.5 235.5,151.5 196.5,151.5C 194.099,150.254 192.599,148.254 192,145.5C 191.172,128.662 191.338,111.995 192.5,95.5 Z"/></g>
<g><path style="opacity:0.997" fill="#b58262" d="M 159.5,127.5 C 159.334,133.842 159.5,140.175 160,146.5C 160.465,147.931 161.299,149.097 162.5,150C 172.061,151.448 181.727,151.948 191.5,151.5C 191.333,170.503 191.5,189.503 192,208.5C 197.726,248.378 219.226,275.711 256.5,290.5C 261.438,291.985 266.438,293.318 271.5,294.5C 279.642,292.563 287.642,290.229 295.5,287.5C 295.5,291.5 295.5,295.5 295.5,299.5C 297.95,299.298 300.283,299.631 302.5,300.5C 276.003,312.956 248.67,314.79 220.5,306C 216.387,304.812 212.72,302.979 209.5,300.5C 211.265,299.539 213.265,299.205 215.5,299.5C 215.666,295.486 215.499,291.486 215,287.5C 182.045,270.951 163.378,244.284 159,207.5C 135.288,199.761 124.954,183.427 128,158.5C 132.393,141.94 142.893,131.607 159.5,127.5 Z"/></g>
<g><path style="opacity:0.992" fill="#fed9ac" d="M 351.5,127.5 C 378.917,136.661 388.751,155.327 381,183.5C 375.218,196.221 365.551,204.221 352,207.5C 347.657,244.558 328.823,271.225 295.5,287.5C 287.642,290.229 279.642,292.563 271.5,294.5C 266.438,293.318 261.438,291.985 256.5,290.5C 291.215,275.272 312.048,248.938 319,211.5C 319.5,191.503 319.667,171.503 319.5,151.5C 329.273,151.948 338.939,151.448 348.5,150C 349.701,149.097 350.535,147.931 351,146.5C 351.5,140.175 351.666,133.842 351.5,127.5 Z"/></g>
<g><path style="opacity:1" fill="#ecb69e" d="M 191.5,151.5 C 193.167,151.5 194.833,151.5 196.5,151.5C 235.5,151.5 274.5,151.5 313.5,151.5C 315.5,151.5 317.5,151.5 319.5,151.5C 319.667,171.503 319.5,191.503 319,211.5C 312.048,248.938 291.215,275.272 256.5,290.5C 219.226,275.711 197.726,248.378 192,208.5C 191.5,189.503 191.333,170.503 191.5,151.5 Z"/></g>
<g><path style="opacity:0.996" fill="#ebb69f" d="M 209.5,300.5 C 212.72,302.979 216.387,304.812 220.5,306C 248.67,314.79 276.003,312.956 302.5,300.5C 307.391,301.01 312.058,302.01 316.5,303.5C 295.804,318.273 274.971,332.94 254,347.5C 233.921,332.569 213.754,317.902 193.5,303.5C 198.754,302.25 204.087,301.25 209.5,300.5 Z"/></g>
<g><path style="opacity:1" fill="#31b5ea" d="M 193.5,303.5 C 213.754,317.902 233.921,332.569 254,347.5C 274.971,332.94 295.804,318.273 316.5,303.5C 318.95,303.298 321.283,303.631 323.5,304.5C 323.833,305.5 324.5,306.167 325.5,306.5C 326.575,308.157 327.242,309.991 327.5,312C 318.063,368.791 308.896,425.624 300,482.5C 298.975,484.687 297.475,486.354 295.5,487.5C 268.833,488.833 242.167,488.833 215.5,487.5C 213.559,486.326 212.059,484.659 211,482.5C 202.327,427.115 193.327,371.782 184,316.5C 182.745,311.738 183.912,307.738 187.5,304.5C 189.379,303.659 191.379,303.325 193.5,303.5 Z"/></g>
<g><path style="opacity:0.996" fill="#816d63" d="M 323.5,304.5 C 326.373,304.802 329.039,305.469 331.5,306.5C 329.5,306.5 327.5,306.5 325.5,306.5C 324.5,306.167 323.833,305.5 323.5,304.5 Z"/></g>
<g><path style="opacity:1" fill="#1f2526" d="M 187.5,304.5 C 183.912,307.738 182.745,311.738 184,316.5C 193.327,371.782 202.327,427.115 211,482.5C 212.059,484.659 213.559,486.326 215.5,487.5C 169.167,487.5 122.833,487.5 76.5,487.5C 73.3169,485.146 71.6502,481.979 71.5,478C 76.8134,441.473 82.3134,404.973 88,368.5C 91.0311,349.936 99.1977,334.103 112.5,321C 111.552,320.517 110.552,320.351 109.5,320.5C 135.252,314.549 161.252,309.216 187.5,304.5 Z"/></g>
<g><path style="opacity:1" fill="#1f2526" d="M 325.5,306.5 C 327.5,306.5 329.5,306.5 331.5,306.5C 352.318,309.864 372.985,313.864 393.5,318.5C 408.195,329.496 417.695,344.162 422,362.5C 427.671,401.025 433.504,439.525 439.5,478C 439.35,481.979 437.683,485.146 434.5,487.5C 388.167,487.5 341.833,487.5 295.5,487.5C 297.475,486.354 298.975,484.687 300,482.5C 308.896,425.624 318.063,368.791 327.5,312C 327.242,309.991 326.575,308.157 325.5,306.5 Z"/></g>
<g><path style="opacity:1" fill="#161a1b" d="M 109.5,320.5 C 110.552,320.351 111.552,320.517 112.5,321C 99.1977,334.103 91.0311,349.936 88,368.5C 82.3134,404.973 76.8134,441.473 71.5,478C 71.6502,481.979 73.3169,485.146 76.5,487.5C 65.495,487.667 54.495,487.5 43.5,487C 40.5927,485.201 38.9261,482.534 38.5,479C 44.6023,444.886 50.4357,410.719 56,376.5C 62.4757,346.86 80.309,328.193 109.5,320.5 Z"/></g>
<g><path style="opacity:1" fill="#2c3133" d="M 393.5,318.5 C 426.762,324.261 447.262,343.594 455,376.5C 460.564,410.719 466.398,444.886 472.5,479C 472.074,482.534 470.407,485.201 467.5,487C 456.505,487.5 445.505,487.667 434.5,487.5C 437.683,485.146 439.35,481.979 439.5,478C 433.504,439.525 427.671,401.025 422,362.5C 417.695,344.162 408.195,329.496 393.5,318.5 Z"/></g>
</svg>
