<?xml version="1.0" standalone="no"?>
<!DOCTYPE svg PUBLIC "-//W3C//DTD SVG 20010904//EN"
 "http://www.w3.org/TR/2001/REC-SVG-20010904/DTD/svg10.dtd">
<svg version="1.0" xmlns="http://www.w3.org/2000/svg"
 width="1280.000000pt" height="1280.000000pt" viewBox="0 0 1280.000000 1280.000000"
 preserveAspectRatio="xMidYMid meet">

<g transform="translate(0.000000,1280.000000) scale(0.100000,-0.100000)"
fill="#000000" stroke="none">
<path d="M0 6400 l0 -6400 6400 0 6400 0 0 6400 0 6400 -6400 0 -6400 0 0
-6400z m6490 5920 c857 -98 1576 -374 2291 -881 161 -114 302 -225 420 -330
47 -43 101 -87 120 -98 l34 -21 -2942 0 -2942 0 25 28 c14 15 65 77 113 137
188 234 462 483 734 666 396 265 920 454 1382 499 61 5 128 12 150 14 73 7
519 -3 615 -14z m3523 -387 c-7 -2 -19 -2 -25 0 -7 3 -2 5 12 5 14 0 19 -2 13
-5z m151 -15 c52 -34 69 -72 82 -183 7 -55 11 -101 11 -101 -1 -1 -17 1 -34 3
-31 5 -33 8 -33 47 0 30 5 44 20 54 50 31 10 122 -80 179 -23 15 -29 23 -17
23 9 0 33 -10 51 -22z m-229 -38 c-8 -16 -15 -41 -15 -55 0 -14 -4 -24 -9 -20
-6 3 -13 -11 -17 -31 -5 -27 -1 -48 14 -80 23 -47 22 -50 -23 -55 l-30 -4 3
70 c4 92 17 137 48 175 33 38 49 39 29 0z m168 13 c-7 -2 -19 -2 -25 0 -7 3
-2 5 12 5 14 0 19 -2 13 -5z m164 -370 c-3 -10 -5 -2 -5 17 0 19 2 27 5 18 2
-10 2 -26 0 -35z m-171 -9 c4 -14 1 -37 -5 -50 -6 -14 -11 -38 -11 -54 0 -27
-3 -30 -30 -30 -29 0 -30 1 -29 43 2 40 4 43 26 39 19 -4 23 0 23 21 0 15 -9
32 -22 41 -22 16 -22 16 10 16 26 0 33 -5 38 -26z m-1402 -675 c36 -28 36 -80
0 -108 l-27 -21 -2667 0 -2667 0 -27 21 c-41 32 -31 99 17 119 13 5 1175 9
2683 9 l2661 1 27 -21z m1600 -25 c36 -36 6 -104 -46 -104 -25 0 -58 35 -58
62 0 49 69 78 104 42z m308 -1 c24 -21 23 -58 -2 -83 -24 -24 -48 -25 -78 -4
-26 18 -30 65 -6 88 20 21 63 20 86 -1z m312 -5 c9 -12 16 -30 16 -38 0 -25
-38 -60 -65 -60 -31 0 -68 46 -59 74 14 49 81 63 108 24z m-8591 -102 c55 -27
97 -62 118 -98 5 -9 -13 5 -40 31 -87 84 -219 105 -326 51 -74 -38 -90 -53
-127 -115 -24 -40 -28 -44 -23 -21 3 17 20 47 36 68 89 111 234 145 362 84z
m-93 -46 c11 -7 5 -10 -23 -10 -23 0 -36 4 -32 10 8 13 35 13 55 0z m238 -111
c-3 -8 -7 -3 -11 10 -4 17 -3 21 5 13 5 -5 8 -16 6 -23z m1942 -184 l0 -195
3360 0 3360 0 0 -1950 0 -1950 -2445 0 c-1345 0 -2445 3 -2445 7 0 3 14 28 31
54 32 51 44 106 55 262 l6 87 31 1 c23 0 53 17 107 57 101 78 122 111 118 185
l-3 57 178 0 177 0 0 -59 c0 -34 5 -63 11 -67 8 -5 10 12 7 60 l-4 66 859 0
c472 0 863 2 868 5 5 4 9 573 9 1456 l0 1449 -1642 -2 -1643 -3 -3 -207 -2
-208 -28 -1 -27 -2 28 -4 27 -4 0 -299 c0 -255 -2 -299 -15 -304 -8 -3 -22 -3
-30 0 -8 4 -15 1 -15 -5 0 -6 14 -11 30 -11 l30 0 0 -275 0 -275 -35 0 c-19 0
-35 -4 -35 -10 0 -5 16 -10 35 -10 l35 0 0 -298 0 -298 -32 -2 c-45 -4 -49
-12 -5 -12 l37 0 0 -263 0 -264 -32 -18 c-68 -36 -169 -190 -203 -310 -19 -62
-25 -226 -12 -306 l8 -46 -86 -56 c-46 -31 -94 -57 -105 -57 -12 0 -53 -15
-93 -32 l-72 -33 -897 -3 -898 -3 0 2146 0 2145 700 0 700 0 0 -195z m1420 10
l0 -185 -700 0 -700 0 0 185 0 185 700 0 700 0 0 -185z m5300 0 l0 -185 -2635
0 -2635 0 0 185 0 185 2635 0 2635 0 0 -185z m-9129 129 c-5 -16 -10 -21 -10
-12 -1 18 10 51 15 45 2 -1 -1 -16 -5 -33z m476 4 c-3 -8 -6 -5 -6 6 -1 11 2
17 5 13 3 -3 4 -12 1 -19z m-555 -113 c3 -97 14 -122 45 -110 7 2 27 -2 45
-10 33 -14 32 -14 -37 -15 -41 0 -76 -5 -83 -12 -20 -20 -24 -2 -8 31 11 21
16 58 16 121 0 49 4 90 9 90 5 0 11 -43 13 -95z m588 -113 c12 -50 12 -486 0
-522 -4 -14 -8 88 -9 232 -1 216 -3 258 -16 265 -12 7 -13 22 -8 78 7 69 7 69
15 30 5 -22 13 -59 18 -83z m-70 -18 c0 -2 -7 -4 -15 -4 -8 0 -15 4 -15 10 0
5 7 7 15 4 8 -4 15 -8 15 -10z m-212 -1 c-27 -2 -69 -2 -95 0 -27 2 -5 3 47 3
52 0 74 -1 48 -3z m-339 -415 c1 -55 5 -71 23 -88 l22 -20 -32 0 -32 0 2 218
c1 211 2 213 9 87 3 -71 7 -160 8 -197z m1099 -1535 l-3 -1858 -57 -7 c-60 -8
-155 -42 -223 -82 -52 -31 -94 -84 -112 -145 -8 -25 -32 -66 -54 -91 l-40 -45
16 37 c21 51 19 84 -6 109 -21 21 -21 23 -8 161 l13 140 35 -6 c85 -13 246 47
329 124 78 72 103 148 62 185 -47 42 -257 -5 -355 -80 l-43 -33 -23 70 c-42
131 -133 238 -204 238 -29 0 -27 2 23 32 99 57 191 169 192 233 0 11 -7 31
-16 43 -32 47 -174 17 -300 -64 -85 -54 -127 -111 -140 -193 -4 -26 -22 -61
-50 -97 l-44 -56 0 398 0 399 61 78 c59 76 61 77 105 77 130 0 302 108 364
229 39 77 15 131 -60 131 -85 0 -254 -82 -316 -154 -32 -38 -64 -111 -64 -149
0 -15 -30 -60 -82 -121 -4 -6 -8 94 -8 222 l0 232 40 0 c89 0 241 85 311 172
45 57 65 118 49 148 -8 15 -6 24 9 39 18 18 50 113 142 416 89 293 157 488
250 713 75 181 187 412 200 412 6 0 8 -687 7 -1857z m-838 1777 c-24 -24 -25
-43 -3 -76 9 -14 19 -42 22 -62 6 -38 31 -57 31 -24 0 10 11 40 25 66 31 59
31 70 -1 95 -25 20 -26 21 -5 21 33 0 48 -41 33 -96 -7 -24 -12 -71 -12 -103
0 -44 -4 -60 -16 -65 -26 -10 -59 -7 -78 7 -16 12 -17 19 -7 66 9 44 9 56 -4
74 -28 40 -11 117 26 117 5 0 0 -9 -11 -20z m-113 -346 c-3 -3 -12 -4 -19 -1
-8 3 -5 6 6 6 11 1 17 -2 13 -5z m66 -1 c-7 -2 -19 -2 -25 0 -7 3 -2 5 12 5
14 0 19 -2 13 -5z m6565 -1411 l2 -1323 -1150 1 c-1121 1 -1150 2 -1150 20 0
49 -24 125 -49 152 -37 42 -118 51 -161 19 -16 -11 -33 -21 -37 -21 -5 0 -26
21 -47 46 -49 58 -91 84 -138 84 -55 0 -185 -45 -227 -78 -29 -23 -49 -30
-106 -35 -39 -3 -94 -14 -123 -25 l-52 -20 0 1254 0 1254 1618 -2 1617 -3 3
-1323z m-6899 374 c46 -24 112 -104 146 -179 35 -76 53 -174 38 -202 -8 -13
-24 7 -82 102 -40 65 -77 125 -81 133 -5 8 -12 12 -15 9 -3 -4 29 -61 70 -128
95 -152 95 -152 58 -142 -100 29 -150 91 -202 250 -45 136 -17 200 68 157z
m9502 -163 c123 -199 214 -364 353 -643 138 -279 157 -321 268 -590 123 -301
134 -328 173 -430 20 -52 48 -124 62 -160 52 -134 156 -447 208 -629 169 -593
228 -1151 175 -1661 -34 -324 -62 -468 -144 -732 -174 -559 -487 -1008 -907
-1300 -222 -155 -452 -253 -819 -349 -373 -98 -549 -142 -580 -147 -19 -2 -41
-9 -47 -14 -10 -8 -13 49 -13 280 l0 291 68 3 67 3 0 70 0 70 -67 3 -68 3 0
564 0 564 68 3 67 3 0 70 0 70 -202 3 c-122 1 -203 6 -203 12 0 5 27 99 60
209 33 110 60 218 60 240 l0 41 -85 0 -85 0 20 40 c11 22 16 40 10 40 -5 0
-19 -18 -30 -40 -25 -49 -60 -56 -60 -12 1 95 55 245 116 319 46 56 39 66 -9
14 -64 -71 -105 -174 -122 -308 -15 -115 -25 -44 -25 178 0 151 -3 228 -10
224 -6 -4 -10 -92 -10 -231 0 -123 -4 -224 -8 -224 -5 0 -21 48 -35 108 -29
112 -100 274 -136 306 -32 29 -25 2 14 -57 42 -63 81 -156 106 -256 22 -87 23
-101 6 -101 -7 0 -25 28 -40 62 -15 34 -30 59 -33 55 -4 -3 3 -29 15 -56 11
-27 21 -52 21 -55 0 -3 -36 -6 -80 -6 l-80 0 0 -41 c0 -22 27 -130 60 -239 33
-109 60 -203 60 -209 0 -8 -81 -11 -260 -11 l-260 0 0 40 c0 26 55 195 162
492 88 249 163 461 166 471 4 16 -28 17 -571 17 -539 0 -577 -1 -586 -17 -5
-10 -77 -208 -159 -440 -83 -232 -156 -431 -162 -443 -9 -16 -21 -20 -65 -20
-60 0 -69 11 -30 36 43 28 33 57 -40 108 -53 37 -85 50 -173 72 -59 15 -134
40 -167 56 -56 26 -68 28 -185 28 -120 0 -126 1 -135 23 -8 18 -91 51 -475
192 -256 94 -484 177 -507 186 -39 16 -41 19 -47 70 -4 30 -11 86 -17 124 -5
39 -30 223 -54 410 -25 187 -47 350 -50 363 -5 18 -1 22 21 22 47 0 94 32 192
129 81 81 102 96 131 98 19 1 47 11 61 21 21 17 25 27 25 73 -1 30 -9 83 -19
120 -12 39 -16 76 -12 92 l6 27 2454 0 c1350 0 2461 3 2470 6 14 6 16 124 16
1243 0 986 3 1232 13 1214 6 -11 51 -83 98 -160z m-8915 30 c15 -60 -88 -181
-201 -237 -66 -32 -153 -52 -167 -38 -10 10 -5 13 156 140 43 34 74 62 69 62
-5 0 -57 -36 -114 -80 -57 -44 -107 -80 -111 -80 -18 0 -7 77 16 110 44 64
214 149 298 150 43 0 48 -2 54 -27z m118 -363 c53 -20 22 -105 -68 -187 -63
-58 -125 -91 -204 -109 -70 -16 -102 -6 -102 33 1 38 31 102 66 136 37 37 142
95 212 118 69 22 65 21 96 9z m-959 -201 c51 -14 167 -72 210 -105 37 -28 85
-114 85 -152 0 -29 8 -34 -140 81 -55 43 -100 74 -100 69 0 -5 46 -44 102 -88
55 -43 108 -85 117 -92 29 -24 -101 -7 -161 20 -142 66 -257 215 -206 266 15
15 41 15 93 1z m415 -380 c0 -6 -4 -7 -10 -4 -5 3 -10 11 -10 16 0 6 5 7 10 4
6 -3 10 -11 10 -16z m-871 -73 c94 -60 182 -203 189 -310 3 -39 1 -57 -5 -51
-6 6 -49 62 -98 125 -48 63 -90 117 -91 119 -2 2 -6 2 -8 0 -3 -3 38 -61 91
-129 84 -111 93 -125 73 -128 -38 -6 -127 46 -159 91 -70 103 -119 232 -107
282 5 21 12 25 41 25 20 0 52 -10 74 -24z m559 -38 c50 -50 -77 -232 -204
-294 -56 -27 -134 -43 -134 -27 0 5 47 53 105 107 58 54 105 102 105 108 0 5
-46 -33 -102 -86 -94 -88 -104 -94 -110 -73 -16 57 -9 77 45 130 102 101 258
172 295 135z m310 -558 l-3 -190 -42 55 c-24 30 -43 63 -43 73 0 10 -7 40 -16
65 -15 43 -15 51 0 87 21 54 20 86 -4 110 -25 25 -81 26 -135 1 -39 -17 -41
-17 -83 1 -24 11 -71 25 -104 32 l-61 12 35 22 c19 12 60 48 92 81 l57 60 -7
-34 c-9 -49 6 -68 56 -71 51 -3 92 14 118 46 48 63 132 193 134 208 5 32 8
-368 6 -558z m560 368 c77 -77 -183 -306 -335 -296 l-43 3 116 90 c64 50 122
93 128 97 6 4 8 9 5 12 -3 3 -61 -37 -129 -89 -68 -52 -126 -93 -128 -90 -10
10 10 75 37 117 34 53 118 108 219 144 75 26 112 30 130 12z m-1104 -178 c-4
-16 -2 -43 4 -60 14 -40 9 -38 -17 5 -16 28 -27 35 -51 35 -16 0 -30 -5 -30
-11 0 -5 -4 -7 -10 -4 -5 3 -10 14 -10 24 0 13 13 20 53 28 28 5 55 11 59 11
4 1 5 -11 2 -28z m171 3 c62 -21 157 -78 192 -115 36 -37 63 -94 63 -133 0
-23 -9 -18 -115 66 -64 50 -118 89 -121 86 -3 -3 34 -36 82 -74 48 -37 99 -78
113 -91 l26 -23 -60 4 c-73 4 -154 41 -220 99 -68 60 -105 114 -105 155 0 53
43 61 145 26z m236 -3 c21 -12 26 -59 8 -92 -11 -20 -12 -19 -42 10 -18 16
-42 35 -55 41 -28 15 -21 28 21 40 43 12 46 12 68 1z m464 -156 c-19 -37 -19
-76 1 -171 30 -145 95 -247 176 -275 33 -12 34 -17 17 -184 l-12 -111 -56 -18
c-31 -9 -68 -21 -82 -27 -24 -10 -32 -7 -76 30 -55 46 -193 122 -224 122 -18
0 -19 9 -19 243 l0 242 58 75 58 75 61 8 c34 4 72 11 85 16 30 11 31 9 13 -25z
m106 -7 c45 -30 110 -128 134 -202 20 -62 26 -165 12 -199 -6 -15 -23 11 -78
124 -38 78 -72 141 -74 138 -3 -3 24 -67 61 -142 36 -76 64 -140 61 -143 -8
-8 -69 24 -100 52 -54 51 -107 201 -107 307 0 86 29 107 91 65z m-857 -43 l29
-25 -44 -45 c-54 -55 -40 -59 17 -3 l41 40 38 -22 39 -23 -50 -23 c-71 -33
-144 -30 -144 6 0 26 30 121 38 121 4 0 20 -12 36 -26z m-619 -99 c98 -26 193
-74 231 -118 32 -38 59 -98 52 -116 -2 -5 -43 17 -93 48 -141 89 -165 103
-165 94 0 -4 54 -41 120 -82 66 -41 120 -78 120 -82 0 -16 -100 -9 -161 11
-138 47 -261 160 -245 225 9 37 52 43 141 20z m886 -5 c36 0 42 -5 99 -79 l60
-80 0 -160 c0 -136 -3 -165 -17 -188 -15 -23 -24 -27 -50 -25 -18 2 -59 -8
-92 -21 l-60 -24 -40 24 c-61 36 -167 73 -211 73 -109 0 -103 -118 11 -225 48
-45 50 -49 40 -77 -6 -17 -11 -47 -11 -66 0 -24 -14 -59 -41 -105 -22 -38 -43
-66 -46 -64 -2 3 -18 131 -33 284 -16 153 -34 326 -41 385 l-12 107 58 94 58
94 52 6 c29 3 74 17 101 31 39 21 58 25 93 21 24 -3 61 -5 82 -5z m4269 -15
c19 -7 73 -36 119 -64 46 -28 92 -51 101 -51 30 0 40 -23 40 -94 -1 -138 -17
-214 -59 -285 -62 -105 -65 -129 -35 -240 14 -52 23 -104 20 -116 -6 -25 -44
-45 -88 -45 -26 0 -44 -14 -108 -83 -43 -46 -96 -96 -119 -111 -36 -25 -47
-28 -98 -24 -35 3 -95 19 -150 41 l-92 37 -97 -100 c-53 -55 -100 -100 -103
-100 -7 0 -19 24 -226 426 -80 155 -145 286 -145 291 0 6 25 27 55 47 39 26
55 32 55 21 0 -8 12 -23 27 -32 22 -15 55 -19 180 -22 84 -2 153 -5 153 -6 0
-2 -7 -34 -16 -72 -17 -73 -14 -149 7 -195 15 -34 34 -38 24 -5 -4 12 -9 56
-12 97 -3 58 0 88 16 134 l21 58 -30 28 c-25 23 -30 36 -30 72 1 91 84 211
135 192 22 -9 44 -54 55 -116 6 -28 17 -62 25 -75 29 -44 85 -22 100 39 9 37
18 42 105 68 134 39 139 65 41 210 -17 25 -31 53 -31 62 0 36 77 42 160 13z
m-3116 -11 c23 -22 20 -36 -16 -90 -42 -61 -138 -127 -224 -154 -68 -21 -154
-27 -154 -11 0 5 56 45 125 88 69 43 125 82 125 86 0 5 -6 5 -12 1 -7 -5 -61
-38 -120 -76 l-108 -67 0 42 c0 36 6 49 38 79 82 81 303 146 346 102z m-1589
-70 c11 -5 11 -11 2 -31 -10 -22 -12 -23 -18 -6 -4 10 -7 34 -7 53 1 23 2 27
5 12 3 -13 11 -26 18 -28z m-63 -182 c3 7 7 1 10 -14 7 -35 -2 -35 -27 0 -13
19 -14 23 -3 14 13 -10 17 -10 20 0z m1708 -205 c0 -63 -3 -76 -22 -94 -39
-36 -121 -81 -177 -97 -58 -17 -151 -22 -151 -8 0 5 57 44 128 87 148 92 137
84 130 90 -3 3 -65 -32 -139 -79 -74 -46 -135 -80 -137 -75 -7 18 20 78 52
116 37 42 132 92 226 117 92 25 90 26 90 -57z m-1370 -69 c127 -62 199 -141
200 -221 0 -27 -5 -24 -116 64 -63 50 -117 89 -120 86 -3 -3 34 -36 82 -74 48
-37 99 -78 113 -91 l26 -23 -61 3 c-102 6 -222 80 -296 182 -27 37 -37 93 -20
110 17 18 119 -1 192 -36z m459 17 c63 -30 183 -113 177 -123 -2 -4 -20 -16
-40 -26 l-35 -19 -42 37 c-22 21 -43 35 -46 33 -3 -3 14 -22 36 -42 l41 -37
-28 -33 c-15 -19 -31 -34 -35 -34 -5 -1 -33 22 -63 50 l-54 52 0 83 c0 98 2
99 89 59z m3085 -363 c103 -199 186 -366 184 -371 -5 -16 -220 -232 -225 -228
-18 18 -67 180 -79 262 -24 157 -75 349 -148 550 -20 55 -36 103 -36 108 0 10
104 56 111 48 3 -3 90 -169 193 -369z m-3813 56 c37 -356 39 -334 -16 -273
-24 28 -44 59 -45 70 0 43 -63 129 -116 161 -48 28 -50 31 -30 40 12 5 43 51
76 114 65 124 92 171 98 165 2 -2 17 -126 33 -277z m553 232 c0 -31 -9 -58
-28 -89 l-28 -43 -23 48 c-12 27 -35 60 -49 74 l-28 25 39 17 c21 10 56 17 78
15 l40 -2 -1 -45z m2963 -70 c50 -139 101 -309 130 -440 26 -110 27 -127 26
-405 0 -296 -11 -477 -39 -667 l-16 -108 -29 0 c-22 0 -30 6 -34 23 -16 70
-105 791 -105 851 0 39 -5 116 -10 171 -8 86 -15 112 -50 182 -38 76 -138 203
-161 203 -20 0 -7 -28 27 -61 20 -18 54 -60 75 -93 66 -100 76 -141 88 -346
11 -191 105 -928 121 -944 4 -4 156 -32 337 -61 180 -30 483 -79 673 -109 190
-31 380 -62 423 -68 68 -10 77 -13 76 -32 0 -12 -6 -82 -12 -156 l-12 -135
-155 2 c-132 2 -1093 18 -1532 26 -155 3 -174 10 -215 83 -36 65 -195 571
-358 1138 -36 126 -68 232 -70 235 -3 2 -9 0 -14 -5 -5 -5 13 -82 41 -179 101
-349 259 -874 298 -990 22 -65 40 -124 40 -130 0 -5 -44 -18 -98 -29 -53 -10
-111 -24 -129 -31 -75 -31 -221 -264 -257 -410 -39 -160 -44 -391 -11 -580 9
-48 13 -90 11 -93 -3 -2 -27 6 -53 19 -41 21 -49 29 -56 64 -70 331 -192 686
-327 955 l-40 80 10 68 c17 106 47 216 78 290 39 90 58 142 220 602 209 591
309 838 383 940 69 95 241 163 554 220 55 10 109 18 119 17 14 -2 27 -25 53
-97z m-1084 79 c488 -1 748 -4 722 -10 -135 -31 -274 -90 -342 -145 -62 -51
-136 -201 -260 -524 -30 -80 -56 -146 -58 -148 -2 -2 -40 22 -86 52 -112 76
-277 159 -390 197 -170 57 -355 51 -505 -17 -33 -14 -71 -28 -86 -29 -32 -3
-138 -72 -228 -149 -57 -48 -121 -78 -137 -63 -4 4 4 89 28 302 6 55 11 107
11 115 0 8 4 46 9 84 9 68 11 70 82 145 l72 76 75 1 c91 1 165 26 246 82 33
23 65 39 72 37 8 -3 356 -5 775 -6z m-1275 -57 c2 -20 -5 -45 -18 -67 -28 -45
-123 -131 -174 -157 -70 -36 -186 -61 -186 -40 0 5 54 51 120 102 66 51 118
95 116 98 -5 4 -74 -46 -193 -140 l-63 -50 0 29 c1 77 67 153 186 212 88 44
110 50 164 48 43 -2 45 -3 48 -35z m-570 -182 l-3 -70 -42 55 c-24 30 -43 60
-43 65 0 5 15 31 34 57 18 27 37 59 42 73 7 20 10 11 12 -42 2 -37 2 -99 0
-138z m158 14 c-3 -7 -8 -30 -12 -51 -6 -31 -76 -143 -90 -143 -2 0 -4 68 -4
151 l0 150 55 -48 c31 -26 53 -53 51 -59z m-507 38 l30 -18 -37 -37 c-42 -41
-52 -45 -52 -19 0 21 19 92 25 92 3 0 18 -8 34 -18z m99 -39 c12 -3 25 -9 28
-14 7 -12 -70 -45 -126 -54 l-45 -7 45 46 c30 31 50 44 60 40 8 -4 25 -9 38
-11z m-703 -8 c89 -23 192 -74 224 -111 27 -30 69 -120 60 -128 -2 -2 -44 22
-94 53 -152 95 -165 103 -165 94 0 -5 54 -42 120 -82 66 -40 117 -77 114 -82
-8 -14 -86 -10 -145 7 -158 46 -315 210 -241 253 24 15 59 13 127 -4z m894
-84 c59 -77 61 -81 61 -138 l0 -59 -57 -17 c-111 -35 -246 -134 -284 -210 -11
-21 -23 -62 -26 -90 -4 -35 -19 -74 -46 -120 -22 -37 -41 -66 -42 -65 -3 3
-31 257 -39 353 -2 22 -6 67 -10 100 -6 60 -6 60 52 150 l58 90 50 6 c52 7
124 35 159 63 39 30 59 20 124 -63z m536 19 l-7 -42 -19 28 c-19 29 -19 29 2
47 28 23 32 17 24 -33z m-50 -70 l36 -60 -22 -212 c-12 -117 -26 -215 -32
-217 -6 -2 -35 -17 -64 -32 l-55 -29 -43 44 c-42 41 -97 81 -163 118 l-31 16
2 119 2 120 59 76 59 77 51 0 c28 1 74 9 101 19 28 10 53 19 57 20 4 0 23 -26
43 -59z m3254 -125 c16 -8 62 -25 102 -39 l74 -25 12 -83 c14 -96 17 -118 77
-571 25 -187 46 -340 48 -341 4 -3 182 -69 518 -191 146 -53 317 -116 380
-139 l115 -44 -3 -88 c-2 -49 -4 -90 -6 -91 -9 -9 -162 20 -194 36 -34 18
-121 44 -264 81 -35 9 -48 18 -48 30 0 13 -10 20 -37 24 -21 3 -189 30 -373
60 -184 30 -372 60 -417 67 -46 7 -83 15 -83 19 0 3 16 44 36 90 42 101 106
311 175 579 28 108 53 204 55 214 3 10 0 17 -8 17 -10 0 -33 -73 -77 -237 -78
-294 -142 -502 -183 -593 l-31 -70 -41 6 c-22 4 -45 10 -49 14 -4 4 15 65 44
136 129 321 163 460 157 636 -3 82 -1 98 13 101 11 3 15 13 12 33 -2 16 -12
98 -23 183 -21 160 -24 201 -15 201 4 0 19 -7 34 -15z m-4475 -25 c26 -5 65
-7 85 -4 36 6 41 3 97 -56 32 -34 62 -69 65 -78 3 -10 16 -120 29 -245 l23
-229 -27 -24 c-40 -38 -30 -102 27 -170 15 -18 27 -42 27 -55 0 -21 -5 -18
-42 25 -23 27 -49 70 -58 97 -33 97 -95 149 -232 195 -40 14 -97 27 -128 30
-47 5 -59 3 -82 -16 -18 -14 -28 -31 -28 -49 0 -42 53 -116 120 -165 87 -65
158 -90 259 -93 46 -1 87 -6 91 -10 3 -4 30 -33 58 -64 l52 -56 20 -184 c11
-101 20 -197 20 -214 l-1 -30 -39 45 c-22 25 -44 61 -50 80 -16 60 -66 127
-113 154 -111 65 -249 102 -314 84 -73 -20 -63 -99 21 -183 89 -89 200 -137
321 -139 l72 -1 60 -66 60 -67 7 -88 c4 -49 10 -99 13 -110 4 -21 2 -21 -65
-16 -64 4 -70 3 -86 -19 -24 -35 -20 -69 17 -129 28 -47 103 -120 150 -147 10
-5 18 -31 22 -73 l7 -65 -41 39 c-29 29 -45 55 -57 95 -33 117 -191 217 -360
229 -63 4 -74 2 -93 -17 -38 -38 -20 -99 52 -169 92 -90 246 -152 340 -138 41
6 43 6 107 -59 l65 -66 -2 -91 c-1 -59 3 -100 11 -117 7 -14 17 -64 20 -110 4
-46 10 -91 13 -100 3 -9 -15 4 -40 28 -27 26 -49 57 -53 75 -18 85 -76 149
-174 195 -176 82 -305 79 -302 -7 2 -73 76 -153 201 -215 77 -38 92 -42 170
-44 l85 -2 60 -60 60 -60 12 -108 c7 -59 13 -123 14 -140 l0 -33 -95 0 -96 0
5 -57 c3 -32 10 -157 16 -278 5 -121 12 -258 16 -303 4 -68 3 -82 -8 -76 -42
24 -171 127 -263 210 -410 370 -662 860 -735 1427 -25 190 -25 299 0 502 30
248 92 516 177 765 67 197 230 614 291 743 43 93 47 98 71 93 14 -3 48 -10 75
-16z m4432 -171 c11 -87 17 -159 13 -159 -12 0 -195 145 -196 155 -2 14 148
177 156 169 3 -3 15 -77 27 -165z m-3636 68 c0 -82 -9 -97 -56 -97 -38 0 -55
-19 -63 -68 -5 -32 -13 -41 -58 -65 -28 -15 -73 -30 -99 -33 l-49 -6 113 112
c63 62 111 114 109 117 -3 2 -57 -46 -121 -107 l-116 -113 0 37 c0 57 37 131
84 169 70 56 107 80 165 103 89 37 91 36 91 -49z m1395 28 c50 -14 135 -48
190 -75 111 -54 305 -178 305 -194 0 -17 -248 -720 -305 -866 -30 -74 -64
-183 -76 -242 l-22 -106 -39 60 c-54 83 -135 167 -183 189 -74 34 -93 29 -270
-74 -102 -60 -134 -62 -184 -9 -20 21 -55 76 -78 122 -141 288 -166 606 -66
859 31 78 67 133 141 217 123 141 352 188 587 119z m-625 -122 c-68 -74 -104
-138 -139 -248 -73 -228 -66 -453 24 -705 38 -106 103 -227 143 -268 33 -32
38 -34 92 -30 49 3 73 13 161 66 87 53 110 62 150 62 97 0 193 -111 324 -375
99 -200 168 -370 229 -567 98 -319 181 -804 215 -1263 6 -77 13 -174 17 -217
l5 -76 -73 -7 c-40 -4 -293 -5 -563 -3 -427 3 -497 6 -541 21 -28 9 -58 25
-67 34 -44 49 -119 481 -292 1683 -102 708 -108 762 -108 1040 1 415 52 568
252 751 75 69 196 158 215 159 4 0 -15 -25 -44 -57z m2703 -34 c29 -23 51 -47
49 -53 -2 -6 -31 -82 -64 -169 -44 -113 -64 -154 -70 -143 -5 8 -31 72 -59
141 l-50 127 62 69 c33 38 65 69 70 69 5 0 33 -19 62 -41z m-3475 -4 c1 -1 1
-47 0 -101 l-3 -98 -38 55 c-46 68 -59 126 -31 146 16 12 60 11 72 -2z m174
-92 c26 -19 57 -46 68 -60 l20 -26 -32 -28 -33 -28 -62 62 c-34 33 -65 59 -67
56 -3 -3 23 -34 59 -69 l64 -63 -17 -29 c-9 -15 -19 -28 -22 -28 -3 0 -27 13
-53 30 l-47 30 0 116 0 116 38 -23 c20 -12 58 -38 84 -56z m-272 -12 c0 -6 23
-39 50 -75 l50 -66 -2 -287 -3 -286 -42 56 c-24 31 -43 65 -43 75 0 43 -35
118 -74 156 -44 45 -175 117 -243 135 -25 7 -43 18 -43 26 0 7 26 56 57 108
l56 95 51 6 c28 3 75 18 106 34 60 32 80 37 80 23z m598 -19 c-45 -61 -63 -82
-70 -82 -4 0 -58 -40 -120 -88 -151 -118 -142 -114 -134 -63 14 92 92 164 241
223 85 33 102 35 83 10z m-94 -144 c-10 -18 -23 -51 -29 -73 -11 -35 -17 -41
-65 -58 -29 -10 -70 -17 -92 -15 l-39 3 118 91 c65 51 119 91 121 89 2 -2 -4
-18 -14 -37z m-301 -44 c43 -24 46 -27 40 -57 -3 -18 -25 -59 -49 -91 l-44
-60 0 117 c0 64 2 117 4 117 2 0 24 -12 49 -26z m-888 -32 c118 -46 170 -96
196 -185 10 -36 13 -37 -130 52 -63 39 -119 71 -125 71 -16 0 -1 -10 128 -90
116 -71 119 -74 90 -82 -96 -26 -318 84 -369 183 -16 30 -20 71 -7 83 15 17
139 -2 217 -32z m423 -99 c93 -36 166 -85 201 -134 29 -39 47 -96 40 -118 -2
-5 -55 31 -118 80 -63 49 -116 87 -119 84 -3 -3 -3 -6 -1 -8 113 -87 229 -180
229 -184 0 -12 -114 8 -161 28 -113 49 -229 168 -229 234 0 17 3 35 7 38 14
15 88 5 151 -20z m693 1 c10 -12 10 -37 1 -128 -7 -62 -12 -194 -12 -292 0
-170 -17 -394 -29 -394 -15 0 -59 100 -64 147 -3 28 -15 69 -26 90 -20 39 -90
111 -130 132 -20 11 -21 19 -21 149 l0 138 60 78 60 79 61 2 c33 2 63 5 66 9
10 10 20 7 34 -10z m6933 -201 c-8 -21 -79 -220 -158 -443 l-144 -405 -551 -2
c-315 -2 -551 1 -551 6 0 8 275 787 302 854 l10 27 553 0 553 0 -14 -37z
m-7642 -35 c55 -39 140 -68 200 -68 51 0 59 -3 77 -28 l20 -29 -45 1 c-60 1
-77 -20 -71 -87 5 -61 60 -143 137 -206 30 -24 56 -50 58 -57 2 -7 -22 -29
-53 -48 -30 -20 -75 -54 -98 -75 -23 -21 -52 -41 -64 -45 -39 -12 -47 -78 -18
-148 4 -9 -1 -27 -10 -42 -16 -24 -17 -25 -51 -9 -19 9 -34 22 -34 28 0 6 -4
46 -9 90 -6 44 -12 107 -15 140 -3 33 -15 146 -26 250 -12 105 -23 219 -26
255 -2 36 -7 73 -10 82 -7 24 1 23 38 -4z m-416 -159 c150 -46 228 -105 253
-191 7 -22 11 -41 9 -43 -2 -1 -59 33 -128 76 -68 43 -126 76 -129 73 -6 -5
-14 0 121 -84 64 -40 115 -77 112 -82 -17 -27 -177 8 -254 55 -50 30 -119 96
-136 128 -43 84 16 110 152 68z m718 -3 c40 -17 76 -60 76 -93 0 -14 -4 -21
-10 -18 -13 8 -13 -8 1 -22 5 -5 9 -38 7 -73 l-3 -62 -48 42 c-149 132 -165
286 -23 226z m249 -186 c20 -39 27 -67 25 -95 l-3 -40 -51 1 c-79 2 -94 15
-94 77 l0 51 65 -64 c35 -35 67 -62 69 -59 3 3 -26 36 -64 74 -69 69 -70 70
-70 123 l0 54 48 -34 c32 -23 56 -51 75 -88z m-51 -162 c29 -6 55 -13 56 -14
16 -11 -96 -184 -119 -184 -5 0 -9 47 -9 105 0 58 4 105 9 105 5 0 33 -5 63
-12z m-122 -61 c0 -35 -6 -49 -30 -72 l-29 -28 -46 18 c-45 17 -46 17 -28 37
20 23 113 88 125 88 5 0 8 -19 8 -43z m285 -127 c-2 -14 -11 -99 -20 -190 -22
-231 -20 -224 -54 -164 -16 27 -31 72 -35 99 -11 71 -40 132 -82 171 l-37 33
55 60 c30 32 64 80 74 105 l19 45 42 -67 c30 -47 42 -74 38 -92z m5060 127
c108 -55 214 -145 256 -219 8 -16 5 -18 -22 -18 -26 0 -42 11 -83 54 -47 50
-56 55 -117 65 -138 23 -144 9 -19 -50 86 -41 119 -69 82 -69 -28 0 -145 44
-188 70 -24 15 -73 31 -129 40 l-90 16 -3 73 -3 73 138 -7 c109 -6 147 -12
178 -28z m-716 -38 c148 -39 401 -166 401 -201 0 -11 -33 -11 -46 0 -5 5 -38
19 -73 32 -63 23 -63 23 -132 5 -93 -24 -146 -17 -213 28 -38 25 -60 34 -76
30 -20 -5 -22 -3 -17 18 4 13 7 45 7 72 0 57 -4 57 149 16z m-4244 -249 c19
-135 35 -252 35 -260 0 -9 -27 -28 -65 -46 l-65 -30 0 26 c-1 34 54 573 57
563 1 -4 18 -118 38 -253z m5154 208 c37 -25 54 -45 70 -83 l21 -50 -22 30
c-12 17 -45 54 -75 83 -29 28 -50 52 -48 52 3 0 27 -15 54 -32z m-5541 -38
c-3 -19 -5 -20 -23 -6 -20 14 -20 14 0 36 17 19 21 20 23 6 2 -9 2 -25 0 -36z
m5646 6 c31 -41 59 -96 52 -103 -12 -12 -34 8 -57 53 -13 27 -32 59 -43 71
-18 21 -18 22 3 16 12 -3 32 -20 45 -37z m-5714 -20 l65 -34 3 -58 3 -59 -35
34 c-20 19 -38 32 -41 30 -2 -3 13 -23 35 -44 36 -35 40 -44 40 -87 0 -26 -4
-48 -9 -48 -18 0 -128 88 -159 128 -59 74 -79 151 -44 171 24 15 67 5 142 -33z
m5106 -21 c28 -11 84 -71 84 -88 0 -17 -33 -4 -67 27 -21 18 -60 45 -88 60
l-50 26 45 -6 c25 -3 59 -12 76 -19z m688 -4 c10 -11 13 -22 8 -25 -6 -3 -17
5 -26 19 -19 29 -7 33 18 6z m-277 -17 c15 -15 21 -22 13 -16 -8 5 -31 17 -50
25 -28 12 -31 16 -13 16 12 1 35 -11 50 -25z m-188 -29 c8 -8 13 -16 10 -19
-9 -8 -75 25 -87 44 -12 20 -12 20 25 5 21 -9 44 -22 52 -30z m-98 4 c32 -34
36 -49 15 -49 -13 0 -36 27 -60 68 -14 24 16 11 45 -19z m-5040 -91 c20 -38
37 -128 25 -128 -3 0 -27 19 -51 41 -44 41 -45 42 -45 107 l0 65 26 -24 c14
-13 35 -41 45 -61z m4756 49 c-14 -4 -40 -4 -59 1 -33 9 -33 10 -9 19 17 7 37
6 59 -1 35 -10 35 -10 9 -19z m627 -6 c-6 -6 -24 19 -24 34 1 6 7 1 15 -9 8
-11 12 -22 9 -25z m-159 9 c4 -6 -5 -10 -19 -10 -14 0 -26 5 -26 10 0 6 9 10
19 10 11 0 23 -4 26 -10z m-5678 -45 c114 -53 158 -88 187 -147 25 -49 34 -98
19 -98 -4 0 -16 8 -27 19 -50 45 -206 160 -206 153 0 -5 48 -46 108 -92 59
-46 112 -87 117 -93 6 -6 -12 -8 -51 -5 -109 7 -244 90 -306 187 -30 48 -36
89 -15 110 19 20 92 6 174 -34z m6161 -22 l-3 -38 -592 -3 -593 -2 0 40 0 40
596 0 595 0 -3 -37z m1130 0 l-3 -38 -552 -3 -553 -2 0 40 0 40 556 0 555 0
-3 -37z m-7004 -104 l46 -24 0 -102 c0 -57 -2 -103 -4 -103 -2 0 -22 22 -44
50 -25 31 -42 64 -46 91 -9 56 -37 108 -82 151 -24 24 -35 42 -31 53 5 12 18
5 61 -38 30 -29 75 -64 100 -78z m-690 85 c102 -26 203 -79 236 -126 26 -36
55 -107 47 -115 -2 -1 -26 11 -53 29 -159 101 -204 127 -204 120 0 -5 54 -42
120 -83 66 -41 120 -77 120 -81 0 -13 -102 -9 -151 6 -130 40 -259 148 -259
217 0 50 41 59 144 33z m850 -86 c26 -23 18 -29 -27 -21 -35 5 -37 8 -37 41
l0 35 22 -19 c12 -10 31 -27 42 -36z m8066 -8 l0 -50 -2065 0 -2065 0 0 43 c0
24 3 47 7 50 3 4 933 7 2065 7 l2058 0 0 -50z m-7995 -118 c25 -39 45 -83 45
-97 0 -14 -16 -47 -35 -73 -20 -28 -40 -72 -47 -103 -7 -35 -27 -75 -55 -113
l-43 -60 0 265 0 265 45 -6 c43 -5 47 -8 90 -78z m5845 -527 l0 -565 -75 0
-75 0 0 60 0 60 -45 0 -44 0 -3 63 -3 62 -552 3 -553 2 0 -75 0 -75 45 0 45 0
0 -50 0 -50 -79 0 -80 0 5 33 c6 45 49 463 79 782 14 149 28 280 31 293 l4 22
650 0 650 0 0 -565z m270 0 l0 -565 -50 0 -50 0 0 565 0 565 50 0 50 0 0 -565z
m1599 0 l1 -565 -184 0 -185 0 -3 58 -3 57 -527 3 -528 2 0 505 0 505 714 0
715 0 0 -565z m-8089 491 l75 -12 57 -74 58 -75 0 -97 c0 -54 -2 -98 -5 -98
-3 0 -32 18 -65 41 -62 42 -145 79 -179 79 -22 0 -26 16 -36 125 -3 39 -9 85
-12 104 -5 31 -4 33 13 26 10 -5 53 -13 94 -19z m633 -215 c-26 -41 -207 -105
-253 -89 -7 2 42 45 108 96 111 85 142 112 128 112 -3 0 -61 -43 -128 -95
-105 -81 -123 -92 -126 -75 -2 11 8 45 21 74 28 61 74 100 172 147 l60 29 14
-92 c9 -60 11 -97 4 -107z m17 -44 c0 -7 -14 -21 -31 -31 -39 -23 -31 -33 10
-11 31 15 31 15 31 -10 0 -22 -4 -25 -34 -25 -32 0 -46 13 -46 41 0 7 57 49
68 49 1 0 2 -6 2 -13z m-1080 -26 c108 -41 162 -81 193 -143 16 -31 28 -61 26
-67 -3 -7 -57 21 -127 65 -68 42 -126 74 -128 71 -3 -3 52 -40 121 -83 121
-75 125 -79 97 -85 -151 -31 -451 173 -381 258 18 21 124 13 199 -16z m464
-11 c33 -17 82 -46 109 -65 l47 -35 0 -60 c0 -33 -2 -60 -5 -60 -3 0 -35 28
-71 63 -36 34 -71 63 -77 65 -7 2 25 -32 71 -76 63 -60 82 -84 82 -105 0 -33
-11 -33 -75 -3 -106 50 -200 149 -227 238 -22 74 40 90 146 38z m4119 -52 c3
-29 11 -159 18 -288 l12 -235 -52 -195 c-82 -303 -192 -684 -200 -693 -5 -5
-25 -7 -46 -5 -35 3 -38 6 -67 73 l-30 70 33 470 33 469 52 69 c28 38 77 119
108 181 56 113 67 125 127 135 3 1 9 -23 12 -51z m-3654 -15 c-30 -32 -56 -59
-59 -61 -3 -1 -3 19 0 44 5 45 7 48 45 60 68 21 70 16 14 -43z m-109 13 c0
-22 -27 -303 -33 -336 -4 -28 -64 85 -70 135 -4 28 -10 61 -13 75 -4 19 6 39
43 88 51 65 73 77 73 38z m3640 9 c0 -27 -156 -292 -166 -282 -3 3 -2 59 2
125 l7 120 66 20 c69 22 91 26 91 17z m-3380 -25 c14 0 20 -15 29 -77 121
-813 188 -1191 222 -1267 16 -33 65 -60 141 -76 47 -9 59 -16 63 -33 2 -12 16
-148 30 -302 15 -154 29 -299 32 -323 l6 -42 -358 0 -357 0 6 93 c6 81 15 258
56 1117 6 118 12 239 14 268 l5 52 -80 0 c-43 0 -79 3 -79 8 0 4 7 70 15 147
8 77 18 172 22 210 l6 70 76 83 c69 75 79 83 105 78 16 -3 36 -6 46 -6z m-652
-161 c49 -43 117 -81 165 -93 l27 -6 0 -165 0 -165 -98 0 -98 0 -13 128 c-14
149 -31 300 -36 325 -5 25 1 22 53 -24z m262 -22 c0 -23 -4 -36 -10 -32 -5 3
-10 27 -10 53 0 34 3 43 10 32 5 -8 10 -32 10 -53z m2878 -80 l3 -37 -178 1
-178 0 139 29 c77 16 151 34 165 39 38 14 46 9 49 -32z m-2839 -79 c28 -45 49
-89 47 -98 -3 -8 -7 -45 -11 -82 l-7 -68 -44 0 -44 0 0 165 c0 91 2 165 4 165
3 0 28 -37 55 -82z m2868 -193 c19 -171 22 -242 17 -386 -6 -159 -4 -186 17
-283 l23 -108 -23 -44 -24 -44 -486 0 -487 0 -13 193 c-15 231 -43 485 -76
701 -14 88 -25 165 -25 171 0 8 149 11 528 10 l527 0 22 -210z m2303 20 l0
-45 -290 0 -290 0 0 45 0 45 290 0 290 0 0 -45z m480 0 l0 -45 -230 0 -230 0
0 45 0 45 230 0 230 0 0 -45z m-395 -125 l0 -45 -287 -3 -288 -2 0 50 0 50
288 -2 287 -3 0 -45z m485 0 l0 -50 -230 0 -230 0 0 50 0 50 230 0 230 0 0
-50z m1160 0 l0 -50 -285 0 -285 0 0 50 0 50 285 0 285 0 0 -50z m490 0 l0
-50 -230 0 -230 0 0 50 0 50 230 0 230 0 0 -50z m-3497 -250 c-2 -103 2 -241
8 -311 15 -147 9 -190 -47 -330 l-37 -94 20 -80 c19 -77 20 -165 3 -165 -17 0
-188 121 -268 191 -81 69 -83 73 -77 106 3 19 18 61 32 94 l26 59 48 0 c26 0
50 4 54 9 6 11 133 455 191 671 l39 145 6 -55 c3 -30 4 -138 2 -240z m4177
130 l0 -50 -2065 0 -2065 0 0 43 c0 24 3 47 7 50 3 4 933 7 2065 7 l2058 0 0
-50z m-2150 -708 c0 -475 3 -631 12 -640 9 -9 -91 -12 -450 -12 -456 0 -462 0
-450 20 18 29 -19 63 -111 101 -264 109 -408 173 -423 186 -32 29 -31 51 3 94
51 64 50 114 -2 219 -37 75 -43 95 -47 171 -4 78 8 297 25 437 l6 52 718 0
719 0 0 -628z m270 4 c0 -343 3 -631 6 -640 5 -14 -3 -16 -56 -16 -53 0 -61 2
-56 16 3 9 6 297 6 640 l0 624 50 0 50 0 0 -624z m1599 303 c0 -176 -2 -326
-5 -334 -3 -7 -14 -11 -26 -8 -40 11 -406 -87 -893 -239 -357 -111 -415 -129
-459 -137 l-46 -8 0 523 0 524 715 0 715 0 -1 -321z m-5872 -316 c-4 -32 -18
-184 -32 -338 -15 -154 -28 -286 -30 -292 -3 -8 -23 -13 -54 -13 -44 0 -51 3
-55 23 -3 12 -16 150 -31 307 -14 157 -28 302 -31 322 l-6 37 94 4 c51 1 106
4 122 5 l29 2 -6 -57z m277 35 c3 -13 16 -149 31 -303 14 -154 28 -301 31
-327 l6 -48 -192 0 -193 0 6 48 c4 26 18 173 32 327 14 154 28 290 31 303 4
21 8 22 124 22 116 0 120 -1 124 -22z m262 -20 c-4 -24 -17 -167 -31 -318 -35
-377 -25 -342 -88 -338 l-52 3 -12 120 c-7 66 -19 194 -28 285 -8 91 -18 193
-21 228 l-7 62 122 0 122 0 -5 -42z m397 -3 c-4 -32 0 -64 16 -113 20 -61 21
-76 12 -127 -15 -80 -13 -192 4 -305 8 -52 15 -98 15 -102 0 -5 -108 -8 -240
-8 -223 0 -240 1 -240 18 0 9 13 157 30 327 16 171 30 320 30 333 l0 22 190 0
190 0 -7 -45z m-1787 3 c-3 -18 -17 -159 -31 -313 -35 -382 -26 -345 -86 -345
-31 0 -51 5 -54 13 -2 6 -11 86 -20 177 -18 202 -33 355 -41 438 l-7 62 122 0
122 0 -5 -32z m594 10 c0 -13 14 -160 30 -328 16 -168 30 -313 30 -322 0 -17
-23 -18 -345 -18 l-345 0 0 25 c0 14 7 91 15 172 39 395 45 459 45 476 0 16
20 17 285 17 l285 0 0 -22z m1616 -665 c-11 -11 -19 6 -11 24 8 17 8 17 12 0
3 -10 2 -21 -1 -24z m1053 1 c2 -2 -14 -4 -37 -4 -23 0 -42 4 -42 9 0 9 69 4
79 -5z m546 -41 c-16 -3 -37 -11 -45 -18 -22 -20 -89 -32 -215 -40 -60 -3
-141 -11 -180 -16 -103 -14 -705 -39 -960 -39 -121 0 -261 5 -312 10 -51 5
-170 12 -265 15 -298 8 -426 23 -538 60 -26 9 -112 19 -200 24 -96 5 397 8
1295 8 798 0 1437 -2 1420 -4z"/>
<path d="M8201 6908 c1 -68 6 -61 11 15 2 26 0 47 -4 47 -5 0 -7 -28 -7 -62z"/>
<path d="M7290 6911 c0 -28 5 -53 10 -56 6 -4 10 15 10 49 0 31 -4 56 -10 56
-5 0 -10 -22 -10 -49z"/>
<path d="M8553 6910 c0 -30 2 -43 4 -27 2 15 2 39 0 55 -2 15 -4 2 -4 -28z"/>
<path d="M1997 8214 c-9 -9 -9 -86 0 -139 l6 -40 14 68 c11 56 11 71 0 92 -7
14 -16 23 -20 19z"/>
<path d="M6933 9219 c-60 -23 -123 -80 -155 -141 -21 -39 -23 -59 -26 -213 -3
-134 -6 -172 -18 -181 -12 -10 -14 -55 -12 -280 l3 -269 305 -3 c168 -1 315 0
328 3 l22 5 -2 268 -3 267 -260 5 -260 5 -3 133 c-3 152 6 198 50 248 80 91
199 96 284 10 52 -51 64 -93 64 -218 l0 -98 50 0 50 0 0 128 c0 113 -3 133
-24 179 -67 144 -240 211 -393 152z m233 -25 c21 -10 60 -39 86 -65 60 -60 78
-118 78 -251 l0 -98 -29 0 -29 0 -4 118 c-3 110 -5 122 -31 160 -15 23 -46 54
-69 69 -36 24 -51 28 -118 28 -67 0 -82 -4 -118 -28 -23 -15 -54 -46 -69 -69
-27 -41 -28 -45 -31 -210 l-4 -168 -29 0 -29 0 0 149 c0 172 13 227 68 291 32
38 86 73 142 91 39 13 142 4 186 -17z m184 -784 l0 -250 -305 0 -305 0 0 250
0 250 305 0 305 0 0 -250z"/>
<path d="M6981 8504 c-25 -32 -27 -76 -5 -95 11 -9 15 -29 13 -78 l-3 -66 59
-3 58 -3 -7 61 c-6 48 -4 66 7 79 15 16 20 39 18 74 -4 57 -102 79 -140 31z"/>
<path d="M7462 8918 c-15 -34 -19 -55 -12 -62 6 -6 18 10 35 48 29 65 29 66
13 66 -7 0 -23 -24 -36 -52z"/>
<path d="M7518 8762 c-98 -4 -84 -22 17 -22 47 0 85 4 85 9 0 13 -27 16 -102
13z"/>
<path d="M7437 8653 c-6 -10 69 -103 84 -103 5 0 9 6 9 13 0 18 -86 101 -93
90z"/>
<path d="M5883 7940 c-77 -18 -93 -58 -93 -232 0 -154 12 -191 70 -221 33 -16
106 -17 1202 -15 l1168 3 32 33 33 32 3 158 c3 151 2 158 -20 192 -14 20 -38
40 -58 47 -26 9 -316 12 -1170 11 -624 0 -1150 -4 -1167 -8z m2340 -32 c43
-23 46 -36 47 -201 0 -155 -1 -158 -25 -182 l-24 -25 -1176 0 -1176 0 -24 26
c-24 26 -25 31 -25 185 l0 157 31 26 31 26 1159 0 c863 0 1166 -3 1182 -12z"/>
<path d="M6115 7800 c-4 -6 -4 -27 -1 -45 l7 -34 -37 15 c-40 17 -58 9 -52
-22 2 -13 13 -20 36 -22 38 -4 39 -8 11 -38 -24 -26 -19 -54 9 -54 11 0 24 13
33 32 l15 31 22 -37 c19 -32 24 -35 42 -26 26 14 25 26 -5 56 -31 31 -31 34
-1 34 52 0 72 24 42 49 -11 10 -21 9 -45 -3 l-30 -16 -3 42 c-3 43 -27 64 -43
38z"/>
<path d="M6374 7795 c-4 -8 -4 -29 0 -45 7 -35 8 -34 -32 -14 -35 17 -52 12
-52 -16 0 -19 19 -30 51 -30 24 0 24 -12 -1 -35 -28 -25 -26 -55 3 -55 17 0
28 10 39 32 l15 33 17 -33 c13 -24 23 -32 38 -30 32 4 33 24 4 53 -33 33 -32
35 3 35 39 0 60 25 39 46 -14 14 -19 14 -46 0 l-31 -16 -3 42 c-2 31 -8 44
-21 46 -9 2 -20 -4 -23 -13z"/>
<path d="M6634 7795 c-4 -8 -4 -29 0 -45 7 -35 8 -34 -32 -14 -35 17 -52 12
-52 -16 0 -19 19 -30 51 -30 24 0 24 -12 -1 -35 -26 -24 -26 -55 0 -55 12 0
28 13 39 31 l19 31 17 -31 c12 -23 22 -31 37 -29 32 4 33 24 4 53 -33 33 -32
35 3 35 39 0 60 25 39 46 -14 14 -19 14 -46 0 l-31 -16 -3 42 c-2 31 -8 44
-21 46 -9 2 -20 -4 -23 -13z"/>
<path d="M6894 7795 c-4 -8 -4 -29 0 -45 7 -35 8 -35 -34 -14 -31 16 -34 16
-46 -1 -18 -25 -1 -45 37 -45 34 0 37 -10 9 -35 -26 -24 -26 -55 0 -55 12 0
28 13 39 31 l19 31 17 -31 c12 -23 22 -31 37 -29 32 4 33 24 4 53 -33 33 -32
35 3 35 39 0 60 25 39 46 -14 14 -19 14 -46 0 -17 -9 -32 -16 -34 -16 -2 0 -3
19 -3 42 0 33 -4 43 -18 46 -9 2 -20 -4 -23 -13z"/>
<path d="M7154 7795 c-4 -8 -4 -29 0 -45 7 -35 8 -35 -34 -14 -31 16 -34 16
-46 -1 -18 -25 -1 -45 37 -45 34 0 37 -10 9 -35 -26 -24 -26 -55 0 -55 12 0
28 13 39 31 l19 31 17 -31 c12 -23 22 -31 37 -29 32 4 33 24 4 53 -33 33 -32
35 3 35 38 0 55 20 38 44 -13 17 -15 17 -45 2 -17 -9 -32 -16 -34 -16 -2 0 -3
19 -3 42 0 33 -4 43 -18 46 -9 2 -20 -4 -23 -13z"/>
<path d="M7414 7796 c-3 -9 -4 -30 -2 -46 5 -35 6 -35 -34 -14 -30 15 -32 15
-45 -2 -17 -24 0 -44 38 -44 35 0 36 -8 4 -38 -13 -13 -21 -30 -18 -38 9 -24
42 -15 62 17 l19 31 16 -31 c17 -32 50 -42 59 -17 3 7 -6 25 -19 39 -31 33
-30 37 5 37 38 0 55 20 38 44 -13 17 -15 17 -45 2 -17 -9 -32 -16 -34 -16 -2
0 -3 19 -3 42 0 33 -4 43 -18 46 -9 2 -20 -4 -23 -12z"/>
<path d="M7674 7796 c-3 -9 -4 -30 -2 -46 5 -35 6 -35 -34 -14 -30 15 -32 15
-45 -2 -17 -24 0 -44 38 -44 34 0 37 -9 9 -33 -11 -9 -20 -26 -20 -37 0 -31
35 -24 58 11 l20 32 13 -29 c15 -31 53 -44 62 -21 3 8 -5 25 -19 38 -31 29
-30 39 5 39 38 0 55 20 38 44 -13 17 -15 17 -45 2 -17 -9 -32 -16 -34 -16 -2
0 -3 19 -3 42 0 33 -4 43 -18 46 -9 2 -20 -4 -23 -12z"/>
<path d="M7934 7796 c-3 -9 -4 -30 -2 -46 5 -35 6 -35 -34 -14 -27 14 -32 14
-46 0 -21 -21 0 -46 39 -46 35 0 36 -8 4 -38 -13 -13 -21 -30 -18 -38 9 -25
42 -16 59 18 15 29 17 30 27 12 18 -34 39 -53 53 -47 20 8 17 37 -6 58 -28 25
-25 33 12 37 23 2 34 9 36 22 6 31 -13 40 -49 22 -18 -9 -33 -16 -33 -16 -1 0
-1 19 -1 42 0 33 -4 43 -18 46 -9 2 -20 -4 -23 -12z"/>
<path d="M2226 8019 c-64 -50 -115 -93 -112 -96 2 -3 56 34 118 82 133 103
135 105 122 105 -6 0 -63 -41 -128 -91z"/>
<path d="M6053 6443 c-29 -11 -9 -23 40 -23 58 0 69 -5 86 -38 7 -12 16 -20
22 -17 16 10 10 25 -20 56 -24 23 -38 29 -73 28 -24 0 -49 -3 -55 -6z"/>
<path d="M6087 6302 c-8 -9 -19 -30 -22 -45 -7 -26 -9 -27 -24 -12 -18 16 -41
20 -41 8 0 -11 67 -63 80 -63 7 0 10 6 7 13 -2 6 4 23 14 36 33 42 20 100 -14
63z"/>
<path d="M5918 6005 c-12 -13 7 -57 34 -80 29 -25 78 -34 78 -15 0 6 -6 10
-14 10 -23 0 -76 50 -76 71 0 18 -11 25 -22 14z"/>
<path d="M4762 4510 c-67 -16 -122 -42 -122 -57 0 -11 5 -13 18 -8 56 24 104
37 155 43 32 4 59 12 60 17 3 13 -67 16 -111 5z"/>
<path d="M4690 4424 c-58 -33 -95 -69 -111 -105 -14 -34 -2 -53 15 -25 27 46
70 86 121 112 30 16 55 32 55 37 0 14 -36 6 -80 -19z"/>
<path d="M4552 4397 c-22 -23 -29 -47 -14 -47 10 0 62 53 62 63 0 15 -28 6
-48 -16z"/>
</g>
</svg>
