<?xml version="1.0" standalone="no"?>
<!DOCTYPE svg PUBLIC "-//W3C//DTD SVG 20010904//EN"
 "http://www.w3.org/TR/2001/REC-SVG-20010904/DTD/svg10.dtd">
<svg version="1.0" xmlns="http://www.w3.org/2000/svg"
 width="1380.000000pt" height="788.000000pt" viewBox="0 0 1380.000000 788.000000"
 preserveAspectRatio="xMidYMid meet">

<g transform="translate(0.000000,788.000000) scale(0.100000,-0.100000)"
fill="#000000" stroke="none">
<path d="M6808 5494 c-47 -23 -72 -42 -83 -65 -17 -31 -13 -79 5 -79 6 0 10
-13 10 -29 0 -17 5 -33 10 -36 6 -3 10 -17 10 -29 0 -23 34 -76 49 -76 4 0 1
26 -7 57 -11 43 -11 62 -3 75 6 10 11 24 11 31 0 8 9 22 20 32 11 10 20 24 20
31 0 7 16 16 36 20 29 5 40 2 61 -17 13 -13 32 -37 40 -54 9 -16 22 -34 29
-38 18 -10 18 -44 0 -54 -18 -11 -31 -69 -17 -78 6 -3 14 1 17 9 3 9 14 16 23
16 23 0 41 20 41 44 0 11 6 27 14 35 21 24 10 142 -14 148 -10 3 -22 15 -28
28 -11 24 -81 51 -106 42 -6 -3 -20 1 -31 9 -24 18 -28 17 -107 -22z"/>
<path d="M7002 5003 c-6 -54 -14 -141 -17 -193 l-5 -95 34 142 c34 138 53 191
84 226 14 16 12 17 -35 17 l-50 0 -11 -97z"/>
<path d="M6801 5029 c-34 -17 -65 -37 -68 -45 -3 -7 15 -36 38 -63 l43 -50 16
52 c9 29 26 71 39 95 27 52 17 54 -68 11z"/>
<path d="M7188 4785 c-51 -159 -116 -300 -146 -319 -5 -3 -20 1 -34 8 l-26 14
5 -42 c13 -117 51 -252 76 -268 24 -15 108 -7 186 17 44 14 83 30 86 35 4 6
-14 77 -39 158 -66 218 -68 227 -75 357 l-7 120 -26 -80z"/>
<path d="M6770 4780 c0 -3 13 -65 28 -138 20 -93 26 -135 18 -141 -6 -5 -81
-11 -166 -14 -123 -4 -167 -2 -214 11 l-59 16 -39 -44 c-94 -108 -241 -311
-231 -321 5 -5 40 -22 78 -38 l69 -29 151 155 150 155 55 -53 c31 -30 72 -68
92 -85 l35 -31 97 25 c70 18 93 28 82 34 -24 14 -46 63 -46 105 -1 70 -56 327
-78 363 -12 19 -22 33 -22 30z"/>
<path d="M5991 4050 c-51 -16 -98 -33 -104 -39 -11 -11 -8 -13 53 -30 24 -6
-111 -9 -417 -10 -295 -1 -453 -4 -453 -11 0 -7 232 -10 675 -10 443 0 675 3
675 10 0 6 -37 10 -90 10 l-90 0 0 33 c0 51 -17 64 -90 70 -52 4 -83 -1 -159
-23z"/>
<path d="M6833 3972 c-195 -2 -258 -13 -154 -25 226 -27 315 -320 145 -477
-50 -46 -79 -60 -148 -69 -44 -5 -50 -9 -57 -35 -5 -16 -26 -48 -48 -70 -24
-25 -55 -77 -80 -132 -58 -129 -55 -137 21 -76 47 38 198 208 198 223 0 5 200
9 444 9 l443 0 12 -57 c31 -157 156 -262 300 -252 l51 4 5 -45 c3 -25 8 -60
11 -77 l5 -33 -411 0 -411 0 4 -27 4 -28 411 -5 412 -5 -7 -115 c-12 -197 -8
-258 18 -294 12 -17 30 -36 38 -43 9 -6 24 -17 34 -25 14 -11 -230 -13 -1473
-13 -819 0 -1490 2 -1491 5 0 3 -2 12 -3 20 -2 8 -6 51 -10 95 -4 44 -13 111
-20 150 -13 65 -12 71 5 94 31 39 24 79 -26 155 -48 74 -49 82 -14 161 28 60
24 92 -13 123 -64 54 -77 71 -88 110 -16 62 -86 102 -177 102 -93 0 -150 -50
-203 -177 -38 -90 -41 -135 -12 -171 52 -65 55 -72 44 -97 -11 -23 -10 -25 16
-25 15 0 44 -3 65 -6 l37 -7 0 65 c0 47 -4 69 -16 79 -21 17 -44 63 -44 87 0
11 -7 22 -15 26 -23 9 -20 67 4 73 12 3 23 17 26 35 8 34 56 68 96 68 43 0 92
-40 109 -90 8 -25 21 -50 28 -56 19 -14 11 -55 -12 -68 -34 -19 -65 -60 -66
-85 0 -13 5 -52 11 -86 l11 -62 68 -12 c39 -7 75 -20 82 -29 8 -10 9 -13 1 -9
-14 9 -58 -35 -80 -81 -11 -23 -14 -49 -10 -86 4 -45 16 -69 70 -147 153 -222
175 -299 92 -315 -42 -7 -89 9 -110 40 -15 20 -15 19 -15 -10 0 -67 22 -143
64 -225 76 -147 82 -254 19 -330 -58 -69 -132 -81 -322 -53 -77 11 -116 22
-143 40 -21 13 -38 28 -38 32 -1 13 -68 83 -72 75 -3 -5 -3 -2 -2 5 2 7 -10
37 -27 67 l-31 54 -41 -41 c-23 -23 -41 -45 -40 -50 2 -4 -3 -7 -10 -5 -6 1
-11 -5 -9 -13 2 -8 0 -12 -3 -8 -10 10 -76 -42 -69 -53 3 -5 2 -8 -3 -7 -17 6
-51 -29 -71 -72 l-20 -45 2151 -5 2151 -5 106 -130 106 -130 132 -3 c73 -1
132 0 132 4 0 3 -45 62 -100 129 -55 68 -100 126 -100 129 0 3 471 7 1048 8
923 3 1047 5 1047 18 0 13 -83 16 -665 20 l-665 5 -35 48 -35 47 -407 0 -407
0 -70 83 c-138 166 -160 176 -377 177 -175 0 -194 -5 -209 -57 -6 -23 -6 -23
117 -24 l123 0 60 -75 c33 -42 64 -82 68 -90 7 -13 -85 -14 -695 -12 -624 3
-707 5 -739 19 -204 93 -214 375 -17 473 l52 26 1250 0 1251 1 30 46 c38 59
41 67 24 61 -7 -2 -24 8 -37 23 -28 34 -116 68 -174 68 -93 0 -244 8 -264 15
-24 7 -34 -13 -34 -74 l0 -35 -300 0 c-227 0 -296 3 -287 12 11 10 310 150
373 173 24 9 25 13 19 52 -11 65 -41 144 -86 227 -43 80 -106 171 -118 171 -4
0 -18 -11 -31 -25 -13 -14 -31 -25 -39 -25 -9 -1 -52 -30 -96 -65 -44 -36 -84
-65 -89 -65 -4 0 -7 56 -4 123 l4 124 -37 26 c-21 15 -43 27 -51 27 -19 0
-178 131 -208 171 -52 70 -22 180 50 187 58 6 77 -6 176 -115 54 -60 101 -109
104 -110 6 -3 60 80 60 93 0 5 -29 24 -63 43 l-64 33 -27 89 c-17 53 -25 97
-21 109 6 20 5 21 -14 11 -18 -10 -21 -21 -21 -77 0 -56 4 -71 27 -101 l27
-35 -63 41 c-35 22 -71 43 -82 46 -16 5 -17 14 -12 69 6 64 0 78 -62 162 -17
24 8 49 43 46 40 -4 85 20 113 60 12 18 24 35 26 37 1 2 12 -4 23 -14 17 -15
20 -16 20 -3 0 24 -65 76 -105 84 -107 20 -177 -42 -229 -202 -29 -88 -42 -95
-38 -19 6 117 -45 213 -146 273 l-47 27 -315 5 c-173 3 -406 4 -517 2z m-1815
-1502 c-7 -10 -14 -17 -17 -15 -4 4 18 35 25 35 2 0 -1 -9 -8 -20z m3 -47
c-12 -20 -14 -14 -5 12 4 9 9 14 11 11 3 -2 0 -13 -6 -23z m69 -57 c0 -2 -6
-9 -14 -15 -11 -9 -16 -9 -22 0 -4 7 -3 9 4 5 6 -3 13 -2 17 4 6 10 15 14 15
6z"/>
<path d="M8846 3663 c-13 -13 -77 -156 -72 -161 3 -2 19 23 35 57 17 34 38 61
45 61 8 0 24 -16 37 -36 15 -24 24 -32 29 -23 5 7 -6 31 -27 60 -38 54 -36 52
-47 42z"/>
<path d="M8753 3468 c-12 -14 -173 -334 -173 -343 0 -15 22 -2 29 18 5 12 43
91 85 176 70 140 87 183 59 149z"/>
<path d="M4090 3395 c-10 -13 -5 -33 32 -123 43 -101 47 -107 73 -105 15 1 29
4 31 6 2 1 -13 55 -34 118 -34 104 -39 114 -63 117 -14 2 -31 -4 -39 -13z"/>
<path d="M5070 3390 c0 -6 91 -11 238 -12 130 -2 230 -6 222 -9 -8 -4 -37 -15
-63 -24 -161 -57 -240 -222 -173 -359 44 -89 119 -143 238 -171 52 -12 176
-15 731 -15 l667 0 0 30 0 30 -282 0 c-317 0 -334 3 -395 73 -42 48 -56 96
-51 177 7 131 88 200 244 208 l84 5 0 28 c0 19 -5 29 -15 29 -8 0 -15 5 -15
10 0 7 -245 10 -715 10 -461 0 -715 -3 -715 -10z"/>
<path d="M4192 3118 c-18 -18 -14 -53 8 -73 17 -15 24 -16 45 -7 32 15 41 37
27 68 -13 27 -58 34 -80 12z"/>
<path d="M6800 3070 c-11 -7 4 -10 48 -10 40 0 61 4 57 10 -8 13 -85 13 -105
0z"/>
<path d="M3773 2960 c-57 -26 -85 -71 -80 -130 4 -52 59 -166 77 -162 6 1 9
-2 5 -8 -9 -15 15 -42 31 -36 7 3 18 -2 24 -10 7 -8 9 -14 4 -14 -4 0 3 -12
17 -27 l24 -28 -27 24 c-15 13 -25 28 -21 34 4 6 1 7 -7 2 -9 -6 -11 -4 -5 5
5 9 4 11 -4 6 -12 -8 26 -63 70 -101 l24 -20 -15 20 c-8 11 -10 17 -6 13 5 -4
16 -2 24 5 13 10 14 9 7 -3 -5 -8 -10 -21 -11 -28 -3 -16 68 -95 106 -119 15
-9 20 -10 13 -2 -7 7 -13 21 -13 31 0 11 -7 18 -18 18 -27 0 -43 35 -37 80 4
30 -4 68 -30 144 -31 89 -34 107 -24 130 7 14 18 26 25 26 6 0 14 6 17 14 3 8
26 18 50 21 53 8 178 -23 246 -61 47 -26 55 -29 47 -15 -4 5 4 7 16 3 16 -4
19 -2 13 8 -5 9 -4 11 4 6 6 -4 21 -4 33 0 20 6 18 8 -18 30 -48 30 -211 110
-241 119 -21 6 -23 3 -23 -30 0 -50 -22 -41 -34 13 -8 37 -13 43 -45 52 -60
17 -171 12 -218 -10z m124 4 c-3 -3 -12 -4 -19 -1 -8 3 -5 6 6 6 11 1 17 -2
13 -5z m60 0 c-3 -3 -12 -4 -19 -1 -8 3 -5 6 6 6 11 1 17 -2 13 -5z m13 -24
c8 -5 11 -10 5 -10 -5 0 -17 5 -25 10 -8 5 -10 10 -5 10 6 0 17 -5 25 -10z
m-248 -86 c2 -7 -1 -14 -6 -15 -5 -2 -10 6 -11 19 -2 22 10 19 17 -4z m208
-274 c0 -5 -5 -10 -11 -10 -5 0 -7 5 -4 10 3 6 8 10 11 10 2 0 4 -4 4 -10z"/>
<path d="M4230 2743 c0 -20 111 -547 116 -552 7 -7 63 60 64 76 0 11 -51 284
-81 431 l-10 52 -45 0 c-24 0 -44 -3 -44 -7z"/>
<path d="M3261 2557 c-56 -33 -66 -112 -25 -196 18 -36 31 -50 41 -47 8 3 11
1 8 -5 -4 -5 13 -27 36 -49 41 -38 46 -39 119 -42 l75 -3 -37 -19 c-34 -18
-44 -44 -11 -32 8 3 11 1 8 -4 -16 -26 558 -260 581 -237 5 5 61 214 70 263 6
28 3 32 -24 37 -23 5 -33 14 -43 42 -13 36 -62 71 -82 58 -5 -3 -7 -1 -4 4 8
13 -20 26 -35 16 -7 -3 -8 -1 -4 5 10 16 -195 114 -220 106 -13 -4 -15 -3 -6
3 9 7 6 12 -13 21 -25 11 -25 11 -25 -35 0 -54 -9 -50 -31 15 l-16 47 -89 28
c-106 34 -236 46 -273 24z m149 -1 c0 -2 -13 -6 -29 -8 -17 -2 -28 -1 -25 4 5
8 54 12 54 4z m205 -65 c3 -5 2 -12 -3 -15 -5 -3 -9 1 -9 9 0 17 3 19 12 6z
m263 -115 c3 -3 -14 -4 -37 -2 -23 2 -44 6 -47 9 -4 3 13 4 36 2 23 -2 45 -6
48 -9z m-528 -111 c19 -14 30 -25 26 -25 -14 0 -76 52 -76 64 0 7 3 7 8 -2 5
-6 23 -23 42 -37z m83 -32 c-7 -2 -19 -2 -25 0 -7 3 -2 5 12 5 14 0 19 -2 13
-5z m84 -53 c1 -11 -4 -20 -10 -20 -7 0 -6 -4 3 -10 8 -5 10 -10 4 -10 -18 0
-24 13 -13 27 9 10 8 13 -2 13 -11 0 -11 2 1 10 8 5 15 10 15 10 1 0 1 -9 2
-20z m141 -79 c11 -7 10 -9 -3 -14 -9 -4 -14 -3 -10 2 3 5 -1 12 -7 14 -7 3
-8 6 -3 6 6 0 16 -3 23 -8z m396 -137 c3 -8 2 -12 -4 -9 -6 3 -10 10 -10 16 0
14 7 11 14 -7z m-26 -19 c-3 -3 -9 2 -12 12 -6 14 -5 15 5 6 7 -7 10 -15 7
-18z"/>
<path d="M3657 1880 c-38 -5 -71 -10 -73 -12 -2 -3 6 -15 17 -27 28 -29 19
-36 -20 -16 -18 9 -37 13 -43 9 -7 -4 -8 -3 -4 4 10 17 -19 15 -54 -3 -39 -20
-70 -62 -70 -96 0 -54 93 -98 281 -134 44 -8 84 -16 88 -17 3 -1 -109 -5 -249
-8 -218 -4 -255 -7 -255 -20 0 -13 46 -15 340 -17 l340 -3 27 55 c25 52 25 55
7 55 -26 0 -24 18 4 31 19 9 26 23 35 82 7 40 15 81 18 93 3 13 1 21 -8 21 -7
0 -80 3 -163 6 -82 3 -181 2 -218 -3z m-12 -20 c-27 -12 -43 -12 -25 0 8 5 22
9 30 9 10 0 8 -3 -5 -9z m-85 -44 c0 -2 -7 -7 -16 -10 -8 -3 -12 -2 -9 4 6 10
25 14 25 6z"/>
</g>
</svg>
